M48
; DRILL file {KiCad 9.0.3} date 2025-07-22T13:01:07-0500
; FORMAT={-:-/ absolute / inch / decimal}
; #@! TF.CreationDate,2025-07-22T13:01:07-05:00
; #@! TF.GenerationSoftware,Kicad,Pcbnew,9.0.3
; #@! TF.FileFunction,Plated,1,2,PTH
FMAT,2
INCH
; #@! TA.AperFunction,Plated,PTH,ViaDrill
T1C0.0118
; #@! TA.AperFunction,Plated,PTH,ComponentDrill
T2C0.0197
; #@! TA.AperFunction,Plated,PTH,ComponentDrill
T3C0.0276
; #@! TA.AperFunction,Plated,PTH,ComponentDrill
T4C0.0315
; #@! TA.AperFunction,Plated,PTH,ComponentDrill
T5C0.0394
; #@! TA.AperFunction,Plated,PTH,ComponentDrill
T6C0.0398
; #@! TA.AperFunction,Plated,PTH,ComponentDrill
T7C0.0512
; #@! TA.AperFunction,Plated,PTH,ComponentDrill
T8C0.0728
; #@! TA.AperFunction,Plated,PTH,ComponentDrill
T9C0.0866
; #@! TA.AperFunction,Plated,PTH,ComponentDrill
T10C0.0984
%
G90
G05
T1
X6.6191Y-4.4823
X7.5862Y-4.4823
X7.8337Y-5.1594
X8.8866Y-4.4843
X9.0295Y-5.6506
X10.1669Y-4.4813
X11.346Y-4.4793
T2
X3.2333Y-3.7854
X3.2333Y-4.6929
X3.2333Y-5.7146
X3.2549Y-3.7332
X3.2549Y-3.8376
X3.2549Y-4.6407
X3.2549Y-4.7451
X3.2549Y-5.6624
X3.2549Y-5.7668
X3.3071Y-3.7116
X3.3071Y-3.8593
X3.3071Y-4.6191
X3.3071Y-4.7667
X3.3071Y-5.6407
X3.3071Y-5.7884
X3.3593Y-3.7332
X3.3593Y-3.8376
X3.3593Y-4.6407
X3.3593Y-4.7451
X3.3593Y-5.6624
X3.3593Y-5.7668
X3.3809Y-3.7854
X3.3809Y-4.6929
X3.3809Y-5.7146
X5.5167Y-3.7854
X5.5167Y-4.6929
X5.5167Y-5.7146
X5.5384Y-3.7332
X5.5384Y-3.8376
X5.5384Y-4.6407
X5.5384Y-4.7451
X5.5384Y-5.6624
X5.5384Y-5.7668
X5.5906Y-3.7116
X5.5906Y-3.8593
X5.5906Y-4.6191
X5.5906Y-4.7667
X5.5906Y-5.6407
X5.5906Y-5.7884
X5.6427Y-3.7332
X5.6427Y-3.8376
X5.6427Y-4.6407
X5.6427Y-4.7451
X5.6427Y-5.6624
X5.6427Y-5.7668
X5.6644Y-3.7854
X5.6644Y-4.6929
X5.6644Y-5.7146
T3
X5.7874Y-3.5
X5.7874Y-3.5984
X7.7923Y-4.5787
X7.8907Y-4.5787
X9.0955Y-4.5817
X9.1939Y-4.5817
X10.3642Y-4.5728
X10.4626Y-4.5728
X11.5531Y-4.5728
X11.6516Y-4.5728
T4
X5.8602Y-4.2136
X5.8602Y-4.3136
X6.1602Y-4.2136
X6.1602Y-4.3136
X6.3896Y-5.3307
X6.4683Y-5.3307
X7.0689Y-3.1183
X7.0689Y-3.1971
X8.374Y-3.1183
X8.374Y-3.1971
X9.6752Y-3.1142
X9.6752Y-3.1929
T5
X3.5008Y-3.7366
X3.5008Y-3.8366
X3.6008Y-3.7366
X3.6008Y-3.8366
X3.7008Y-3.7366
X3.7008Y-3.8366
X3.8008Y-3.7366
X3.8008Y-3.8366
X3.9008Y-3.7366
X3.9008Y-3.8366
X4.0008Y-3.7366
X4.0008Y-3.8366
X4.1008Y-3.7366
X4.1008Y-3.8366
X4.2008Y-3.7366
X4.2008Y-3.8366
X4.3008Y-3.7366
X4.3008Y-3.8366
X4.4008Y-3.7366
X4.4008Y-3.8366
X4.5008Y-3.7366
X4.5008Y-3.8366
X4.6008Y-3.7366
X4.6008Y-3.8366
X4.7008Y-3.7366
X4.7008Y-3.8366
X4.8008Y-3.7366
X4.8008Y-3.8366
X4.9008Y-3.7366
X4.9008Y-3.8366
X5.0008Y-3.7366
X5.0008Y-3.8366
X5.1008Y-3.7366
X5.1008Y-3.8366
X5.2008Y-3.7366
X5.2008Y-3.8366
X5.3008Y-3.7366
X5.3008Y-3.8366
X5.4008Y-3.7366
X5.4008Y-3.8366
X6.125Y-3.836
X6.125Y-3.936
X6.225Y-3.836
X6.225Y-3.936
X6.325Y-3.836
X6.325Y-3.936
X6.425Y-3.836
X6.425Y-3.936
X6.525Y-3.836
X6.525Y-3.936
X6.625Y-3.836
X6.625Y-3.936
X7.5315Y-4.8299
X7.5315Y-4.9299
X7.5335Y-3.1508
X7.5335Y-3.2508
X7.6315Y-4.8299
X7.6315Y-4.9299
X7.6335Y-3.1508
X7.6335Y-3.2508
X7.7315Y-4.8299
X7.7315Y-4.9299
X7.7335Y-3.1508
X7.7335Y-3.2508
X7.8315Y-4.8299
X7.8315Y-4.9299
X7.8335Y-3.1508
X7.8335Y-3.2508
X7.9315Y-4.8299
X7.9315Y-4.9299
X7.9335Y-3.1508
X7.9335Y-3.2508
X8.8307Y-3.139
X8.8307Y-3.239
X8.8319Y-4.8181
X8.8319Y-4.9181
X8.9307Y-3.139
X8.9307Y-3.239
X8.9319Y-4.8181
X8.9319Y-4.9181
X9.0307Y-3.139
X9.0307Y-3.239
X9.0319Y-4.8181
X9.0319Y-4.9181
X9.1307Y-3.139
X9.1307Y-3.239
X9.1319Y-4.8181
X9.1319Y-4.9181
X9.2307Y-3.139
X9.2307Y-3.239
X9.2319Y-4.8181
X9.2319Y-4.9181
X10.1122Y-4.8075
X10.1122Y-4.9075
X10.1161Y-3.1488
X10.1161Y-3.2488
X10.2122Y-4.8075
X10.2122Y-4.9075
X10.2161Y-3.1488
X10.2161Y-3.2488
X10.3122Y-4.8075
X10.3122Y-4.9075
X10.3161Y-3.1488
X10.3161Y-3.2488
X10.4122Y-4.8075
X10.4122Y-4.9075
X10.4161Y-3.1488
X10.4161Y-3.2488
X10.5122Y-4.8075
X10.5122Y-4.9075
X10.5161Y-3.1488
X10.5161Y-3.2488
X11.2874Y-3.139
X11.2874Y-3.239
X11.2913Y-4.8075
X11.2913Y-4.9075
X11.3874Y-3.139
X11.3874Y-3.239
X11.3913Y-4.8075
X11.3913Y-4.9075
X11.4874Y-3.139
X11.4874Y-3.239
X11.4913Y-4.8075
X11.4913Y-4.9075
X11.5874Y-3.139
X11.5874Y-3.239
X11.5913Y-4.8075
X11.5913Y-4.9075
X11.6874Y-3.139
X11.6874Y-3.239
X11.6913Y-4.8075
X11.6913Y-4.9075
T6
X7.1535Y-6.4104
X7.4488Y-6.4892
X7.9557Y-6.4293
X8.1545Y-6.4754
T7
X5.9693Y-6.1799
X6.3366Y-6.1831
X9.3821Y-6.4595
X9.5821Y-6.4595
X10.0429Y-6.4595
X10.2429Y-6.4595
X10.4429Y-6.4595
X10.6429Y-6.4595
X10.8429Y-6.4595
X11.0429Y-6.4595
X11.2429Y-6.4595
X11.4429Y-6.4595
X11.6429Y-6.4595
X11.8429Y-6.4595
T8
X8.5Y-6.3613
X8.5Y-6.5613
X8.625Y-6.4613
X8.8101Y-6.4613
X8.9951Y-6.4613
X9.1201Y-6.3613
X9.1201Y-6.5613
T9
X7.3386Y-4.8445
X7.3406Y-3.1654
X7.3406Y-6.0177
X7.3425Y-4.3386
X8.1201Y-4.8465
X8.122Y-3.1673
X8.1398Y-6.0177
X8.1417Y-4.3386
X8.6378Y-3.1535
X8.639Y-4.8327
X8.6398Y-4.3268
X8.6409Y-6.0059
X9.4193Y-3.1555
X9.4205Y-4.8346
X9.439Y-4.3268
X9.4402Y-6.0059
X9.9193Y-4.822
X9.9213Y-5.9953
X9.9232Y-3.1634
X9.9252Y-4.3366
X10.7008Y-4.824
X10.7047Y-3.1654
X10.7205Y-5.9953
X10.7244Y-4.3366
X11.0945Y-3.1535
X11.0965Y-4.3268
X11.0984Y-4.822
X11.1004Y-5.9953
X11.876Y-3.1555
X11.8799Y-4.824
X11.8957Y-4.3268
X11.8996Y-5.9953
T10
X3.3071Y-3.7854
X3.3071Y-4.6929
X3.3071Y-5.7146
X5.5906Y-3.7854
X5.5906Y-4.6929
X5.5906Y-5.7146
M30
