%TF.GenerationSoftware,KiCad,Pcbnew,9.0.3*%
%TF.CreationDate,2025-07-22T13:01:07-05:00*%
%TF.ProjectId,Garden PCB,47617264-656e-4205-9043-422e6b696361,rev?*%
%TF.SameCoordinates,Original*%
%TF.FileFunction,Drillmap*%
%TF.FilePolarity,Positive*%
%FSLAX45Y45*%
G04 Gerber Fmt 4.5, Leading zero omitted, Abs format (unit mm)*
G04 Created by KiCad (PCBNEW 9.0.3) date 2025-07-22 13:01:07*
%MOMM*%
%LPD*%
G01*
G04 APERTURE LIST*
%ADD10C,0.050000*%
%ADD11C,0.200000*%
%ADD12C,0.100000*%
%ADD13C,0.101000*%
%ADD14C,0.130000*%
%ADD15C,0.185000*%
%ADD16C,0.220000*%
%ADD17C,0.250000*%
G04 APERTURE END LIST*
D10*
X5605000Y-7290000D02*
X30605000Y-7290000D01*
X30605000Y-17290000D01*
X5605000Y-17290000D01*
X5605000Y-7290000D01*
D11*
D12*
X16797500Y-11370000D02*
X16827500Y-11400000D01*
X16827500Y-11370000D02*
X16797500Y-11400000D01*
X19253900Y-11370000D02*
X19283900Y-11400000D01*
X19283900Y-11370000D02*
X19253900Y-11400000D01*
X19882500Y-13090000D02*
X19912500Y-13120000D01*
X19912500Y-13090000D02*
X19882500Y-13120000D01*
X22556900Y-11375000D02*
X22586900Y-11405000D01*
X22586900Y-11375000D02*
X22556900Y-11405000D01*
X22920000Y-14337500D02*
X22950000Y-14367500D01*
X22950000Y-14337500D02*
X22920000Y-14367500D01*
X25808900Y-11367500D02*
X25838900Y-11397500D01*
X25838900Y-11367500D02*
X25808900Y-11397500D01*
X28803900Y-11362500D02*
X28833900Y-11392500D01*
X28833900Y-11362500D02*
X28803900Y-11392500D01*
X8237500Y-9615000D02*
G75*
G02*
X8187500Y-9615000I-25000J0D01*
G01*
X8187500Y-9615000D02*
G75*
G02*
X8237500Y-9615000I25000J0D01*
G01*
X8237500Y-11920000D02*
G75*
G02*
X8187500Y-11920000I-25000J0D01*
G01*
X8187500Y-11920000D02*
G75*
G02*
X8237500Y-11920000I25000J0D01*
G01*
X8237500Y-14515000D02*
G75*
G02*
X8187500Y-14515000I-25000J0D01*
G01*
X8187500Y-14515000D02*
G75*
G02*
X8237500Y-14515000I25000J0D01*
G01*
X8292417Y-9482418D02*
G75*
G02*
X8242417Y-9482418I-25000J0D01*
G01*
X8242417Y-9482418D02*
G75*
G02*
X8292417Y-9482418I25000J0D01*
G01*
X8292417Y-9747583D02*
G75*
G02*
X8242417Y-9747583I-25000J0D01*
G01*
X8242417Y-9747583D02*
G75*
G02*
X8292417Y-9747583I25000J0D01*
G01*
X8292417Y-11787417D02*
G75*
G02*
X8242417Y-11787417I-25000J0D01*
G01*
X8242417Y-11787417D02*
G75*
G02*
X8292417Y-11787417I25000J0D01*
G01*
X8292417Y-12052582D02*
G75*
G02*
X8242417Y-12052582I-25000J0D01*
G01*
X8242417Y-12052582D02*
G75*
G02*
X8292417Y-12052582I25000J0D01*
G01*
X8292417Y-14382417D02*
G75*
G02*
X8242417Y-14382417I-25000J0D01*
G01*
X8242417Y-14382417D02*
G75*
G02*
X8292417Y-14382417I25000J0D01*
G01*
X8292417Y-14647582D02*
G75*
G02*
X8242417Y-14647582I-25000J0D01*
G01*
X8242417Y-14647582D02*
G75*
G02*
X8292417Y-14647582I25000J0D01*
G01*
X8425000Y-9427500D02*
G75*
G02*
X8375000Y-9427500I-25000J0D01*
G01*
X8375000Y-9427500D02*
G75*
G02*
X8425000Y-9427500I25000J0D01*
G01*
X8425000Y-9802500D02*
G75*
G02*
X8375000Y-9802500I-25000J0D01*
G01*
X8375000Y-9802500D02*
G75*
G02*
X8425000Y-9802500I25000J0D01*
G01*
X8425000Y-11732500D02*
G75*
G02*
X8375000Y-11732500I-25000J0D01*
G01*
X8375000Y-11732500D02*
G75*
G02*
X8425000Y-11732500I25000J0D01*
G01*
X8425000Y-12107500D02*
G75*
G02*
X8375000Y-12107500I-25000J0D01*
G01*
X8375000Y-12107500D02*
G75*
G02*
X8425000Y-12107500I25000J0D01*
G01*
X8425000Y-14327500D02*
G75*
G02*
X8375000Y-14327500I-25000J0D01*
G01*
X8375000Y-14327500D02*
G75*
G02*
X8425000Y-14327500I25000J0D01*
G01*
X8425000Y-14702500D02*
G75*
G02*
X8375000Y-14702500I-25000J0D01*
G01*
X8375000Y-14702500D02*
G75*
G02*
X8425000Y-14702500I25000J0D01*
G01*
X8557583Y-9482418D02*
G75*
G02*
X8507583Y-9482418I-25000J0D01*
G01*
X8507583Y-9482418D02*
G75*
G02*
X8557583Y-9482418I25000J0D01*
G01*
X8557583Y-9747583D02*
G75*
G02*
X8507583Y-9747583I-25000J0D01*
G01*
X8507583Y-9747583D02*
G75*
G02*
X8557583Y-9747583I25000J0D01*
G01*
X8557583Y-11787417D02*
G75*
G02*
X8507583Y-11787417I-25000J0D01*
G01*
X8507583Y-11787417D02*
G75*
G02*
X8557583Y-11787417I25000J0D01*
G01*
X8557583Y-12052582D02*
G75*
G02*
X8507583Y-12052582I-25000J0D01*
G01*
X8507583Y-12052582D02*
G75*
G02*
X8557583Y-12052582I25000J0D01*
G01*
X8557583Y-14382417D02*
G75*
G02*
X8507583Y-14382417I-25000J0D01*
G01*
X8507583Y-14382417D02*
G75*
G02*
X8557583Y-14382417I25000J0D01*
G01*
X8557583Y-14647582D02*
G75*
G02*
X8507583Y-14647582I-25000J0D01*
G01*
X8507583Y-14647582D02*
G75*
G02*
X8557583Y-14647582I25000J0D01*
G01*
X8612500Y-9615000D02*
G75*
G02*
X8562500Y-9615000I-25000J0D01*
G01*
X8562500Y-9615000D02*
G75*
G02*
X8612500Y-9615000I25000J0D01*
G01*
X8612500Y-11920000D02*
G75*
G02*
X8562500Y-11920000I-25000J0D01*
G01*
X8562500Y-11920000D02*
G75*
G02*
X8612500Y-11920000I25000J0D01*
G01*
X8612500Y-14515000D02*
G75*
G02*
X8562500Y-14515000I-25000J0D01*
G01*
X8562500Y-14515000D02*
G75*
G02*
X8612500Y-14515000I25000J0D01*
G01*
X14037500Y-9615000D02*
G75*
G02*
X13987500Y-9615000I-25000J0D01*
G01*
X13987500Y-9615000D02*
G75*
G02*
X14037500Y-9615000I25000J0D01*
G01*
X14037500Y-11920000D02*
G75*
G02*
X13987500Y-11920000I-25000J0D01*
G01*
X13987500Y-11920000D02*
G75*
G02*
X14037500Y-11920000I25000J0D01*
G01*
X14037500Y-14515000D02*
G75*
G02*
X13987500Y-14515000I-25000J0D01*
G01*
X13987500Y-14515000D02*
G75*
G02*
X14037500Y-14515000I25000J0D01*
G01*
X14092417Y-9482418D02*
G75*
G02*
X14042417Y-9482418I-25000J0D01*
G01*
X14042417Y-9482418D02*
G75*
G02*
X14092417Y-9482418I25000J0D01*
G01*
X14092417Y-9747583D02*
G75*
G02*
X14042417Y-9747583I-25000J0D01*
G01*
X14042417Y-9747583D02*
G75*
G02*
X14092417Y-9747583I25000J0D01*
G01*
X14092417Y-11787417D02*
G75*
G02*
X14042417Y-11787417I-25000J0D01*
G01*
X14042417Y-11787417D02*
G75*
G02*
X14092417Y-11787417I25000J0D01*
G01*
X14092417Y-12052582D02*
G75*
G02*
X14042417Y-12052582I-25000J0D01*
G01*
X14042417Y-12052582D02*
G75*
G02*
X14092417Y-12052582I25000J0D01*
G01*
X14092417Y-14382417D02*
G75*
G02*
X14042417Y-14382417I-25000J0D01*
G01*
X14042417Y-14382417D02*
G75*
G02*
X14092417Y-14382417I25000J0D01*
G01*
X14092417Y-14647582D02*
G75*
G02*
X14042417Y-14647582I-25000J0D01*
G01*
X14042417Y-14647582D02*
G75*
G02*
X14092417Y-14647582I25000J0D01*
G01*
X14225000Y-9427500D02*
G75*
G02*
X14175000Y-9427500I-25000J0D01*
G01*
X14175000Y-9427500D02*
G75*
G02*
X14225000Y-9427500I25000J0D01*
G01*
X14225000Y-9802500D02*
G75*
G02*
X14175000Y-9802500I-25000J0D01*
G01*
X14175000Y-9802500D02*
G75*
G02*
X14225000Y-9802500I25000J0D01*
G01*
X14225000Y-11732500D02*
G75*
G02*
X14175000Y-11732500I-25000J0D01*
G01*
X14175000Y-11732500D02*
G75*
G02*
X14225000Y-11732500I25000J0D01*
G01*
X14225000Y-12107500D02*
G75*
G02*
X14175000Y-12107500I-25000J0D01*
G01*
X14175000Y-12107500D02*
G75*
G02*
X14225000Y-12107500I25000J0D01*
G01*
X14225000Y-14327500D02*
G75*
G02*
X14175000Y-14327500I-25000J0D01*
G01*
X14175000Y-14327500D02*
G75*
G02*
X14225000Y-14327500I25000J0D01*
G01*
X14225000Y-14702500D02*
G75*
G02*
X14175000Y-14702500I-25000J0D01*
G01*
X14175000Y-14702500D02*
G75*
G02*
X14225000Y-14702500I25000J0D01*
G01*
X14357582Y-9482418D02*
G75*
G02*
X14307582Y-9482418I-25000J0D01*
G01*
X14307582Y-9482418D02*
G75*
G02*
X14357582Y-9482418I25000J0D01*
G01*
X14357582Y-9747583D02*
G75*
G02*
X14307582Y-9747583I-25000J0D01*
G01*
X14307582Y-9747583D02*
G75*
G02*
X14357582Y-9747583I25000J0D01*
G01*
X14357582Y-11787417D02*
G75*
G02*
X14307582Y-11787417I-25000J0D01*
G01*
X14307582Y-11787417D02*
G75*
G02*
X14357582Y-11787417I25000J0D01*
G01*
X14357582Y-12052582D02*
G75*
G02*
X14307582Y-12052582I-25000J0D01*
G01*
X14307582Y-12052582D02*
G75*
G02*
X14357582Y-12052582I25000J0D01*
G01*
X14357582Y-14382417D02*
G75*
G02*
X14307582Y-14382417I-25000J0D01*
G01*
X14307582Y-14382417D02*
G75*
G02*
X14357582Y-14382417I25000J0D01*
G01*
X14357582Y-14647582D02*
G75*
G02*
X14307582Y-14647582I-25000J0D01*
G01*
X14307582Y-14647582D02*
G75*
G02*
X14357582Y-14647582I25000J0D01*
G01*
X14412500Y-9615000D02*
G75*
G02*
X14362500Y-9615000I-25000J0D01*
G01*
X14362500Y-9615000D02*
G75*
G02*
X14412500Y-9615000I25000J0D01*
G01*
X14412500Y-11920000D02*
G75*
G02*
X14362500Y-11920000I-25000J0D01*
G01*
X14362500Y-11920000D02*
G75*
G02*
X14412500Y-11920000I25000J0D01*
G01*
X14412500Y-14515000D02*
G75*
G02*
X14362500Y-14515000I-25000J0D01*
G01*
X14362500Y-14515000D02*
G75*
G02*
X14412500Y-14515000I25000J0D01*
G01*
X14700000Y-8855000D02*
X14700000Y-8925000D01*
X14665000Y-8890000D02*
X14735000Y-8890000D01*
X14700000Y-9105000D02*
X14700000Y-9175000D01*
X14665000Y-9140000D02*
X14735000Y-9140000D01*
X19792500Y-11595000D02*
X19792500Y-11665000D01*
X19757500Y-11630000D02*
X19827500Y-11630000D01*
X20042500Y-11595000D02*
X20042500Y-11665000D01*
X20007500Y-11630000D02*
X20077500Y-11630000D01*
X23102500Y-11602500D02*
X23102500Y-11672500D01*
X23067500Y-11637500D02*
X23137500Y-11637500D01*
X23352500Y-11602500D02*
X23352500Y-11672500D01*
X23317500Y-11637500D02*
X23387500Y-11637500D01*
X26325000Y-11580000D02*
X26325000Y-11650000D01*
X26290000Y-11615000D02*
X26360000Y-11615000D01*
X26575000Y-11580000D02*
X26575000Y-11650000D01*
X26540000Y-11615000D02*
X26610000Y-11615000D01*
X29345000Y-11580000D02*
X29345000Y-11650000D01*
X29310000Y-11615000D02*
X29380000Y-11615000D01*
X29595000Y-11580000D02*
X29595000Y-11650000D01*
X29560000Y-11615000D02*
X29630000Y-11615000D01*
X14913284Y-10730785D02*
X14913284Y-10674216D01*
X14856715Y-10674216D01*
X14856715Y-10730785D01*
X14913284Y-10730785D01*
X14913284Y-10984785D02*
X14913284Y-10928216D01*
X14856715Y-10928216D01*
X14856715Y-10984785D01*
X14913284Y-10984785D01*
X15675284Y-10730785D02*
X15675284Y-10674216D01*
X15618715Y-10674216D01*
X15618715Y-10730785D01*
X15675284Y-10730785D01*
X15675284Y-10984785D02*
X15675284Y-10928216D01*
X15618715Y-10928216D01*
X15618715Y-10984785D01*
X15675284Y-10984785D01*
X16257773Y-13568284D02*
X16257773Y-13511715D01*
X16201204Y-13511715D01*
X16201204Y-13568284D01*
X16257773Y-13568284D01*
X16457773Y-13568284D02*
X16457773Y-13511715D01*
X16401204Y-13511715D01*
X16401204Y-13568284D01*
X16457773Y-13568284D01*
X17983285Y-7948796D02*
X17983285Y-7892227D01*
X17926716Y-7892227D01*
X17926716Y-7948796D01*
X17983285Y-7948796D01*
X17983285Y-8148796D02*
X17983285Y-8092227D01*
X17926716Y-8092227D01*
X17926716Y-8148796D01*
X17983285Y-8148796D01*
X21298285Y-7948796D02*
X21298285Y-7892227D01*
X21241716Y-7892227D01*
X21241716Y-7948796D01*
X21298285Y-7948796D01*
X21298285Y-8148796D02*
X21298285Y-8092227D01*
X21241716Y-8092227D01*
X21241716Y-8148796D01*
X21298285Y-8148796D01*
X24603284Y-7938284D02*
X24603284Y-7881715D01*
X24546715Y-7881715D01*
X24546715Y-7938284D01*
X24603284Y-7938284D01*
X24603284Y-8138284D02*
X24603284Y-8081715D01*
X24546715Y-8081715D01*
X24546715Y-8138284D01*
X24603284Y-8138284D01*
X8892000Y-9541000D02*
X8942000Y-9491000D01*
X8892000Y-9441000D01*
X8842000Y-9491000D01*
X8892000Y-9541000D01*
X8892000Y-9795000D02*
X8942000Y-9745000D01*
X8892000Y-9695000D01*
X8842000Y-9745000D01*
X8892000Y-9795000D01*
X9146000Y-9541000D02*
X9196000Y-9491000D01*
X9146000Y-9441000D01*
X9096000Y-9491000D01*
X9146000Y-9541000D01*
X9146000Y-9795000D02*
X9196000Y-9745000D01*
X9146000Y-9695000D01*
X9096000Y-9745000D01*
X9146000Y-9795000D01*
X9400000Y-9541000D02*
X9450000Y-9491000D01*
X9400000Y-9441000D01*
X9350000Y-9491000D01*
X9400000Y-9541000D01*
X9400000Y-9795000D02*
X9450000Y-9745000D01*
X9400000Y-9695000D01*
X9350000Y-9745000D01*
X9400000Y-9795000D01*
X9654000Y-9541000D02*
X9704000Y-9491000D01*
X9654000Y-9441000D01*
X9604000Y-9491000D01*
X9654000Y-9541000D01*
X9654000Y-9795000D02*
X9704000Y-9745000D01*
X9654000Y-9695000D01*
X9604000Y-9745000D01*
X9654000Y-9795000D01*
X9908000Y-9541000D02*
X9958000Y-9491000D01*
X9908000Y-9441000D01*
X9858000Y-9491000D01*
X9908000Y-9541000D01*
X9908000Y-9795000D02*
X9958000Y-9745000D01*
X9908000Y-9695000D01*
X9858000Y-9745000D01*
X9908000Y-9795000D01*
X10162000Y-9541000D02*
X10212000Y-9491000D01*
X10162000Y-9441000D01*
X10112000Y-9491000D01*
X10162000Y-9541000D01*
X10162000Y-9795000D02*
X10212000Y-9745000D01*
X10162000Y-9695000D01*
X10112000Y-9745000D01*
X10162000Y-9795000D01*
X10416000Y-9541000D02*
X10466000Y-9491000D01*
X10416000Y-9441000D01*
X10366000Y-9491000D01*
X10416000Y-9541000D01*
X10416000Y-9795000D02*
X10466000Y-9745000D01*
X10416000Y-9695000D01*
X10366000Y-9745000D01*
X10416000Y-9795000D01*
X10670000Y-9541000D02*
X10720000Y-9491000D01*
X10670000Y-9441000D01*
X10620000Y-9491000D01*
X10670000Y-9541000D01*
X10670000Y-9795000D02*
X10720000Y-9745000D01*
X10670000Y-9695000D01*
X10620000Y-9745000D01*
X10670000Y-9795000D01*
X10924000Y-9541000D02*
X10974000Y-9491000D01*
X10924000Y-9441000D01*
X10874000Y-9491000D01*
X10924000Y-9541000D01*
X10924000Y-9795000D02*
X10974000Y-9745000D01*
X10924000Y-9695000D01*
X10874000Y-9745000D01*
X10924000Y-9795000D01*
X11178000Y-9541000D02*
X11228000Y-9491000D01*
X11178000Y-9441000D01*
X11128000Y-9491000D01*
X11178000Y-9541000D01*
X11178000Y-9795000D02*
X11228000Y-9745000D01*
X11178000Y-9695000D01*
X11128000Y-9745000D01*
X11178000Y-9795000D01*
X11432000Y-9541000D02*
X11482000Y-9491000D01*
X11432000Y-9441000D01*
X11382000Y-9491000D01*
X11432000Y-9541000D01*
X11432000Y-9795000D02*
X11482000Y-9745000D01*
X11432000Y-9695000D01*
X11382000Y-9745000D01*
X11432000Y-9795000D01*
X11686000Y-9541000D02*
X11736000Y-9491000D01*
X11686000Y-9441000D01*
X11636000Y-9491000D01*
X11686000Y-9541000D01*
X11686000Y-9795000D02*
X11736000Y-9745000D01*
X11686000Y-9695000D01*
X11636000Y-9745000D01*
X11686000Y-9795000D01*
X11940000Y-9541000D02*
X11990000Y-9491000D01*
X11940000Y-9441000D01*
X11890000Y-9491000D01*
X11940000Y-9541000D01*
X11940000Y-9795000D02*
X11990000Y-9745000D01*
X11940000Y-9695000D01*
X11890000Y-9745000D01*
X11940000Y-9795000D01*
X12194000Y-9541000D02*
X12244000Y-9491000D01*
X12194000Y-9441000D01*
X12144000Y-9491000D01*
X12194000Y-9541000D01*
X12194000Y-9795000D02*
X12244000Y-9745000D01*
X12194000Y-9695000D01*
X12144000Y-9745000D01*
X12194000Y-9795000D01*
X12448000Y-9541000D02*
X12498000Y-9491000D01*
X12448000Y-9441000D01*
X12398000Y-9491000D01*
X12448000Y-9541000D01*
X12448000Y-9795000D02*
X12498000Y-9745000D01*
X12448000Y-9695000D01*
X12398000Y-9745000D01*
X12448000Y-9795000D01*
X12702000Y-9541000D02*
X12752000Y-9491000D01*
X12702000Y-9441000D01*
X12652000Y-9491000D01*
X12702000Y-9541000D01*
X12702000Y-9795000D02*
X12752000Y-9745000D01*
X12702000Y-9695000D01*
X12652000Y-9745000D01*
X12702000Y-9795000D01*
X12956000Y-9541000D02*
X13006000Y-9491000D01*
X12956000Y-9441000D01*
X12906000Y-9491000D01*
X12956000Y-9541000D01*
X12956000Y-9795000D02*
X13006000Y-9745000D01*
X12956000Y-9695000D01*
X12906000Y-9745000D01*
X12956000Y-9795000D01*
X13210000Y-9541000D02*
X13260000Y-9491000D01*
X13210000Y-9441000D01*
X13160000Y-9491000D01*
X13210000Y-9541000D01*
X13210000Y-9795000D02*
X13260000Y-9745000D01*
X13210000Y-9695000D01*
X13160000Y-9745000D01*
X13210000Y-9795000D01*
X13464000Y-9541000D02*
X13514000Y-9491000D01*
X13464000Y-9441000D01*
X13414000Y-9491000D01*
X13464000Y-9541000D01*
X13464000Y-9795000D02*
X13514000Y-9745000D01*
X13464000Y-9695000D01*
X13414000Y-9745000D01*
X13464000Y-9795000D01*
X13718000Y-9541000D02*
X13768000Y-9491000D01*
X13718000Y-9441000D01*
X13668000Y-9491000D01*
X13718000Y-9541000D01*
X13718000Y-9795000D02*
X13768000Y-9745000D01*
X13718000Y-9695000D01*
X13668000Y-9745000D01*
X13718000Y-9795000D01*
X15557500Y-9793500D02*
X15607500Y-9743500D01*
X15557500Y-9693500D01*
X15507500Y-9743500D01*
X15557500Y-9793500D01*
X15557500Y-10047500D02*
X15607500Y-9997500D01*
X15557500Y-9947500D01*
X15507500Y-9997500D01*
X15557500Y-10047500D01*
X15811500Y-9793500D02*
X15861500Y-9743500D01*
X15811500Y-9693500D01*
X15761500Y-9743500D01*
X15811500Y-9793500D01*
X15811500Y-10047500D02*
X15861500Y-9997500D01*
X15811500Y-9947500D01*
X15761500Y-9997500D01*
X15811500Y-10047500D01*
X16065500Y-9793500D02*
X16115500Y-9743500D01*
X16065500Y-9693500D01*
X16015500Y-9743500D01*
X16065500Y-9793500D01*
X16065500Y-10047500D02*
X16115500Y-9997500D01*
X16065500Y-9947500D01*
X16015500Y-9997500D01*
X16065500Y-10047500D01*
X16319500Y-9793500D02*
X16369500Y-9743500D01*
X16319500Y-9693500D01*
X16269500Y-9743500D01*
X16319500Y-9793500D01*
X16319500Y-10047500D02*
X16369500Y-9997500D01*
X16319500Y-9947500D01*
X16269500Y-9997500D01*
X16319500Y-10047500D01*
X16573500Y-9793500D02*
X16623500Y-9743500D01*
X16573500Y-9693500D01*
X16523500Y-9743500D01*
X16573500Y-9793500D01*
X16573500Y-10047500D02*
X16623500Y-9997500D01*
X16573500Y-9947500D01*
X16523500Y-9997500D01*
X16573500Y-10047500D01*
X16827500Y-9793500D02*
X16877500Y-9743500D01*
X16827500Y-9693500D01*
X16777500Y-9743500D01*
X16827500Y-9793500D01*
X16827500Y-10047500D02*
X16877500Y-9997500D01*
X16827500Y-9947500D01*
X16777500Y-9997500D01*
X16827500Y-10047500D01*
X19130000Y-12318000D02*
X19180000Y-12268000D01*
X19130000Y-12218000D01*
X19080000Y-12268000D01*
X19130000Y-12318000D01*
X19130000Y-12572000D02*
X19180000Y-12522000D01*
X19130000Y-12472000D01*
X19080000Y-12522000D01*
X19130000Y-12572000D01*
X19135000Y-8053000D02*
X19185000Y-8003000D01*
X19135000Y-7953000D01*
X19085000Y-8003000D01*
X19135000Y-8053000D01*
X19135000Y-8307000D02*
X19185000Y-8257000D01*
X19135000Y-8207000D01*
X19085000Y-8257000D01*
X19135000Y-8307000D01*
X19384000Y-12318000D02*
X19434000Y-12268000D01*
X19384000Y-12218000D01*
X19334000Y-12268000D01*
X19384000Y-12318000D01*
X19384000Y-12572000D02*
X19434000Y-12522000D01*
X19384000Y-12472000D01*
X19334000Y-12522000D01*
X19384000Y-12572000D01*
X19389000Y-8053000D02*
X19439000Y-8003000D01*
X19389000Y-7953000D01*
X19339000Y-8003000D01*
X19389000Y-8053000D01*
X19389000Y-8307000D02*
X19439000Y-8257000D01*
X19389000Y-8207000D01*
X19339000Y-8257000D01*
X19389000Y-8307000D01*
X19638000Y-12318000D02*
X19688000Y-12268000D01*
X19638000Y-12218000D01*
X19588000Y-12268000D01*
X19638000Y-12318000D01*
X19638000Y-12572000D02*
X19688000Y-12522000D01*
X19638000Y-12472000D01*
X19588000Y-12522000D01*
X19638000Y-12572000D01*
X19643000Y-8053000D02*
X19693000Y-8003000D01*
X19643000Y-7953000D01*
X19593000Y-8003000D01*
X19643000Y-8053000D01*
X19643000Y-8307000D02*
X19693000Y-8257000D01*
X19643000Y-8207000D01*
X19593000Y-8257000D01*
X19643000Y-8307000D01*
X19892000Y-12318000D02*
X19942000Y-12268000D01*
X19892000Y-12218000D01*
X19842000Y-12268000D01*
X19892000Y-12318000D01*
X19892000Y-12572000D02*
X19942000Y-12522000D01*
X19892000Y-12472000D01*
X19842000Y-12522000D01*
X19892000Y-12572000D01*
X19897000Y-8053000D02*
X19947000Y-8003000D01*
X19897000Y-7953000D01*
X19847000Y-8003000D01*
X19897000Y-8053000D01*
X19897000Y-8307000D02*
X19947000Y-8257000D01*
X19897000Y-8207000D01*
X19847000Y-8257000D01*
X19897000Y-8307000D01*
X20146000Y-12318000D02*
X20196000Y-12268000D01*
X20146000Y-12218000D01*
X20096000Y-12268000D01*
X20146000Y-12318000D01*
X20146000Y-12572000D02*
X20196000Y-12522000D01*
X20146000Y-12472000D01*
X20096000Y-12522000D01*
X20146000Y-12572000D01*
X20151000Y-8053000D02*
X20201000Y-8003000D01*
X20151000Y-7953000D01*
X20101000Y-8003000D01*
X20151000Y-8053000D01*
X20151000Y-8307000D02*
X20201000Y-8257000D01*
X20151000Y-8207000D01*
X20101000Y-8257000D01*
X20151000Y-8307000D01*
X22430000Y-8023000D02*
X22480000Y-7973000D01*
X22430000Y-7923000D01*
X22380000Y-7973000D01*
X22430000Y-8023000D01*
X22430000Y-8277000D02*
X22480000Y-8227000D01*
X22430000Y-8177000D01*
X22380000Y-8227000D01*
X22430000Y-8277000D01*
X22433000Y-12288000D02*
X22483000Y-12238000D01*
X22433000Y-12188000D01*
X22383000Y-12238000D01*
X22433000Y-12288000D01*
X22433000Y-12542000D02*
X22483000Y-12492000D01*
X22433000Y-12442000D01*
X22383000Y-12492000D01*
X22433000Y-12542000D01*
X22684000Y-8023000D02*
X22734000Y-7973000D01*
X22684000Y-7923000D01*
X22634000Y-7973000D01*
X22684000Y-8023000D01*
X22684000Y-8277000D02*
X22734000Y-8227000D01*
X22684000Y-8177000D01*
X22634000Y-8227000D01*
X22684000Y-8277000D01*
X22687000Y-12288000D02*
X22737000Y-12238000D01*
X22687000Y-12188000D01*
X22637000Y-12238000D01*
X22687000Y-12288000D01*
X22687000Y-12542000D02*
X22737000Y-12492000D01*
X22687000Y-12442000D01*
X22637000Y-12492000D01*
X22687000Y-12542000D01*
X22938000Y-8023000D02*
X22988000Y-7973000D01*
X22938000Y-7923000D01*
X22888000Y-7973000D01*
X22938000Y-8023000D01*
X22938000Y-8277000D02*
X22988000Y-8227000D01*
X22938000Y-8177000D01*
X22888000Y-8227000D01*
X22938000Y-8277000D01*
X22941000Y-12288000D02*
X22991000Y-12238000D01*
X22941000Y-12188000D01*
X22891000Y-12238000D01*
X22941000Y-12288000D01*
X22941000Y-12542000D02*
X22991000Y-12492000D01*
X22941000Y-12442000D01*
X22891000Y-12492000D01*
X22941000Y-12542000D01*
X23192000Y-8023000D02*
X23242000Y-7973000D01*
X23192000Y-7923000D01*
X23142000Y-7973000D01*
X23192000Y-8023000D01*
X23192000Y-8277000D02*
X23242000Y-8227000D01*
X23192000Y-8177000D01*
X23142000Y-8227000D01*
X23192000Y-8277000D01*
X23195000Y-12288000D02*
X23245000Y-12238000D01*
X23195000Y-12188000D01*
X23145000Y-12238000D01*
X23195000Y-12288000D01*
X23195000Y-12542000D02*
X23245000Y-12492000D01*
X23195000Y-12442000D01*
X23145000Y-12492000D01*
X23195000Y-12542000D01*
X23446000Y-8023000D02*
X23496000Y-7973000D01*
X23446000Y-7923000D01*
X23396000Y-7973000D01*
X23446000Y-8023000D01*
X23446000Y-8277000D02*
X23496000Y-8227000D01*
X23446000Y-8177000D01*
X23396000Y-8227000D01*
X23446000Y-8277000D01*
X23449000Y-12288000D02*
X23499000Y-12238000D01*
X23449000Y-12188000D01*
X23399000Y-12238000D01*
X23449000Y-12288000D01*
X23449000Y-12542000D02*
X23499000Y-12492000D01*
X23449000Y-12442000D01*
X23399000Y-12492000D01*
X23449000Y-12542000D01*
X25685000Y-12261000D02*
X25735000Y-12211000D01*
X25685000Y-12161000D01*
X25635000Y-12211000D01*
X25685000Y-12261000D01*
X25685000Y-12515000D02*
X25735000Y-12465000D01*
X25685000Y-12415000D01*
X25635000Y-12465000D01*
X25685000Y-12515000D01*
X25695000Y-8048000D02*
X25745000Y-7998000D01*
X25695000Y-7948000D01*
X25645000Y-7998000D01*
X25695000Y-8048000D01*
X25695000Y-8302000D02*
X25745000Y-8252000D01*
X25695000Y-8202000D01*
X25645000Y-8252000D01*
X25695000Y-8302000D01*
X25939000Y-12261000D02*
X25989000Y-12211000D01*
X25939000Y-12161000D01*
X25889000Y-12211000D01*
X25939000Y-12261000D01*
X25939000Y-12515000D02*
X25989000Y-12465000D01*
X25939000Y-12415000D01*
X25889000Y-12465000D01*
X25939000Y-12515000D01*
X25949000Y-8048000D02*
X25999000Y-7998000D01*
X25949000Y-7948000D01*
X25899000Y-7998000D01*
X25949000Y-8048000D01*
X25949000Y-8302000D02*
X25999000Y-8252000D01*
X25949000Y-8202000D01*
X25899000Y-8252000D01*
X25949000Y-8302000D01*
X26193000Y-12261000D02*
X26243000Y-12211000D01*
X26193000Y-12161000D01*
X26143000Y-12211000D01*
X26193000Y-12261000D01*
X26193000Y-12515000D02*
X26243000Y-12465000D01*
X26193000Y-12415000D01*
X26143000Y-12465000D01*
X26193000Y-12515000D01*
X26203000Y-8048000D02*
X26253000Y-7998000D01*
X26203000Y-7948000D01*
X26153000Y-7998000D01*
X26203000Y-8048000D01*
X26203000Y-8302000D02*
X26253000Y-8252000D01*
X26203000Y-8202000D01*
X26153000Y-8252000D01*
X26203000Y-8302000D01*
X26447000Y-12261000D02*
X26497000Y-12211000D01*
X26447000Y-12161000D01*
X26397000Y-12211000D01*
X26447000Y-12261000D01*
X26447000Y-12515000D02*
X26497000Y-12465000D01*
X26447000Y-12415000D01*
X26397000Y-12465000D01*
X26447000Y-12515000D01*
X26457000Y-8048000D02*
X26507000Y-7998000D01*
X26457000Y-7948000D01*
X26407000Y-7998000D01*
X26457000Y-8048000D01*
X26457000Y-8302000D02*
X26507000Y-8252000D01*
X26457000Y-8202000D01*
X26407000Y-8252000D01*
X26457000Y-8302000D01*
X26701000Y-12261000D02*
X26751000Y-12211000D01*
X26701000Y-12161000D01*
X26651000Y-12211000D01*
X26701000Y-12261000D01*
X26701000Y-12515000D02*
X26751000Y-12465000D01*
X26701000Y-12415000D01*
X26651000Y-12465000D01*
X26701000Y-12515000D01*
X26711000Y-8048000D02*
X26761000Y-7998000D01*
X26711000Y-7948000D01*
X26661000Y-7998000D01*
X26711000Y-8048000D01*
X26711000Y-8302000D02*
X26761000Y-8252000D01*
X26711000Y-8202000D01*
X26661000Y-8252000D01*
X26711000Y-8302000D01*
X28670000Y-8023000D02*
X28720000Y-7973000D01*
X28670000Y-7923000D01*
X28620000Y-7973000D01*
X28670000Y-8023000D01*
X28670000Y-8277000D02*
X28720000Y-8227000D01*
X28670000Y-8177000D01*
X28620000Y-8227000D01*
X28670000Y-8277000D01*
X28680000Y-12261000D02*
X28730000Y-12211000D01*
X28680000Y-12161000D01*
X28630000Y-12211000D01*
X28680000Y-12261000D01*
X28680000Y-12515000D02*
X28730000Y-12465000D01*
X28680000Y-12415000D01*
X28630000Y-12465000D01*
X28680000Y-12515000D01*
X28924000Y-8023000D02*
X28974000Y-7973000D01*
X28924000Y-7923000D01*
X28874000Y-7973000D01*
X28924000Y-8023000D01*
X28924000Y-8277000D02*
X28974000Y-8227000D01*
X28924000Y-8177000D01*
X28874000Y-8227000D01*
X28924000Y-8277000D01*
X28934000Y-12261000D02*
X28984000Y-12211000D01*
X28934000Y-12161000D01*
X28884000Y-12211000D01*
X28934000Y-12261000D01*
X28934000Y-12515000D02*
X28984000Y-12465000D01*
X28934000Y-12415000D01*
X28884000Y-12465000D01*
X28934000Y-12515000D01*
X29178000Y-8023000D02*
X29228000Y-7973000D01*
X29178000Y-7923000D01*
X29128000Y-7973000D01*
X29178000Y-8023000D01*
X29178000Y-8277000D02*
X29228000Y-8227000D01*
X29178000Y-8177000D01*
X29128000Y-8227000D01*
X29178000Y-8277000D01*
X29188000Y-12261000D02*
X29238000Y-12211000D01*
X29188000Y-12161000D01*
X29138000Y-12211000D01*
X29188000Y-12261000D01*
X29188000Y-12515000D02*
X29238000Y-12465000D01*
X29188000Y-12415000D01*
X29138000Y-12465000D01*
X29188000Y-12515000D01*
X29432000Y-8023000D02*
X29482000Y-7973000D01*
X29432000Y-7923000D01*
X29382000Y-7973000D01*
X29432000Y-8023000D01*
X29432000Y-8277000D02*
X29482000Y-8227000D01*
X29432000Y-8177000D01*
X29382000Y-8227000D01*
X29432000Y-8277000D01*
X29442000Y-12261000D02*
X29492000Y-12211000D01*
X29442000Y-12161000D01*
X29392000Y-12211000D01*
X29442000Y-12261000D01*
X29442000Y-12515000D02*
X29492000Y-12465000D01*
X29442000Y-12415000D01*
X29392000Y-12465000D01*
X29442000Y-12515000D01*
X29686000Y-8023000D02*
X29736000Y-7973000D01*
X29686000Y-7923000D01*
X29636000Y-7973000D01*
X29686000Y-8023000D01*
X29686000Y-8277000D02*
X29736000Y-8227000D01*
X29686000Y-8177000D01*
X29636000Y-8227000D01*
X29686000Y-8277000D01*
X29696000Y-12261000D02*
X29746000Y-12211000D01*
X29696000Y-12161000D01*
X29646000Y-12211000D01*
X29696000Y-12261000D01*
X29696000Y-12515000D02*
X29746000Y-12465000D01*
X29696000Y-12415000D01*
X29646000Y-12465000D01*
X29696000Y-12515000D01*
D13*
X18119500Y-16232000D02*
X18220500Y-16333000D01*
X18220500Y-16232000D02*
X18119500Y-16333000D01*
X18220500Y-16282500D02*
G75*
G02*
X18119500Y-16282500I-50500J0D01*
G01*
X18119500Y-16282500D02*
G75*
G02*
X18220500Y-16282500I50500J0D01*
G01*
X18869500Y-16432000D02*
X18970500Y-16533000D01*
X18970500Y-16432000D02*
X18869500Y-16533000D01*
X18970500Y-16482500D02*
G75*
G02*
X18869500Y-16482500I-50500J0D01*
G01*
X18869500Y-16482500D02*
G75*
G02*
X18970500Y-16482500I50500J0D01*
G01*
X20157000Y-16280000D02*
X20258000Y-16381000D01*
X20258000Y-16280000D02*
X20157000Y-16381000D01*
X20258000Y-16330500D02*
G75*
G02*
X20157000Y-16330500I-50500J0D01*
G01*
X20157000Y-16330500D02*
G75*
G02*
X20258000Y-16330500I50500J0D01*
G01*
X20662000Y-16397000D02*
X20763000Y-16498000D01*
X20763000Y-16397000D02*
X20662000Y-16498000D01*
X20763000Y-16447500D02*
G75*
G02*
X20662000Y-16447500I-50500J0D01*
G01*
X20662000Y-16447500D02*
G75*
G02*
X20763000Y-16447500I50500J0D01*
G01*
D14*
X15097000Y-15632000D02*
X15227000Y-15762000D01*
X15227000Y-15632000D02*
X15097000Y-15762000D01*
X15162000Y-15632000D02*
X15162000Y-15762000D01*
X15097000Y-15697000D02*
X15227000Y-15697000D01*
X16030000Y-15640000D02*
X16160000Y-15770000D01*
X16160000Y-15640000D02*
X16030000Y-15770000D01*
X16095000Y-15640000D02*
X16095000Y-15770000D01*
X16030000Y-15705000D02*
X16160000Y-15705000D01*
X23765500Y-16342250D02*
X23895500Y-16472250D01*
X23895500Y-16342250D02*
X23765500Y-16472250D01*
X23830500Y-16342250D02*
X23830500Y-16472250D01*
X23765500Y-16407250D02*
X23895500Y-16407250D01*
X24273500Y-16342250D02*
X24403500Y-16472250D01*
X24403500Y-16342250D02*
X24273500Y-16472250D01*
X24338500Y-16342250D02*
X24338500Y-16472250D01*
X24273500Y-16407250D02*
X24403500Y-16407250D01*
X25444000Y-16342250D02*
X25574000Y-16472250D01*
X25574000Y-16342250D02*
X25444000Y-16472250D01*
X25509000Y-16342250D02*
X25509000Y-16472250D01*
X25444000Y-16407250D02*
X25574000Y-16407250D01*
X25952000Y-16342250D02*
X26082000Y-16472250D01*
X26082000Y-16342250D02*
X25952000Y-16472250D01*
X26017000Y-16342250D02*
X26017000Y-16472250D01*
X25952000Y-16407250D02*
X26082000Y-16407250D01*
X26460000Y-16342250D02*
X26590000Y-16472250D01*
X26590000Y-16342250D02*
X26460000Y-16472250D01*
X26525000Y-16342250D02*
X26525000Y-16472250D01*
X26460000Y-16407250D02*
X26590000Y-16407250D01*
X26968000Y-16342250D02*
X27098000Y-16472250D01*
X27098000Y-16342250D02*
X26968000Y-16472250D01*
X27033000Y-16342250D02*
X27033000Y-16472250D01*
X26968000Y-16407250D02*
X27098000Y-16407250D01*
X27476000Y-16342250D02*
X27606000Y-16472250D01*
X27606000Y-16342250D02*
X27476000Y-16472250D01*
X27541000Y-16342250D02*
X27541000Y-16472250D01*
X27476000Y-16407250D02*
X27606000Y-16407250D01*
X27984000Y-16342250D02*
X28114000Y-16472250D01*
X28114000Y-16342250D02*
X27984000Y-16472250D01*
X28049000Y-16342250D02*
X28049000Y-16472250D01*
X27984000Y-16407250D02*
X28114000Y-16407250D01*
X28492000Y-16342250D02*
X28622000Y-16472250D01*
X28622000Y-16342250D02*
X28492000Y-16472250D01*
X28557000Y-16342250D02*
X28557000Y-16472250D01*
X28492000Y-16407250D02*
X28622000Y-16407250D01*
X29000000Y-16342250D02*
X29130000Y-16472250D01*
X29130000Y-16342250D02*
X29000000Y-16472250D01*
X29065000Y-16342250D02*
X29065000Y-16472250D01*
X29000000Y-16407250D02*
X29130000Y-16407250D01*
X29508000Y-16342250D02*
X29638000Y-16472250D01*
X29638000Y-16342250D02*
X29508000Y-16472250D01*
X29573000Y-16342250D02*
X29573000Y-16472250D01*
X29508000Y-16407250D02*
X29638000Y-16407250D01*
X30016000Y-16342250D02*
X30146000Y-16472250D01*
X30146000Y-16342250D02*
X30016000Y-16472250D01*
X30081000Y-16342250D02*
X30081000Y-16472250D01*
X30016000Y-16407250D02*
X30146000Y-16407250D01*
D15*
X21497550Y-16065250D02*
X21682550Y-16250250D01*
X21682550Y-16065250D02*
X21497550Y-16250250D01*
X21655458Y-16223158D02*
X21655458Y-16092342D01*
X21524642Y-16092342D01*
X21524642Y-16223158D01*
X21655458Y-16223158D01*
X21497550Y-16573250D02*
X21682550Y-16758250D01*
X21682550Y-16573250D02*
X21497550Y-16758250D01*
X21655458Y-16731158D02*
X21655458Y-16600342D01*
X21524642Y-16600342D01*
X21524642Y-16731158D01*
X21655458Y-16731158D01*
X21815050Y-16319250D02*
X22000050Y-16504250D01*
X22000050Y-16319250D02*
X21815050Y-16504250D01*
X21972958Y-16477158D02*
X21972958Y-16346342D01*
X21842142Y-16346342D01*
X21842142Y-16477158D01*
X21972958Y-16477158D01*
X22285050Y-16319250D02*
X22470050Y-16504250D01*
X22470050Y-16319250D02*
X22285050Y-16504250D01*
X22442958Y-16477158D02*
X22442958Y-16346342D01*
X22312142Y-16346342D01*
X22312142Y-16477158D01*
X22442958Y-16477158D01*
X22755050Y-16319250D02*
X22940050Y-16504250D01*
X22940050Y-16319250D02*
X22755050Y-16504250D01*
X22912958Y-16477158D02*
X22912958Y-16346342D01*
X22782142Y-16346342D01*
X22782142Y-16477158D01*
X22912958Y-16477158D01*
X23072550Y-16065250D02*
X23257550Y-16250250D01*
X23257550Y-16065250D02*
X23072550Y-16250250D01*
X23230458Y-16223158D02*
X23230458Y-16092342D01*
X23099642Y-16092342D01*
X23099642Y-16223158D01*
X23230458Y-16223158D01*
X23072550Y-16573250D02*
X23257550Y-16758250D01*
X23257550Y-16573250D02*
X23072550Y-16758250D01*
X23230458Y-16731158D02*
X23230458Y-16600342D01*
X23099642Y-16600342D01*
X23099642Y-16731158D01*
X23230458Y-16731158D01*
D16*
X18530000Y-12195000D02*
X18750000Y-12415000D01*
X18750000Y-12195000D02*
X18530000Y-12415000D01*
X18640000Y-12415000D02*
X18750000Y-12305000D01*
X18640000Y-12195000D01*
X18530000Y-12305000D01*
X18640000Y-12415000D01*
X18535000Y-7930000D02*
X18755000Y-8150000D01*
X18755000Y-7930000D02*
X18535000Y-8150000D01*
X18645000Y-8150000D02*
X18755000Y-8040000D01*
X18645000Y-7930000D01*
X18535000Y-8040000D01*
X18645000Y-8150000D01*
X18535000Y-15175000D02*
X18755000Y-15395000D01*
X18755000Y-15175000D02*
X18535000Y-15395000D01*
X18645000Y-15395000D02*
X18755000Y-15285000D01*
X18645000Y-15175000D01*
X18535000Y-15285000D01*
X18645000Y-15395000D01*
X18540000Y-10910000D02*
X18760000Y-11130000D01*
X18760000Y-10910000D02*
X18540000Y-11130000D01*
X18650000Y-11130000D02*
X18760000Y-11020000D01*
X18650000Y-10910000D01*
X18540000Y-11020000D01*
X18650000Y-11130000D01*
X20515000Y-12200000D02*
X20735000Y-12420000D01*
X20735000Y-12200000D02*
X20515000Y-12420000D01*
X20625000Y-12420000D02*
X20735000Y-12310000D01*
X20625000Y-12200000D01*
X20515000Y-12310000D01*
X20625000Y-12420000D01*
X20520000Y-7935000D02*
X20740000Y-8155000D01*
X20740000Y-7935000D02*
X20520000Y-8155000D01*
X20630000Y-8155000D02*
X20740000Y-8045000D01*
X20630000Y-7935000D01*
X20520000Y-8045000D01*
X20630000Y-8155000D01*
X20565000Y-15175000D02*
X20785000Y-15395000D01*
X20785000Y-15175000D02*
X20565000Y-15395000D01*
X20675000Y-15395000D02*
X20785000Y-15285000D01*
X20675000Y-15175000D01*
X20565000Y-15285000D01*
X20675000Y-15395000D01*
X20570000Y-10910000D02*
X20790000Y-11130000D01*
X20790000Y-10910000D02*
X20570000Y-11130000D01*
X20680000Y-11130000D02*
X20790000Y-11020000D01*
X20680000Y-10910000D01*
X20570000Y-11020000D01*
X20680000Y-11130000D01*
X21830000Y-7900000D02*
X22050000Y-8120000D01*
X22050000Y-7900000D02*
X21830000Y-8120000D01*
X21940000Y-8120000D02*
X22050000Y-8010000D01*
X21940000Y-7900000D01*
X21830000Y-8010000D01*
X21940000Y-8120000D01*
X21833000Y-12165000D02*
X22053000Y-12385000D01*
X22053000Y-12165000D02*
X21833000Y-12385000D01*
X21943000Y-12385000D02*
X22053000Y-12275000D01*
X21943000Y-12165000D01*
X21833000Y-12275000D01*
X21943000Y-12385000D01*
X21835000Y-10880000D02*
X22055000Y-11100000D01*
X22055000Y-10880000D02*
X21835000Y-11100000D01*
X21945000Y-11100000D02*
X22055000Y-10990000D01*
X21945000Y-10880000D01*
X21835000Y-10990000D01*
X21945000Y-11100000D01*
X21838000Y-15145000D02*
X22058000Y-15365000D01*
X22058000Y-15145000D02*
X21838000Y-15365000D01*
X21948000Y-15365000D02*
X22058000Y-15255000D01*
X21948000Y-15145000D01*
X21838000Y-15255000D01*
X21948000Y-15365000D01*
X23815000Y-7905000D02*
X24035000Y-8125000D01*
X24035000Y-7905000D02*
X23815000Y-8125000D01*
X23925000Y-8125000D02*
X24035000Y-8015000D01*
X23925000Y-7905000D01*
X23815000Y-8015000D01*
X23925000Y-8125000D01*
X23818000Y-12170000D02*
X24038000Y-12390000D01*
X24038000Y-12170000D02*
X23818000Y-12390000D01*
X23928000Y-12390000D02*
X24038000Y-12280000D01*
X23928000Y-12170000D01*
X23818000Y-12280000D01*
X23928000Y-12390000D01*
X23865000Y-10880000D02*
X24085000Y-11100000D01*
X24085000Y-10880000D02*
X23865000Y-11100000D01*
X23975000Y-11100000D02*
X24085000Y-10990000D01*
X23975000Y-10880000D01*
X23865000Y-10990000D01*
X23975000Y-11100000D01*
X23868000Y-15145000D02*
X24088000Y-15365000D01*
X24088000Y-15145000D02*
X23868000Y-15365000D01*
X23978000Y-15365000D02*
X24088000Y-15255000D01*
X23978000Y-15145000D01*
X23868000Y-15255000D01*
X23978000Y-15365000D01*
X25085000Y-12138000D02*
X25305000Y-12358000D01*
X25305000Y-12138000D02*
X25085000Y-12358000D01*
X25195000Y-12358000D02*
X25305000Y-12248000D01*
X25195000Y-12138000D01*
X25085000Y-12248000D01*
X25195000Y-12358000D01*
X25090000Y-15118000D02*
X25310000Y-15338000D01*
X25310000Y-15118000D02*
X25090000Y-15338000D01*
X25200000Y-15338000D02*
X25310000Y-15228000D01*
X25200000Y-15118000D01*
X25090000Y-15228000D01*
X25200000Y-15338000D01*
X25095000Y-7925000D02*
X25315000Y-8145000D01*
X25315000Y-7925000D02*
X25095000Y-8145000D01*
X25205000Y-8145000D02*
X25315000Y-8035000D01*
X25205000Y-7925000D01*
X25095000Y-8035000D01*
X25205000Y-8145000D01*
X25100000Y-10905000D02*
X25320000Y-11125000D01*
X25320000Y-10905000D02*
X25100000Y-11125000D01*
X25210000Y-11125000D02*
X25320000Y-11015000D01*
X25210000Y-10905000D01*
X25100000Y-11015000D01*
X25210000Y-11125000D01*
X27070000Y-12143000D02*
X27290000Y-12363000D01*
X27290000Y-12143000D02*
X27070000Y-12363000D01*
X27180000Y-12363000D02*
X27290000Y-12253000D01*
X27180000Y-12143000D01*
X27070000Y-12253000D01*
X27180000Y-12363000D01*
X27080000Y-7930000D02*
X27300000Y-8150000D01*
X27300000Y-7930000D02*
X27080000Y-8150000D01*
X27190000Y-8150000D02*
X27300000Y-8040000D01*
X27190000Y-7930000D01*
X27080000Y-8040000D01*
X27190000Y-8150000D01*
X27120000Y-15118000D02*
X27340000Y-15338000D01*
X27340000Y-15118000D02*
X27120000Y-15338000D01*
X27230000Y-15338000D02*
X27340000Y-15228000D01*
X27230000Y-15118000D01*
X27120000Y-15228000D01*
X27230000Y-15338000D01*
X27130000Y-10905000D02*
X27350000Y-11125000D01*
X27350000Y-10905000D02*
X27130000Y-11125000D01*
X27240000Y-11125000D02*
X27350000Y-11015000D01*
X27240000Y-10905000D01*
X27130000Y-11015000D01*
X27240000Y-11125000D01*
X28070000Y-7900000D02*
X28290000Y-8120000D01*
X28290000Y-7900000D02*
X28070000Y-8120000D01*
X28180000Y-8120000D02*
X28290000Y-8010000D01*
X28180000Y-7900000D01*
X28070000Y-8010000D01*
X28180000Y-8120000D01*
X28075000Y-10880000D02*
X28295000Y-11100000D01*
X28295000Y-10880000D02*
X28075000Y-11100000D01*
X28185000Y-11100000D02*
X28295000Y-10990000D01*
X28185000Y-10880000D01*
X28075000Y-10990000D01*
X28185000Y-11100000D01*
X28080000Y-12138000D02*
X28300000Y-12358000D01*
X28300000Y-12138000D02*
X28080000Y-12358000D01*
X28190000Y-12358000D02*
X28300000Y-12248000D01*
X28190000Y-12138000D01*
X28080000Y-12248000D01*
X28190000Y-12358000D01*
X28085000Y-15118000D02*
X28305000Y-15338000D01*
X28305000Y-15118000D02*
X28085000Y-15338000D01*
X28195000Y-15338000D02*
X28305000Y-15228000D01*
X28195000Y-15118000D01*
X28085000Y-15228000D01*
X28195000Y-15338000D01*
X30055000Y-7905000D02*
X30275000Y-8125000D01*
X30275000Y-7905000D02*
X30055000Y-8125000D01*
X30165000Y-8125000D02*
X30275000Y-8015000D01*
X30165000Y-7905000D01*
X30055000Y-8015000D01*
X30165000Y-8125000D01*
X30065000Y-12143000D02*
X30285000Y-12363000D01*
X30285000Y-12143000D02*
X30065000Y-12363000D01*
X30175000Y-12363000D02*
X30285000Y-12253000D01*
X30175000Y-12143000D01*
X30065000Y-12253000D01*
X30175000Y-12363000D01*
X30105000Y-10880000D02*
X30325000Y-11100000D01*
X30325000Y-10880000D02*
X30105000Y-11100000D01*
X30215000Y-11100000D02*
X30325000Y-10990000D01*
X30215000Y-10880000D01*
X30105000Y-10990000D01*
X30215000Y-11100000D01*
X30115000Y-15118000D02*
X30335000Y-15338000D01*
X30335000Y-15118000D02*
X30115000Y-15338000D01*
X30225000Y-15338000D02*
X30335000Y-15228000D01*
X30225000Y-15118000D01*
X30115000Y-15228000D01*
X30225000Y-15338000D01*
D17*
X8400000Y-9490000D02*
X8400000Y-9740000D01*
X8275000Y-9615000D02*
X8525000Y-9615000D01*
X8525000Y-9615000D02*
G75*
G02*
X8275000Y-9615000I-125000J0D01*
G01*
X8275000Y-9615000D02*
G75*
G02*
X8525000Y-9615000I125000J0D01*
G01*
X8400000Y-11795000D02*
X8400000Y-12045000D01*
X8275000Y-11920000D02*
X8525000Y-11920000D01*
X8525000Y-11920000D02*
G75*
G02*
X8275000Y-11920000I-125000J0D01*
G01*
X8275000Y-11920000D02*
G75*
G02*
X8525000Y-11920000I125000J0D01*
G01*
X8400000Y-14390000D02*
X8400000Y-14640000D01*
X8275000Y-14515000D02*
X8525000Y-14515000D01*
X8525000Y-14515000D02*
G75*
G02*
X8275000Y-14515000I-125000J0D01*
G01*
X8275000Y-14515000D02*
G75*
G02*
X8525000Y-14515000I125000J0D01*
G01*
X14200000Y-9490000D02*
X14200000Y-9740000D01*
X14075000Y-9615000D02*
X14325000Y-9615000D01*
X14325000Y-9615000D02*
G75*
G02*
X14075000Y-9615000I-125000J0D01*
G01*
X14075000Y-9615000D02*
G75*
G02*
X14325000Y-9615000I125000J0D01*
G01*
X14200000Y-11795000D02*
X14200000Y-12045000D01*
X14075000Y-11920000D02*
X14325000Y-11920000D01*
X14325000Y-11920000D02*
G75*
G02*
X14075000Y-11920000I-125000J0D01*
G01*
X14075000Y-11920000D02*
G75*
G02*
X14325000Y-11920000I125000J0D01*
G01*
X14200000Y-14390000D02*
X14200000Y-14640000D01*
X14075000Y-14515000D02*
X14325000Y-14515000D01*
X14325000Y-14515000D02*
G75*
G02*
X14075000Y-14515000I-125000J0D01*
G01*
X14075000Y-14515000D02*
G75*
G02*
X14325000Y-14515000I125000J0D01*
G01*
D11*
X5863277Y-17603984D02*
X5863277Y-17403984D01*
X5863277Y-17403984D02*
X5910896Y-17403984D01*
X5910896Y-17403984D02*
X5939467Y-17413508D01*
X5939467Y-17413508D02*
X5958515Y-17432555D01*
X5958515Y-17432555D02*
X5968039Y-17451603D01*
X5968039Y-17451603D02*
X5977562Y-17489698D01*
X5977562Y-17489698D02*
X5977562Y-17518270D01*
X5977562Y-17518270D02*
X5968039Y-17556365D01*
X5968039Y-17556365D02*
X5958515Y-17575412D01*
X5958515Y-17575412D02*
X5939467Y-17594460D01*
X5939467Y-17594460D02*
X5910896Y-17603984D01*
X5910896Y-17603984D02*
X5863277Y-17603984D01*
X6063277Y-17603984D02*
X6063277Y-17470650D01*
X6063277Y-17508746D02*
X6072801Y-17489698D01*
X6072801Y-17489698D02*
X6082324Y-17480174D01*
X6082324Y-17480174D02*
X6101372Y-17470650D01*
X6101372Y-17470650D02*
X6120420Y-17470650D01*
X6187086Y-17603984D02*
X6187086Y-17470650D01*
X6187086Y-17403984D02*
X6177562Y-17413508D01*
X6177562Y-17413508D02*
X6187086Y-17423031D01*
X6187086Y-17423031D02*
X6196610Y-17413508D01*
X6196610Y-17413508D02*
X6187086Y-17403984D01*
X6187086Y-17403984D02*
X6187086Y-17423031D01*
X6310896Y-17603984D02*
X6291848Y-17594460D01*
X6291848Y-17594460D02*
X6282324Y-17575412D01*
X6282324Y-17575412D02*
X6282324Y-17403984D01*
X6415658Y-17603984D02*
X6396610Y-17594460D01*
X6396610Y-17594460D02*
X6387086Y-17575412D01*
X6387086Y-17575412D02*
X6387086Y-17403984D01*
X6644229Y-17603984D02*
X6644229Y-17403984D01*
X6644229Y-17403984D02*
X6710896Y-17546841D01*
X6710896Y-17546841D02*
X6777562Y-17403984D01*
X6777562Y-17403984D02*
X6777562Y-17603984D01*
X6958515Y-17603984D02*
X6958515Y-17499222D01*
X6958515Y-17499222D02*
X6948991Y-17480174D01*
X6948991Y-17480174D02*
X6929943Y-17470650D01*
X6929943Y-17470650D02*
X6891848Y-17470650D01*
X6891848Y-17470650D02*
X6872801Y-17480174D01*
X6958515Y-17594460D02*
X6939467Y-17603984D01*
X6939467Y-17603984D02*
X6891848Y-17603984D01*
X6891848Y-17603984D02*
X6872801Y-17594460D01*
X6872801Y-17594460D02*
X6863277Y-17575412D01*
X6863277Y-17575412D02*
X6863277Y-17556365D01*
X6863277Y-17556365D02*
X6872801Y-17537317D01*
X6872801Y-17537317D02*
X6891848Y-17527793D01*
X6891848Y-17527793D02*
X6939467Y-17527793D01*
X6939467Y-17527793D02*
X6958515Y-17518270D01*
X7053753Y-17470650D02*
X7053753Y-17670650D01*
X7053753Y-17480174D02*
X7072801Y-17470650D01*
X7072801Y-17470650D02*
X7110896Y-17470650D01*
X7110896Y-17470650D02*
X7129943Y-17480174D01*
X7129943Y-17480174D02*
X7139467Y-17489698D01*
X7139467Y-17489698D02*
X7148991Y-17508746D01*
X7148991Y-17508746D02*
X7148991Y-17565889D01*
X7148991Y-17565889D02*
X7139467Y-17584936D01*
X7139467Y-17584936D02*
X7129943Y-17594460D01*
X7129943Y-17594460D02*
X7110896Y-17603984D01*
X7110896Y-17603984D02*
X7072801Y-17603984D01*
X7072801Y-17603984D02*
X7053753Y-17594460D01*
X7234705Y-17584936D02*
X7244229Y-17594460D01*
X7244229Y-17594460D02*
X7234705Y-17603984D01*
X7234705Y-17603984D02*
X7225182Y-17594460D01*
X7225182Y-17594460D02*
X7234705Y-17584936D01*
X7234705Y-17584936D02*
X7234705Y-17603984D01*
X7234705Y-17480174D02*
X7244229Y-17489698D01*
X7244229Y-17489698D02*
X7234705Y-17499222D01*
X7234705Y-17499222D02*
X7225182Y-17489698D01*
X7225182Y-17489698D02*
X7234705Y-17480174D01*
X7234705Y-17480174D02*
X7234705Y-17499222D01*
D12*
X5572500Y-17917500D02*
X5602500Y-17947500D01*
X5602500Y-17917500D02*
X5572500Y-17947500D01*
D11*
X5901372Y-17823984D02*
X5920420Y-17823984D01*
X5920420Y-17823984D02*
X5939467Y-17833508D01*
X5939467Y-17833508D02*
X5948991Y-17843031D01*
X5948991Y-17843031D02*
X5958515Y-17862079D01*
X5958515Y-17862079D02*
X5968039Y-17900174D01*
X5968039Y-17900174D02*
X5968039Y-17947793D01*
X5968039Y-17947793D02*
X5958515Y-17985889D01*
X5958515Y-17985889D02*
X5948991Y-18004936D01*
X5948991Y-18004936D02*
X5939467Y-18014460D01*
X5939467Y-18014460D02*
X5920420Y-18023984D01*
X5920420Y-18023984D02*
X5901372Y-18023984D01*
X5901372Y-18023984D02*
X5882324Y-18014460D01*
X5882324Y-18014460D02*
X5872801Y-18004936D01*
X5872801Y-18004936D02*
X5863277Y-17985889D01*
X5863277Y-17985889D02*
X5853753Y-17947793D01*
X5853753Y-17947793D02*
X5853753Y-17900174D01*
X5853753Y-17900174D02*
X5863277Y-17862079D01*
X5863277Y-17862079D02*
X5872801Y-17843031D01*
X5872801Y-17843031D02*
X5882324Y-17833508D01*
X5882324Y-17833508D02*
X5901372Y-17823984D01*
X6053753Y-18004936D02*
X6063277Y-18014460D01*
X6063277Y-18014460D02*
X6053753Y-18023984D01*
X6053753Y-18023984D02*
X6044229Y-18014460D01*
X6044229Y-18014460D02*
X6053753Y-18004936D01*
X6053753Y-18004936D02*
X6053753Y-18023984D01*
X6129943Y-17823984D02*
X6253753Y-17823984D01*
X6253753Y-17823984D02*
X6187086Y-17900174D01*
X6187086Y-17900174D02*
X6215658Y-17900174D01*
X6215658Y-17900174D02*
X6234705Y-17909698D01*
X6234705Y-17909698D02*
X6244229Y-17919222D01*
X6244229Y-17919222D02*
X6253753Y-17938270D01*
X6253753Y-17938270D02*
X6253753Y-17985889D01*
X6253753Y-17985889D02*
X6244229Y-18004936D01*
X6244229Y-18004936D02*
X6234705Y-18014460D01*
X6234705Y-18014460D02*
X6215658Y-18023984D01*
X6215658Y-18023984D02*
X6158515Y-18023984D01*
X6158515Y-18023984D02*
X6139467Y-18014460D01*
X6139467Y-18014460D02*
X6129943Y-18004936D01*
X6377562Y-17823984D02*
X6396610Y-17823984D01*
X6396610Y-17823984D02*
X6415658Y-17833508D01*
X6415658Y-17833508D02*
X6425182Y-17843031D01*
X6425182Y-17843031D02*
X6434705Y-17862079D01*
X6434705Y-17862079D02*
X6444229Y-17900174D01*
X6444229Y-17900174D02*
X6444229Y-17947793D01*
X6444229Y-17947793D02*
X6434705Y-17985889D01*
X6434705Y-17985889D02*
X6425182Y-18004936D01*
X6425182Y-18004936D02*
X6415658Y-18014460D01*
X6415658Y-18014460D02*
X6396610Y-18023984D01*
X6396610Y-18023984D02*
X6377562Y-18023984D01*
X6377562Y-18023984D02*
X6358515Y-18014460D01*
X6358515Y-18014460D02*
X6348991Y-18004936D01*
X6348991Y-18004936D02*
X6339467Y-17985889D01*
X6339467Y-17985889D02*
X6329943Y-17947793D01*
X6329943Y-17947793D02*
X6329943Y-17900174D01*
X6329943Y-17900174D02*
X6339467Y-17862079D01*
X6339467Y-17862079D02*
X6348991Y-17843031D01*
X6348991Y-17843031D02*
X6358515Y-17833508D01*
X6358515Y-17833508D02*
X6377562Y-17823984D01*
X6568039Y-17823984D02*
X6587086Y-17823984D01*
X6587086Y-17823984D02*
X6606134Y-17833508D01*
X6606134Y-17833508D02*
X6615658Y-17843031D01*
X6615658Y-17843031D02*
X6625182Y-17862079D01*
X6625182Y-17862079D02*
X6634705Y-17900174D01*
X6634705Y-17900174D02*
X6634705Y-17947793D01*
X6634705Y-17947793D02*
X6625182Y-17985889D01*
X6625182Y-17985889D02*
X6615658Y-18004936D01*
X6615658Y-18004936D02*
X6606134Y-18014460D01*
X6606134Y-18014460D02*
X6587086Y-18023984D01*
X6587086Y-18023984D02*
X6568039Y-18023984D01*
X6568039Y-18023984D02*
X6548991Y-18014460D01*
X6548991Y-18014460D02*
X6539467Y-18004936D01*
X6539467Y-18004936D02*
X6529943Y-17985889D01*
X6529943Y-17985889D02*
X6520420Y-17947793D01*
X6520420Y-17947793D02*
X6520420Y-17900174D01*
X6520420Y-17900174D02*
X6529943Y-17862079D01*
X6529943Y-17862079D02*
X6539467Y-17843031D01*
X6539467Y-17843031D02*
X6548991Y-17833508D01*
X6548991Y-17833508D02*
X6568039Y-17823984D01*
X6720420Y-18023984D02*
X6720420Y-17890650D01*
X6720420Y-17909698D02*
X6729943Y-17900174D01*
X6729943Y-17900174D02*
X6748991Y-17890650D01*
X6748991Y-17890650D02*
X6777563Y-17890650D01*
X6777563Y-17890650D02*
X6796610Y-17900174D01*
X6796610Y-17900174D02*
X6806134Y-17919222D01*
X6806134Y-17919222D02*
X6806134Y-18023984D01*
X6806134Y-17919222D02*
X6815658Y-17900174D01*
X6815658Y-17900174D02*
X6834705Y-17890650D01*
X6834705Y-17890650D02*
X6863277Y-17890650D01*
X6863277Y-17890650D02*
X6882324Y-17900174D01*
X6882324Y-17900174D02*
X6891848Y-17919222D01*
X6891848Y-17919222D02*
X6891848Y-18023984D01*
X6987086Y-18023984D02*
X6987086Y-17890650D01*
X6987086Y-17909698D02*
X6996610Y-17900174D01*
X6996610Y-17900174D02*
X7015658Y-17890650D01*
X7015658Y-17890650D02*
X7044229Y-17890650D01*
X7044229Y-17890650D02*
X7063277Y-17900174D01*
X7063277Y-17900174D02*
X7072801Y-17919222D01*
X7072801Y-17919222D02*
X7072801Y-18023984D01*
X7072801Y-17919222D02*
X7082324Y-17900174D01*
X7082324Y-17900174D02*
X7101372Y-17890650D01*
X7101372Y-17890650D02*
X7129943Y-17890650D01*
X7129943Y-17890650D02*
X7148991Y-17900174D01*
X7148991Y-17900174D02*
X7158515Y-17919222D01*
X7158515Y-17919222D02*
X7158515Y-18023984D01*
X7548991Y-17814460D02*
X7377563Y-18071603D01*
X7806134Y-17823984D02*
X7825182Y-17823984D01*
X7825182Y-17823984D02*
X7844229Y-17833508D01*
X7844229Y-17833508D02*
X7853753Y-17843031D01*
X7853753Y-17843031D02*
X7863277Y-17862079D01*
X7863277Y-17862079D02*
X7872801Y-17900174D01*
X7872801Y-17900174D02*
X7872801Y-17947793D01*
X7872801Y-17947793D02*
X7863277Y-17985889D01*
X7863277Y-17985889D02*
X7853753Y-18004936D01*
X7853753Y-18004936D02*
X7844229Y-18014460D01*
X7844229Y-18014460D02*
X7825182Y-18023984D01*
X7825182Y-18023984D02*
X7806134Y-18023984D01*
X7806134Y-18023984D02*
X7787086Y-18014460D01*
X7787086Y-18014460D02*
X7777563Y-18004936D01*
X7777563Y-18004936D02*
X7768039Y-17985889D01*
X7768039Y-17985889D02*
X7758515Y-17947793D01*
X7758515Y-17947793D02*
X7758515Y-17900174D01*
X7758515Y-17900174D02*
X7768039Y-17862079D01*
X7768039Y-17862079D02*
X7777563Y-17843031D01*
X7777563Y-17843031D02*
X7787086Y-17833508D01*
X7787086Y-17833508D02*
X7806134Y-17823984D01*
X7958515Y-18004936D02*
X7968039Y-18014460D01*
X7968039Y-18014460D02*
X7958515Y-18023984D01*
X7958515Y-18023984D02*
X7948991Y-18014460D01*
X7948991Y-18014460D02*
X7958515Y-18004936D01*
X7958515Y-18004936D02*
X7958515Y-18023984D01*
X8091848Y-17823984D02*
X8110896Y-17823984D01*
X8110896Y-17823984D02*
X8129944Y-17833508D01*
X8129944Y-17833508D02*
X8139467Y-17843031D01*
X8139467Y-17843031D02*
X8148991Y-17862079D01*
X8148991Y-17862079D02*
X8158515Y-17900174D01*
X8158515Y-17900174D02*
X8158515Y-17947793D01*
X8158515Y-17947793D02*
X8148991Y-17985889D01*
X8148991Y-17985889D02*
X8139467Y-18004936D01*
X8139467Y-18004936D02*
X8129944Y-18014460D01*
X8129944Y-18014460D02*
X8110896Y-18023984D01*
X8110896Y-18023984D02*
X8091848Y-18023984D01*
X8091848Y-18023984D02*
X8072801Y-18014460D01*
X8072801Y-18014460D02*
X8063277Y-18004936D01*
X8063277Y-18004936D02*
X8053753Y-17985889D01*
X8053753Y-17985889D02*
X8044229Y-17947793D01*
X8044229Y-17947793D02*
X8044229Y-17900174D01*
X8044229Y-17900174D02*
X8053753Y-17862079D01*
X8053753Y-17862079D02*
X8063277Y-17843031D01*
X8063277Y-17843031D02*
X8072801Y-17833508D01*
X8072801Y-17833508D02*
X8091848Y-17823984D01*
X8348991Y-18023984D02*
X8234706Y-18023984D01*
X8291848Y-18023984D02*
X8291848Y-17823984D01*
X8291848Y-17823984D02*
X8272801Y-17852555D01*
X8272801Y-17852555D02*
X8253753Y-17871603D01*
X8253753Y-17871603D02*
X8234706Y-17881127D01*
X8539468Y-18023984D02*
X8425182Y-18023984D01*
X8482325Y-18023984D02*
X8482325Y-17823984D01*
X8482325Y-17823984D02*
X8463277Y-17852555D01*
X8463277Y-17852555D02*
X8444229Y-17871603D01*
X8444229Y-17871603D02*
X8425182Y-17881127D01*
X8653753Y-17909698D02*
X8634706Y-17900174D01*
X8634706Y-17900174D02*
X8625182Y-17890650D01*
X8625182Y-17890650D02*
X8615658Y-17871603D01*
X8615658Y-17871603D02*
X8615658Y-17862079D01*
X8615658Y-17862079D02*
X8625182Y-17843031D01*
X8625182Y-17843031D02*
X8634706Y-17833508D01*
X8634706Y-17833508D02*
X8653753Y-17823984D01*
X8653753Y-17823984D02*
X8691849Y-17823984D01*
X8691849Y-17823984D02*
X8710896Y-17833508D01*
X8710896Y-17833508D02*
X8720420Y-17843031D01*
X8720420Y-17843031D02*
X8729944Y-17862079D01*
X8729944Y-17862079D02*
X8729944Y-17871603D01*
X8729944Y-17871603D02*
X8720420Y-17890650D01*
X8720420Y-17890650D02*
X8710896Y-17900174D01*
X8710896Y-17900174D02*
X8691849Y-17909698D01*
X8691849Y-17909698D02*
X8653753Y-17909698D01*
X8653753Y-17909698D02*
X8634706Y-17919222D01*
X8634706Y-17919222D02*
X8625182Y-17928746D01*
X8625182Y-17928746D02*
X8615658Y-17947793D01*
X8615658Y-17947793D02*
X8615658Y-17985889D01*
X8615658Y-17985889D02*
X8625182Y-18004936D01*
X8625182Y-18004936D02*
X8634706Y-18014460D01*
X8634706Y-18014460D02*
X8653753Y-18023984D01*
X8653753Y-18023984D02*
X8691849Y-18023984D01*
X8691849Y-18023984D02*
X8710896Y-18014460D01*
X8710896Y-18014460D02*
X8720420Y-18004936D01*
X8720420Y-18004936D02*
X8729944Y-17985889D01*
X8729944Y-17985889D02*
X8729944Y-17947793D01*
X8729944Y-17947793D02*
X8720420Y-17928746D01*
X8720420Y-17928746D02*
X8710896Y-17919222D01*
X8710896Y-17919222D02*
X8691849Y-17909698D01*
X8806134Y-17823984D02*
X8806134Y-17862079D01*
X8882325Y-17823984D02*
X8882325Y-17862079D01*
X9177563Y-18100174D02*
X9168039Y-18090650D01*
X9168039Y-18090650D02*
X9148991Y-18062079D01*
X9148991Y-18062079D02*
X9139468Y-18043031D01*
X9139468Y-18043031D02*
X9129944Y-18014460D01*
X9129944Y-18014460D02*
X9120420Y-17966841D01*
X9120420Y-17966841D02*
X9120420Y-17928746D01*
X9120420Y-17928746D02*
X9129944Y-17881127D01*
X9129944Y-17881127D02*
X9139468Y-17852555D01*
X9139468Y-17852555D02*
X9148991Y-17833508D01*
X9148991Y-17833508D02*
X9168039Y-17804936D01*
X9168039Y-17804936D02*
X9177563Y-17795412D01*
X9234706Y-17823984D02*
X9368039Y-17823984D01*
X9368039Y-17823984D02*
X9282325Y-18023984D01*
X9596611Y-18023984D02*
X9596611Y-17823984D01*
X9682325Y-18023984D02*
X9682325Y-17919222D01*
X9682325Y-17919222D02*
X9672801Y-17900174D01*
X9672801Y-17900174D02*
X9653753Y-17890650D01*
X9653753Y-17890650D02*
X9625182Y-17890650D01*
X9625182Y-17890650D02*
X9606134Y-17900174D01*
X9606134Y-17900174D02*
X9596611Y-17909698D01*
X9806134Y-18023984D02*
X9787087Y-18014460D01*
X9787087Y-18014460D02*
X9777563Y-18004936D01*
X9777563Y-18004936D02*
X9768039Y-17985889D01*
X9768039Y-17985889D02*
X9768039Y-17928746D01*
X9768039Y-17928746D02*
X9777563Y-17909698D01*
X9777563Y-17909698D02*
X9787087Y-17900174D01*
X9787087Y-17900174D02*
X9806134Y-17890650D01*
X9806134Y-17890650D02*
X9834706Y-17890650D01*
X9834706Y-17890650D02*
X9853753Y-17900174D01*
X9853753Y-17900174D02*
X9863277Y-17909698D01*
X9863277Y-17909698D02*
X9872801Y-17928746D01*
X9872801Y-17928746D02*
X9872801Y-17985889D01*
X9872801Y-17985889D02*
X9863277Y-18004936D01*
X9863277Y-18004936D02*
X9853753Y-18014460D01*
X9853753Y-18014460D02*
X9834706Y-18023984D01*
X9834706Y-18023984D02*
X9806134Y-18023984D01*
X9987087Y-18023984D02*
X9968039Y-18014460D01*
X9968039Y-18014460D02*
X9958515Y-17995412D01*
X9958515Y-17995412D02*
X9958515Y-17823984D01*
X10139468Y-18014460D02*
X10120420Y-18023984D01*
X10120420Y-18023984D02*
X10082325Y-18023984D01*
X10082325Y-18023984D02*
X10063277Y-18014460D01*
X10063277Y-18014460D02*
X10053753Y-17995412D01*
X10053753Y-17995412D02*
X10053753Y-17919222D01*
X10053753Y-17919222D02*
X10063277Y-17900174D01*
X10063277Y-17900174D02*
X10082325Y-17890650D01*
X10082325Y-17890650D02*
X10120420Y-17890650D01*
X10120420Y-17890650D02*
X10139468Y-17900174D01*
X10139468Y-17900174D02*
X10148992Y-17919222D01*
X10148992Y-17919222D02*
X10148992Y-17938270D01*
X10148992Y-17938270D02*
X10053753Y-17957317D01*
X10225182Y-18014460D02*
X10244230Y-18023984D01*
X10244230Y-18023984D02*
X10282325Y-18023984D01*
X10282325Y-18023984D02*
X10301373Y-18014460D01*
X10301373Y-18014460D02*
X10310896Y-17995412D01*
X10310896Y-17995412D02*
X10310896Y-17985889D01*
X10310896Y-17985889D02*
X10301373Y-17966841D01*
X10301373Y-17966841D02*
X10282325Y-17957317D01*
X10282325Y-17957317D02*
X10253753Y-17957317D01*
X10253753Y-17957317D02*
X10234706Y-17947793D01*
X10234706Y-17947793D02*
X10225182Y-17928746D01*
X10225182Y-17928746D02*
X10225182Y-17919222D01*
X10225182Y-17919222D02*
X10234706Y-17900174D01*
X10234706Y-17900174D02*
X10253753Y-17890650D01*
X10253753Y-17890650D02*
X10282325Y-17890650D01*
X10282325Y-17890650D02*
X10301373Y-17900174D01*
X10377563Y-18100174D02*
X10387087Y-18090650D01*
X10387087Y-18090650D02*
X10406134Y-18062079D01*
X10406134Y-18062079D02*
X10415658Y-18043031D01*
X10415658Y-18043031D02*
X10425182Y-18014460D01*
X10425182Y-18014460D02*
X10434706Y-17966841D01*
X10434706Y-17966841D02*
X10434706Y-17928746D01*
X10434706Y-17928746D02*
X10425182Y-17881127D01*
X10425182Y-17881127D02*
X10415658Y-17852555D01*
X10415658Y-17852555D02*
X10406134Y-17833508D01*
X10406134Y-17833508D02*
X10387087Y-17804936D01*
X10387087Y-17804936D02*
X10377563Y-17795412D01*
D12*
X5602500Y-18196500D02*
G75*
G02*
X5552500Y-18196500I-25000J0D01*
G01*
X5552500Y-18196500D02*
G75*
G02*
X5602500Y-18196500I25000J0D01*
G01*
D11*
X5901372Y-18087984D02*
X5920420Y-18087984D01*
X5920420Y-18087984D02*
X5939467Y-18097508D01*
X5939467Y-18097508D02*
X5948991Y-18107031D01*
X5948991Y-18107031D02*
X5958515Y-18126079D01*
X5958515Y-18126079D02*
X5968039Y-18164174D01*
X5968039Y-18164174D02*
X5968039Y-18211793D01*
X5968039Y-18211793D02*
X5958515Y-18249889D01*
X5958515Y-18249889D02*
X5948991Y-18268936D01*
X5948991Y-18268936D02*
X5939467Y-18278460D01*
X5939467Y-18278460D02*
X5920420Y-18287984D01*
X5920420Y-18287984D02*
X5901372Y-18287984D01*
X5901372Y-18287984D02*
X5882324Y-18278460D01*
X5882324Y-18278460D02*
X5872801Y-18268936D01*
X5872801Y-18268936D02*
X5863277Y-18249889D01*
X5863277Y-18249889D02*
X5853753Y-18211793D01*
X5853753Y-18211793D02*
X5853753Y-18164174D01*
X5853753Y-18164174D02*
X5863277Y-18126079D01*
X5863277Y-18126079D02*
X5872801Y-18107031D01*
X5872801Y-18107031D02*
X5882324Y-18097508D01*
X5882324Y-18097508D02*
X5901372Y-18087984D01*
X6053753Y-18268936D02*
X6063277Y-18278460D01*
X6063277Y-18278460D02*
X6053753Y-18287984D01*
X6053753Y-18287984D02*
X6044229Y-18278460D01*
X6044229Y-18278460D02*
X6053753Y-18268936D01*
X6053753Y-18268936D02*
X6053753Y-18287984D01*
X6244229Y-18087984D02*
X6148991Y-18087984D01*
X6148991Y-18087984D02*
X6139467Y-18183222D01*
X6139467Y-18183222D02*
X6148991Y-18173698D01*
X6148991Y-18173698D02*
X6168039Y-18164174D01*
X6168039Y-18164174D02*
X6215658Y-18164174D01*
X6215658Y-18164174D02*
X6234705Y-18173698D01*
X6234705Y-18173698D02*
X6244229Y-18183222D01*
X6244229Y-18183222D02*
X6253753Y-18202270D01*
X6253753Y-18202270D02*
X6253753Y-18249889D01*
X6253753Y-18249889D02*
X6244229Y-18268936D01*
X6244229Y-18268936D02*
X6234705Y-18278460D01*
X6234705Y-18278460D02*
X6215658Y-18287984D01*
X6215658Y-18287984D02*
X6168039Y-18287984D01*
X6168039Y-18287984D02*
X6148991Y-18278460D01*
X6148991Y-18278460D02*
X6139467Y-18268936D01*
X6377562Y-18087984D02*
X6396610Y-18087984D01*
X6396610Y-18087984D02*
X6415658Y-18097508D01*
X6415658Y-18097508D02*
X6425182Y-18107031D01*
X6425182Y-18107031D02*
X6434705Y-18126079D01*
X6434705Y-18126079D02*
X6444229Y-18164174D01*
X6444229Y-18164174D02*
X6444229Y-18211793D01*
X6444229Y-18211793D02*
X6434705Y-18249889D01*
X6434705Y-18249889D02*
X6425182Y-18268936D01*
X6425182Y-18268936D02*
X6415658Y-18278460D01*
X6415658Y-18278460D02*
X6396610Y-18287984D01*
X6396610Y-18287984D02*
X6377562Y-18287984D01*
X6377562Y-18287984D02*
X6358515Y-18278460D01*
X6358515Y-18278460D02*
X6348991Y-18268936D01*
X6348991Y-18268936D02*
X6339467Y-18249889D01*
X6339467Y-18249889D02*
X6329943Y-18211793D01*
X6329943Y-18211793D02*
X6329943Y-18164174D01*
X6329943Y-18164174D02*
X6339467Y-18126079D01*
X6339467Y-18126079D02*
X6348991Y-18107031D01*
X6348991Y-18107031D02*
X6358515Y-18097508D01*
X6358515Y-18097508D02*
X6377562Y-18087984D01*
X6568039Y-18087984D02*
X6587086Y-18087984D01*
X6587086Y-18087984D02*
X6606134Y-18097508D01*
X6606134Y-18097508D02*
X6615658Y-18107031D01*
X6615658Y-18107031D02*
X6625182Y-18126079D01*
X6625182Y-18126079D02*
X6634705Y-18164174D01*
X6634705Y-18164174D02*
X6634705Y-18211793D01*
X6634705Y-18211793D02*
X6625182Y-18249889D01*
X6625182Y-18249889D02*
X6615658Y-18268936D01*
X6615658Y-18268936D02*
X6606134Y-18278460D01*
X6606134Y-18278460D02*
X6587086Y-18287984D01*
X6587086Y-18287984D02*
X6568039Y-18287984D01*
X6568039Y-18287984D02*
X6548991Y-18278460D01*
X6548991Y-18278460D02*
X6539467Y-18268936D01*
X6539467Y-18268936D02*
X6529943Y-18249889D01*
X6529943Y-18249889D02*
X6520420Y-18211793D01*
X6520420Y-18211793D02*
X6520420Y-18164174D01*
X6520420Y-18164174D02*
X6529943Y-18126079D01*
X6529943Y-18126079D02*
X6539467Y-18107031D01*
X6539467Y-18107031D02*
X6548991Y-18097508D01*
X6548991Y-18097508D02*
X6568039Y-18087984D01*
X6720420Y-18287984D02*
X6720420Y-18154650D01*
X6720420Y-18173698D02*
X6729943Y-18164174D01*
X6729943Y-18164174D02*
X6748991Y-18154650D01*
X6748991Y-18154650D02*
X6777563Y-18154650D01*
X6777563Y-18154650D02*
X6796610Y-18164174D01*
X6796610Y-18164174D02*
X6806134Y-18183222D01*
X6806134Y-18183222D02*
X6806134Y-18287984D01*
X6806134Y-18183222D02*
X6815658Y-18164174D01*
X6815658Y-18164174D02*
X6834705Y-18154650D01*
X6834705Y-18154650D02*
X6863277Y-18154650D01*
X6863277Y-18154650D02*
X6882324Y-18164174D01*
X6882324Y-18164174D02*
X6891848Y-18183222D01*
X6891848Y-18183222D02*
X6891848Y-18287984D01*
X6987086Y-18287984D02*
X6987086Y-18154650D01*
X6987086Y-18173698D02*
X6996610Y-18164174D01*
X6996610Y-18164174D02*
X7015658Y-18154650D01*
X7015658Y-18154650D02*
X7044229Y-18154650D01*
X7044229Y-18154650D02*
X7063277Y-18164174D01*
X7063277Y-18164174D02*
X7072801Y-18183222D01*
X7072801Y-18183222D02*
X7072801Y-18287984D01*
X7072801Y-18183222D02*
X7082324Y-18164174D01*
X7082324Y-18164174D02*
X7101372Y-18154650D01*
X7101372Y-18154650D02*
X7129943Y-18154650D01*
X7129943Y-18154650D02*
X7148991Y-18164174D01*
X7148991Y-18164174D02*
X7158515Y-18183222D01*
X7158515Y-18183222D02*
X7158515Y-18287984D01*
X7548991Y-18078460D02*
X7377563Y-18335603D01*
X7806134Y-18087984D02*
X7825182Y-18087984D01*
X7825182Y-18087984D02*
X7844229Y-18097508D01*
X7844229Y-18097508D02*
X7853753Y-18107031D01*
X7853753Y-18107031D02*
X7863277Y-18126079D01*
X7863277Y-18126079D02*
X7872801Y-18164174D01*
X7872801Y-18164174D02*
X7872801Y-18211793D01*
X7872801Y-18211793D02*
X7863277Y-18249889D01*
X7863277Y-18249889D02*
X7853753Y-18268936D01*
X7853753Y-18268936D02*
X7844229Y-18278460D01*
X7844229Y-18278460D02*
X7825182Y-18287984D01*
X7825182Y-18287984D02*
X7806134Y-18287984D01*
X7806134Y-18287984D02*
X7787086Y-18278460D01*
X7787086Y-18278460D02*
X7777563Y-18268936D01*
X7777563Y-18268936D02*
X7768039Y-18249889D01*
X7768039Y-18249889D02*
X7758515Y-18211793D01*
X7758515Y-18211793D02*
X7758515Y-18164174D01*
X7758515Y-18164174D02*
X7768039Y-18126079D01*
X7768039Y-18126079D02*
X7777563Y-18107031D01*
X7777563Y-18107031D02*
X7787086Y-18097508D01*
X7787086Y-18097508D02*
X7806134Y-18087984D01*
X7958515Y-18268936D02*
X7968039Y-18278460D01*
X7968039Y-18278460D02*
X7958515Y-18287984D01*
X7958515Y-18287984D02*
X7948991Y-18278460D01*
X7948991Y-18278460D02*
X7958515Y-18268936D01*
X7958515Y-18268936D02*
X7958515Y-18287984D01*
X8091848Y-18087984D02*
X8110896Y-18087984D01*
X8110896Y-18087984D02*
X8129944Y-18097508D01*
X8129944Y-18097508D02*
X8139467Y-18107031D01*
X8139467Y-18107031D02*
X8148991Y-18126079D01*
X8148991Y-18126079D02*
X8158515Y-18164174D01*
X8158515Y-18164174D02*
X8158515Y-18211793D01*
X8158515Y-18211793D02*
X8148991Y-18249889D01*
X8148991Y-18249889D02*
X8139467Y-18268936D01*
X8139467Y-18268936D02*
X8129944Y-18278460D01*
X8129944Y-18278460D02*
X8110896Y-18287984D01*
X8110896Y-18287984D02*
X8091848Y-18287984D01*
X8091848Y-18287984D02*
X8072801Y-18278460D01*
X8072801Y-18278460D02*
X8063277Y-18268936D01*
X8063277Y-18268936D02*
X8053753Y-18249889D01*
X8053753Y-18249889D02*
X8044229Y-18211793D01*
X8044229Y-18211793D02*
X8044229Y-18164174D01*
X8044229Y-18164174D02*
X8053753Y-18126079D01*
X8053753Y-18126079D02*
X8063277Y-18107031D01*
X8063277Y-18107031D02*
X8072801Y-18097508D01*
X8072801Y-18097508D02*
X8091848Y-18087984D01*
X8348991Y-18287984D02*
X8234706Y-18287984D01*
X8291848Y-18287984D02*
X8291848Y-18087984D01*
X8291848Y-18087984D02*
X8272801Y-18116555D01*
X8272801Y-18116555D02*
X8253753Y-18135603D01*
X8253753Y-18135603D02*
X8234706Y-18145127D01*
X8444229Y-18287984D02*
X8482325Y-18287984D01*
X8482325Y-18287984D02*
X8501372Y-18278460D01*
X8501372Y-18278460D02*
X8510896Y-18268936D01*
X8510896Y-18268936D02*
X8529944Y-18240365D01*
X8529944Y-18240365D02*
X8539468Y-18202270D01*
X8539468Y-18202270D02*
X8539468Y-18126079D01*
X8539468Y-18126079D02*
X8529944Y-18107031D01*
X8529944Y-18107031D02*
X8520420Y-18097508D01*
X8520420Y-18097508D02*
X8501372Y-18087984D01*
X8501372Y-18087984D02*
X8463277Y-18087984D01*
X8463277Y-18087984D02*
X8444229Y-18097508D01*
X8444229Y-18097508D02*
X8434706Y-18107031D01*
X8434706Y-18107031D02*
X8425182Y-18126079D01*
X8425182Y-18126079D02*
X8425182Y-18173698D01*
X8425182Y-18173698D02*
X8434706Y-18192746D01*
X8434706Y-18192746D02*
X8444229Y-18202270D01*
X8444229Y-18202270D02*
X8463277Y-18211793D01*
X8463277Y-18211793D02*
X8501372Y-18211793D01*
X8501372Y-18211793D02*
X8520420Y-18202270D01*
X8520420Y-18202270D02*
X8529944Y-18192746D01*
X8529944Y-18192746D02*
X8539468Y-18173698D01*
X8606134Y-18087984D02*
X8739468Y-18087984D01*
X8739468Y-18087984D02*
X8653753Y-18287984D01*
X8806134Y-18087984D02*
X8806134Y-18126079D01*
X8882325Y-18087984D02*
X8882325Y-18126079D01*
X9177563Y-18364174D02*
X9168039Y-18354650D01*
X9168039Y-18354650D02*
X9148991Y-18326079D01*
X9148991Y-18326079D02*
X9139468Y-18307031D01*
X9139468Y-18307031D02*
X9129944Y-18278460D01*
X9129944Y-18278460D02*
X9120420Y-18230841D01*
X9120420Y-18230841D02*
X9120420Y-18192746D01*
X9120420Y-18192746D02*
X9129944Y-18145127D01*
X9129944Y-18145127D02*
X9139468Y-18116555D01*
X9139468Y-18116555D02*
X9148991Y-18097508D01*
X9148991Y-18097508D02*
X9168039Y-18068936D01*
X9168039Y-18068936D02*
X9177563Y-18059412D01*
X9339468Y-18154650D02*
X9339468Y-18287984D01*
X9291849Y-18078460D02*
X9244230Y-18221317D01*
X9244230Y-18221317D02*
X9368039Y-18221317D01*
X9472801Y-18173698D02*
X9453753Y-18164174D01*
X9453753Y-18164174D02*
X9444230Y-18154650D01*
X9444230Y-18154650D02*
X9434706Y-18135603D01*
X9434706Y-18135603D02*
X9434706Y-18126079D01*
X9434706Y-18126079D02*
X9444230Y-18107031D01*
X9444230Y-18107031D02*
X9453753Y-18097508D01*
X9453753Y-18097508D02*
X9472801Y-18087984D01*
X9472801Y-18087984D02*
X9510896Y-18087984D01*
X9510896Y-18087984D02*
X9529944Y-18097508D01*
X9529944Y-18097508D02*
X9539468Y-18107031D01*
X9539468Y-18107031D02*
X9548991Y-18126079D01*
X9548991Y-18126079D02*
X9548991Y-18135603D01*
X9548991Y-18135603D02*
X9539468Y-18154650D01*
X9539468Y-18154650D02*
X9529944Y-18164174D01*
X9529944Y-18164174D02*
X9510896Y-18173698D01*
X9510896Y-18173698D02*
X9472801Y-18173698D01*
X9472801Y-18173698D02*
X9453753Y-18183222D01*
X9453753Y-18183222D02*
X9444230Y-18192746D01*
X9444230Y-18192746D02*
X9434706Y-18211793D01*
X9434706Y-18211793D02*
X9434706Y-18249889D01*
X9434706Y-18249889D02*
X9444230Y-18268936D01*
X9444230Y-18268936D02*
X9453753Y-18278460D01*
X9453753Y-18278460D02*
X9472801Y-18287984D01*
X9472801Y-18287984D02*
X9510896Y-18287984D01*
X9510896Y-18287984D02*
X9529944Y-18278460D01*
X9529944Y-18278460D02*
X9539468Y-18268936D01*
X9539468Y-18268936D02*
X9548991Y-18249889D01*
X9548991Y-18249889D02*
X9548991Y-18211793D01*
X9548991Y-18211793D02*
X9539468Y-18192746D01*
X9539468Y-18192746D02*
X9529944Y-18183222D01*
X9529944Y-18183222D02*
X9510896Y-18173698D01*
X9787087Y-18287984D02*
X9787087Y-18087984D01*
X9872801Y-18287984D02*
X9872801Y-18183222D01*
X9872801Y-18183222D02*
X9863277Y-18164174D01*
X9863277Y-18164174D02*
X9844230Y-18154650D01*
X9844230Y-18154650D02*
X9815658Y-18154650D01*
X9815658Y-18154650D02*
X9796611Y-18164174D01*
X9796611Y-18164174D02*
X9787087Y-18173698D01*
X9996611Y-18287984D02*
X9977563Y-18278460D01*
X9977563Y-18278460D02*
X9968039Y-18268936D01*
X9968039Y-18268936D02*
X9958515Y-18249889D01*
X9958515Y-18249889D02*
X9958515Y-18192746D01*
X9958515Y-18192746D02*
X9968039Y-18173698D01*
X9968039Y-18173698D02*
X9977563Y-18164174D01*
X9977563Y-18164174D02*
X9996611Y-18154650D01*
X9996611Y-18154650D02*
X10025182Y-18154650D01*
X10025182Y-18154650D02*
X10044230Y-18164174D01*
X10044230Y-18164174D02*
X10053753Y-18173698D01*
X10053753Y-18173698D02*
X10063277Y-18192746D01*
X10063277Y-18192746D02*
X10063277Y-18249889D01*
X10063277Y-18249889D02*
X10053753Y-18268936D01*
X10053753Y-18268936D02*
X10044230Y-18278460D01*
X10044230Y-18278460D02*
X10025182Y-18287984D01*
X10025182Y-18287984D02*
X9996611Y-18287984D01*
X10177563Y-18287984D02*
X10158515Y-18278460D01*
X10158515Y-18278460D02*
X10148992Y-18259412D01*
X10148992Y-18259412D02*
X10148992Y-18087984D01*
X10329944Y-18278460D02*
X10310896Y-18287984D01*
X10310896Y-18287984D02*
X10272801Y-18287984D01*
X10272801Y-18287984D02*
X10253753Y-18278460D01*
X10253753Y-18278460D02*
X10244230Y-18259412D01*
X10244230Y-18259412D02*
X10244230Y-18183222D01*
X10244230Y-18183222D02*
X10253753Y-18164174D01*
X10253753Y-18164174D02*
X10272801Y-18154650D01*
X10272801Y-18154650D02*
X10310896Y-18154650D01*
X10310896Y-18154650D02*
X10329944Y-18164174D01*
X10329944Y-18164174D02*
X10339468Y-18183222D01*
X10339468Y-18183222D02*
X10339468Y-18202270D01*
X10339468Y-18202270D02*
X10244230Y-18221317D01*
X10415658Y-18278460D02*
X10434706Y-18287984D01*
X10434706Y-18287984D02*
X10472801Y-18287984D01*
X10472801Y-18287984D02*
X10491849Y-18278460D01*
X10491849Y-18278460D02*
X10501373Y-18259412D01*
X10501373Y-18259412D02*
X10501373Y-18249889D01*
X10501373Y-18249889D02*
X10491849Y-18230841D01*
X10491849Y-18230841D02*
X10472801Y-18221317D01*
X10472801Y-18221317D02*
X10444230Y-18221317D01*
X10444230Y-18221317D02*
X10425182Y-18211793D01*
X10425182Y-18211793D02*
X10415658Y-18192746D01*
X10415658Y-18192746D02*
X10415658Y-18183222D01*
X10415658Y-18183222D02*
X10425182Y-18164174D01*
X10425182Y-18164174D02*
X10444230Y-18154650D01*
X10444230Y-18154650D02*
X10472801Y-18154650D01*
X10472801Y-18154650D02*
X10491849Y-18164174D01*
X10568039Y-18364174D02*
X10577563Y-18354650D01*
X10577563Y-18354650D02*
X10596611Y-18326079D01*
X10596611Y-18326079D02*
X10606134Y-18307031D01*
X10606134Y-18307031D02*
X10615658Y-18278460D01*
X10615658Y-18278460D02*
X10625182Y-18230841D01*
X10625182Y-18230841D02*
X10625182Y-18192746D01*
X10625182Y-18192746D02*
X10615658Y-18145127D01*
X10615658Y-18145127D02*
X10606134Y-18116555D01*
X10606134Y-18116555D02*
X10596611Y-18097508D01*
X10596611Y-18097508D02*
X10577563Y-18068936D01*
X10577563Y-18068936D02*
X10568039Y-18059412D01*
D12*
X5567500Y-18425500D02*
X5567500Y-18495500D01*
X5532500Y-18460500D02*
X5602500Y-18460500D01*
D11*
X5901372Y-18351984D02*
X5920420Y-18351984D01*
X5920420Y-18351984D02*
X5939467Y-18361508D01*
X5939467Y-18361508D02*
X5948991Y-18371031D01*
X5948991Y-18371031D02*
X5958515Y-18390079D01*
X5958515Y-18390079D02*
X5968039Y-18428174D01*
X5968039Y-18428174D02*
X5968039Y-18475793D01*
X5968039Y-18475793D02*
X5958515Y-18513889D01*
X5958515Y-18513889D02*
X5948991Y-18532936D01*
X5948991Y-18532936D02*
X5939467Y-18542460D01*
X5939467Y-18542460D02*
X5920420Y-18551984D01*
X5920420Y-18551984D02*
X5901372Y-18551984D01*
X5901372Y-18551984D02*
X5882324Y-18542460D01*
X5882324Y-18542460D02*
X5872801Y-18532936D01*
X5872801Y-18532936D02*
X5863277Y-18513889D01*
X5863277Y-18513889D02*
X5853753Y-18475793D01*
X5853753Y-18475793D02*
X5853753Y-18428174D01*
X5853753Y-18428174D02*
X5863277Y-18390079D01*
X5863277Y-18390079D02*
X5872801Y-18371031D01*
X5872801Y-18371031D02*
X5882324Y-18361508D01*
X5882324Y-18361508D02*
X5901372Y-18351984D01*
X6053753Y-18532936D02*
X6063277Y-18542460D01*
X6063277Y-18542460D02*
X6053753Y-18551984D01*
X6053753Y-18551984D02*
X6044229Y-18542460D01*
X6044229Y-18542460D02*
X6053753Y-18532936D01*
X6053753Y-18532936D02*
X6053753Y-18551984D01*
X6129943Y-18351984D02*
X6263277Y-18351984D01*
X6263277Y-18351984D02*
X6177562Y-18551984D01*
X6377562Y-18351984D02*
X6396610Y-18351984D01*
X6396610Y-18351984D02*
X6415658Y-18361508D01*
X6415658Y-18361508D02*
X6425182Y-18371031D01*
X6425182Y-18371031D02*
X6434705Y-18390079D01*
X6434705Y-18390079D02*
X6444229Y-18428174D01*
X6444229Y-18428174D02*
X6444229Y-18475793D01*
X6444229Y-18475793D02*
X6434705Y-18513889D01*
X6434705Y-18513889D02*
X6425182Y-18532936D01*
X6425182Y-18532936D02*
X6415658Y-18542460D01*
X6415658Y-18542460D02*
X6396610Y-18551984D01*
X6396610Y-18551984D02*
X6377562Y-18551984D01*
X6377562Y-18551984D02*
X6358515Y-18542460D01*
X6358515Y-18542460D02*
X6348991Y-18532936D01*
X6348991Y-18532936D02*
X6339467Y-18513889D01*
X6339467Y-18513889D02*
X6329943Y-18475793D01*
X6329943Y-18475793D02*
X6329943Y-18428174D01*
X6329943Y-18428174D02*
X6339467Y-18390079D01*
X6339467Y-18390079D02*
X6348991Y-18371031D01*
X6348991Y-18371031D02*
X6358515Y-18361508D01*
X6358515Y-18361508D02*
X6377562Y-18351984D01*
X6568039Y-18351984D02*
X6587086Y-18351984D01*
X6587086Y-18351984D02*
X6606134Y-18361508D01*
X6606134Y-18361508D02*
X6615658Y-18371031D01*
X6615658Y-18371031D02*
X6625182Y-18390079D01*
X6625182Y-18390079D02*
X6634705Y-18428174D01*
X6634705Y-18428174D02*
X6634705Y-18475793D01*
X6634705Y-18475793D02*
X6625182Y-18513889D01*
X6625182Y-18513889D02*
X6615658Y-18532936D01*
X6615658Y-18532936D02*
X6606134Y-18542460D01*
X6606134Y-18542460D02*
X6587086Y-18551984D01*
X6587086Y-18551984D02*
X6568039Y-18551984D01*
X6568039Y-18551984D02*
X6548991Y-18542460D01*
X6548991Y-18542460D02*
X6539467Y-18532936D01*
X6539467Y-18532936D02*
X6529943Y-18513889D01*
X6529943Y-18513889D02*
X6520420Y-18475793D01*
X6520420Y-18475793D02*
X6520420Y-18428174D01*
X6520420Y-18428174D02*
X6529943Y-18390079D01*
X6529943Y-18390079D02*
X6539467Y-18371031D01*
X6539467Y-18371031D02*
X6548991Y-18361508D01*
X6548991Y-18361508D02*
X6568039Y-18351984D01*
X6720420Y-18551984D02*
X6720420Y-18418650D01*
X6720420Y-18437698D02*
X6729943Y-18428174D01*
X6729943Y-18428174D02*
X6748991Y-18418650D01*
X6748991Y-18418650D02*
X6777563Y-18418650D01*
X6777563Y-18418650D02*
X6796610Y-18428174D01*
X6796610Y-18428174D02*
X6806134Y-18447222D01*
X6806134Y-18447222D02*
X6806134Y-18551984D01*
X6806134Y-18447222D02*
X6815658Y-18428174D01*
X6815658Y-18428174D02*
X6834705Y-18418650D01*
X6834705Y-18418650D02*
X6863277Y-18418650D01*
X6863277Y-18418650D02*
X6882324Y-18428174D01*
X6882324Y-18428174D02*
X6891848Y-18447222D01*
X6891848Y-18447222D02*
X6891848Y-18551984D01*
X6987086Y-18551984D02*
X6987086Y-18418650D01*
X6987086Y-18437698D02*
X6996610Y-18428174D01*
X6996610Y-18428174D02*
X7015658Y-18418650D01*
X7015658Y-18418650D02*
X7044229Y-18418650D01*
X7044229Y-18418650D02*
X7063277Y-18428174D01*
X7063277Y-18428174D02*
X7072801Y-18447222D01*
X7072801Y-18447222D02*
X7072801Y-18551984D01*
X7072801Y-18447222D02*
X7082324Y-18428174D01*
X7082324Y-18428174D02*
X7101372Y-18418650D01*
X7101372Y-18418650D02*
X7129943Y-18418650D01*
X7129943Y-18418650D02*
X7148991Y-18428174D01*
X7148991Y-18428174D02*
X7158515Y-18447222D01*
X7158515Y-18447222D02*
X7158515Y-18551984D01*
X7548991Y-18342460D02*
X7377563Y-18599603D01*
X7806134Y-18351984D02*
X7825182Y-18351984D01*
X7825182Y-18351984D02*
X7844229Y-18361508D01*
X7844229Y-18361508D02*
X7853753Y-18371031D01*
X7853753Y-18371031D02*
X7863277Y-18390079D01*
X7863277Y-18390079D02*
X7872801Y-18428174D01*
X7872801Y-18428174D02*
X7872801Y-18475793D01*
X7872801Y-18475793D02*
X7863277Y-18513889D01*
X7863277Y-18513889D02*
X7853753Y-18532936D01*
X7853753Y-18532936D02*
X7844229Y-18542460D01*
X7844229Y-18542460D02*
X7825182Y-18551984D01*
X7825182Y-18551984D02*
X7806134Y-18551984D01*
X7806134Y-18551984D02*
X7787086Y-18542460D01*
X7787086Y-18542460D02*
X7777563Y-18532936D01*
X7777563Y-18532936D02*
X7768039Y-18513889D01*
X7768039Y-18513889D02*
X7758515Y-18475793D01*
X7758515Y-18475793D02*
X7758515Y-18428174D01*
X7758515Y-18428174D02*
X7768039Y-18390079D01*
X7768039Y-18390079D02*
X7777563Y-18371031D01*
X7777563Y-18371031D02*
X7787086Y-18361508D01*
X7787086Y-18361508D02*
X7806134Y-18351984D01*
X7958515Y-18532936D02*
X7968039Y-18542460D01*
X7968039Y-18542460D02*
X7958515Y-18551984D01*
X7958515Y-18551984D02*
X7948991Y-18542460D01*
X7948991Y-18542460D02*
X7958515Y-18532936D01*
X7958515Y-18532936D02*
X7958515Y-18551984D01*
X8091848Y-18351984D02*
X8110896Y-18351984D01*
X8110896Y-18351984D02*
X8129944Y-18361508D01*
X8129944Y-18361508D02*
X8139467Y-18371031D01*
X8139467Y-18371031D02*
X8148991Y-18390079D01*
X8148991Y-18390079D02*
X8158515Y-18428174D01*
X8158515Y-18428174D02*
X8158515Y-18475793D01*
X8158515Y-18475793D02*
X8148991Y-18513889D01*
X8148991Y-18513889D02*
X8139467Y-18532936D01*
X8139467Y-18532936D02*
X8129944Y-18542460D01*
X8129944Y-18542460D02*
X8110896Y-18551984D01*
X8110896Y-18551984D02*
X8091848Y-18551984D01*
X8091848Y-18551984D02*
X8072801Y-18542460D01*
X8072801Y-18542460D02*
X8063277Y-18532936D01*
X8063277Y-18532936D02*
X8053753Y-18513889D01*
X8053753Y-18513889D02*
X8044229Y-18475793D01*
X8044229Y-18475793D02*
X8044229Y-18428174D01*
X8044229Y-18428174D02*
X8053753Y-18390079D01*
X8053753Y-18390079D02*
X8063277Y-18371031D01*
X8063277Y-18371031D02*
X8072801Y-18361508D01*
X8072801Y-18361508D02*
X8091848Y-18351984D01*
X8234706Y-18371031D02*
X8244229Y-18361508D01*
X8244229Y-18361508D02*
X8263277Y-18351984D01*
X8263277Y-18351984D02*
X8310896Y-18351984D01*
X8310896Y-18351984D02*
X8329944Y-18361508D01*
X8329944Y-18361508D02*
X8339467Y-18371031D01*
X8339467Y-18371031D02*
X8348991Y-18390079D01*
X8348991Y-18390079D02*
X8348991Y-18409127D01*
X8348991Y-18409127D02*
X8339467Y-18437698D01*
X8339467Y-18437698D02*
X8225182Y-18551984D01*
X8225182Y-18551984D02*
X8348991Y-18551984D01*
X8415658Y-18351984D02*
X8548991Y-18351984D01*
X8548991Y-18351984D02*
X8463277Y-18551984D01*
X8710896Y-18351984D02*
X8672801Y-18351984D01*
X8672801Y-18351984D02*
X8653753Y-18361508D01*
X8653753Y-18361508D02*
X8644229Y-18371031D01*
X8644229Y-18371031D02*
X8625182Y-18399603D01*
X8625182Y-18399603D02*
X8615658Y-18437698D01*
X8615658Y-18437698D02*
X8615658Y-18513889D01*
X8615658Y-18513889D02*
X8625182Y-18532936D01*
X8625182Y-18532936D02*
X8634706Y-18542460D01*
X8634706Y-18542460D02*
X8653753Y-18551984D01*
X8653753Y-18551984D02*
X8691849Y-18551984D01*
X8691849Y-18551984D02*
X8710896Y-18542460D01*
X8710896Y-18542460D02*
X8720420Y-18532936D01*
X8720420Y-18532936D02*
X8729944Y-18513889D01*
X8729944Y-18513889D02*
X8729944Y-18466270D01*
X8729944Y-18466270D02*
X8720420Y-18447222D01*
X8720420Y-18447222D02*
X8710896Y-18437698D01*
X8710896Y-18437698D02*
X8691849Y-18428174D01*
X8691849Y-18428174D02*
X8653753Y-18428174D01*
X8653753Y-18428174D02*
X8634706Y-18437698D01*
X8634706Y-18437698D02*
X8625182Y-18447222D01*
X8625182Y-18447222D02*
X8615658Y-18466270D01*
X8806134Y-18351984D02*
X8806134Y-18390079D01*
X8882325Y-18351984D02*
X8882325Y-18390079D01*
X9177563Y-18628174D02*
X9168039Y-18618650D01*
X9168039Y-18618650D02*
X9148991Y-18590079D01*
X9148991Y-18590079D02*
X9139468Y-18571031D01*
X9139468Y-18571031D02*
X9129944Y-18542460D01*
X9129944Y-18542460D02*
X9120420Y-18494841D01*
X9120420Y-18494841D02*
X9120420Y-18456746D01*
X9120420Y-18456746D02*
X9129944Y-18409127D01*
X9129944Y-18409127D02*
X9139468Y-18380555D01*
X9139468Y-18380555D02*
X9148991Y-18361508D01*
X9148991Y-18361508D02*
X9168039Y-18332936D01*
X9168039Y-18332936D02*
X9177563Y-18323412D01*
X9358515Y-18551984D02*
X9244230Y-18551984D01*
X9301372Y-18551984D02*
X9301372Y-18351984D01*
X9301372Y-18351984D02*
X9282325Y-18380555D01*
X9282325Y-18380555D02*
X9263277Y-18399603D01*
X9263277Y-18399603D02*
X9244230Y-18409127D01*
X9482325Y-18351984D02*
X9501372Y-18351984D01*
X9501372Y-18351984D02*
X9520420Y-18361508D01*
X9520420Y-18361508D02*
X9529944Y-18371031D01*
X9529944Y-18371031D02*
X9539468Y-18390079D01*
X9539468Y-18390079D02*
X9548991Y-18428174D01*
X9548991Y-18428174D02*
X9548991Y-18475793D01*
X9548991Y-18475793D02*
X9539468Y-18513889D01*
X9539468Y-18513889D02*
X9529944Y-18532936D01*
X9529944Y-18532936D02*
X9520420Y-18542460D01*
X9520420Y-18542460D02*
X9501372Y-18551984D01*
X9501372Y-18551984D02*
X9482325Y-18551984D01*
X9482325Y-18551984D02*
X9463277Y-18542460D01*
X9463277Y-18542460D02*
X9453753Y-18532936D01*
X9453753Y-18532936D02*
X9444230Y-18513889D01*
X9444230Y-18513889D02*
X9434706Y-18475793D01*
X9434706Y-18475793D02*
X9434706Y-18428174D01*
X9434706Y-18428174D02*
X9444230Y-18390079D01*
X9444230Y-18390079D02*
X9453753Y-18371031D01*
X9453753Y-18371031D02*
X9463277Y-18361508D01*
X9463277Y-18361508D02*
X9482325Y-18351984D01*
X9787087Y-18551984D02*
X9787087Y-18351984D01*
X9872801Y-18551984D02*
X9872801Y-18447222D01*
X9872801Y-18447222D02*
X9863277Y-18428174D01*
X9863277Y-18428174D02*
X9844230Y-18418650D01*
X9844230Y-18418650D02*
X9815658Y-18418650D01*
X9815658Y-18418650D02*
X9796611Y-18428174D01*
X9796611Y-18428174D02*
X9787087Y-18437698D01*
X9996611Y-18551984D02*
X9977563Y-18542460D01*
X9977563Y-18542460D02*
X9968039Y-18532936D01*
X9968039Y-18532936D02*
X9958515Y-18513889D01*
X9958515Y-18513889D02*
X9958515Y-18456746D01*
X9958515Y-18456746D02*
X9968039Y-18437698D01*
X9968039Y-18437698D02*
X9977563Y-18428174D01*
X9977563Y-18428174D02*
X9996611Y-18418650D01*
X9996611Y-18418650D02*
X10025182Y-18418650D01*
X10025182Y-18418650D02*
X10044230Y-18428174D01*
X10044230Y-18428174D02*
X10053753Y-18437698D01*
X10053753Y-18437698D02*
X10063277Y-18456746D01*
X10063277Y-18456746D02*
X10063277Y-18513889D01*
X10063277Y-18513889D02*
X10053753Y-18532936D01*
X10053753Y-18532936D02*
X10044230Y-18542460D01*
X10044230Y-18542460D02*
X10025182Y-18551984D01*
X10025182Y-18551984D02*
X9996611Y-18551984D01*
X10177563Y-18551984D02*
X10158515Y-18542460D01*
X10158515Y-18542460D02*
X10148992Y-18523412D01*
X10148992Y-18523412D02*
X10148992Y-18351984D01*
X10329944Y-18542460D02*
X10310896Y-18551984D01*
X10310896Y-18551984D02*
X10272801Y-18551984D01*
X10272801Y-18551984D02*
X10253753Y-18542460D01*
X10253753Y-18542460D02*
X10244230Y-18523412D01*
X10244230Y-18523412D02*
X10244230Y-18447222D01*
X10244230Y-18447222D02*
X10253753Y-18428174D01*
X10253753Y-18428174D02*
X10272801Y-18418650D01*
X10272801Y-18418650D02*
X10310896Y-18418650D01*
X10310896Y-18418650D02*
X10329944Y-18428174D01*
X10329944Y-18428174D02*
X10339468Y-18447222D01*
X10339468Y-18447222D02*
X10339468Y-18466270D01*
X10339468Y-18466270D02*
X10244230Y-18485317D01*
X10415658Y-18542460D02*
X10434706Y-18551984D01*
X10434706Y-18551984D02*
X10472801Y-18551984D01*
X10472801Y-18551984D02*
X10491849Y-18542460D01*
X10491849Y-18542460D02*
X10501373Y-18523412D01*
X10501373Y-18523412D02*
X10501373Y-18513889D01*
X10501373Y-18513889D02*
X10491849Y-18494841D01*
X10491849Y-18494841D02*
X10472801Y-18485317D01*
X10472801Y-18485317D02*
X10444230Y-18485317D01*
X10444230Y-18485317D02*
X10425182Y-18475793D01*
X10425182Y-18475793D02*
X10415658Y-18456746D01*
X10415658Y-18456746D02*
X10415658Y-18447222D01*
X10415658Y-18447222D02*
X10425182Y-18428174D01*
X10425182Y-18428174D02*
X10444230Y-18418650D01*
X10444230Y-18418650D02*
X10472801Y-18418650D01*
X10472801Y-18418650D02*
X10491849Y-18428174D01*
X10568039Y-18628174D02*
X10577563Y-18618650D01*
X10577563Y-18618650D02*
X10596611Y-18590079D01*
X10596611Y-18590079D02*
X10606134Y-18571031D01*
X10606134Y-18571031D02*
X10615658Y-18542460D01*
X10615658Y-18542460D02*
X10625182Y-18494841D01*
X10625182Y-18494841D02*
X10625182Y-18456746D01*
X10625182Y-18456746D02*
X10615658Y-18409127D01*
X10615658Y-18409127D02*
X10606134Y-18380555D01*
X10606134Y-18380555D02*
X10596611Y-18361508D01*
X10596611Y-18361508D02*
X10577563Y-18332936D01*
X10577563Y-18332936D02*
X10568039Y-18323412D01*
D12*
X5590785Y-18752785D02*
X5590785Y-18696216D01*
X5534216Y-18696216D01*
X5534216Y-18752785D01*
X5590785Y-18752785D01*
D11*
X5901372Y-18615984D02*
X5920420Y-18615984D01*
X5920420Y-18615984D02*
X5939467Y-18625508D01*
X5939467Y-18625508D02*
X5948991Y-18635031D01*
X5948991Y-18635031D02*
X5958515Y-18654079D01*
X5958515Y-18654079D02*
X5968039Y-18692174D01*
X5968039Y-18692174D02*
X5968039Y-18739793D01*
X5968039Y-18739793D02*
X5958515Y-18777889D01*
X5958515Y-18777889D02*
X5948991Y-18796936D01*
X5948991Y-18796936D02*
X5939467Y-18806460D01*
X5939467Y-18806460D02*
X5920420Y-18815984D01*
X5920420Y-18815984D02*
X5901372Y-18815984D01*
X5901372Y-18815984D02*
X5882324Y-18806460D01*
X5882324Y-18806460D02*
X5872801Y-18796936D01*
X5872801Y-18796936D02*
X5863277Y-18777889D01*
X5863277Y-18777889D02*
X5853753Y-18739793D01*
X5853753Y-18739793D02*
X5853753Y-18692174D01*
X5853753Y-18692174D02*
X5863277Y-18654079D01*
X5863277Y-18654079D02*
X5872801Y-18635031D01*
X5872801Y-18635031D02*
X5882324Y-18625508D01*
X5882324Y-18625508D02*
X5901372Y-18615984D01*
X6053753Y-18796936D02*
X6063277Y-18806460D01*
X6063277Y-18806460D02*
X6053753Y-18815984D01*
X6053753Y-18815984D02*
X6044229Y-18806460D01*
X6044229Y-18806460D02*
X6053753Y-18796936D01*
X6053753Y-18796936D02*
X6053753Y-18815984D01*
X6177562Y-18701698D02*
X6158515Y-18692174D01*
X6158515Y-18692174D02*
X6148991Y-18682650D01*
X6148991Y-18682650D02*
X6139467Y-18663603D01*
X6139467Y-18663603D02*
X6139467Y-18654079D01*
X6139467Y-18654079D02*
X6148991Y-18635031D01*
X6148991Y-18635031D02*
X6158515Y-18625508D01*
X6158515Y-18625508D02*
X6177562Y-18615984D01*
X6177562Y-18615984D02*
X6215658Y-18615984D01*
X6215658Y-18615984D02*
X6234705Y-18625508D01*
X6234705Y-18625508D02*
X6244229Y-18635031D01*
X6244229Y-18635031D02*
X6253753Y-18654079D01*
X6253753Y-18654079D02*
X6253753Y-18663603D01*
X6253753Y-18663603D02*
X6244229Y-18682650D01*
X6244229Y-18682650D02*
X6234705Y-18692174D01*
X6234705Y-18692174D02*
X6215658Y-18701698D01*
X6215658Y-18701698D02*
X6177562Y-18701698D01*
X6177562Y-18701698D02*
X6158515Y-18711222D01*
X6158515Y-18711222D02*
X6148991Y-18720746D01*
X6148991Y-18720746D02*
X6139467Y-18739793D01*
X6139467Y-18739793D02*
X6139467Y-18777889D01*
X6139467Y-18777889D02*
X6148991Y-18796936D01*
X6148991Y-18796936D02*
X6158515Y-18806460D01*
X6158515Y-18806460D02*
X6177562Y-18815984D01*
X6177562Y-18815984D02*
X6215658Y-18815984D01*
X6215658Y-18815984D02*
X6234705Y-18806460D01*
X6234705Y-18806460D02*
X6244229Y-18796936D01*
X6244229Y-18796936D02*
X6253753Y-18777889D01*
X6253753Y-18777889D02*
X6253753Y-18739793D01*
X6253753Y-18739793D02*
X6244229Y-18720746D01*
X6244229Y-18720746D02*
X6234705Y-18711222D01*
X6234705Y-18711222D02*
X6215658Y-18701698D01*
X6377562Y-18615984D02*
X6396610Y-18615984D01*
X6396610Y-18615984D02*
X6415658Y-18625508D01*
X6415658Y-18625508D02*
X6425182Y-18635031D01*
X6425182Y-18635031D02*
X6434705Y-18654079D01*
X6434705Y-18654079D02*
X6444229Y-18692174D01*
X6444229Y-18692174D02*
X6444229Y-18739793D01*
X6444229Y-18739793D02*
X6434705Y-18777889D01*
X6434705Y-18777889D02*
X6425182Y-18796936D01*
X6425182Y-18796936D02*
X6415658Y-18806460D01*
X6415658Y-18806460D02*
X6396610Y-18815984D01*
X6396610Y-18815984D02*
X6377562Y-18815984D01*
X6377562Y-18815984D02*
X6358515Y-18806460D01*
X6358515Y-18806460D02*
X6348991Y-18796936D01*
X6348991Y-18796936D02*
X6339467Y-18777889D01*
X6339467Y-18777889D02*
X6329943Y-18739793D01*
X6329943Y-18739793D02*
X6329943Y-18692174D01*
X6329943Y-18692174D02*
X6339467Y-18654079D01*
X6339467Y-18654079D02*
X6348991Y-18635031D01*
X6348991Y-18635031D02*
X6358515Y-18625508D01*
X6358515Y-18625508D02*
X6377562Y-18615984D01*
X6568039Y-18615984D02*
X6587086Y-18615984D01*
X6587086Y-18615984D02*
X6606134Y-18625508D01*
X6606134Y-18625508D02*
X6615658Y-18635031D01*
X6615658Y-18635031D02*
X6625182Y-18654079D01*
X6625182Y-18654079D02*
X6634705Y-18692174D01*
X6634705Y-18692174D02*
X6634705Y-18739793D01*
X6634705Y-18739793D02*
X6625182Y-18777889D01*
X6625182Y-18777889D02*
X6615658Y-18796936D01*
X6615658Y-18796936D02*
X6606134Y-18806460D01*
X6606134Y-18806460D02*
X6587086Y-18815984D01*
X6587086Y-18815984D02*
X6568039Y-18815984D01*
X6568039Y-18815984D02*
X6548991Y-18806460D01*
X6548991Y-18806460D02*
X6539467Y-18796936D01*
X6539467Y-18796936D02*
X6529943Y-18777889D01*
X6529943Y-18777889D02*
X6520420Y-18739793D01*
X6520420Y-18739793D02*
X6520420Y-18692174D01*
X6520420Y-18692174D02*
X6529943Y-18654079D01*
X6529943Y-18654079D02*
X6539467Y-18635031D01*
X6539467Y-18635031D02*
X6548991Y-18625508D01*
X6548991Y-18625508D02*
X6568039Y-18615984D01*
X6720420Y-18815984D02*
X6720420Y-18682650D01*
X6720420Y-18701698D02*
X6729943Y-18692174D01*
X6729943Y-18692174D02*
X6748991Y-18682650D01*
X6748991Y-18682650D02*
X6777563Y-18682650D01*
X6777563Y-18682650D02*
X6796610Y-18692174D01*
X6796610Y-18692174D02*
X6806134Y-18711222D01*
X6806134Y-18711222D02*
X6806134Y-18815984D01*
X6806134Y-18711222D02*
X6815658Y-18692174D01*
X6815658Y-18692174D02*
X6834705Y-18682650D01*
X6834705Y-18682650D02*
X6863277Y-18682650D01*
X6863277Y-18682650D02*
X6882324Y-18692174D01*
X6882324Y-18692174D02*
X6891848Y-18711222D01*
X6891848Y-18711222D02*
X6891848Y-18815984D01*
X6987086Y-18815984D02*
X6987086Y-18682650D01*
X6987086Y-18701698D02*
X6996610Y-18692174D01*
X6996610Y-18692174D02*
X7015658Y-18682650D01*
X7015658Y-18682650D02*
X7044229Y-18682650D01*
X7044229Y-18682650D02*
X7063277Y-18692174D01*
X7063277Y-18692174D02*
X7072801Y-18711222D01*
X7072801Y-18711222D02*
X7072801Y-18815984D01*
X7072801Y-18711222D02*
X7082324Y-18692174D01*
X7082324Y-18692174D02*
X7101372Y-18682650D01*
X7101372Y-18682650D02*
X7129943Y-18682650D01*
X7129943Y-18682650D02*
X7148991Y-18692174D01*
X7148991Y-18692174D02*
X7158515Y-18711222D01*
X7158515Y-18711222D02*
X7158515Y-18815984D01*
X7548991Y-18606460D02*
X7377563Y-18863603D01*
X7806134Y-18615984D02*
X7825182Y-18615984D01*
X7825182Y-18615984D02*
X7844229Y-18625508D01*
X7844229Y-18625508D02*
X7853753Y-18635031D01*
X7853753Y-18635031D02*
X7863277Y-18654079D01*
X7863277Y-18654079D02*
X7872801Y-18692174D01*
X7872801Y-18692174D02*
X7872801Y-18739793D01*
X7872801Y-18739793D02*
X7863277Y-18777889D01*
X7863277Y-18777889D02*
X7853753Y-18796936D01*
X7853753Y-18796936D02*
X7844229Y-18806460D01*
X7844229Y-18806460D02*
X7825182Y-18815984D01*
X7825182Y-18815984D02*
X7806134Y-18815984D01*
X7806134Y-18815984D02*
X7787086Y-18806460D01*
X7787086Y-18806460D02*
X7777563Y-18796936D01*
X7777563Y-18796936D02*
X7768039Y-18777889D01*
X7768039Y-18777889D02*
X7758515Y-18739793D01*
X7758515Y-18739793D02*
X7758515Y-18692174D01*
X7758515Y-18692174D02*
X7768039Y-18654079D01*
X7768039Y-18654079D02*
X7777563Y-18635031D01*
X7777563Y-18635031D02*
X7787086Y-18625508D01*
X7787086Y-18625508D02*
X7806134Y-18615984D01*
X7958515Y-18796936D02*
X7968039Y-18806460D01*
X7968039Y-18806460D02*
X7958515Y-18815984D01*
X7958515Y-18815984D02*
X7948991Y-18806460D01*
X7948991Y-18806460D02*
X7958515Y-18796936D01*
X7958515Y-18796936D02*
X7958515Y-18815984D01*
X8091848Y-18615984D02*
X8110896Y-18615984D01*
X8110896Y-18615984D02*
X8129944Y-18625508D01*
X8129944Y-18625508D02*
X8139467Y-18635031D01*
X8139467Y-18635031D02*
X8148991Y-18654079D01*
X8148991Y-18654079D02*
X8158515Y-18692174D01*
X8158515Y-18692174D02*
X8158515Y-18739793D01*
X8158515Y-18739793D02*
X8148991Y-18777889D01*
X8148991Y-18777889D02*
X8139467Y-18796936D01*
X8139467Y-18796936D02*
X8129944Y-18806460D01*
X8129944Y-18806460D02*
X8110896Y-18815984D01*
X8110896Y-18815984D02*
X8091848Y-18815984D01*
X8091848Y-18815984D02*
X8072801Y-18806460D01*
X8072801Y-18806460D02*
X8063277Y-18796936D01*
X8063277Y-18796936D02*
X8053753Y-18777889D01*
X8053753Y-18777889D02*
X8044229Y-18739793D01*
X8044229Y-18739793D02*
X8044229Y-18692174D01*
X8044229Y-18692174D02*
X8053753Y-18654079D01*
X8053753Y-18654079D02*
X8063277Y-18635031D01*
X8063277Y-18635031D02*
X8072801Y-18625508D01*
X8072801Y-18625508D02*
X8091848Y-18615984D01*
X8225182Y-18615984D02*
X8348991Y-18615984D01*
X8348991Y-18615984D02*
X8282325Y-18692174D01*
X8282325Y-18692174D02*
X8310896Y-18692174D01*
X8310896Y-18692174D02*
X8329944Y-18701698D01*
X8329944Y-18701698D02*
X8339467Y-18711222D01*
X8339467Y-18711222D02*
X8348991Y-18730270D01*
X8348991Y-18730270D02*
X8348991Y-18777889D01*
X8348991Y-18777889D02*
X8339467Y-18796936D01*
X8339467Y-18796936D02*
X8329944Y-18806460D01*
X8329944Y-18806460D02*
X8310896Y-18815984D01*
X8310896Y-18815984D02*
X8253753Y-18815984D01*
X8253753Y-18815984D02*
X8234706Y-18806460D01*
X8234706Y-18806460D02*
X8225182Y-18796936D01*
X8539468Y-18815984D02*
X8425182Y-18815984D01*
X8482325Y-18815984D02*
X8482325Y-18615984D01*
X8482325Y-18615984D02*
X8463277Y-18644555D01*
X8463277Y-18644555D02*
X8444229Y-18663603D01*
X8444229Y-18663603D02*
X8425182Y-18673127D01*
X8720420Y-18615984D02*
X8625182Y-18615984D01*
X8625182Y-18615984D02*
X8615658Y-18711222D01*
X8615658Y-18711222D02*
X8625182Y-18701698D01*
X8625182Y-18701698D02*
X8644229Y-18692174D01*
X8644229Y-18692174D02*
X8691849Y-18692174D01*
X8691849Y-18692174D02*
X8710896Y-18701698D01*
X8710896Y-18701698D02*
X8720420Y-18711222D01*
X8720420Y-18711222D02*
X8729944Y-18730270D01*
X8729944Y-18730270D02*
X8729944Y-18777889D01*
X8729944Y-18777889D02*
X8720420Y-18796936D01*
X8720420Y-18796936D02*
X8710896Y-18806460D01*
X8710896Y-18806460D02*
X8691849Y-18815984D01*
X8691849Y-18815984D02*
X8644229Y-18815984D01*
X8644229Y-18815984D02*
X8625182Y-18806460D01*
X8625182Y-18806460D02*
X8615658Y-18796936D01*
X8806134Y-18615984D02*
X8806134Y-18654079D01*
X8882325Y-18615984D02*
X8882325Y-18654079D01*
X9177563Y-18892174D02*
X9168039Y-18882650D01*
X9168039Y-18882650D02*
X9148991Y-18854079D01*
X9148991Y-18854079D02*
X9139468Y-18835031D01*
X9139468Y-18835031D02*
X9129944Y-18806460D01*
X9129944Y-18806460D02*
X9120420Y-18758841D01*
X9120420Y-18758841D02*
X9120420Y-18720746D01*
X9120420Y-18720746D02*
X9129944Y-18673127D01*
X9129944Y-18673127D02*
X9139468Y-18644555D01*
X9139468Y-18644555D02*
X9148991Y-18625508D01*
X9148991Y-18625508D02*
X9168039Y-18596936D01*
X9168039Y-18596936D02*
X9177563Y-18587412D01*
X9358515Y-18815984D02*
X9244230Y-18815984D01*
X9301372Y-18815984D02*
X9301372Y-18615984D01*
X9301372Y-18615984D02*
X9282325Y-18644555D01*
X9282325Y-18644555D02*
X9263277Y-18663603D01*
X9263277Y-18663603D02*
X9244230Y-18673127D01*
X9434706Y-18635031D02*
X9444230Y-18625508D01*
X9444230Y-18625508D02*
X9463277Y-18615984D01*
X9463277Y-18615984D02*
X9510896Y-18615984D01*
X9510896Y-18615984D02*
X9529944Y-18625508D01*
X9529944Y-18625508D02*
X9539468Y-18635031D01*
X9539468Y-18635031D02*
X9548991Y-18654079D01*
X9548991Y-18654079D02*
X9548991Y-18673127D01*
X9548991Y-18673127D02*
X9539468Y-18701698D01*
X9539468Y-18701698D02*
X9425182Y-18815984D01*
X9425182Y-18815984D02*
X9548991Y-18815984D01*
X9787087Y-18815984D02*
X9787087Y-18615984D01*
X9872801Y-18815984D02*
X9872801Y-18711222D01*
X9872801Y-18711222D02*
X9863277Y-18692174D01*
X9863277Y-18692174D02*
X9844230Y-18682650D01*
X9844230Y-18682650D02*
X9815658Y-18682650D01*
X9815658Y-18682650D02*
X9796611Y-18692174D01*
X9796611Y-18692174D02*
X9787087Y-18701698D01*
X9996611Y-18815984D02*
X9977563Y-18806460D01*
X9977563Y-18806460D02*
X9968039Y-18796936D01*
X9968039Y-18796936D02*
X9958515Y-18777889D01*
X9958515Y-18777889D02*
X9958515Y-18720746D01*
X9958515Y-18720746D02*
X9968039Y-18701698D01*
X9968039Y-18701698D02*
X9977563Y-18692174D01*
X9977563Y-18692174D02*
X9996611Y-18682650D01*
X9996611Y-18682650D02*
X10025182Y-18682650D01*
X10025182Y-18682650D02*
X10044230Y-18692174D01*
X10044230Y-18692174D02*
X10053753Y-18701698D01*
X10053753Y-18701698D02*
X10063277Y-18720746D01*
X10063277Y-18720746D02*
X10063277Y-18777889D01*
X10063277Y-18777889D02*
X10053753Y-18796936D01*
X10053753Y-18796936D02*
X10044230Y-18806460D01*
X10044230Y-18806460D02*
X10025182Y-18815984D01*
X10025182Y-18815984D02*
X9996611Y-18815984D01*
X10177563Y-18815984D02*
X10158515Y-18806460D01*
X10158515Y-18806460D02*
X10148992Y-18787412D01*
X10148992Y-18787412D02*
X10148992Y-18615984D01*
X10329944Y-18806460D02*
X10310896Y-18815984D01*
X10310896Y-18815984D02*
X10272801Y-18815984D01*
X10272801Y-18815984D02*
X10253753Y-18806460D01*
X10253753Y-18806460D02*
X10244230Y-18787412D01*
X10244230Y-18787412D02*
X10244230Y-18711222D01*
X10244230Y-18711222D02*
X10253753Y-18692174D01*
X10253753Y-18692174D02*
X10272801Y-18682650D01*
X10272801Y-18682650D02*
X10310896Y-18682650D01*
X10310896Y-18682650D02*
X10329944Y-18692174D01*
X10329944Y-18692174D02*
X10339468Y-18711222D01*
X10339468Y-18711222D02*
X10339468Y-18730270D01*
X10339468Y-18730270D02*
X10244230Y-18749317D01*
X10415658Y-18806460D02*
X10434706Y-18815984D01*
X10434706Y-18815984D02*
X10472801Y-18815984D01*
X10472801Y-18815984D02*
X10491849Y-18806460D01*
X10491849Y-18806460D02*
X10501373Y-18787412D01*
X10501373Y-18787412D02*
X10501373Y-18777889D01*
X10501373Y-18777889D02*
X10491849Y-18758841D01*
X10491849Y-18758841D02*
X10472801Y-18749317D01*
X10472801Y-18749317D02*
X10444230Y-18749317D01*
X10444230Y-18749317D02*
X10425182Y-18739793D01*
X10425182Y-18739793D02*
X10415658Y-18720746D01*
X10415658Y-18720746D02*
X10415658Y-18711222D01*
X10415658Y-18711222D02*
X10425182Y-18692174D01*
X10425182Y-18692174D02*
X10444230Y-18682650D01*
X10444230Y-18682650D02*
X10472801Y-18682650D01*
X10472801Y-18682650D02*
X10491849Y-18692174D01*
X10568039Y-18892174D02*
X10577563Y-18882650D01*
X10577563Y-18882650D02*
X10596611Y-18854079D01*
X10596611Y-18854079D02*
X10606134Y-18835031D01*
X10606134Y-18835031D02*
X10615658Y-18806460D01*
X10615658Y-18806460D02*
X10625182Y-18758841D01*
X10625182Y-18758841D02*
X10625182Y-18720746D01*
X10625182Y-18720746D02*
X10615658Y-18673127D01*
X10615658Y-18673127D02*
X10606134Y-18644555D01*
X10606134Y-18644555D02*
X10596611Y-18625508D01*
X10596611Y-18625508D02*
X10577563Y-18596936D01*
X10577563Y-18596936D02*
X10568039Y-18587412D01*
D12*
X5552500Y-19038500D02*
X5602500Y-18988500D01*
X5552500Y-18938500D01*
X5502500Y-18988500D01*
X5552500Y-19038500D01*
D11*
X5968039Y-19079984D02*
X5853753Y-19079984D01*
X5910896Y-19079984D02*
X5910896Y-18879984D01*
X5910896Y-18879984D02*
X5891848Y-18908555D01*
X5891848Y-18908555D02*
X5872801Y-18927603D01*
X5872801Y-18927603D02*
X5853753Y-18937127D01*
X6053753Y-19060936D02*
X6063277Y-19070460D01*
X6063277Y-19070460D02*
X6053753Y-19079984D01*
X6053753Y-19079984D02*
X6044229Y-19070460D01*
X6044229Y-19070460D02*
X6053753Y-19060936D01*
X6053753Y-19060936D02*
X6053753Y-19079984D01*
X6187086Y-18879984D02*
X6206134Y-18879984D01*
X6206134Y-18879984D02*
X6225182Y-18889508D01*
X6225182Y-18889508D02*
X6234705Y-18899031D01*
X6234705Y-18899031D02*
X6244229Y-18918079D01*
X6244229Y-18918079D02*
X6253753Y-18956174D01*
X6253753Y-18956174D02*
X6253753Y-19003793D01*
X6253753Y-19003793D02*
X6244229Y-19041889D01*
X6244229Y-19041889D02*
X6234705Y-19060936D01*
X6234705Y-19060936D02*
X6225182Y-19070460D01*
X6225182Y-19070460D02*
X6206134Y-19079984D01*
X6206134Y-19079984D02*
X6187086Y-19079984D01*
X6187086Y-19079984D02*
X6168039Y-19070460D01*
X6168039Y-19070460D02*
X6158515Y-19060936D01*
X6158515Y-19060936D02*
X6148991Y-19041889D01*
X6148991Y-19041889D02*
X6139467Y-19003793D01*
X6139467Y-19003793D02*
X6139467Y-18956174D01*
X6139467Y-18956174D02*
X6148991Y-18918079D01*
X6148991Y-18918079D02*
X6158515Y-18899031D01*
X6158515Y-18899031D02*
X6168039Y-18889508D01*
X6168039Y-18889508D02*
X6187086Y-18879984D01*
X6377562Y-18879984D02*
X6396610Y-18879984D01*
X6396610Y-18879984D02*
X6415658Y-18889508D01*
X6415658Y-18889508D02*
X6425182Y-18899031D01*
X6425182Y-18899031D02*
X6434705Y-18918079D01*
X6434705Y-18918079D02*
X6444229Y-18956174D01*
X6444229Y-18956174D02*
X6444229Y-19003793D01*
X6444229Y-19003793D02*
X6434705Y-19041889D01*
X6434705Y-19041889D02*
X6425182Y-19060936D01*
X6425182Y-19060936D02*
X6415658Y-19070460D01*
X6415658Y-19070460D02*
X6396610Y-19079984D01*
X6396610Y-19079984D02*
X6377562Y-19079984D01*
X6377562Y-19079984D02*
X6358515Y-19070460D01*
X6358515Y-19070460D02*
X6348991Y-19060936D01*
X6348991Y-19060936D02*
X6339467Y-19041889D01*
X6339467Y-19041889D02*
X6329943Y-19003793D01*
X6329943Y-19003793D02*
X6329943Y-18956174D01*
X6329943Y-18956174D02*
X6339467Y-18918079D01*
X6339467Y-18918079D02*
X6348991Y-18899031D01*
X6348991Y-18899031D02*
X6358515Y-18889508D01*
X6358515Y-18889508D02*
X6377562Y-18879984D01*
X6568039Y-18879984D02*
X6587086Y-18879984D01*
X6587086Y-18879984D02*
X6606134Y-18889508D01*
X6606134Y-18889508D02*
X6615658Y-18899031D01*
X6615658Y-18899031D02*
X6625182Y-18918079D01*
X6625182Y-18918079D02*
X6634705Y-18956174D01*
X6634705Y-18956174D02*
X6634705Y-19003793D01*
X6634705Y-19003793D02*
X6625182Y-19041889D01*
X6625182Y-19041889D02*
X6615658Y-19060936D01*
X6615658Y-19060936D02*
X6606134Y-19070460D01*
X6606134Y-19070460D02*
X6587086Y-19079984D01*
X6587086Y-19079984D02*
X6568039Y-19079984D01*
X6568039Y-19079984D02*
X6548991Y-19070460D01*
X6548991Y-19070460D02*
X6539467Y-19060936D01*
X6539467Y-19060936D02*
X6529943Y-19041889D01*
X6529943Y-19041889D02*
X6520420Y-19003793D01*
X6520420Y-19003793D02*
X6520420Y-18956174D01*
X6520420Y-18956174D02*
X6529943Y-18918079D01*
X6529943Y-18918079D02*
X6539467Y-18899031D01*
X6539467Y-18899031D02*
X6548991Y-18889508D01*
X6548991Y-18889508D02*
X6568039Y-18879984D01*
X6720420Y-19079984D02*
X6720420Y-18946650D01*
X6720420Y-18965698D02*
X6729943Y-18956174D01*
X6729943Y-18956174D02*
X6748991Y-18946650D01*
X6748991Y-18946650D02*
X6777563Y-18946650D01*
X6777563Y-18946650D02*
X6796610Y-18956174D01*
X6796610Y-18956174D02*
X6806134Y-18975222D01*
X6806134Y-18975222D02*
X6806134Y-19079984D01*
X6806134Y-18975222D02*
X6815658Y-18956174D01*
X6815658Y-18956174D02*
X6834705Y-18946650D01*
X6834705Y-18946650D02*
X6863277Y-18946650D01*
X6863277Y-18946650D02*
X6882324Y-18956174D01*
X6882324Y-18956174D02*
X6891848Y-18975222D01*
X6891848Y-18975222D02*
X6891848Y-19079984D01*
X6987086Y-19079984D02*
X6987086Y-18946650D01*
X6987086Y-18965698D02*
X6996610Y-18956174D01*
X6996610Y-18956174D02*
X7015658Y-18946650D01*
X7015658Y-18946650D02*
X7044229Y-18946650D01*
X7044229Y-18946650D02*
X7063277Y-18956174D01*
X7063277Y-18956174D02*
X7072801Y-18975222D01*
X7072801Y-18975222D02*
X7072801Y-19079984D01*
X7072801Y-18975222D02*
X7082324Y-18956174D01*
X7082324Y-18956174D02*
X7101372Y-18946650D01*
X7101372Y-18946650D02*
X7129943Y-18946650D01*
X7129943Y-18946650D02*
X7148991Y-18956174D01*
X7148991Y-18956174D02*
X7158515Y-18975222D01*
X7158515Y-18975222D02*
X7158515Y-19079984D01*
X7548991Y-18870460D02*
X7377563Y-19127603D01*
X7806134Y-18879984D02*
X7825182Y-18879984D01*
X7825182Y-18879984D02*
X7844229Y-18889508D01*
X7844229Y-18889508D02*
X7853753Y-18899031D01*
X7853753Y-18899031D02*
X7863277Y-18918079D01*
X7863277Y-18918079D02*
X7872801Y-18956174D01*
X7872801Y-18956174D02*
X7872801Y-19003793D01*
X7872801Y-19003793D02*
X7863277Y-19041889D01*
X7863277Y-19041889D02*
X7853753Y-19060936D01*
X7853753Y-19060936D02*
X7844229Y-19070460D01*
X7844229Y-19070460D02*
X7825182Y-19079984D01*
X7825182Y-19079984D02*
X7806134Y-19079984D01*
X7806134Y-19079984D02*
X7787086Y-19070460D01*
X7787086Y-19070460D02*
X7777563Y-19060936D01*
X7777563Y-19060936D02*
X7768039Y-19041889D01*
X7768039Y-19041889D02*
X7758515Y-19003793D01*
X7758515Y-19003793D02*
X7758515Y-18956174D01*
X7758515Y-18956174D02*
X7768039Y-18918079D01*
X7768039Y-18918079D02*
X7777563Y-18899031D01*
X7777563Y-18899031D02*
X7787086Y-18889508D01*
X7787086Y-18889508D02*
X7806134Y-18879984D01*
X7958515Y-19060936D02*
X7968039Y-19070460D01*
X7968039Y-19070460D02*
X7958515Y-19079984D01*
X7958515Y-19079984D02*
X7948991Y-19070460D01*
X7948991Y-19070460D02*
X7958515Y-19060936D01*
X7958515Y-19060936D02*
X7958515Y-19079984D01*
X8091848Y-18879984D02*
X8110896Y-18879984D01*
X8110896Y-18879984D02*
X8129944Y-18889508D01*
X8129944Y-18889508D02*
X8139467Y-18899031D01*
X8139467Y-18899031D02*
X8148991Y-18918079D01*
X8148991Y-18918079D02*
X8158515Y-18956174D01*
X8158515Y-18956174D02*
X8158515Y-19003793D01*
X8158515Y-19003793D02*
X8148991Y-19041889D01*
X8148991Y-19041889D02*
X8139467Y-19060936D01*
X8139467Y-19060936D02*
X8129944Y-19070460D01*
X8129944Y-19070460D02*
X8110896Y-19079984D01*
X8110896Y-19079984D02*
X8091848Y-19079984D01*
X8091848Y-19079984D02*
X8072801Y-19070460D01*
X8072801Y-19070460D02*
X8063277Y-19060936D01*
X8063277Y-19060936D02*
X8053753Y-19041889D01*
X8053753Y-19041889D02*
X8044229Y-19003793D01*
X8044229Y-19003793D02*
X8044229Y-18956174D01*
X8044229Y-18956174D02*
X8053753Y-18918079D01*
X8053753Y-18918079D02*
X8063277Y-18899031D01*
X8063277Y-18899031D02*
X8072801Y-18889508D01*
X8072801Y-18889508D02*
X8091848Y-18879984D01*
X8225182Y-18879984D02*
X8348991Y-18879984D01*
X8348991Y-18879984D02*
X8282325Y-18956174D01*
X8282325Y-18956174D02*
X8310896Y-18956174D01*
X8310896Y-18956174D02*
X8329944Y-18965698D01*
X8329944Y-18965698D02*
X8339467Y-18975222D01*
X8339467Y-18975222D02*
X8348991Y-18994270D01*
X8348991Y-18994270D02*
X8348991Y-19041889D01*
X8348991Y-19041889D02*
X8339467Y-19060936D01*
X8339467Y-19060936D02*
X8329944Y-19070460D01*
X8329944Y-19070460D02*
X8310896Y-19079984D01*
X8310896Y-19079984D02*
X8253753Y-19079984D01*
X8253753Y-19079984D02*
X8234706Y-19070460D01*
X8234706Y-19070460D02*
X8225182Y-19060936D01*
X8444229Y-19079984D02*
X8482325Y-19079984D01*
X8482325Y-19079984D02*
X8501372Y-19070460D01*
X8501372Y-19070460D02*
X8510896Y-19060936D01*
X8510896Y-19060936D02*
X8529944Y-19032365D01*
X8529944Y-19032365D02*
X8539468Y-18994270D01*
X8539468Y-18994270D02*
X8539468Y-18918079D01*
X8539468Y-18918079D02*
X8529944Y-18899031D01*
X8529944Y-18899031D02*
X8520420Y-18889508D01*
X8520420Y-18889508D02*
X8501372Y-18879984D01*
X8501372Y-18879984D02*
X8463277Y-18879984D01*
X8463277Y-18879984D02*
X8444229Y-18889508D01*
X8444229Y-18889508D02*
X8434706Y-18899031D01*
X8434706Y-18899031D02*
X8425182Y-18918079D01*
X8425182Y-18918079D02*
X8425182Y-18965698D01*
X8425182Y-18965698D02*
X8434706Y-18984746D01*
X8434706Y-18984746D02*
X8444229Y-18994270D01*
X8444229Y-18994270D02*
X8463277Y-19003793D01*
X8463277Y-19003793D02*
X8501372Y-19003793D01*
X8501372Y-19003793D02*
X8520420Y-18994270D01*
X8520420Y-18994270D02*
X8529944Y-18984746D01*
X8529944Y-18984746D02*
X8539468Y-18965698D01*
X8710896Y-18946650D02*
X8710896Y-19079984D01*
X8663277Y-18870460D02*
X8615658Y-19013317D01*
X8615658Y-19013317D02*
X8739468Y-19013317D01*
X8806134Y-18879984D02*
X8806134Y-18918079D01*
X8882325Y-18879984D02*
X8882325Y-18918079D01*
X9177563Y-19156174D02*
X9168039Y-19146650D01*
X9168039Y-19146650D02*
X9148991Y-19118079D01*
X9148991Y-19118079D02*
X9139468Y-19099031D01*
X9139468Y-19099031D02*
X9129944Y-19070460D01*
X9129944Y-19070460D02*
X9120420Y-19022841D01*
X9120420Y-19022841D02*
X9120420Y-18984746D01*
X9120420Y-18984746D02*
X9129944Y-18937127D01*
X9129944Y-18937127D02*
X9139468Y-18908555D01*
X9139468Y-18908555D02*
X9148991Y-18889508D01*
X9148991Y-18889508D02*
X9168039Y-18860936D01*
X9168039Y-18860936D02*
X9177563Y-18851412D01*
X9358515Y-19079984D02*
X9244230Y-19079984D01*
X9301372Y-19079984D02*
X9301372Y-18879984D01*
X9301372Y-18879984D02*
X9282325Y-18908555D01*
X9282325Y-18908555D02*
X9263277Y-18927603D01*
X9263277Y-18927603D02*
X9244230Y-18937127D01*
X9425182Y-18879984D02*
X9548991Y-18879984D01*
X9548991Y-18879984D02*
X9482325Y-18956174D01*
X9482325Y-18956174D02*
X9510896Y-18956174D01*
X9510896Y-18956174D02*
X9529944Y-18965698D01*
X9529944Y-18965698D02*
X9539468Y-18975222D01*
X9539468Y-18975222D02*
X9548991Y-18994270D01*
X9548991Y-18994270D02*
X9548991Y-19041889D01*
X9548991Y-19041889D02*
X9539468Y-19060936D01*
X9539468Y-19060936D02*
X9529944Y-19070460D01*
X9529944Y-19070460D02*
X9510896Y-19079984D01*
X9510896Y-19079984D02*
X9453753Y-19079984D01*
X9453753Y-19079984D02*
X9434706Y-19070460D01*
X9434706Y-19070460D02*
X9425182Y-19060936D01*
X9625182Y-18899031D02*
X9634706Y-18889508D01*
X9634706Y-18889508D02*
X9653753Y-18879984D01*
X9653753Y-18879984D02*
X9701372Y-18879984D01*
X9701372Y-18879984D02*
X9720420Y-18889508D01*
X9720420Y-18889508D02*
X9729944Y-18899031D01*
X9729944Y-18899031D02*
X9739468Y-18918079D01*
X9739468Y-18918079D02*
X9739468Y-18937127D01*
X9739468Y-18937127D02*
X9729944Y-18965698D01*
X9729944Y-18965698D02*
X9615658Y-19079984D01*
X9615658Y-19079984D02*
X9739468Y-19079984D01*
X9977563Y-19079984D02*
X9977563Y-18879984D01*
X10063277Y-19079984D02*
X10063277Y-18975222D01*
X10063277Y-18975222D02*
X10053753Y-18956174D01*
X10053753Y-18956174D02*
X10034706Y-18946650D01*
X10034706Y-18946650D02*
X10006134Y-18946650D01*
X10006134Y-18946650D02*
X9987087Y-18956174D01*
X9987087Y-18956174D02*
X9977563Y-18965698D01*
X10187087Y-19079984D02*
X10168039Y-19070460D01*
X10168039Y-19070460D02*
X10158515Y-19060936D01*
X10158515Y-19060936D02*
X10148992Y-19041889D01*
X10148992Y-19041889D02*
X10148992Y-18984746D01*
X10148992Y-18984746D02*
X10158515Y-18965698D01*
X10158515Y-18965698D02*
X10168039Y-18956174D01*
X10168039Y-18956174D02*
X10187087Y-18946650D01*
X10187087Y-18946650D02*
X10215658Y-18946650D01*
X10215658Y-18946650D02*
X10234706Y-18956174D01*
X10234706Y-18956174D02*
X10244230Y-18965698D01*
X10244230Y-18965698D02*
X10253753Y-18984746D01*
X10253753Y-18984746D02*
X10253753Y-19041889D01*
X10253753Y-19041889D02*
X10244230Y-19060936D01*
X10244230Y-19060936D02*
X10234706Y-19070460D01*
X10234706Y-19070460D02*
X10215658Y-19079984D01*
X10215658Y-19079984D02*
X10187087Y-19079984D01*
X10368039Y-19079984D02*
X10348992Y-19070460D01*
X10348992Y-19070460D02*
X10339468Y-19051412D01*
X10339468Y-19051412D02*
X10339468Y-18879984D01*
X10520420Y-19070460D02*
X10501373Y-19079984D01*
X10501373Y-19079984D02*
X10463277Y-19079984D01*
X10463277Y-19079984D02*
X10444230Y-19070460D01*
X10444230Y-19070460D02*
X10434706Y-19051412D01*
X10434706Y-19051412D02*
X10434706Y-18975222D01*
X10434706Y-18975222D02*
X10444230Y-18956174D01*
X10444230Y-18956174D02*
X10463277Y-18946650D01*
X10463277Y-18946650D02*
X10501373Y-18946650D01*
X10501373Y-18946650D02*
X10520420Y-18956174D01*
X10520420Y-18956174D02*
X10529944Y-18975222D01*
X10529944Y-18975222D02*
X10529944Y-18994270D01*
X10529944Y-18994270D02*
X10434706Y-19013317D01*
X10606134Y-19070460D02*
X10625182Y-19079984D01*
X10625182Y-19079984D02*
X10663277Y-19079984D01*
X10663277Y-19079984D02*
X10682325Y-19070460D01*
X10682325Y-19070460D02*
X10691849Y-19051412D01*
X10691849Y-19051412D02*
X10691849Y-19041889D01*
X10691849Y-19041889D02*
X10682325Y-19022841D01*
X10682325Y-19022841D02*
X10663277Y-19013317D01*
X10663277Y-19013317D02*
X10634706Y-19013317D01*
X10634706Y-19013317D02*
X10615658Y-19003793D01*
X10615658Y-19003793D02*
X10606134Y-18984746D01*
X10606134Y-18984746D02*
X10606134Y-18975222D01*
X10606134Y-18975222D02*
X10615658Y-18956174D01*
X10615658Y-18956174D02*
X10634706Y-18946650D01*
X10634706Y-18946650D02*
X10663277Y-18946650D01*
X10663277Y-18946650D02*
X10682325Y-18956174D01*
X10758515Y-19156174D02*
X10768039Y-19146650D01*
X10768039Y-19146650D02*
X10787087Y-19118079D01*
X10787087Y-19118079D02*
X10796611Y-19099031D01*
X10796611Y-19099031D02*
X10806134Y-19070460D01*
X10806134Y-19070460D02*
X10815658Y-19022841D01*
X10815658Y-19022841D02*
X10815658Y-18984746D01*
X10815658Y-18984746D02*
X10806134Y-18937127D01*
X10806134Y-18937127D02*
X10796611Y-18908555D01*
X10796611Y-18908555D02*
X10787087Y-18889508D01*
X10787087Y-18889508D02*
X10768039Y-18860936D01*
X10768039Y-18860936D02*
X10758515Y-18851412D01*
D13*
X5501500Y-19202000D02*
X5602500Y-19303000D01*
X5602500Y-19202000D02*
X5501500Y-19303000D01*
X5602500Y-19252500D02*
G75*
G02*
X5501500Y-19252500I-50500J0D01*
G01*
X5501500Y-19252500D02*
G75*
G02*
X5602500Y-19252500I50500J0D01*
G01*
D11*
X5968039Y-19343984D02*
X5853753Y-19343984D01*
X5910896Y-19343984D02*
X5910896Y-19143984D01*
X5910896Y-19143984D02*
X5891848Y-19172555D01*
X5891848Y-19172555D02*
X5872801Y-19191603D01*
X5872801Y-19191603D02*
X5853753Y-19201127D01*
X6053753Y-19324936D02*
X6063277Y-19334460D01*
X6063277Y-19334460D02*
X6053753Y-19343984D01*
X6053753Y-19343984D02*
X6044229Y-19334460D01*
X6044229Y-19334460D02*
X6053753Y-19324936D01*
X6053753Y-19324936D02*
X6053753Y-19343984D01*
X6187086Y-19143984D02*
X6206134Y-19143984D01*
X6206134Y-19143984D02*
X6225182Y-19153508D01*
X6225182Y-19153508D02*
X6234705Y-19163031D01*
X6234705Y-19163031D02*
X6244229Y-19182079D01*
X6244229Y-19182079D02*
X6253753Y-19220174D01*
X6253753Y-19220174D02*
X6253753Y-19267793D01*
X6253753Y-19267793D02*
X6244229Y-19305889D01*
X6244229Y-19305889D02*
X6234705Y-19324936D01*
X6234705Y-19324936D02*
X6225182Y-19334460D01*
X6225182Y-19334460D02*
X6206134Y-19343984D01*
X6206134Y-19343984D02*
X6187086Y-19343984D01*
X6187086Y-19343984D02*
X6168039Y-19334460D01*
X6168039Y-19334460D02*
X6158515Y-19324936D01*
X6158515Y-19324936D02*
X6148991Y-19305889D01*
X6148991Y-19305889D02*
X6139467Y-19267793D01*
X6139467Y-19267793D02*
X6139467Y-19220174D01*
X6139467Y-19220174D02*
X6148991Y-19182079D01*
X6148991Y-19182079D02*
X6158515Y-19163031D01*
X6158515Y-19163031D02*
X6168039Y-19153508D01*
X6168039Y-19153508D02*
X6187086Y-19143984D01*
X6444229Y-19343984D02*
X6329943Y-19343984D01*
X6387086Y-19343984D02*
X6387086Y-19143984D01*
X6387086Y-19143984D02*
X6368039Y-19172555D01*
X6368039Y-19172555D02*
X6348991Y-19191603D01*
X6348991Y-19191603D02*
X6329943Y-19201127D01*
X6568039Y-19143984D02*
X6587086Y-19143984D01*
X6587086Y-19143984D02*
X6606134Y-19153508D01*
X6606134Y-19153508D02*
X6615658Y-19163031D01*
X6615658Y-19163031D02*
X6625182Y-19182079D01*
X6625182Y-19182079D02*
X6634705Y-19220174D01*
X6634705Y-19220174D02*
X6634705Y-19267793D01*
X6634705Y-19267793D02*
X6625182Y-19305889D01*
X6625182Y-19305889D02*
X6615658Y-19324936D01*
X6615658Y-19324936D02*
X6606134Y-19334460D01*
X6606134Y-19334460D02*
X6587086Y-19343984D01*
X6587086Y-19343984D02*
X6568039Y-19343984D01*
X6568039Y-19343984D02*
X6548991Y-19334460D01*
X6548991Y-19334460D02*
X6539467Y-19324936D01*
X6539467Y-19324936D02*
X6529943Y-19305889D01*
X6529943Y-19305889D02*
X6520420Y-19267793D01*
X6520420Y-19267793D02*
X6520420Y-19220174D01*
X6520420Y-19220174D02*
X6529943Y-19182079D01*
X6529943Y-19182079D02*
X6539467Y-19163031D01*
X6539467Y-19163031D02*
X6548991Y-19153508D01*
X6548991Y-19153508D02*
X6568039Y-19143984D01*
X6720420Y-19343984D02*
X6720420Y-19210650D01*
X6720420Y-19229698D02*
X6729943Y-19220174D01*
X6729943Y-19220174D02*
X6748991Y-19210650D01*
X6748991Y-19210650D02*
X6777563Y-19210650D01*
X6777563Y-19210650D02*
X6796610Y-19220174D01*
X6796610Y-19220174D02*
X6806134Y-19239222D01*
X6806134Y-19239222D02*
X6806134Y-19343984D01*
X6806134Y-19239222D02*
X6815658Y-19220174D01*
X6815658Y-19220174D02*
X6834705Y-19210650D01*
X6834705Y-19210650D02*
X6863277Y-19210650D01*
X6863277Y-19210650D02*
X6882324Y-19220174D01*
X6882324Y-19220174D02*
X6891848Y-19239222D01*
X6891848Y-19239222D02*
X6891848Y-19343984D01*
X6987086Y-19343984D02*
X6987086Y-19210650D01*
X6987086Y-19229698D02*
X6996610Y-19220174D01*
X6996610Y-19220174D02*
X7015658Y-19210650D01*
X7015658Y-19210650D02*
X7044229Y-19210650D01*
X7044229Y-19210650D02*
X7063277Y-19220174D01*
X7063277Y-19220174D02*
X7072801Y-19239222D01*
X7072801Y-19239222D02*
X7072801Y-19343984D01*
X7072801Y-19239222D02*
X7082324Y-19220174D01*
X7082324Y-19220174D02*
X7101372Y-19210650D01*
X7101372Y-19210650D02*
X7129943Y-19210650D01*
X7129943Y-19210650D02*
X7148991Y-19220174D01*
X7148991Y-19220174D02*
X7158515Y-19239222D01*
X7158515Y-19239222D02*
X7158515Y-19343984D01*
X7548991Y-19134460D02*
X7377563Y-19391603D01*
X7806134Y-19143984D02*
X7825182Y-19143984D01*
X7825182Y-19143984D02*
X7844229Y-19153508D01*
X7844229Y-19153508D02*
X7853753Y-19163031D01*
X7853753Y-19163031D02*
X7863277Y-19182079D01*
X7863277Y-19182079D02*
X7872801Y-19220174D01*
X7872801Y-19220174D02*
X7872801Y-19267793D01*
X7872801Y-19267793D02*
X7863277Y-19305889D01*
X7863277Y-19305889D02*
X7853753Y-19324936D01*
X7853753Y-19324936D02*
X7844229Y-19334460D01*
X7844229Y-19334460D02*
X7825182Y-19343984D01*
X7825182Y-19343984D02*
X7806134Y-19343984D01*
X7806134Y-19343984D02*
X7787086Y-19334460D01*
X7787086Y-19334460D02*
X7777563Y-19324936D01*
X7777563Y-19324936D02*
X7768039Y-19305889D01*
X7768039Y-19305889D02*
X7758515Y-19267793D01*
X7758515Y-19267793D02*
X7758515Y-19220174D01*
X7758515Y-19220174D02*
X7768039Y-19182079D01*
X7768039Y-19182079D02*
X7777563Y-19163031D01*
X7777563Y-19163031D02*
X7787086Y-19153508D01*
X7787086Y-19153508D02*
X7806134Y-19143984D01*
X7958515Y-19324936D02*
X7968039Y-19334460D01*
X7968039Y-19334460D02*
X7958515Y-19343984D01*
X7958515Y-19343984D02*
X7948991Y-19334460D01*
X7948991Y-19334460D02*
X7958515Y-19324936D01*
X7958515Y-19324936D02*
X7958515Y-19343984D01*
X8091848Y-19143984D02*
X8110896Y-19143984D01*
X8110896Y-19143984D02*
X8129944Y-19153508D01*
X8129944Y-19153508D02*
X8139467Y-19163031D01*
X8139467Y-19163031D02*
X8148991Y-19182079D01*
X8148991Y-19182079D02*
X8158515Y-19220174D01*
X8158515Y-19220174D02*
X8158515Y-19267793D01*
X8158515Y-19267793D02*
X8148991Y-19305889D01*
X8148991Y-19305889D02*
X8139467Y-19324936D01*
X8139467Y-19324936D02*
X8129944Y-19334460D01*
X8129944Y-19334460D02*
X8110896Y-19343984D01*
X8110896Y-19343984D02*
X8091848Y-19343984D01*
X8091848Y-19343984D02*
X8072801Y-19334460D01*
X8072801Y-19334460D02*
X8063277Y-19324936D01*
X8063277Y-19324936D02*
X8053753Y-19305889D01*
X8053753Y-19305889D02*
X8044229Y-19267793D01*
X8044229Y-19267793D02*
X8044229Y-19220174D01*
X8044229Y-19220174D02*
X8053753Y-19182079D01*
X8053753Y-19182079D02*
X8063277Y-19163031D01*
X8063277Y-19163031D02*
X8072801Y-19153508D01*
X8072801Y-19153508D02*
X8091848Y-19143984D01*
X8225182Y-19143984D02*
X8348991Y-19143984D01*
X8348991Y-19143984D02*
X8282325Y-19220174D01*
X8282325Y-19220174D02*
X8310896Y-19220174D01*
X8310896Y-19220174D02*
X8329944Y-19229698D01*
X8329944Y-19229698D02*
X8339467Y-19239222D01*
X8339467Y-19239222D02*
X8348991Y-19258270D01*
X8348991Y-19258270D02*
X8348991Y-19305889D01*
X8348991Y-19305889D02*
X8339467Y-19324936D01*
X8339467Y-19324936D02*
X8329944Y-19334460D01*
X8329944Y-19334460D02*
X8310896Y-19343984D01*
X8310896Y-19343984D02*
X8253753Y-19343984D01*
X8253753Y-19343984D02*
X8234706Y-19334460D01*
X8234706Y-19334460D02*
X8225182Y-19324936D01*
X8444229Y-19343984D02*
X8482325Y-19343984D01*
X8482325Y-19343984D02*
X8501372Y-19334460D01*
X8501372Y-19334460D02*
X8510896Y-19324936D01*
X8510896Y-19324936D02*
X8529944Y-19296365D01*
X8529944Y-19296365D02*
X8539468Y-19258270D01*
X8539468Y-19258270D02*
X8539468Y-19182079D01*
X8539468Y-19182079D02*
X8529944Y-19163031D01*
X8529944Y-19163031D02*
X8520420Y-19153508D01*
X8520420Y-19153508D02*
X8501372Y-19143984D01*
X8501372Y-19143984D02*
X8463277Y-19143984D01*
X8463277Y-19143984D02*
X8444229Y-19153508D01*
X8444229Y-19153508D02*
X8434706Y-19163031D01*
X8434706Y-19163031D02*
X8425182Y-19182079D01*
X8425182Y-19182079D02*
X8425182Y-19229698D01*
X8425182Y-19229698D02*
X8434706Y-19248746D01*
X8434706Y-19248746D02*
X8444229Y-19258270D01*
X8444229Y-19258270D02*
X8463277Y-19267793D01*
X8463277Y-19267793D02*
X8501372Y-19267793D01*
X8501372Y-19267793D02*
X8520420Y-19258270D01*
X8520420Y-19258270D02*
X8529944Y-19248746D01*
X8529944Y-19248746D02*
X8539468Y-19229698D01*
X8653753Y-19229698D02*
X8634706Y-19220174D01*
X8634706Y-19220174D02*
X8625182Y-19210650D01*
X8625182Y-19210650D02*
X8615658Y-19191603D01*
X8615658Y-19191603D02*
X8615658Y-19182079D01*
X8615658Y-19182079D02*
X8625182Y-19163031D01*
X8625182Y-19163031D02*
X8634706Y-19153508D01*
X8634706Y-19153508D02*
X8653753Y-19143984D01*
X8653753Y-19143984D02*
X8691849Y-19143984D01*
X8691849Y-19143984D02*
X8710896Y-19153508D01*
X8710896Y-19153508D02*
X8720420Y-19163031D01*
X8720420Y-19163031D02*
X8729944Y-19182079D01*
X8729944Y-19182079D02*
X8729944Y-19191603D01*
X8729944Y-19191603D02*
X8720420Y-19210650D01*
X8720420Y-19210650D02*
X8710896Y-19220174D01*
X8710896Y-19220174D02*
X8691849Y-19229698D01*
X8691849Y-19229698D02*
X8653753Y-19229698D01*
X8653753Y-19229698D02*
X8634706Y-19239222D01*
X8634706Y-19239222D02*
X8625182Y-19248746D01*
X8625182Y-19248746D02*
X8615658Y-19267793D01*
X8615658Y-19267793D02*
X8615658Y-19305889D01*
X8615658Y-19305889D02*
X8625182Y-19324936D01*
X8625182Y-19324936D02*
X8634706Y-19334460D01*
X8634706Y-19334460D02*
X8653753Y-19343984D01*
X8653753Y-19343984D02*
X8691849Y-19343984D01*
X8691849Y-19343984D02*
X8710896Y-19334460D01*
X8710896Y-19334460D02*
X8720420Y-19324936D01*
X8720420Y-19324936D02*
X8729944Y-19305889D01*
X8729944Y-19305889D02*
X8729944Y-19267793D01*
X8729944Y-19267793D02*
X8720420Y-19248746D01*
X8720420Y-19248746D02*
X8710896Y-19239222D01*
X8710896Y-19239222D02*
X8691849Y-19229698D01*
X8806134Y-19143984D02*
X8806134Y-19182079D01*
X8882325Y-19143984D02*
X8882325Y-19182079D01*
X9177563Y-19420174D02*
X9168039Y-19410650D01*
X9168039Y-19410650D02*
X9148991Y-19382079D01*
X9148991Y-19382079D02*
X9139468Y-19363031D01*
X9139468Y-19363031D02*
X9129944Y-19334460D01*
X9129944Y-19334460D02*
X9120420Y-19286841D01*
X9120420Y-19286841D02*
X9120420Y-19248746D01*
X9120420Y-19248746D02*
X9129944Y-19201127D01*
X9129944Y-19201127D02*
X9139468Y-19172555D01*
X9139468Y-19172555D02*
X9148991Y-19153508D01*
X9148991Y-19153508D02*
X9168039Y-19124936D01*
X9168039Y-19124936D02*
X9177563Y-19115412D01*
X9339468Y-19210650D02*
X9339468Y-19343984D01*
X9291849Y-19134460D02*
X9244230Y-19277317D01*
X9244230Y-19277317D02*
X9368039Y-19277317D01*
X9596611Y-19343984D02*
X9596611Y-19143984D01*
X9682325Y-19343984D02*
X9682325Y-19239222D01*
X9682325Y-19239222D02*
X9672801Y-19220174D01*
X9672801Y-19220174D02*
X9653753Y-19210650D01*
X9653753Y-19210650D02*
X9625182Y-19210650D01*
X9625182Y-19210650D02*
X9606134Y-19220174D01*
X9606134Y-19220174D02*
X9596611Y-19229698D01*
X9806134Y-19343984D02*
X9787087Y-19334460D01*
X9787087Y-19334460D02*
X9777563Y-19324936D01*
X9777563Y-19324936D02*
X9768039Y-19305889D01*
X9768039Y-19305889D02*
X9768039Y-19248746D01*
X9768039Y-19248746D02*
X9777563Y-19229698D01*
X9777563Y-19229698D02*
X9787087Y-19220174D01*
X9787087Y-19220174D02*
X9806134Y-19210650D01*
X9806134Y-19210650D02*
X9834706Y-19210650D01*
X9834706Y-19210650D02*
X9853753Y-19220174D01*
X9853753Y-19220174D02*
X9863277Y-19229698D01*
X9863277Y-19229698D02*
X9872801Y-19248746D01*
X9872801Y-19248746D02*
X9872801Y-19305889D01*
X9872801Y-19305889D02*
X9863277Y-19324936D01*
X9863277Y-19324936D02*
X9853753Y-19334460D01*
X9853753Y-19334460D02*
X9834706Y-19343984D01*
X9834706Y-19343984D02*
X9806134Y-19343984D01*
X9987087Y-19343984D02*
X9968039Y-19334460D01*
X9968039Y-19334460D02*
X9958515Y-19315412D01*
X9958515Y-19315412D02*
X9958515Y-19143984D01*
X10139468Y-19334460D02*
X10120420Y-19343984D01*
X10120420Y-19343984D02*
X10082325Y-19343984D01*
X10082325Y-19343984D02*
X10063277Y-19334460D01*
X10063277Y-19334460D02*
X10053753Y-19315412D01*
X10053753Y-19315412D02*
X10053753Y-19239222D01*
X10053753Y-19239222D02*
X10063277Y-19220174D01*
X10063277Y-19220174D02*
X10082325Y-19210650D01*
X10082325Y-19210650D02*
X10120420Y-19210650D01*
X10120420Y-19210650D02*
X10139468Y-19220174D01*
X10139468Y-19220174D02*
X10148992Y-19239222D01*
X10148992Y-19239222D02*
X10148992Y-19258270D01*
X10148992Y-19258270D02*
X10053753Y-19277317D01*
X10225182Y-19334460D02*
X10244230Y-19343984D01*
X10244230Y-19343984D02*
X10282325Y-19343984D01*
X10282325Y-19343984D02*
X10301373Y-19334460D01*
X10301373Y-19334460D02*
X10310896Y-19315412D01*
X10310896Y-19315412D02*
X10310896Y-19305889D01*
X10310896Y-19305889D02*
X10301373Y-19286841D01*
X10301373Y-19286841D02*
X10282325Y-19277317D01*
X10282325Y-19277317D02*
X10253753Y-19277317D01*
X10253753Y-19277317D02*
X10234706Y-19267793D01*
X10234706Y-19267793D02*
X10225182Y-19248746D01*
X10225182Y-19248746D02*
X10225182Y-19239222D01*
X10225182Y-19239222D02*
X10234706Y-19220174D01*
X10234706Y-19220174D02*
X10253753Y-19210650D01*
X10253753Y-19210650D02*
X10282325Y-19210650D01*
X10282325Y-19210650D02*
X10301373Y-19220174D01*
X10377563Y-19420174D02*
X10387087Y-19410650D01*
X10387087Y-19410650D02*
X10406134Y-19382079D01*
X10406134Y-19382079D02*
X10415658Y-19363031D01*
X10415658Y-19363031D02*
X10425182Y-19334460D01*
X10425182Y-19334460D02*
X10434706Y-19286841D01*
X10434706Y-19286841D02*
X10434706Y-19248746D01*
X10434706Y-19248746D02*
X10425182Y-19201127D01*
X10425182Y-19201127D02*
X10415658Y-19172555D01*
X10415658Y-19172555D02*
X10406134Y-19153508D01*
X10406134Y-19153508D02*
X10387087Y-19124936D01*
X10387087Y-19124936D02*
X10377563Y-19115412D01*
D14*
X5472500Y-19451500D02*
X5602500Y-19581500D01*
X5602500Y-19451500D02*
X5472500Y-19581500D01*
X5537500Y-19451500D02*
X5537500Y-19581500D01*
X5472500Y-19516500D02*
X5602500Y-19516500D01*
D11*
X5968039Y-19607984D02*
X5853753Y-19607984D01*
X5910896Y-19607984D02*
X5910896Y-19407984D01*
X5910896Y-19407984D02*
X5891848Y-19436555D01*
X5891848Y-19436555D02*
X5872801Y-19455603D01*
X5872801Y-19455603D02*
X5853753Y-19465127D01*
X6053753Y-19588936D02*
X6063277Y-19598460D01*
X6063277Y-19598460D02*
X6053753Y-19607984D01*
X6053753Y-19607984D02*
X6044229Y-19598460D01*
X6044229Y-19598460D02*
X6053753Y-19588936D01*
X6053753Y-19588936D02*
X6053753Y-19607984D01*
X6129943Y-19407984D02*
X6253753Y-19407984D01*
X6253753Y-19407984D02*
X6187086Y-19484174D01*
X6187086Y-19484174D02*
X6215658Y-19484174D01*
X6215658Y-19484174D02*
X6234705Y-19493698D01*
X6234705Y-19493698D02*
X6244229Y-19503222D01*
X6244229Y-19503222D02*
X6253753Y-19522270D01*
X6253753Y-19522270D02*
X6253753Y-19569889D01*
X6253753Y-19569889D02*
X6244229Y-19588936D01*
X6244229Y-19588936D02*
X6234705Y-19598460D01*
X6234705Y-19598460D02*
X6215658Y-19607984D01*
X6215658Y-19607984D02*
X6158515Y-19607984D01*
X6158515Y-19607984D02*
X6139467Y-19598460D01*
X6139467Y-19598460D02*
X6129943Y-19588936D01*
X6377562Y-19407984D02*
X6396610Y-19407984D01*
X6396610Y-19407984D02*
X6415658Y-19417508D01*
X6415658Y-19417508D02*
X6425182Y-19427031D01*
X6425182Y-19427031D02*
X6434705Y-19446079D01*
X6434705Y-19446079D02*
X6444229Y-19484174D01*
X6444229Y-19484174D02*
X6444229Y-19531793D01*
X6444229Y-19531793D02*
X6434705Y-19569889D01*
X6434705Y-19569889D02*
X6425182Y-19588936D01*
X6425182Y-19588936D02*
X6415658Y-19598460D01*
X6415658Y-19598460D02*
X6396610Y-19607984D01*
X6396610Y-19607984D02*
X6377562Y-19607984D01*
X6377562Y-19607984D02*
X6358515Y-19598460D01*
X6358515Y-19598460D02*
X6348991Y-19588936D01*
X6348991Y-19588936D02*
X6339467Y-19569889D01*
X6339467Y-19569889D02*
X6329943Y-19531793D01*
X6329943Y-19531793D02*
X6329943Y-19484174D01*
X6329943Y-19484174D02*
X6339467Y-19446079D01*
X6339467Y-19446079D02*
X6348991Y-19427031D01*
X6348991Y-19427031D02*
X6358515Y-19417508D01*
X6358515Y-19417508D02*
X6377562Y-19407984D01*
X6568039Y-19407984D02*
X6587086Y-19407984D01*
X6587086Y-19407984D02*
X6606134Y-19417508D01*
X6606134Y-19417508D02*
X6615658Y-19427031D01*
X6615658Y-19427031D02*
X6625182Y-19446079D01*
X6625182Y-19446079D02*
X6634705Y-19484174D01*
X6634705Y-19484174D02*
X6634705Y-19531793D01*
X6634705Y-19531793D02*
X6625182Y-19569889D01*
X6625182Y-19569889D02*
X6615658Y-19588936D01*
X6615658Y-19588936D02*
X6606134Y-19598460D01*
X6606134Y-19598460D02*
X6587086Y-19607984D01*
X6587086Y-19607984D02*
X6568039Y-19607984D01*
X6568039Y-19607984D02*
X6548991Y-19598460D01*
X6548991Y-19598460D02*
X6539467Y-19588936D01*
X6539467Y-19588936D02*
X6529943Y-19569889D01*
X6529943Y-19569889D02*
X6520420Y-19531793D01*
X6520420Y-19531793D02*
X6520420Y-19484174D01*
X6520420Y-19484174D02*
X6529943Y-19446079D01*
X6529943Y-19446079D02*
X6539467Y-19427031D01*
X6539467Y-19427031D02*
X6548991Y-19417508D01*
X6548991Y-19417508D02*
X6568039Y-19407984D01*
X6720420Y-19607984D02*
X6720420Y-19474650D01*
X6720420Y-19493698D02*
X6729943Y-19484174D01*
X6729943Y-19484174D02*
X6748991Y-19474650D01*
X6748991Y-19474650D02*
X6777563Y-19474650D01*
X6777563Y-19474650D02*
X6796610Y-19484174D01*
X6796610Y-19484174D02*
X6806134Y-19503222D01*
X6806134Y-19503222D02*
X6806134Y-19607984D01*
X6806134Y-19503222D02*
X6815658Y-19484174D01*
X6815658Y-19484174D02*
X6834705Y-19474650D01*
X6834705Y-19474650D02*
X6863277Y-19474650D01*
X6863277Y-19474650D02*
X6882324Y-19484174D01*
X6882324Y-19484174D02*
X6891848Y-19503222D01*
X6891848Y-19503222D02*
X6891848Y-19607984D01*
X6987086Y-19607984D02*
X6987086Y-19474650D01*
X6987086Y-19493698D02*
X6996610Y-19484174D01*
X6996610Y-19484174D02*
X7015658Y-19474650D01*
X7015658Y-19474650D02*
X7044229Y-19474650D01*
X7044229Y-19474650D02*
X7063277Y-19484174D01*
X7063277Y-19484174D02*
X7072801Y-19503222D01*
X7072801Y-19503222D02*
X7072801Y-19607984D01*
X7072801Y-19503222D02*
X7082324Y-19484174D01*
X7082324Y-19484174D02*
X7101372Y-19474650D01*
X7101372Y-19474650D02*
X7129943Y-19474650D01*
X7129943Y-19474650D02*
X7148991Y-19484174D01*
X7148991Y-19484174D02*
X7158515Y-19503222D01*
X7158515Y-19503222D02*
X7158515Y-19607984D01*
X7548991Y-19398460D02*
X7377563Y-19655603D01*
X7806134Y-19407984D02*
X7825182Y-19407984D01*
X7825182Y-19407984D02*
X7844229Y-19417508D01*
X7844229Y-19417508D02*
X7853753Y-19427031D01*
X7853753Y-19427031D02*
X7863277Y-19446079D01*
X7863277Y-19446079D02*
X7872801Y-19484174D01*
X7872801Y-19484174D02*
X7872801Y-19531793D01*
X7872801Y-19531793D02*
X7863277Y-19569889D01*
X7863277Y-19569889D02*
X7853753Y-19588936D01*
X7853753Y-19588936D02*
X7844229Y-19598460D01*
X7844229Y-19598460D02*
X7825182Y-19607984D01*
X7825182Y-19607984D02*
X7806134Y-19607984D01*
X7806134Y-19607984D02*
X7787086Y-19598460D01*
X7787086Y-19598460D02*
X7777563Y-19588936D01*
X7777563Y-19588936D02*
X7768039Y-19569889D01*
X7768039Y-19569889D02*
X7758515Y-19531793D01*
X7758515Y-19531793D02*
X7758515Y-19484174D01*
X7758515Y-19484174D02*
X7768039Y-19446079D01*
X7768039Y-19446079D02*
X7777563Y-19427031D01*
X7777563Y-19427031D02*
X7787086Y-19417508D01*
X7787086Y-19417508D02*
X7806134Y-19407984D01*
X7958515Y-19588936D02*
X7968039Y-19598460D01*
X7968039Y-19598460D02*
X7958515Y-19607984D01*
X7958515Y-19607984D02*
X7948991Y-19598460D01*
X7948991Y-19598460D02*
X7958515Y-19588936D01*
X7958515Y-19588936D02*
X7958515Y-19607984D01*
X8091848Y-19407984D02*
X8110896Y-19407984D01*
X8110896Y-19407984D02*
X8129944Y-19417508D01*
X8129944Y-19417508D02*
X8139467Y-19427031D01*
X8139467Y-19427031D02*
X8148991Y-19446079D01*
X8148991Y-19446079D02*
X8158515Y-19484174D01*
X8158515Y-19484174D02*
X8158515Y-19531793D01*
X8158515Y-19531793D02*
X8148991Y-19569889D01*
X8148991Y-19569889D02*
X8139467Y-19588936D01*
X8139467Y-19588936D02*
X8129944Y-19598460D01*
X8129944Y-19598460D02*
X8110896Y-19607984D01*
X8110896Y-19607984D02*
X8091848Y-19607984D01*
X8091848Y-19607984D02*
X8072801Y-19598460D01*
X8072801Y-19598460D02*
X8063277Y-19588936D01*
X8063277Y-19588936D02*
X8053753Y-19569889D01*
X8053753Y-19569889D02*
X8044229Y-19531793D01*
X8044229Y-19531793D02*
X8044229Y-19484174D01*
X8044229Y-19484174D02*
X8053753Y-19446079D01*
X8053753Y-19446079D02*
X8063277Y-19427031D01*
X8063277Y-19427031D02*
X8072801Y-19417508D01*
X8072801Y-19417508D02*
X8091848Y-19407984D01*
X8339467Y-19407984D02*
X8244229Y-19407984D01*
X8244229Y-19407984D02*
X8234706Y-19503222D01*
X8234706Y-19503222D02*
X8244229Y-19493698D01*
X8244229Y-19493698D02*
X8263277Y-19484174D01*
X8263277Y-19484174D02*
X8310896Y-19484174D01*
X8310896Y-19484174D02*
X8329944Y-19493698D01*
X8329944Y-19493698D02*
X8339467Y-19503222D01*
X8339467Y-19503222D02*
X8348991Y-19522270D01*
X8348991Y-19522270D02*
X8348991Y-19569889D01*
X8348991Y-19569889D02*
X8339467Y-19588936D01*
X8339467Y-19588936D02*
X8329944Y-19598460D01*
X8329944Y-19598460D02*
X8310896Y-19607984D01*
X8310896Y-19607984D02*
X8263277Y-19607984D01*
X8263277Y-19607984D02*
X8244229Y-19598460D01*
X8244229Y-19598460D02*
X8234706Y-19588936D01*
X8539468Y-19607984D02*
X8425182Y-19607984D01*
X8482325Y-19607984D02*
X8482325Y-19407984D01*
X8482325Y-19407984D02*
X8463277Y-19436555D01*
X8463277Y-19436555D02*
X8444229Y-19455603D01*
X8444229Y-19455603D02*
X8425182Y-19465127D01*
X8615658Y-19427031D02*
X8625182Y-19417508D01*
X8625182Y-19417508D02*
X8644229Y-19407984D01*
X8644229Y-19407984D02*
X8691849Y-19407984D01*
X8691849Y-19407984D02*
X8710896Y-19417508D01*
X8710896Y-19417508D02*
X8720420Y-19427031D01*
X8720420Y-19427031D02*
X8729944Y-19446079D01*
X8729944Y-19446079D02*
X8729944Y-19465127D01*
X8729944Y-19465127D02*
X8720420Y-19493698D01*
X8720420Y-19493698D02*
X8606134Y-19607984D01*
X8606134Y-19607984D02*
X8729944Y-19607984D01*
X8806134Y-19407984D02*
X8806134Y-19446079D01*
X8882325Y-19407984D02*
X8882325Y-19446079D01*
X9177563Y-19684174D02*
X9168039Y-19674650D01*
X9168039Y-19674650D02*
X9148991Y-19646079D01*
X9148991Y-19646079D02*
X9139468Y-19627031D01*
X9139468Y-19627031D02*
X9129944Y-19598460D01*
X9129944Y-19598460D02*
X9120420Y-19550841D01*
X9120420Y-19550841D02*
X9120420Y-19512746D01*
X9120420Y-19512746D02*
X9129944Y-19465127D01*
X9129944Y-19465127D02*
X9139468Y-19436555D01*
X9139468Y-19436555D02*
X9148991Y-19417508D01*
X9148991Y-19417508D02*
X9168039Y-19388936D01*
X9168039Y-19388936D02*
X9177563Y-19379412D01*
X9358515Y-19607984D02*
X9244230Y-19607984D01*
X9301372Y-19607984D02*
X9301372Y-19407984D01*
X9301372Y-19407984D02*
X9282325Y-19436555D01*
X9282325Y-19436555D02*
X9263277Y-19455603D01*
X9263277Y-19455603D02*
X9244230Y-19465127D01*
X9529944Y-19474650D02*
X9529944Y-19607984D01*
X9482325Y-19398460D02*
X9434706Y-19541317D01*
X9434706Y-19541317D02*
X9558515Y-19541317D01*
X9787087Y-19607984D02*
X9787087Y-19407984D01*
X9872801Y-19607984D02*
X9872801Y-19503222D01*
X9872801Y-19503222D02*
X9863277Y-19484174D01*
X9863277Y-19484174D02*
X9844230Y-19474650D01*
X9844230Y-19474650D02*
X9815658Y-19474650D01*
X9815658Y-19474650D02*
X9796611Y-19484174D01*
X9796611Y-19484174D02*
X9787087Y-19493698D01*
X9996611Y-19607984D02*
X9977563Y-19598460D01*
X9977563Y-19598460D02*
X9968039Y-19588936D01*
X9968039Y-19588936D02*
X9958515Y-19569889D01*
X9958515Y-19569889D02*
X9958515Y-19512746D01*
X9958515Y-19512746D02*
X9968039Y-19493698D01*
X9968039Y-19493698D02*
X9977563Y-19484174D01*
X9977563Y-19484174D02*
X9996611Y-19474650D01*
X9996611Y-19474650D02*
X10025182Y-19474650D01*
X10025182Y-19474650D02*
X10044230Y-19484174D01*
X10044230Y-19484174D02*
X10053753Y-19493698D01*
X10053753Y-19493698D02*
X10063277Y-19512746D01*
X10063277Y-19512746D02*
X10063277Y-19569889D01*
X10063277Y-19569889D02*
X10053753Y-19588936D01*
X10053753Y-19588936D02*
X10044230Y-19598460D01*
X10044230Y-19598460D02*
X10025182Y-19607984D01*
X10025182Y-19607984D02*
X9996611Y-19607984D01*
X10177563Y-19607984D02*
X10158515Y-19598460D01*
X10158515Y-19598460D02*
X10148992Y-19579412D01*
X10148992Y-19579412D02*
X10148992Y-19407984D01*
X10329944Y-19598460D02*
X10310896Y-19607984D01*
X10310896Y-19607984D02*
X10272801Y-19607984D01*
X10272801Y-19607984D02*
X10253753Y-19598460D01*
X10253753Y-19598460D02*
X10244230Y-19579412D01*
X10244230Y-19579412D02*
X10244230Y-19503222D01*
X10244230Y-19503222D02*
X10253753Y-19484174D01*
X10253753Y-19484174D02*
X10272801Y-19474650D01*
X10272801Y-19474650D02*
X10310896Y-19474650D01*
X10310896Y-19474650D02*
X10329944Y-19484174D01*
X10329944Y-19484174D02*
X10339468Y-19503222D01*
X10339468Y-19503222D02*
X10339468Y-19522270D01*
X10339468Y-19522270D02*
X10244230Y-19541317D01*
X10415658Y-19598460D02*
X10434706Y-19607984D01*
X10434706Y-19607984D02*
X10472801Y-19607984D01*
X10472801Y-19607984D02*
X10491849Y-19598460D01*
X10491849Y-19598460D02*
X10501373Y-19579412D01*
X10501373Y-19579412D02*
X10501373Y-19569889D01*
X10501373Y-19569889D02*
X10491849Y-19550841D01*
X10491849Y-19550841D02*
X10472801Y-19541317D01*
X10472801Y-19541317D02*
X10444230Y-19541317D01*
X10444230Y-19541317D02*
X10425182Y-19531793D01*
X10425182Y-19531793D02*
X10415658Y-19512746D01*
X10415658Y-19512746D02*
X10415658Y-19503222D01*
X10415658Y-19503222D02*
X10425182Y-19484174D01*
X10425182Y-19484174D02*
X10444230Y-19474650D01*
X10444230Y-19474650D02*
X10472801Y-19474650D01*
X10472801Y-19474650D02*
X10491849Y-19484174D01*
X10568039Y-19684174D02*
X10577563Y-19674650D01*
X10577563Y-19674650D02*
X10596611Y-19646079D01*
X10596611Y-19646079D02*
X10606134Y-19627031D01*
X10606134Y-19627031D02*
X10615658Y-19598460D01*
X10615658Y-19598460D02*
X10625182Y-19550841D01*
X10625182Y-19550841D02*
X10625182Y-19512746D01*
X10625182Y-19512746D02*
X10615658Y-19465127D01*
X10615658Y-19465127D02*
X10606134Y-19436555D01*
X10606134Y-19436555D02*
X10596611Y-19417508D01*
X10596611Y-19417508D02*
X10577563Y-19388936D01*
X10577563Y-19388936D02*
X10568039Y-19379412D01*
D15*
X5417500Y-19688000D02*
X5602500Y-19873000D01*
X5602500Y-19688000D02*
X5417500Y-19873000D01*
X5575408Y-19845908D02*
X5575408Y-19715092D01*
X5444592Y-19715092D01*
X5444592Y-19845908D01*
X5575408Y-19845908D01*
D11*
X5968039Y-19871984D02*
X5853753Y-19871984D01*
X5910896Y-19871984D02*
X5910896Y-19671984D01*
X5910896Y-19671984D02*
X5891848Y-19700555D01*
X5891848Y-19700555D02*
X5872801Y-19719603D01*
X5872801Y-19719603D02*
X5853753Y-19729127D01*
X6053753Y-19852936D02*
X6063277Y-19862460D01*
X6063277Y-19862460D02*
X6053753Y-19871984D01*
X6053753Y-19871984D02*
X6044229Y-19862460D01*
X6044229Y-19862460D02*
X6053753Y-19852936D01*
X6053753Y-19852936D02*
X6053753Y-19871984D01*
X6177562Y-19757698D02*
X6158515Y-19748174D01*
X6158515Y-19748174D02*
X6148991Y-19738650D01*
X6148991Y-19738650D02*
X6139467Y-19719603D01*
X6139467Y-19719603D02*
X6139467Y-19710079D01*
X6139467Y-19710079D02*
X6148991Y-19691031D01*
X6148991Y-19691031D02*
X6158515Y-19681508D01*
X6158515Y-19681508D02*
X6177562Y-19671984D01*
X6177562Y-19671984D02*
X6215658Y-19671984D01*
X6215658Y-19671984D02*
X6234705Y-19681508D01*
X6234705Y-19681508D02*
X6244229Y-19691031D01*
X6244229Y-19691031D02*
X6253753Y-19710079D01*
X6253753Y-19710079D02*
X6253753Y-19719603D01*
X6253753Y-19719603D02*
X6244229Y-19738650D01*
X6244229Y-19738650D02*
X6234705Y-19748174D01*
X6234705Y-19748174D02*
X6215658Y-19757698D01*
X6215658Y-19757698D02*
X6177562Y-19757698D01*
X6177562Y-19757698D02*
X6158515Y-19767222D01*
X6158515Y-19767222D02*
X6148991Y-19776746D01*
X6148991Y-19776746D02*
X6139467Y-19795793D01*
X6139467Y-19795793D02*
X6139467Y-19833889D01*
X6139467Y-19833889D02*
X6148991Y-19852936D01*
X6148991Y-19852936D02*
X6158515Y-19862460D01*
X6158515Y-19862460D02*
X6177562Y-19871984D01*
X6177562Y-19871984D02*
X6215658Y-19871984D01*
X6215658Y-19871984D02*
X6234705Y-19862460D01*
X6234705Y-19862460D02*
X6244229Y-19852936D01*
X6244229Y-19852936D02*
X6253753Y-19833889D01*
X6253753Y-19833889D02*
X6253753Y-19795793D01*
X6253753Y-19795793D02*
X6244229Y-19776746D01*
X6244229Y-19776746D02*
X6234705Y-19767222D01*
X6234705Y-19767222D02*
X6215658Y-19757698D01*
X6434705Y-19671984D02*
X6339467Y-19671984D01*
X6339467Y-19671984D02*
X6329943Y-19767222D01*
X6329943Y-19767222D02*
X6339467Y-19757698D01*
X6339467Y-19757698D02*
X6358515Y-19748174D01*
X6358515Y-19748174D02*
X6406134Y-19748174D01*
X6406134Y-19748174D02*
X6425182Y-19757698D01*
X6425182Y-19757698D02*
X6434705Y-19767222D01*
X6434705Y-19767222D02*
X6444229Y-19786270D01*
X6444229Y-19786270D02*
X6444229Y-19833889D01*
X6444229Y-19833889D02*
X6434705Y-19852936D01*
X6434705Y-19852936D02*
X6425182Y-19862460D01*
X6425182Y-19862460D02*
X6406134Y-19871984D01*
X6406134Y-19871984D02*
X6358515Y-19871984D01*
X6358515Y-19871984D02*
X6339467Y-19862460D01*
X6339467Y-19862460D02*
X6329943Y-19852936D01*
X6568039Y-19671984D02*
X6587086Y-19671984D01*
X6587086Y-19671984D02*
X6606134Y-19681508D01*
X6606134Y-19681508D02*
X6615658Y-19691031D01*
X6615658Y-19691031D02*
X6625182Y-19710079D01*
X6625182Y-19710079D02*
X6634705Y-19748174D01*
X6634705Y-19748174D02*
X6634705Y-19795793D01*
X6634705Y-19795793D02*
X6625182Y-19833889D01*
X6625182Y-19833889D02*
X6615658Y-19852936D01*
X6615658Y-19852936D02*
X6606134Y-19862460D01*
X6606134Y-19862460D02*
X6587086Y-19871984D01*
X6587086Y-19871984D02*
X6568039Y-19871984D01*
X6568039Y-19871984D02*
X6548991Y-19862460D01*
X6548991Y-19862460D02*
X6539467Y-19852936D01*
X6539467Y-19852936D02*
X6529943Y-19833889D01*
X6529943Y-19833889D02*
X6520420Y-19795793D01*
X6520420Y-19795793D02*
X6520420Y-19748174D01*
X6520420Y-19748174D02*
X6529943Y-19710079D01*
X6529943Y-19710079D02*
X6539467Y-19691031D01*
X6539467Y-19691031D02*
X6548991Y-19681508D01*
X6548991Y-19681508D02*
X6568039Y-19671984D01*
X6720420Y-19871984D02*
X6720420Y-19738650D01*
X6720420Y-19757698D02*
X6729943Y-19748174D01*
X6729943Y-19748174D02*
X6748991Y-19738650D01*
X6748991Y-19738650D02*
X6777563Y-19738650D01*
X6777563Y-19738650D02*
X6796610Y-19748174D01*
X6796610Y-19748174D02*
X6806134Y-19767222D01*
X6806134Y-19767222D02*
X6806134Y-19871984D01*
X6806134Y-19767222D02*
X6815658Y-19748174D01*
X6815658Y-19748174D02*
X6834705Y-19738650D01*
X6834705Y-19738650D02*
X6863277Y-19738650D01*
X6863277Y-19738650D02*
X6882324Y-19748174D01*
X6882324Y-19748174D02*
X6891848Y-19767222D01*
X6891848Y-19767222D02*
X6891848Y-19871984D01*
X6987086Y-19871984D02*
X6987086Y-19738650D01*
X6987086Y-19757698D02*
X6996610Y-19748174D01*
X6996610Y-19748174D02*
X7015658Y-19738650D01*
X7015658Y-19738650D02*
X7044229Y-19738650D01*
X7044229Y-19738650D02*
X7063277Y-19748174D01*
X7063277Y-19748174D02*
X7072801Y-19767222D01*
X7072801Y-19767222D02*
X7072801Y-19871984D01*
X7072801Y-19767222D02*
X7082324Y-19748174D01*
X7082324Y-19748174D02*
X7101372Y-19738650D01*
X7101372Y-19738650D02*
X7129943Y-19738650D01*
X7129943Y-19738650D02*
X7148991Y-19748174D01*
X7148991Y-19748174D02*
X7158515Y-19767222D01*
X7158515Y-19767222D02*
X7158515Y-19871984D01*
X7548991Y-19662460D02*
X7377563Y-19919603D01*
X7806134Y-19671984D02*
X7825182Y-19671984D01*
X7825182Y-19671984D02*
X7844229Y-19681508D01*
X7844229Y-19681508D02*
X7853753Y-19691031D01*
X7853753Y-19691031D02*
X7863277Y-19710079D01*
X7863277Y-19710079D02*
X7872801Y-19748174D01*
X7872801Y-19748174D02*
X7872801Y-19795793D01*
X7872801Y-19795793D02*
X7863277Y-19833889D01*
X7863277Y-19833889D02*
X7853753Y-19852936D01*
X7853753Y-19852936D02*
X7844229Y-19862460D01*
X7844229Y-19862460D02*
X7825182Y-19871984D01*
X7825182Y-19871984D02*
X7806134Y-19871984D01*
X7806134Y-19871984D02*
X7787086Y-19862460D01*
X7787086Y-19862460D02*
X7777563Y-19852936D01*
X7777563Y-19852936D02*
X7768039Y-19833889D01*
X7768039Y-19833889D02*
X7758515Y-19795793D01*
X7758515Y-19795793D02*
X7758515Y-19748174D01*
X7758515Y-19748174D02*
X7768039Y-19710079D01*
X7768039Y-19710079D02*
X7777563Y-19691031D01*
X7777563Y-19691031D02*
X7787086Y-19681508D01*
X7787086Y-19681508D02*
X7806134Y-19671984D01*
X7958515Y-19852936D02*
X7968039Y-19862460D01*
X7968039Y-19862460D02*
X7958515Y-19871984D01*
X7958515Y-19871984D02*
X7948991Y-19862460D01*
X7948991Y-19862460D02*
X7958515Y-19852936D01*
X7958515Y-19852936D02*
X7958515Y-19871984D01*
X8091848Y-19671984D02*
X8110896Y-19671984D01*
X8110896Y-19671984D02*
X8129944Y-19681508D01*
X8129944Y-19681508D02*
X8139467Y-19691031D01*
X8139467Y-19691031D02*
X8148991Y-19710079D01*
X8148991Y-19710079D02*
X8158515Y-19748174D01*
X8158515Y-19748174D02*
X8158515Y-19795793D01*
X8158515Y-19795793D02*
X8148991Y-19833889D01*
X8148991Y-19833889D02*
X8139467Y-19852936D01*
X8139467Y-19852936D02*
X8129944Y-19862460D01*
X8129944Y-19862460D02*
X8110896Y-19871984D01*
X8110896Y-19871984D02*
X8091848Y-19871984D01*
X8091848Y-19871984D02*
X8072801Y-19862460D01*
X8072801Y-19862460D02*
X8063277Y-19852936D01*
X8063277Y-19852936D02*
X8053753Y-19833889D01*
X8053753Y-19833889D02*
X8044229Y-19795793D01*
X8044229Y-19795793D02*
X8044229Y-19748174D01*
X8044229Y-19748174D02*
X8053753Y-19710079D01*
X8053753Y-19710079D02*
X8063277Y-19691031D01*
X8063277Y-19691031D02*
X8072801Y-19681508D01*
X8072801Y-19681508D02*
X8091848Y-19671984D01*
X8225182Y-19671984D02*
X8358515Y-19671984D01*
X8358515Y-19671984D02*
X8272801Y-19871984D01*
X8425182Y-19691031D02*
X8434706Y-19681508D01*
X8434706Y-19681508D02*
X8453753Y-19671984D01*
X8453753Y-19671984D02*
X8501372Y-19671984D01*
X8501372Y-19671984D02*
X8520420Y-19681508D01*
X8520420Y-19681508D02*
X8529944Y-19691031D01*
X8529944Y-19691031D02*
X8539468Y-19710079D01*
X8539468Y-19710079D02*
X8539468Y-19729127D01*
X8539468Y-19729127D02*
X8529944Y-19757698D01*
X8529944Y-19757698D02*
X8415658Y-19871984D01*
X8415658Y-19871984D02*
X8539468Y-19871984D01*
X8653753Y-19757698D02*
X8634706Y-19748174D01*
X8634706Y-19748174D02*
X8625182Y-19738650D01*
X8625182Y-19738650D02*
X8615658Y-19719603D01*
X8615658Y-19719603D02*
X8615658Y-19710079D01*
X8615658Y-19710079D02*
X8625182Y-19691031D01*
X8625182Y-19691031D02*
X8634706Y-19681508D01*
X8634706Y-19681508D02*
X8653753Y-19671984D01*
X8653753Y-19671984D02*
X8691849Y-19671984D01*
X8691849Y-19671984D02*
X8710896Y-19681508D01*
X8710896Y-19681508D02*
X8720420Y-19691031D01*
X8720420Y-19691031D02*
X8729944Y-19710079D01*
X8729944Y-19710079D02*
X8729944Y-19719603D01*
X8729944Y-19719603D02*
X8720420Y-19738650D01*
X8720420Y-19738650D02*
X8710896Y-19748174D01*
X8710896Y-19748174D02*
X8691849Y-19757698D01*
X8691849Y-19757698D02*
X8653753Y-19757698D01*
X8653753Y-19757698D02*
X8634706Y-19767222D01*
X8634706Y-19767222D02*
X8625182Y-19776746D01*
X8625182Y-19776746D02*
X8615658Y-19795793D01*
X8615658Y-19795793D02*
X8615658Y-19833889D01*
X8615658Y-19833889D02*
X8625182Y-19852936D01*
X8625182Y-19852936D02*
X8634706Y-19862460D01*
X8634706Y-19862460D02*
X8653753Y-19871984D01*
X8653753Y-19871984D02*
X8691849Y-19871984D01*
X8691849Y-19871984D02*
X8710896Y-19862460D01*
X8710896Y-19862460D02*
X8720420Y-19852936D01*
X8720420Y-19852936D02*
X8729944Y-19833889D01*
X8729944Y-19833889D02*
X8729944Y-19795793D01*
X8729944Y-19795793D02*
X8720420Y-19776746D01*
X8720420Y-19776746D02*
X8710896Y-19767222D01*
X8710896Y-19767222D02*
X8691849Y-19757698D01*
X8806134Y-19671984D02*
X8806134Y-19710079D01*
X8882325Y-19671984D02*
X8882325Y-19710079D01*
X9177563Y-19948174D02*
X9168039Y-19938650D01*
X9168039Y-19938650D02*
X9148991Y-19910079D01*
X9148991Y-19910079D02*
X9139468Y-19891031D01*
X9139468Y-19891031D02*
X9129944Y-19862460D01*
X9129944Y-19862460D02*
X9120420Y-19814841D01*
X9120420Y-19814841D02*
X9120420Y-19776746D01*
X9120420Y-19776746D02*
X9129944Y-19729127D01*
X9129944Y-19729127D02*
X9139468Y-19700555D01*
X9139468Y-19700555D02*
X9148991Y-19681508D01*
X9148991Y-19681508D02*
X9168039Y-19652936D01*
X9168039Y-19652936D02*
X9177563Y-19643412D01*
X9234706Y-19671984D02*
X9368039Y-19671984D01*
X9368039Y-19671984D02*
X9282325Y-19871984D01*
X9596611Y-19871984D02*
X9596611Y-19671984D01*
X9682325Y-19871984D02*
X9682325Y-19767222D01*
X9682325Y-19767222D02*
X9672801Y-19748174D01*
X9672801Y-19748174D02*
X9653753Y-19738650D01*
X9653753Y-19738650D02*
X9625182Y-19738650D01*
X9625182Y-19738650D02*
X9606134Y-19748174D01*
X9606134Y-19748174D02*
X9596611Y-19757698D01*
X9806134Y-19871984D02*
X9787087Y-19862460D01*
X9787087Y-19862460D02*
X9777563Y-19852936D01*
X9777563Y-19852936D02*
X9768039Y-19833889D01*
X9768039Y-19833889D02*
X9768039Y-19776746D01*
X9768039Y-19776746D02*
X9777563Y-19757698D01*
X9777563Y-19757698D02*
X9787087Y-19748174D01*
X9787087Y-19748174D02*
X9806134Y-19738650D01*
X9806134Y-19738650D02*
X9834706Y-19738650D01*
X9834706Y-19738650D02*
X9853753Y-19748174D01*
X9853753Y-19748174D02*
X9863277Y-19757698D01*
X9863277Y-19757698D02*
X9872801Y-19776746D01*
X9872801Y-19776746D02*
X9872801Y-19833889D01*
X9872801Y-19833889D02*
X9863277Y-19852936D01*
X9863277Y-19852936D02*
X9853753Y-19862460D01*
X9853753Y-19862460D02*
X9834706Y-19871984D01*
X9834706Y-19871984D02*
X9806134Y-19871984D01*
X9987087Y-19871984D02*
X9968039Y-19862460D01*
X9968039Y-19862460D02*
X9958515Y-19843412D01*
X9958515Y-19843412D02*
X9958515Y-19671984D01*
X10139468Y-19862460D02*
X10120420Y-19871984D01*
X10120420Y-19871984D02*
X10082325Y-19871984D01*
X10082325Y-19871984D02*
X10063277Y-19862460D01*
X10063277Y-19862460D02*
X10053753Y-19843412D01*
X10053753Y-19843412D02*
X10053753Y-19767222D01*
X10053753Y-19767222D02*
X10063277Y-19748174D01*
X10063277Y-19748174D02*
X10082325Y-19738650D01*
X10082325Y-19738650D02*
X10120420Y-19738650D01*
X10120420Y-19738650D02*
X10139468Y-19748174D01*
X10139468Y-19748174D02*
X10148992Y-19767222D01*
X10148992Y-19767222D02*
X10148992Y-19786270D01*
X10148992Y-19786270D02*
X10053753Y-19805317D01*
X10225182Y-19862460D02*
X10244230Y-19871984D01*
X10244230Y-19871984D02*
X10282325Y-19871984D01*
X10282325Y-19871984D02*
X10301373Y-19862460D01*
X10301373Y-19862460D02*
X10310896Y-19843412D01*
X10310896Y-19843412D02*
X10310896Y-19833889D01*
X10310896Y-19833889D02*
X10301373Y-19814841D01*
X10301373Y-19814841D02*
X10282325Y-19805317D01*
X10282325Y-19805317D02*
X10253753Y-19805317D01*
X10253753Y-19805317D02*
X10234706Y-19795793D01*
X10234706Y-19795793D02*
X10225182Y-19776746D01*
X10225182Y-19776746D02*
X10225182Y-19767222D01*
X10225182Y-19767222D02*
X10234706Y-19748174D01*
X10234706Y-19748174D02*
X10253753Y-19738650D01*
X10253753Y-19738650D02*
X10282325Y-19738650D01*
X10282325Y-19738650D02*
X10301373Y-19748174D01*
X10377563Y-19948174D02*
X10387087Y-19938650D01*
X10387087Y-19938650D02*
X10406134Y-19910079D01*
X10406134Y-19910079D02*
X10415658Y-19891031D01*
X10415658Y-19891031D02*
X10425182Y-19862460D01*
X10425182Y-19862460D02*
X10434706Y-19814841D01*
X10434706Y-19814841D02*
X10434706Y-19776746D01*
X10434706Y-19776746D02*
X10425182Y-19729127D01*
X10425182Y-19729127D02*
X10415658Y-19700555D01*
X10415658Y-19700555D02*
X10406134Y-19681508D01*
X10406134Y-19681508D02*
X10387087Y-19652936D01*
X10387087Y-19652936D02*
X10377563Y-19643412D01*
X5402500Y-19985500D02*
X5602500Y-20185500D01*
X5602500Y-19985500D02*
X5402500Y-20185500D01*
X5502500Y-20185500D02*
X5602500Y-20085500D01*
X5502500Y-19985500D01*
X5402500Y-20085500D01*
X5502500Y-20185500D01*
X5853753Y-19996031D02*
X5863277Y-19986508D01*
X5863277Y-19986508D02*
X5882324Y-19976984D01*
X5882324Y-19976984D02*
X5929943Y-19976984D01*
X5929943Y-19976984D02*
X5948991Y-19986508D01*
X5948991Y-19986508D02*
X5958515Y-19996031D01*
X5958515Y-19996031D02*
X5968039Y-20015079D01*
X5968039Y-20015079D02*
X5968039Y-20034127D01*
X5968039Y-20034127D02*
X5958515Y-20062698D01*
X5958515Y-20062698D02*
X5844229Y-20176984D01*
X5844229Y-20176984D02*
X5968039Y-20176984D01*
X6053753Y-20157936D02*
X6063277Y-20167460D01*
X6063277Y-20167460D02*
X6053753Y-20176984D01*
X6053753Y-20176984D02*
X6044229Y-20167460D01*
X6044229Y-20167460D02*
X6053753Y-20157936D01*
X6053753Y-20157936D02*
X6053753Y-20176984D01*
X6139467Y-19996031D02*
X6148991Y-19986508D01*
X6148991Y-19986508D02*
X6168039Y-19976984D01*
X6168039Y-19976984D02*
X6215658Y-19976984D01*
X6215658Y-19976984D02*
X6234705Y-19986508D01*
X6234705Y-19986508D02*
X6244229Y-19996031D01*
X6244229Y-19996031D02*
X6253753Y-20015079D01*
X6253753Y-20015079D02*
X6253753Y-20034127D01*
X6253753Y-20034127D02*
X6244229Y-20062698D01*
X6244229Y-20062698D02*
X6129943Y-20176984D01*
X6129943Y-20176984D02*
X6253753Y-20176984D01*
X6377562Y-19976984D02*
X6396610Y-19976984D01*
X6396610Y-19976984D02*
X6415658Y-19986508D01*
X6415658Y-19986508D02*
X6425182Y-19996031D01*
X6425182Y-19996031D02*
X6434705Y-20015079D01*
X6434705Y-20015079D02*
X6444229Y-20053174D01*
X6444229Y-20053174D02*
X6444229Y-20100793D01*
X6444229Y-20100793D02*
X6434705Y-20138889D01*
X6434705Y-20138889D02*
X6425182Y-20157936D01*
X6425182Y-20157936D02*
X6415658Y-20167460D01*
X6415658Y-20167460D02*
X6396610Y-20176984D01*
X6396610Y-20176984D02*
X6377562Y-20176984D01*
X6377562Y-20176984D02*
X6358515Y-20167460D01*
X6358515Y-20167460D02*
X6348991Y-20157936D01*
X6348991Y-20157936D02*
X6339467Y-20138889D01*
X6339467Y-20138889D02*
X6329943Y-20100793D01*
X6329943Y-20100793D02*
X6329943Y-20053174D01*
X6329943Y-20053174D02*
X6339467Y-20015079D01*
X6339467Y-20015079D02*
X6348991Y-19996031D01*
X6348991Y-19996031D02*
X6358515Y-19986508D01*
X6358515Y-19986508D02*
X6377562Y-19976984D01*
X6568039Y-19976984D02*
X6587086Y-19976984D01*
X6587086Y-19976984D02*
X6606134Y-19986508D01*
X6606134Y-19986508D02*
X6615658Y-19996031D01*
X6615658Y-19996031D02*
X6625182Y-20015079D01*
X6625182Y-20015079D02*
X6634705Y-20053174D01*
X6634705Y-20053174D02*
X6634705Y-20100793D01*
X6634705Y-20100793D02*
X6625182Y-20138889D01*
X6625182Y-20138889D02*
X6615658Y-20157936D01*
X6615658Y-20157936D02*
X6606134Y-20167460D01*
X6606134Y-20167460D02*
X6587086Y-20176984D01*
X6587086Y-20176984D02*
X6568039Y-20176984D01*
X6568039Y-20176984D02*
X6548991Y-20167460D01*
X6548991Y-20167460D02*
X6539467Y-20157936D01*
X6539467Y-20157936D02*
X6529943Y-20138889D01*
X6529943Y-20138889D02*
X6520420Y-20100793D01*
X6520420Y-20100793D02*
X6520420Y-20053174D01*
X6520420Y-20053174D02*
X6529943Y-20015079D01*
X6529943Y-20015079D02*
X6539467Y-19996031D01*
X6539467Y-19996031D02*
X6548991Y-19986508D01*
X6548991Y-19986508D02*
X6568039Y-19976984D01*
X6720420Y-20176984D02*
X6720420Y-20043650D01*
X6720420Y-20062698D02*
X6729943Y-20053174D01*
X6729943Y-20053174D02*
X6748991Y-20043650D01*
X6748991Y-20043650D02*
X6777563Y-20043650D01*
X6777563Y-20043650D02*
X6796610Y-20053174D01*
X6796610Y-20053174D02*
X6806134Y-20072222D01*
X6806134Y-20072222D02*
X6806134Y-20176984D01*
X6806134Y-20072222D02*
X6815658Y-20053174D01*
X6815658Y-20053174D02*
X6834705Y-20043650D01*
X6834705Y-20043650D02*
X6863277Y-20043650D01*
X6863277Y-20043650D02*
X6882324Y-20053174D01*
X6882324Y-20053174D02*
X6891848Y-20072222D01*
X6891848Y-20072222D02*
X6891848Y-20176984D01*
X6987086Y-20176984D02*
X6987086Y-20043650D01*
X6987086Y-20062698D02*
X6996610Y-20053174D01*
X6996610Y-20053174D02*
X7015658Y-20043650D01*
X7015658Y-20043650D02*
X7044229Y-20043650D01*
X7044229Y-20043650D02*
X7063277Y-20053174D01*
X7063277Y-20053174D02*
X7072801Y-20072222D01*
X7072801Y-20072222D02*
X7072801Y-20176984D01*
X7072801Y-20072222D02*
X7082324Y-20053174D01*
X7082324Y-20053174D02*
X7101372Y-20043650D01*
X7101372Y-20043650D02*
X7129943Y-20043650D01*
X7129943Y-20043650D02*
X7148991Y-20053174D01*
X7148991Y-20053174D02*
X7158515Y-20072222D01*
X7158515Y-20072222D02*
X7158515Y-20176984D01*
X7548991Y-19967460D02*
X7377563Y-20224603D01*
X7806134Y-19976984D02*
X7825182Y-19976984D01*
X7825182Y-19976984D02*
X7844229Y-19986508D01*
X7844229Y-19986508D02*
X7853753Y-19996031D01*
X7853753Y-19996031D02*
X7863277Y-20015079D01*
X7863277Y-20015079D02*
X7872801Y-20053174D01*
X7872801Y-20053174D02*
X7872801Y-20100793D01*
X7872801Y-20100793D02*
X7863277Y-20138889D01*
X7863277Y-20138889D02*
X7853753Y-20157936D01*
X7853753Y-20157936D02*
X7844229Y-20167460D01*
X7844229Y-20167460D02*
X7825182Y-20176984D01*
X7825182Y-20176984D02*
X7806134Y-20176984D01*
X7806134Y-20176984D02*
X7787086Y-20167460D01*
X7787086Y-20167460D02*
X7777563Y-20157936D01*
X7777563Y-20157936D02*
X7768039Y-20138889D01*
X7768039Y-20138889D02*
X7758515Y-20100793D01*
X7758515Y-20100793D02*
X7758515Y-20053174D01*
X7758515Y-20053174D02*
X7768039Y-20015079D01*
X7768039Y-20015079D02*
X7777563Y-19996031D01*
X7777563Y-19996031D02*
X7787086Y-19986508D01*
X7787086Y-19986508D02*
X7806134Y-19976984D01*
X7958515Y-20157936D02*
X7968039Y-20167460D01*
X7968039Y-20167460D02*
X7958515Y-20176984D01*
X7958515Y-20176984D02*
X7948991Y-20167460D01*
X7948991Y-20167460D02*
X7958515Y-20157936D01*
X7958515Y-20157936D02*
X7958515Y-20176984D01*
X8091848Y-19976984D02*
X8110896Y-19976984D01*
X8110896Y-19976984D02*
X8129944Y-19986508D01*
X8129944Y-19986508D02*
X8139467Y-19996031D01*
X8139467Y-19996031D02*
X8148991Y-20015079D01*
X8148991Y-20015079D02*
X8158515Y-20053174D01*
X8158515Y-20053174D02*
X8158515Y-20100793D01*
X8158515Y-20100793D02*
X8148991Y-20138889D01*
X8148991Y-20138889D02*
X8139467Y-20157936D01*
X8139467Y-20157936D02*
X8129944Y-20167460D01*
X8129944Y-20167460D02*
X8110896Y-20176984D01*
X8110896Y-20176984D02*
X8091848Y-20176984D01*
X8091848Y-20176984D02*
X8072801Y-20167460D01*
X8072801Y-20167460D02*
X8063277Y-20157936D01*
X8063277Y-20157936D02*
X8053753Y-20138889D01*
X8053753Y-20138889D02*
X8044229Y-20100793D01*
X8044229Y-20100793D02*
X8044229Y-20053174D01*
X8044229Y-20053174D02*
X8053753Y-20015079D01*
X8053753Y-20015079D02*
X8063277Y-19996031D01*
X8063277Y-19996031D02*
X8072801Y-19986508D01*
X8072801Y-19986508D02*
X8091848Y-19976984D01*
X8272801Y-20062698D02*
X8253753Y-20053174D01*
X8253753Y-20053174D02*
X8244229Y-20043650D01*
X8244229Y-20043650D02*
X8234706Y-20024603D01*
X8234706Y-20024603D02*
X8234706Y-20015079D01*
X8234706Y-20015079D02*
X8244229Y-19996031D01*
X8244229Y-19996031D02*
X8253753Y-19986508D01*
X8253753Y-19986508D02*
X8272801Y-19976984D01*
X8272801Y-19976984D02*
X8310896Y-19976984D01*
X8310896Y-19976984D02*
X8329944Y-19986508D01*
X8329944Y-19986508D02*
X8339467Y-19996031D01*
X8339467Y-19996031D02*
X8348991Y-20015079D01*
X8348991Y-20015079D02*
X8348991Y-20024603D01*
X8348991Y-20024603D02*
X8339467Y-20043650D01*
X8339467Y-20043650D02*
X8329944Y-20053174D01*
X8329944Y-20053174D02*
X8310896Y-20062698D01*
X8310896Y-20062698D02*
X8272801Y-20062698D01*
X8272801Y-20062698D02*
X8253753Y-20072222D01*
X8253753Y-20072222D02*
X8244229Y-20081746D01*
X8244229Y-20081746D02*
X8234706Y-20100793D01*
X8234706Y-20100793D02*
X8234706Y-20138889D01*
X8234706Y-20138889D02*
X8244229Y-20157936D01*
X8244229Y-20157936D02*
X8253753Y-20167460D01*
X8253753Y-20167460D02*
X8272801Y-20176984D01*
X8272801Y-20176984D02*
X8310896Y-20176984D01*
X8310896Y-20176984D02*
X8329944Y-20167460D01*
X8329944Y-20167460D02*
X8339467Y-20157936D01*
X8339467Y-20157936D02*
X8348991Y-20138889D01*
X8348991Y-20138889D02*
X8348991Y-20100793D01*
X8348991Y-20100793D02*
X8339467Y-20081746D01*
X8339467Y-20081746D02*
X8329944Y-20072222D01*
X8329944Y-20072222D02*
X8310896Y-20062698D01*
X8520420Y-19976984D02*
X8482325Y-19976984D01*
X8482325Y-19976984D02*
X8463277Y-19986508D01*
X8463277Y-19986508D02*
X8453753Y-19996031D01*
X8453753Y-19996031D02*
X8434706Y-20024603D01*
X8434706Y-20024603D02*
X8425182Y-20062698D01*
X8425182Y-20062698D02*
X8425182Y-20138889D01*
X8425182Y-20138889D02*
X8434706Y-20157936D01*
X8434706Y-20157936D02*
X8444229Y-20167460D01*
X8444229Y-20167460D02*
X8463277Y-20176984D01*
X8463277Y-20176984D02*
X8501372Y-20176984D01*
X8501372Y-20176984D02*
X8520420Y-20167460D01*
X8520420Y-20167460D02*
X8529944Y-20157936D01*
X8529944Y-20157936D02*
X8539468Y-20138889D01*
X8539468Y-20138889D02*
X8539468Y-20091270D01*
X8539468Y-20091270D02*
X8529944Y-20072222D01*
X8529944Y-20072222D02*
X8520420Y-20062698D01*
X8520420Y-20062698D02*
X8501372Y-20053174D01*
X8501372Y-20053174D02*
X8463277Y-20053174D01*
X8463277Y-20053174D02*
X8444229Y-20062698D01*
X8444229Y-20062698D02*
X8434706Y-20072222D01*
X8434706Y-20072222D02*
X8425182Y-20091270D01*
X8710896Y-19976984D02*
X8672801Y-19976984D01*
X8672801Y-19976984D02*
X8653753Y-19986508D01*
X8653753Y-19986508D02*
X8644229Y-19996031D01*
X8644229Y-19996031D02*
X8625182Y-20024603D01*
X8625182Y-20024603D02*
X8615658Y-20062698D01*
X8615658Y-20062698D02*
X8615658Y-20138889D01*
X8615658Y-20138889D02*
X8625182Y-20157936D01*
X8625182Y-20157936D02*
X8634706Y-20167460D01*
X8634706Y-20167460D02*
X8653753Y-20176984D01*
X8653753Y-20176984D02*
X8691849Y-20176984D01*
X8691849Y-20176984D02*
X8710896Y-20167460D01*
X8710896Y-20167460D02*
X8720420Y-20157936D01*
X8720420Y-20157936D02*
X8729944Y-20138889D01*
X8729944Y-20138889D02*
X8729944Y-20091270D01*
X8729944Y-20091270D02*
X8720420Y-20072222D01*
X8720420Y-20072222D02*
X8710896Y-20062698D01*
X8710896Y-20062698D02*
X8691849Y-20053174D01*
X8691849Y-20053174D02*
X8653753Y-20053174D01*
X8653753Y-20053174D02*
X8634706Y-20062698D01*
X8634706Y-20062698D02*
X8625182Y-20072222D01*
X8625182Y-20072222D02*
X8615658Y-20091270D01*
X8806134Y-19976984D02*
X8806134Y-20015079D01*
X8882325Y-19976984D02*
X8882325Y-20015079D01*
X9177563Y-20253174D02*
X9168039Y-20243650D01*
X9168039Y-20243650D02*
X9148991Y-20215079D01*
X9148991Y-20215079D02*
X9139468Y-20196031D01*
X9139468Y-20196031D02*
X9129944Y-20167460D01*
X9129944Y-20167460D02*
X9120420Y-20119841D01*
X9120420Y-20119841D02*
X9120420Y-20081746D01*
X9120420Y-20081746D02*
X9129944Y-20034127D01*
X9129944Y-20034127D02*
X9139468Y-20005555D01*
X9139468Y-20005555D02*
X9148991Y-19986508D01*
X9148991Y-19986508D02*
X9168039Y-19957936D01*
X9168039Y-19957936D02*
X9177563Y-19948412D01*
X9234706Y-19976984D02*
X9358515Y-19976984D01*
X9358515Y-19976984D02*
X9291849Y-20053174D01*
X9291849Y-20053174D02*
X9320420Y-20053174D01*
X9320420Y-20053174D02*
X9339468Y-20062698D01*
X9339468Y-20062698D02*
X9348991Y-20072222D01*
X9348991Y-20072222D02*
X9358515Y-20091270D01*
X9358515Y-20091270D02*
X9358515Y-20138889D01*
X9358515Y-20138889D02*
X9348991Y-20157936D01*
X9348991Y-20157936D02*
X9339468Y-20167460D01*
X9339468Y-20167460D02*
X9320420Y-20176984D01*
X9320420Y-20176984D02*
X9263277Y-20176984D01*
X9263277Y-20176984D02*
X9244230Y-20167460D01*
X9244230Y-20167460D02*
X9234706Y-20157936D01*
X9434706Y-19996031D02*
X9444230Y-19986508D01*
X9444230Y-19986508D02*
X9463277Y-19976984D01*
X9463277Y-19976984D02*
X9510896Y-19976984D01*
X9510896Y-19976984D02*
X9529944Y-19986508D01*
X9529944Y-19986508D02*
X9539468Y-19996031D01*
X9539468Y-19996031D02*
X9548991Y-20015079D01*
X9548991Y-20015079D02*
X9548991Y-20034127D01*
X9548991Y-20034127D02*
X9539468Y-20062698D01*
X9539468Y-20062698D02*
X9425182Y-20176984D01*
X9425182Y-20176984D02*
X9548991Y-20176984D01*
X9787087Y-20176984D02*
X9787087Y-19976984D01*
X9872801Y-20176984D02*
X9872801Y-20072222D01*
X9872801Y-20072222D02*
X9863277Y-20053174D01*
X9863277Y-20053174D02*
X9844230Y-20043650D01*
X9844230Y-20043650D02*
X9815658Y-20043650D01*
X9815658Y-20043650D02*
X9796611Y-20053174D01*
X9796611Y-20053174D02*
X9787087Y-20062698D01*
X9996611Y-20176984D02*
X9977563Y-20167460D01*
X9977563Y-20167460D02*
X9968039Y-20157936D01*
X9968039Y-20157936D02*
X9958515Y-20138889D01*
X9958515Y-20138889D02*
X9958515Y-20081746D01*
X9958515Y-20081746D02*
X9968039Y-20062698D01*
X9968039Y-20062698D02*
X9977563Y-20053174D01*
X9977563Y-20053174D02*
X9996611Y-20043650D01*
X9996611Y-20043650D02*
X10025182Y-20043650D01*
X10025182Y-20043650D02*
X10044230Y-20053174D01*
X10044230Y-20053174D02*
X10053753Y-20062698D01*
X10053753Y-20062698D02*
X10063277Y-20081746D01*
X10063277Y-20081746D02*
X10063277Y-20138889D01*
X10063277Y-20138889D02*
X10053753Y-20157936D01*
X10053753Y-20157936D02*
X10044230Y-20167460D01*
X10044230Y-20167460D02*
X10025182Y-20176984D01*
X10025182Y-20176984D02*
X9996611Y-20176984D01*
X10177563Y-20176984D02*
X10158515Y-20167460D01*
X10158515Y-20167460D02*
X10148992Y-20148412D01*
X10148992Y-20148412D02*
X10148992Y-19976984D01*
X10329944Y-20167460D02*
X10310896Y-20176984D01*
X10310896Y-20176984D02*
X10272801Y-20176984D01*
X10272801Y-20176984D02*
X10253753Y-20167460D01*
X10253753Y-20167460D02*
X10244230Y-20148412D01*
X10244230Y-20148412D02*
X10244230Y-20072222D01*
X10244230Y-20072222D02*
X10253753Y-20053174D01*
X10253753Y-20053174D02*
X10272801Y-20043650D01*
X10272801Y-20043650D02*
X10310896Y-20043650D01*
X10310896Y-20043650D02*
X10329944Y-20053174D01*
X10329944Y-20053174D02*
X10339468Y-20072222D01*
X10339468Y-20072222D02*
X10339468Y-20091270D01*
X10339468Y-20091270D02*
X10244230Y-20110317D01*
X10415658Y-20167460D02*
X10434706Y-20176984D01*
X10434706Y-20176984D02*
X10472801Y-20176984D01*
X10472801Y-20176984D02*
X10491849Y-20167460D01*
X10491849Y-20167460D02*
X10501373Y-20148412D01*
X10501373Y-20148412D02*
X10501373Y-20138889D01*
X10501373Y-20138889D02*
X10491849Y-20119841D01*
X10491849Y-20119841D02*
X10472801Y-20110317D01*
X10472801Y-20110317D02*
X10444230Y-20110317D01*
X10444230Y-20110317D02*
X10425182Y-20100793D01*
X10425182Y-20100793D02*
X10415658Y-20081746D01*
X10415658Y-20081746D02*
X10415658Y-20072222D01*
X10415658Y-20072222D02*
X10425182Y-20053174D01*
X10425182Y-20053174D02*
X10444230Y-20043650D01*
X10444230Y-20043650D02*
X10472801Y-20043650D01*
X10472801Y-20043650D02*
X10491849Y-20053174D01*
X10568039Y-20253174D02*
X10577563Y-20243650D01*
X10577563Y-20243650D02*
X10596611Y-20215079D01*
X10596611Y-20215079D02*
X10606134Y-20196031D01*
X10606134Y-20196031D02*
X10615658Y-20167460D01*
X10615658Y-20167460D02*
X10625182Y-20119841D01*
X10625182Y-20119841D02*
X10625182Y-20081746D01*
X10625182Y-20081746D02*
X10615658Y-20034127D01*
X10615658Y-20034127D02*
X10606134Y-20005555D01*
X10606134Y-20005555D02*
X10596611Y-19986508D01*
X10596611Y-19986508D02*
X10577563Y-19957936D01*
X10577563Y-19957936D02*
X10568039Y-19948412D01*
X5502500Y-20305500D02*
X5502500Y-20505500D01*
X5402500Y-20405500D02*
X5602500Y-20405500D01*
X5602500Y-20405500D02*
G75*
G02*
X5402500Y-20405500I-100000J0D01*
G01*
X5402500Y-20405500D02*
G75*
G02*
X5602500Y-20405500I100000J0D01*
G01*
X5853753Y-20316031D02*
X5863277Y-20306508D01*
X5863277Y-20306508D02*
X5882324Y-20296984D01*
X5882324Y-20296984D02*
X5929943Y-20296984D01*
X5929943Y-20296984D02*
X5948991Y-20306508D01*
X5948991Y-20306508D02*
X5958515Y-20316031D01*
X5958515Y-20316031D02*
X5968039Y-20335079D01*
X5968039Y-20335079D02*
X5968039Y-20354127D01*
X5968039Y-20354127D02*
X5958515Y-20382698D01*
X5958515Y-20382698D02*
X5844229Y-20496984D01*
X5844229Y-20496984D02*
X5968039Y-20496984D01*
X6053753Y-20477936D02*
X6063277Y-20487460D01*
X6063277Y-20487460D02*
X6053753Y-20496984D01*
X6053753Y-20496984D02*
X6044229Y-20487460D01*
X6044229Y-20487460D02*
X6053753Y-20477936D01*
X6053753Y-20477936D02*
X6053753Y-20496984D01*
X6244229Y-20296984D02*
X6148991Y-20296984D01*
X6148991Y-20296984D02*
X6139467Y-20392222D01*
X6139467Y-20392222D02*
X6148991Y-20382698D01*
X6148991Y-20382698D02*
X6168039Y-20373174D01*
X6168039Y-20373174D02*
X6215658Y-20373174D01*
X6215658Y-20373174D02*
X6234705Y-20382698D01*
X6234705Y-20382698D02*
X6244229Y-20392222D01*
X6244229Y-20392222D02*
X6253753Y-20411270D01*
X6253753Y-20411270D02*
X6253753Y-20458889D01*
X6253753Y-20458889D02*
X6244229Y-20477936D01*
X6244229Y-20477936D02*
X6234705Y-20487460D01*
X6234705Y-20487460D02*
X6215658Y-20496984D01*
X6215658Y-20496984D02*
X6168039Y-20496984D01*
X6168039Y-20496984D02*
X6148991Y-20487460D01*
X6148991Y-20487460D02*
X6139467Y-20477936D01*
X6377562Y-20296984D02*
X6396610Y-20296984D01*
X6396610Y-20296984D02*
X6415658Y-20306508D01*
X6415658Y-20306508D02*
X6425182Y-20316031D01*
X6425182Y-20316031D02*
X6434705Y-20335079D01*
X6434705Y-20335079D02*
X6444229Y-20373174D01*
X6444229Y-20373174D02*
X6444229Y-20420793D01*
X6444229Y-20420793D02*
X6434705Y-20458889D01*
X6434705Y-20458889D02*
X6425182Y-20477936D01*
X6425182Y-20477936D02*
X6415658Y-20487460D01*
X6415658Y-20487460D02*
X6396610Y-20496984D01*
X6396610Y-20496984D02*
X6377562Y-20496984D01*
X6377562Y-20496984D02*
X6358515Y-20487460D01*
X6358515Y-20487460D02*
X6348991Y-20477936D01*
X6348991Y-20477936D02*
X6339467Y-20458889D01*
X6339467Y-20458889D02*
X6329943Y-20420793D01*
X6329943Y-20420793D02*
X6329943Y-20373174D01*
X6329943Y-20373174D02*
X6339467Y-20335079D01*
X6339467Y-20335079D02*
X6348991Y-20316031D01*
X6348991Y-20316031D02*
X6358515Y-20306508D01*
X6358515Y-20306508D02*
X6377562Y-20296984D01*
X6568039Y-20296984D02*
X6587086Y-20296984D01*
X6587086Y-20296984D02*
X6606134Y-20306508D01*
X6606134Y-20306508D02*
X6615658Y-20316031D01*
X6615658Y-20316031D02*
X6625182Y-20335079D01*
X6625182Y-20335079D02*
X6634705Y-20373174D01*
X6634705Y-20373174D02*
X6634705Y-20420793D01*
X6634705Y-20420793D02*
X6625182Y-20458889D01*
X6625182Y-20458889D02*
X6615658Y-20477936D01*
X6615658Y-20477936D02*
X6606134Y-20487460D01*
X6606134Y-20487460D02*
X6587086Y-20496984D01*
X6587086Y-20496984D02*
X6568039Y-20496984D01*
X6568039Y-20496984D02*
X6548991Y-20487460D01*
X6548991Y-20487460D02*
X6539467Y-20477936D01*
X6539467Y-20477936D02*
X6529943Y-20458889D01*
X6529943Y-20458889D02*
X6520420Y-20420793D01*
X6520420Y-20420793D02*
X6520420Y-20373174D01*
X6520420Y-20373174D02*
X6529943Y-20335079D01*
X6529943Y-20335079D02*
X6539467Y-20316031D01*
X6539467Y-20316031D02*
X6548991Y-20306508D01*
X6548991Y-20306508D02*
X6568039Y-20296984D01*
X6720420Y-20496984D02*
X6720420Y-20363650D01*
X6720420Y-20382698D02*
X6729943Y-20373174D01*
X6729943Y-20373174D02*
X6748991Y-20363650D01*
X6748991Y-20363650D02*
X6777563Y-20363650D01*
X6777563Y-20363650D02*
X6796610Y-20373174D01*
X6796610Y-20373174D02*
X6806134Y-20392222D01*
X6806134Y-20392222D02*
X6806134Y-20496984D01*
X6806134Y-20392222D02*
X6815658Y-20373174D01*
X6815658Y-20373174D02*
X6834705Y-20363650D01*
X6834705Y-20363650D02*
X6863277Y-20363650D01*
X6863277Y-20363650D02*
X6882324Y-20373174D01*
X6882324Y-20373174D02*
X6891848Y-20392222D01*
X6891848Y-20392222D02*
X6891848Y-20496984D01*
X6987086Y-20496984D02*
X6987086Y-20363650D01*
X6987086Y-20382698D02*
X6996610Y-20373174D01*
X6996610Y-20373174D02*
X7015658Y-20363650D01*
X7015658Y-20363650D02*
X7044229Y-20363650D01*
X7044229Y-20363650D02*
X7063277Y-20373174D01*
X7063277Y-20373174D02*
X7072801Y-20392222D01*
X7072801Y-20392222D02*
X7072801Y-20496984D01*
X7072801Y-20392222D02*
X7082324Y-20373174D01*
X7082324Y-20373174D02*
X7101372Y-20363650D01*
X7101372Y-20363650D02*
X7129943Y-20363650D01*
X7129943Y-20363650D02*
X7148991Y-20373174D01*
X7148991Y-20373174D02*
X7158515Y-20392222D01*
X7158515Y-20392222D02*
X7158515Y-20496984D01*
X7548991Y-20287460D02*
X7377563Y-20544603D01*
X7806134Y-20296984D02*
X7825182Y-20296984D01*
X7825182Y-20296984D02*
X7844229Y-20306508D01*
X7844229Y-20306508D02*
X7853753Y-20316031D01*
X7853753Y-20316031D02*
X7863277Y-20335079D01*
X7863277Y-20335079D02*
X7872801Y-20373174D01*
X7872801Y-20373174D02*
X7872801Y-20420793D01*
X7872801Y-20420793D02*
X7863277Y-20458889D01*
X7863277Y-20458889D02*
X7853753Y-20477936D01*
X7853753Y-20477936D02*
X7844229Y-20487460D01*
X7844229Y-20487460D02*
X7825182Y-20496984D01*
X7825182Y-20496984D02*
X7806134Y-20496984D01*
X7806134Y-20496984D02*
X7787086Y-20487460D01*
X7787086Y-20487460D02*
X7777563Y-20477936D01*
X7777563Y-20477936D02*
X7768039Y-20458889D01*
X7768039Y-20458889D02*
X7758515Y-20420793D01*
X7758515Y-20420793D02*
X7758515Y-20373174D01*
X7758515Y-20373174D02*
X7768039Y-20335079D01*
X7768039Y-20335079D02*
X7777563Y-20316031D01*
X7777563Y-20316031D02*
X7787086Y-20306508D01*
X7787086Y-20306508D02*
X7806134Y-20296984D01*
X7958515Y-20477936D02*
X7968039Y-20487460D01*
X7968039Y-20487460D02*
X7958515Y-20496984D01*
X7958515Y-20496984D02*
X7948991Y-20487460D01*
X7948991Y-20487460D02*
X7958515Y-20477936D01*
X7958515Y-20477936D02*
X7958515Y-20496984D01*
X8091848Y-20296984D02*
X8110896Y-20296984D01*
X8110896Y-20296984D02*
X8129944Y-20306508D01*
X8129944Y-20306508D02*
X8139467Y-20316031D01*
X8139467Y-20316031D02*
X8148991Y-20335079D01*
X8148991Y-20335079D02*
X8158515Y-20373174D01*
X8158515Y-20373174D02*
X8158515Y-20420793D01*
X8158515Y-20420793D02*
X8148991Y-20458889D01*
X8148991Y-20458889D02*
X8139467Y-20477936D01*
X8139467Y-20477936D02*
X8129944Y-20487460D01*
X8129944Y-20487460D02*
X8110896Y-20496984D01*
X8110896Y-20496984D02*
X8091848Y-20496984D01*
X8091848Y-20496984D02*
X8072801Y-20487460D01*
X8072801Y-20487460D02*
X8063277Y-20477936D01*
X8063277Y-20477936D02*
X8053753Y-20458889D01*
X8053753Y-20458889D02*
X8044229Y-20420793D01*
X8044229Y-20420793D02*
X8044229Y-20373174D01*
X8044229Y-20373174D02*
X8053753Y-20335079D01*
X8053753Y-20335079D02*
X8063277Y-20316031D01*
X8063277Y-20316031D02*
X8072801Y-20306508D01*
X8072801Y-20306508D02*
X8091848Y-20296984D01*
X8253753Y-20496984D02*
X8291848Y-20496984D01*
X8291848Y-20496984D02*
X8310896Y-20487460D01*
X8310896Y-20487460D02*
X8320420Y-20477936D01*
X8320420Y-20477936D02*
X8339467Y-20449365D01*
X8339467Y-20449365D02*
X8348991Y-20411270D01*
X8348991Y-20411270D02*
X8348991Y-20335079D01*
X8348991Y-20335079D02*
X8339467Y-20316031D01*
X8339467Y-20316031D02*
X8329944Y-20306508D01*
X8329944Y-20306508D02*
X8310896Y-20296984D01*
X8310896Y-20296984D02*
X8272801Y-20296984D01*
X8272801Y-20296984D02*
X8253753Y-20306508D01*
X8253753Y-20306508D02*
X8244229Y-20316031D01*
X8244229Y-20316031D02*
X8234706Y-20335079D01*
X8234706Y-20335079D02*
X8234706Y-20382698D01*
X8234706Y-20382698D02*
X8244229Y-20401746D01*
X8244229Y-20401746D02*
X8253753Y-20411270D01*
X8253753Y-20411270D02*
X8272801Y-20420793D01*
X8272801Y-20420793D02*
X8310896Y-20420793D01*
X8310896Y-20420793D02*
X8329944Y-20411270D01*
X8329944Y-20411270D02*
X8339467Y-20401746D01*
X8339467Y-20401746D02*
X8348991Y-20382698D01*
X8463277Y-20382698D02*
X8444229Y-20373174D01*
X8444229Y-20373174D02*
X8434706Y-20363650D01*
X8434706Y-20363650D02*
X8425182Y-20344603D01*
X8425182Y-20344603D02*
X8425182Y-20335079D01*
X8425182Y-20335079D02*
X8434706Y-20316031D01*
X8434706Y-20316031D02*
X8444229Y-20306508D01*
X8444229Y-20306508D02*
X8463277Y-20296984D01*
X8463277Y-20296984D02*
X8501372Y-20296984D01*
X8501372Y-20296984D02*
X8520420Y-20306508D01*
X8520420Y-20306508D02*
X8529944Y-20316031D01*
X8529944Y-20316031D02*
X8539468Y-20335079D01*
X8539468Y-20335079D02*
X8539468Y-20344603D01*
X8539468Y-20344603D02*
X8529944Y-20363650D01*
X8529944Y-20363650D02*
X8520420Y-20373174D01*
X8520420Y-20373174D02*
X8501372Y-20382698D01*
X8501372Y-20382698D02*
X8463277Y-20382698D01*
X8463277Y-20382698D02*
X8444229Y-20392222D01*
X8444229Y-20392222D02*
X8434706Y-20401746D01*
X8434706Y-20401746D02*
X8425182Y-20420793D01*
X8425182Y-20420793D02*
X8425182Y-20458889D01*
X8425182Y-20458889D02*
X8434706Y-20477936D01*
X8434706Y-20477936D02*
X8444229Y-20487460D01*
X8444229Y-20487460D02*
X8463277Y-20496984D01*
X8463277Y-20496984D02*
X8501372Y-20496984D01*
X8501372Y-20496984D02*
X8520420Y-20487460D01*
X8520420Y-20487460D02*
X8529944Y-20477936D01*
X8529944Y-20477936D02*
X8539468Y-20458889D01*
X8539468Y-20458889D02*
X8539468Y-20420793D01*
X8539468Y-20420793D02*
X8529944Y-20401746D01*
X8529944Y-20401746D02*
X8520420Y-20392222D01*
X8520420Y-20392222D02*
X8501372Y-20382698D01*
X8710896Y-20363650D02*
X8710896Y-20496984D01*
X8663277Y-20287460D02*
X8615658Y-20430317D01*
X8615658Y-20430317D02*
X8739468Y-20430317D01*
X8806134Y-20296984D02*
X8806134Y-20335079D01*
X8882325Y-20296984D02*
X8882325Y-20335079D01*
X9177563Y-20573174D02*
X9168039Y-20563650D01*
X9168039Y-20563650D02*
X9148991Y-20535079D01*
X9148991Y-20535079D02*
X9139468Y-20516031D01*
X9139468Y-20516031D02*
X9129944Y-20487460D01*
X9129944Y-20487460D02*
X9120420Y-20439841D01*
X9120420Y-20439841D02*
X9120420Y-20401746D01*
X9120420Y-20401746D02*
X9129944Y-20354127D01*
X9129944Y-20354127D02*
X9139468Y-20325555D01*
X9139468Y-20325555D02*
X9148991Y-20306508D01*
X9148991Y-20306508D02*
X9168039Y-20277936D01*
X9168039Y-20277936D02*
X9177563Y-20268412D01*
X9339468Y-20296984D02*
X9301372Y-20296984D01*
X9301372Y-20296984D02*
X9282325Y-20306508D01*
X9282325Y-20306508D02*
X9272801Y-20316031D01*
X9272801Y-20316031D02*
X9253753Y-20344603D01*
X9253753Y-20344603D02*
X9244230Y-20382698D01*
X9244230Y-20382698D02*
X9244230Y-20458889D01*
X9244230Y-20458889D02*
X9253753Y-20477936D01*
X9253753Y-20477936D02*
X9263277Y-20487460D01*
X9263277Y-20487460D02*
X9282325Y-20496984D01*
X9282325Y-20496984D02*
X9320420Y-20496984D01*
X9320420Y-20496984D02*
X9339468Y-20487460D01*
X9339468Y-20487460D02*
X9348991Y-20477936D01*
X9348991Y-20477936D02*
X9358515Y-20458889D01*
X9358515Y-20458889D02*
X9358515Y-20411270D01*
X9358515Y-20411270D02*
X9348991Y-20392222D01*
X9348991Y-20392222D02*
X9339468Y-20382698D01*
X9339468Y-20382698D02*
X9320420Y-20373174D01*
X9320420Y-20373174D02*
X9282325Y-20373174D01*
X9282325Y-20373174D02*
X9263277Y-20382698D01*
X9263277Y-20382698D02*
X9253753Y-20392222D01*
X9253753Y-20392222D02*
X9244230Y-20411270D01*
X9596611Y-20496984D02*
X9596611Y-20296984D01*
X9682325Y-20496984D02*
X9682325Y-20392222D01*
X9682325Y-20392222D02*
X9672801Y-20373174D01*
X9672801Y-20373174D02*
X9653753Y-20363650D01*
X9653753Y-20363650D02*
X9625182Y-20363650D01*
X9625182Y-20363650D02*
X9606134Y-20373174D01*
X9606134Y-20373174D02*
X9596611Y-20382698D01*
X9806134Y-20496984D02*
X9787087Y-20487460D01*
X9787087Y-20487460D02*
X9777563Y-20477936D01*
X9777563Y-20477936D02*
X9768039Y-20458889D01*
X9768039Y-20458889D02*
X9768039Y-20401746D01*
X9768039Y-20401746D02*
X9777563Y-20382698D01*
X9777563Y-20382698D02*
X9787087Y-20373174D01*
X9787087Y-20373174D02*
X9806134Y-20363650D01*
X9806134Y-20363650D02*
X9834706Y-20363650D01*
X9834706Y-20363650D02*
X9853753Y-20373174D01*
X9853753Y-20373174D02*
X9863277Y-20382698D01*
X9863277Y-20382698D02*
X9872801Y-20401746D01*
X9872801Y-20401746D02*
X9872801Y-20458889D01*
X9872801Y-20458889D02*
X9863277Y-20477936D01*
X9863277Y-20477936D02*
X9853753Y-20487460D01*
X9853753Y-20487460D02*
X9834706Y-20496984D01*
X9834706Y-20496984D02*
X9806134Y-20496984D01*
X9987087Y-20496984D02*
X9968039Y-20487460D01*
X9968039Y-20487460D02*
X9958515Y-20468412D01*
X9958515Y-20468412D02*
X9958515Y-20296984D01*
X10139468Y-20487460D02*
X10120420Y-20496984D01*
X10120420Y-20496984D02*
X10082325Y-20496984D01*
X10082325Y-20496984D02*
X10063277Y-20487460D01*
X10063277Y-20487460D02*
X10053753Y-20468412D01*
X10053753Y-20468412D02*
X10053753Y-20392222D01*
X10053753Y-20392222D02*
X10063277Y-20373174D01*
X10063277Y-20373174D02*
X10082325Y-20363650D01*
X10082325Y-20363650D02*
X10120420Y-20363650D01*
X10120420Y-20363650D02*
X10139468Y-20373174D01*
X10139468Y-20373174D02*
X10148992Y-20392222D01*
X10148992Y-20392222D02*
X10148992Y-20411270D01*
X10148992Y-20411270D02*
X10053753Y-20430317D01*
X10225182Y-20487460D02*
X10244230Y-20496984D01*
X10244230Y-20496984D02*
X10282325Y-20496984D01*
X10282325Y-20496984D02*
X10301373Y-20487460D01*
X10301373Y-20487460D02*
X10310896Y-20468412D01*
X10310896Y-20468412D02*
X10310896Y-20458889D01*
X10310896Y-20458889D02*
X10301373Y-20439841D01*
X10301373Y-20439841D02*
X10282325Y-20430317D01*
X10282325Y-20430317D02*
X10253753Y-20430317D01*
X10253753Y-20430317D02*
X10234706Y-20420793D01*
X10234706Y-20420793D02*
X10225182Y-20401746D01*
X10225182Y-20401746D02*
X10225182Y-20392222D01*
X10225182Y-20392222D02*
X10234706Y-20373174D01*
X10234706Y-20373174D02*
X10253753Y-20363650D01*
X10253753Y-20363650D02*
X10282325Y-20363650D01*
X10282325Y-20363650D02*
X10301373Y-20373174D01*
X10377563Y-20573174D02*
X10387087Y-20563650D01*
X10387087Y-20563650D02*
X10406134Y-20535079D01*
X10406134Y-20535079D02*
X10415658Y-20516031D01*
X10415658Y-20516031D02*
X10425182Y-20487460D01*
X10425182Y-20487460D02*
X10434706Y-20439841D01*
X10434706Y-20439841D02*
X10434706Y-20401746D01*
X10434706Y-20401746D02*
X10425182Y-20354127D01*
X10425182Y-20354127D02*
X10415658Y-20325555D01*
X10415658Y-20325555D02*
X10406134Y-20306508D01*
X10406134Y-20306508D02*
X10387087Y-20277936D01*
X10387087Y-20277936D02*
X10377563Y-20268412D01*
M02*
