%TF.GenerationSoftware,KiCad,Pcbnew,9.0.3*%
%TF.CreationDate,2025-07-15T13:26:12-05:00*%
%TF.ProjectId,Garden PCB,47617264-656e-4205-9043-422e6b696361,rev?*%
%TF.SameCoordinates,Original*%
%TF.FileFunction,Paste,Top*%
%TF.FilePolarity,Positive*%
%FSLAX46Y46*%
G04 Gerber Fmt 4.6, Leading zero omitted, Abs format (unit mm)*
G04 Created by KiCad (PCBNEW 9.0.3) date 2025-07-15 13:26:12*
%MOMM*%
%LPD*%
G01*
G04 APERTURE LIST*
G04 Aperture macros list*
%AMRoundRect*
0 Rectangle with rounded corners*
0 $1 Rounding radius*
0 $2 $3 $4 $5 $6 $7 $8 $9 X,Y pos of 4 corners*
0 Add a 4 corners polygon primitive as box body*
4,1,4,$2,$3,$4,$5,$6,$7,$8,$9,$2,$3,0*
0 Add four circle primitives for the rounded corners*
1,1,$1+$1,$2,$3*
1,1,$1+$1,$4,$5*
1,1,$1+$1,$6,$7*
1,1,$1+$1,$8,$9*
0 Add four rect primitives between the rounded corners*
20,1,$1+$1,$2,$3,$4,$5,0*
20,1,$1+$1,$4,$5,$6,$7,0*
20,1,$1+$1,$6,$7,$8,$9,0*
20,1,$1+$1,$8,$9,$2,$3,0*%
G04 Aperture macros list end*
%ADD10R,3.150000X2.200000*%
%ADD11R,0.710000X1.372000*%
%ADD12R,0.710000X0.590000*%
%ADD13R,4.520000X3.850000*%
%ADD14R,0.450000X1.200000*%
%ADD15RoundRect,0.250000X-0.450000X0.350000X-0.450000X-0.350000X0.450000X-0.350000X0.450000X0.350000X0*%
%ADD16RoundRect,0.250000X0.450000X-0.325000X0.450000X0.325000X-0.450000X0.325000X-0.450000X-0.325000X0*%
%ADD17RoundRect,0.250000X0.250000X-0.250000X0.250000X0.250000X-0.250000X0.250000X-0.250000X-0.250000X0*%
%ADD18RoundRect,0.250000X-0.350000X-0.450000X0.350000X-0.450000X0.350000X0.450000X-0.350000X0.450000X0*%
%ADD19RoundRect,0.250000X0.325000X0.450000X-0.325000X0.450000X-0.325000X-0.450000X0.325000X-0.450000X0*%
%ADD20RoundRect,0.250000X-0.475000X0.337500X-0.475000X-0.337500X0.475000X-0.337500X0.475000X0.337500X0*%
%ADD21RoundRect,0.250000X0.475000X-0.337500X0.475000X0.337500X-0.475000X0.337500X-0.475000X-0.337500X0*%
%ADD22RoundRect,0.250000X-0.250000X-0.250000X0.250000X-0.250000X0.250000X0.250000X-0.250000X0.250000X0*%
%ADD23RoundRect,0.250000X0.450000X-0.350000X0.450000X0.350000X-0.450000X0.350000X-0.450000X-0.350000X0*%
%ADD24RoundRect,0.250000X0.350000X0.450000X-0.350000X0.450000X-0.350000X-0.450000X0.350000X-0.450000X0*%
G04 APERTURE END LIST*
D10*
%TO.C,TVS1*%
X174450000Y-166650000D03*
X174450000Y-159650000D03*
%TD*%
D11*
%TO.C,Q1*%
X155845000Y-143571000D03*
X157115000Y-143571000D03*
X158385000Y-143571000D03*
X159655000Y-143571000D03*
D12*
X159655000Y-137640000D03*
X158385000Y-137640000D03*
X157115000Y-137640000D03*
X155845000Y-137640000D03*
D13*
X157750000Y-139859000D03*
%TD*%
D14*
%TO.C,IC1*%
X163025000Y-144800000D03*
X163675000Y-144800000D03*
X164325000Y-144800000D03*
X164975000Y-144800000D03*
X164975000Y-142300000D03*
X164325000Y-142300000D03*
X163675000Y-142300000D03*
X163025000Y-142300000D03*
%TD*%
D15*
%TO.C,R1*%
X177830000Y-92600000D03*
X177830000Y-90600000D03*
%TD*%
D16*
%TO.C,LED2*%
X177830000Y-95260000D03*
X177830000Y-97310000D03*
%TD*%
D17*
%TO.C,D1*%
X177830000Y-99650000D03*
X177830000Y-102150000D03*
%TD*%
D18*
%TO.C,R2*%
X135050000Y-87350000D03*
X137050000Y-87350000D03*
%TD*%
D19*
%TO.C,LED3*%
X141550000Y-87550000D03*
X139500000Y-87550000D03*
%TD*%
D20*
%TO.C,VCAP1*%
X167350000Y-142712500D03*
X167350000Y-144787500D03*
%TD*%
D19*
%TO.C,LED1*%
X168500000Y-108075000D03*
X166450000Y-108075000D03*
%TD*%
D21*
%TO.C,C3*%
X159200000Y-114025000D03*
X159200000Y-111950000D03*
%TD*%
D15*
%TO.C,R7*%
X156600000Y-112075000D03*
X156600000Y-114075000D03*
%TD*%
D18*
%TO.C,R8*%
X159250000Y-116375000D03*
X161250000Y-116375000D03*
%TD*%
D15*
%TO.C,R12*%
X163225000Y-105925000D03*
X163225000Y-107925000D03*
%TD*%
D21*
%TO.C,C6*%
X167850000Y-166150000D03*
X167850000Y-164075000D03*
%TD*%
D22*
%TO.C,D2*%
X166500000Y-110875000D03*
X169000000Y-110875000D03*
%TD*%
D18*
%TO.C,R10*%
X164400000Y-113875000D03*
X166400000Y-113875000D03*
%TD*%
D23*
%TO.C,R9*%
X161950000Y-113975000D03*
X161950000Y-111975000D03*
%TD*%
D24*
%TO.C,R6*%
X153225000Y-112550000D03*
X151225000Y-112550000D03*
%TD*%
D18*
%TO.C,R11*%
X166450000Y-105225000D03*
X168450000Y-105225000D03*
%TD*%
M02*
