%TF.GenerationSoftware,KiCad,Pcbnew,9.0.3*%
%TF.CreationDate,2025-07-15T13:26:12-05:00*%
%TF.ProjectId,Garden PCB,47617264-656e-4205-9043-422e6b696361,rev?*%
%TF.SameCoordinates,Original*%
%TF.FileFunction,Copper,L1,Top*%
%TF.FilePolarity,Positive*%
%FSLAX46Y46*%
G04 Gerber Fmt 4.6, Leading zero omitted, Abs format (unit mm)*
G04 Created by KiCad (PCBNEW 9.0.3) date 2025-07-15 13:26:12*
%MOMM*%
%LPD*%
G01*
G04 APERTURE LIST*
G04 Aperture macros list*
%AMRoundRect*
0 Rectangle with rounded corners*
0 $1 Rounding radius*
0 $2 $3 $4 $5 $6 $7 $8 $9 X,Y pos of 4 corners*
0 Add a 4 corners polygon primitive as box body*
4,1,4,$2,$3,$4,$5,$6,$7,$8,$9,$2,$3,0*
0 Add four circle primitives for the rounded corners*
1,1,$1+$1,$2,$3*
1,1,$1+$1,$4,$5*
1,1,$1+$1,$6,$7*
1,1,$1+$1,$8,$9*
0 Add four rect primitives between the rounded corners*
20,1,$1+$1,$2,$3,$4,$5,0*
20,1,$1+$1,$4,$5,$6,$7,0*
20,1,$1+$1,$6,$7,$8,$9,0*
20,1,$1+$1,$8,$9,$2,$3,0*%
G04 Aperture macros list end*
%TA.AperFunction,Conductor*%
%ADD10C,0.200000*%
%TD*%
%TA.AperFunction,ComponentPad*%
%ADD11R,1.200000X1.200000*%
%TD*%
%TA.AperFunction,ComponentPad*%
%ADD12C,1.200000*%
%TD*%
%TA.AperFunction,ComponentPad*%
%ADD13C,1.515000*%
%TD*%
%TA.AperFunction,ComponentPad*%
%ADD14R,1.515000X1.515000*%
%TD*%
%TA.AperFunction,SMDPad,CuDef*%
%ADD15R,3.150000X2.200000*%
%TD*%
%TA.AperFunction,SMDPad,CuDef*%
%ADD16R,0.710000X1.372000*%
%TD*%
%TA.AperFunction,SMDPad,CuDef*%
%ADD17R,0.710000X0.590000*%
%TD*%
%TA.AperFunction,SMDPad,CuDef*%
%ADD18R,4.520000X3.850000*%
%TD*%
%TA.AperFunction,ComponentPad*%
%ADD19R,1.700000X1.700000*%
%TD*%
%TA.AperFunction,ComponentPad*%
%ADD20C,1.700000*%
%TD*%
%TA.AperFunction,SMDPad,CuDef*%
%ADD21R,0.450000X1.200000*%
%TD*%
%TA.AperFunction,ConnectorPad*%
%ADD22C,3.500000*%
%TD*%
%TA.AperFunction,ComponentPad*%
%ADD23C,2.600000*%
%TD*%
%TA.AperFunction,SMDPad,CuDef*%
%ADD24RoundRect,0.250000X-0.450000X0.350000X-0.450000X-0.350000X0.450000X-0.350000X0.450000X0.350000X0*%
%TD*%
%TA.AperFunction,SMDPad,CuDef*%
%ADD25RoundRect,0.250000X0.450000X-0.325000X0.450000X0.325000X-0.450000X0.325000X-0.450000X-0.325000X0*%
%TD*%
%TA.AperFunction,SMDPad,CuDef*%
%ADD26RoundRect,0.250000X0.250000X-0.250000X0.250000X0.250000X-0.250000X0.250000X-0.250000X-0.250000X0*%
%TD*%
%TA.AperFunction,SMDPad,CuDef*%
%ADD27RoundRect,0.250000X-0.350000X-0.450000X0.350000X-0.450000X0.350000X0.450000X-0.350000X0.450000X0*%
%TD*%
%TA.AperFunction,SMDPad,CuDef*%
%ADD28RoundRect,0.250000X0.325000X0.450000X-0.325000X0.450000X-0.325000X-0.450000X0.325000X-0.450000X0*%
%TD*%
%TA.AperFunction,SMDPad,CuDef*%
%ADD29RoundRect,0.250000X-0.475000X0.337500X-0.475000X-0.337500X0.475000X-0.337500X0.475000X0.337500X0*%
%TD*%
%TA.AperFunction,ComponentPad*%
%ADD30C,0.800000*%
%TD*%
%TA.AperFunction,ComponentPad*%
%ADD31C,5.000000*%
%TD*%
%TA.AperFunction,SMDPad,CuDef*%
%ADD32RoundRect,0.250000X0.475000X-0.337500X0.475000X0.337500X-0.475000X0.337500X-0.475000X-0.337500X0*%
%TD*%
%TA.AperFunction,ComponentPad*%
%ADD33RoundRect,0.250000X0.550000X0.550000X-0.550000X0.550000X-0.550000X-0.550000X0.550000X-0.550000X0*%
%TD*%
%TA.AperFunction,ComponentPad*%
%ADD34C,1.600000*%
%TD*%
%TA.AperFunction,ComponentPad*%
%ADD35RoundRect,0.250000X0.550000X-0.550000X0.550000X0.550000X-0.550000X0.550000X-0.550000X-0.550000X0*%
%TD*%
%TA.AperFunction,ComponentPad*%
%ADD36RoundRect,0.250000X-0.550000X-0.550000X0.550000X-0.550000X0.550000X0.550000X-0.550000X0.550000X0*%
%TD*%
%TA.AperFunction,ComponentPad*%
%ADD37C,2.200000*%
%TD*%
%TA.AperFunction,SMDPad,CuDef*%
%ADD38RoundRect,0.250000X-0.250000X-0.250000X0.250000X-0.250000X0.250000X0.250000X-0.250000X0.250000X0*%
%TD*%
%TA.AperFunction,ComponentPad*%
%ADD39C,2.700000*%
%TD*%
%TA.AperFunction,ComponentPad*%
%ADD40RoundRect,0.250000X-1.050000X-1.050000X1.050000X-1.050000X1.050000X1.050000X-1.050000X1.050000X0*%
%TD*%
%TA.AperFunction,SMDPad,CuDef*%
%ADD41RoundRect,0.250000X0.450000X-0.350000X0.450000X0.350000X-0.450000X0.350000X-0.450000X-0.350000X0*%
%TD*%
%TA.AperFunction,SMDPad,CuDef*%
%ADD42RoundRect,0.250000X0.350000X0.450000X-0.350000X0.450000X-0.350000X-0.450000X0.350000X-0.450000X0*%
%TD*%
%TA.AperFunction,ViaPad*%
%ADD43C,0.600000*%
%TD*%
%TA.AperFunction,Conductor*%
%ADD44C,1.016000*%
%TD*%
%TA.AperFunction,Conductor*%
%ADD45C,2.032000*%
%TD*%
%TA.AperFunction,Conductor*%
%ADD46C,1.524000*%
%TD*%
G04 APERTURE END LIST*
%TO.N,Net-(IC1-EN)*%
D10*
X155550000Y-143000000D02*
X158650000Y-143000000D01*
X158650000Y-145500000D01*
X155550000Y-145500000D01*
X155550000Y-143000000D01*
%TA.AperFunction,Conductor*%
G36*
X155550000Y-143000000D02*
G01*
X158650000Y-143000000D01*
X158650000Y-145500000D01*
X155550000Y-145500000D01*
X155550000Y-143000000D01*
G37*
%TD.AperFunction*%
%TD*%
D11*
%TO.P,C5,1*%
%TO.N,+12V*%
X197925000Y-116300000D03*
D12*
%TO.P,C5,2*%
%TO.N,GND*%
X200425000Y-116300000D03*
%TD*%
D13*
%TO.P,RV1,2,2*%
%TO.N,GND*%
X185300000Y-162850000D03*
D14*
%TO.P,RV1,1,1*%
%TO.N,Net-(C6-Pad1)*%
X192800000Y-164850000D03*
%TD*%
D15*
%TO.P,TVS1,1,1*%
%TO.N,Net-(C6-Pad1)*%
X174450000Y-166650000D03*
%TO.P,TVS1,2,2*%
%TO.N,GND*%
X174450000Y-159650000D03*
%TD*%
D16*
%TO.P,Q1,1,S_1*%
%TO.N,Net-(IC1-EN)*%
X155845000Y-143571000D03*
%TO.P,Q1,2,S_2*%
X157115000Y-143571000D03*
%TO.P,Q1,3,S_3*%
X158385000Y-143571000D03*
%TO.P,Q1,4,G*%
%TO.N,Net-(IC1-G)*%
X159655000Y-143571000D03*
D17*
%TO.P,Q1,5,D_1*%
%TO.N,+12V*%
X159655000Y-137640000D03*
%TO.P,Q1,6,D_2*%
X158385000Y-137640000D03*
%TO.P,Q1,7,D_3*%
X157115000Y-137640000D03*
%TO.P,Q1,8,D_4*%
X155845000Y-137640000D03*
D18*
%TO.P,Q1,9,D_5*%
X157750000Y-139859000D03*
%TD*%
D19*
%TO.P,J10,1,Pin_1*%
%TO.N,GND*%
X286800000Y-122110000D03*
D20*
%TO.P,J10,2,Pin_2*%
%TO.N,/GPIO26*%
X286800000Y-124650000D03*
%TO.P,J10,3,Pin_3*%
%TO.N,unconnected-(J10-Pin_3-Pad3)*%
X289340000Y-122110000D03*
%TO.P,J10,4,Pin_4*%
%TO.N,/FAIL*%
X289340000Y-124650000D03*
%TO.P,J10,5,Pin_5*%
%TO.N,+12V*%
X291880000Y-122110000D03*
%TO.P,J10,6,Pin_6*%
X291880000Y-124650000D03*
%TO.P,J10,7,Pin_7*%
%TO.N,/OUT7*%
X294420000Y-122110000D03*
%TO.P,J10,8,Pin_8*%
X294420000Y-124650000D03*
%TO.P,J10,9,Pin_9*%
%TO.N,GND*%
X296960000Y-122110000D03*
%TO.P,J10,10,Pin_10*%
X296960000Y-124650000D03*
%TD*%
D19*
%TO.P,J9,1,Pin_1*%
%TO.N,GND*%
X286700000Y-79730000D03*
D20*
%TO.P,J9,2,Pin_2*%
%TO.N,/GPIO21*%
X286700000Y-82270000D03*
%TO.P,J9,3,Pin_3*%
%TO.N,unconnected-(J9-Pin_3-Pad3)*%
X289240000Y-79730000D03*
%TO.P,J9,4,Pin_4*%
%TO.N,/FAIL*%
X289240000Y-82270000D03*
%TO.P,J9,5,Pin_5*%
%TO.N,+12V*%
X291780000Y-79730000D03*
%TO.P,J9,6,Pin_6*%
X291780000Y-82270000D03*
%TO.P,J9,7,Pin_7*%
%TO.N,/OUT8*%
X294320000Y-79730000D03*
%TO.P,J9,8,Pin_8*%
X294320000Y-82270000D03*
%TO.P,J9,9,Pin_9*%
%TO.N,GND*%
X296860000Y-79730000D03*
%TO.P,J9,10,Pin_10*%
X296860000Y-82270000D03*
%TD*%
D19*
%TO.P,J8,1,Pin_1*%
%TO.N,GND*%
X256850000Y-122110000D03*
D20*
%TO.P,J8,2,Pin_2*%
%TO.N,/GPIO19*%
X256850000Y-124650000D03*
%TO.P,J8,3,Pin_3*%
%TO.N,unconnected-(J8-Pin_3-Pad3)*%
X259390000Y-122110000D03*
%TO.P,J8,4,Pin_4*%
%TO.N,/FAIL*%
X259390000Y-124650000D03*
%TO.P,J8,5,Pin_5*%
%TO.N,+12V*%
X261930000Y-122110000D03*
%TO.P,J8,6,Pin_6*%
X261930000Y-124650000D03*
%TO.P,J8,7,Pin_7*%
%TO.N,/OUT5*%
X264470000Y-122110000D03*
%TO.P,J8,8,Pin_8*%
X264470000Y-124650000D03*
%TO.P,J8,9,Pin_9*%
%TO.N,GND*%
X267010000Y-122110000D03*
%TO.P,J8,10,Pin_10*%
X267010000Y-124650000D03*
%TD*%
D19*
%TO.P,J7,1,Pin_1*%
%TO.N,GND*%
X256950000Y-79980000D03*
D20*
%TO.P,J7,2,Pin_2*%
%TO.N,/GPIO20*%
X256950000Y-82520000D03*
%TO.P,J7,3,Pin_3*%
%TO.N,unconnected-(J7-Pin_3-Pad3)*%
X259490000Y-79980000D03*
%TO.P,J7,4,Pin_4*%
%TO.N,/FAIL*%
X259490000Y-82520000D03*
%TO.P,J7,5,Pin_5*%
%TO.N,+12V*%
X262030000Y-79980000D03*
%TO.P,J7,6,Pin_6*%
X262030000Y-82520000D03*
%TO.P,J7,7,Pin_7*%
%TO.N,/OUT6*%
X264570000Y-79980000D03*
%TO.P,J7,8,Pin_8*%
X264570000Y-82520000D03*
%TO.P,J7,9,Pin_9*%
%TO.N,GND*%
X267110000Y-79980000D03*
%TO.P,J7,10,Pin_10*%
X267110000Y-82520000D03*
%TD*%
D19*
%TO.P,J6,1,Pin_1*%
%TO.N,GND*%
X224330000Y-122380000D03*
D20*
%TO.P,J6,2,Pin_2*%
%TO.N,/GPIO13*%
X224330000Y-124920000D03*
%TO.P,J6,3,Pin_3*%
%TO.N,unconnected-(J6-Pin_3-Pad3)*%
X226870000Y-122380000D03*
%TO.P,J6,4,Pin_4*%
%TO.N,/FAIL*%
X226870000Y-124920000D03*
%TO.P,J6,5,Pin_5*%
%TO.N,+12V*%
X229410000Y-122380000D03*
%TO.P,J6,6,Pin_6*%
X229410000Y-124920000D03*
%TO.P,J6,7,Pin_7*%
%TO.N,/OUT3*%
X231950000Y-122380000D03*
%TO.P,J6,8,Pin_8*%
X231950000Y-124920000D03*
%TO.P,J6,9,Pin_9*%
%TO.N,GND*%
X234490000Y-122380000D03*
%TO.P,J6,10,Pin_10*%
X234490000Y-124920000D03*
%TD*%
D19*
%TO.P,J5,1,Pin_1*%
%TO.N,GND*%
X224300000Y-79730000D03*
D20*
%TO.P,J5,2,Pin_2*%
%TO.N,/GPIO16*%
X224300000Y-82270000D03*
%TO.P,J5,3,Pin_3*%
%TO.N,unconnected-(J5-Pin_3-Pad3)*%
X226840000Y-79730000D03*
%TO.P,J5,4,Pin_4*%
%TO.N,/FAIL*%
X226840000Y-82270000D03*
%TO.P,J5,5,Pin_5*%
%TO.N,+12V*%
X229380000Y-79730000D03*
%TO.P,J5,6,Pin_6*%
X229380000Y-82270000D03*
%TO.P,J5,7,Pin_7*%
%TO.N,/OUT4*%
X231920000Y-79730000D03*
%TO.P,J5,8,Pin_8*%
X231920000Y-82270000D03*
%TO.P,J5,9,Pin_9*%
%TO.N,GND*%
X234460000Y-79730000D03*
%TO.P,J5,10,Pin_10*%
X234460000Y-82270000D03*
%TD*%
D19*
%TO.P,J4,1,Pin_1*%
%TO.N,GND*%
X191350000Y-80030000D03*
D20*
%TO.P,J4,2,Pin_2*%
%TO.N,/GPIO12*%
X191350000Y-82570000D03*
%TO.P,J4,3,Pin_3*%
%TO.N,unconnected-(J4-Pin_3-Pad3)*%
X193890000Y-80030000D03*
%TO.P,J4,4,Pin_4*%
%TO.N,/FAIL*%
X193890000Y-82570000D03*
%TO.P,J4,5,Pin_5*%
%TO.N,+12V*%
X196430000Y-80030000D03*
%TO.P,J4,6,Pin_6*%
X196430000Y-82570000D03*
%TO.P,J4,7,Pin_7*%
%TO.N,/OUT2*%
X198970000Y-80030000D03*
%TO.P,J4,8,Pin_8*%
X198970000Y-82570000D03*
%TO.P,J4,9,Pin_9*%
%TO.N,GND*%
X201510000Y-80030000D03*
%TO.P,J4,10,Pin_10*%
X201510000Y-82570000D03*
%TD*%
D19*
%TO.P,J3,1,Pin_1*%
%TO.N,GND*%
X191300000Y-122680000D03*
D20*
%TO.P,J3,2,Pin_2*%
%TO.N,/GPIO6*%
X191300000Y-125220000D03*
%TO.P,J3,3,Pin_3*%
%TO.N,unconnected-(J3-Pin_3-Pad3)*%
X193840000Y-122680000D03*
%TO.P,J3,4,Pin_4*%
%TO.N,/FAIL*%
X193840000Y-125220000D03*
%TO.P,J3,5,Pin_5*%
%TO.N,+12V*%
X196380000Y-122680000D03*
%TO.P,J3,6,Pin_6*%
X196380000Y-125220000D03*
%TO.P,J3,7,Pin_7*%
%TO.N,/OUT1*%
X198920000Y-122680000D03*
%TO.P,J3,8,Pin_8*%
X198920000Y-125220000D03*
%TO.P,J3,9,Pin_9*%
%TO.N,GND*%
X201460000Y-122680000D03*
%TO.P,J3,10,Pin_10*%
X201460000Y-125220000D03*
%TD*%
D19*
%TO.P,J2,1,Pin_1*%
%TO.N,+5V*%
X155575000Y-97435000D03*
D20*
%TO.P,J2,2,Pin_2*%
X155575000Y-99975000D03*
%TO.P,J2,3,Pin_3*%
%TO.N,GND*%
X158115000Y-97435000D03*
%TO.P,J2,4,Pin_4*%
X158115000Y-99975000D03*
%TO.P,J2,5,Pin_5*%
X160655000Y-97435000D03*
%TO.P,J2,6,Pin_6*%
X160655000Y-99975000D03*
%TO.P,J2,7,Pin_7*%
%TO.N,+12V*%
X163195000Y-97435000D03*
%TO.P,J2,8,Pin_8*%
X163195000Y-99975000D03*
%TO.P,J2,9,Pin_9*%
%TO.N,unconnected-(J2-Pin_9-Pad9)*%
X165735000Y-97435000D03*
%TO.P,J2,10,Pin_10*%
%TO.N,unconnected-(J2-Pin_10-Pad10)*%
X165735000Y-99975000D03*
%TO.P,J2,11,Pin_11*%
%TO.N,unconnected-(J2-Pin_11-Pad11)*%
X168275000Y-97435000D03*
%TO.P,J2,12,Pin_12*%
%TO.N,unconnected-(J2-Pin_12-Pad12)*%
X168275000Y-99975000D03*
%TD*%
D21*
%TO.P,IC1,1,EN*%
%TO.N,Net-(IC1-EN)*%
X163025000Y-144800000D03*
%TO.P,IC1,2,GND*%
%TO.N,GND*%
X163675000Y-144800000D03*
%TO.P,IC1,3,N.C_1*%
%TO.N,unconnected-(IC1-N.C_1-Pad3)*%
X164325000Y-144800000D03*
%TO.P,IC1,4,VCAP*%
%TO.N,Net-(IC1-VCAP)*%
X164975000Y-144800000D03*
%TO.P,IC1,5,S*%
%TO.N,Net-(IC1-EN)*%
X164975000Y-142300000D03*
%TO.P,IC1,6,G*%
%TO.N,Net-(IC1-G)*%
X164325000Y-142300000D03*
%TO.P,IC1,7,N.C_2*%
%TO.N,unconnected-(IC1-N.C_2-Pad7)*%
X163675000Y-142300000D03*
%TO.P,IC1,8,N.C_3*%
%TO.N,unconnected-(IC1-N.C_3-Pad8)*%
X163025000Y-142300000D03*
%TD*%
D14*
%TO.P,F1,1,1*%
%TO.N,Net-(SW1-A)*%
X210250000Y-164400000D03*
D13*
%TO.P,F1,2,2*%
%TO.N,Net-(C6-Pad1)*%
X205200000Y-163230000D03*
%TD*%
D22*
%TO.P,REF\u002A\u002A,1*%
%TO.N,N/C*%
X219480000Y-152550000D03*
D23*
X219480000Y-152550000D03*
%TD*%
D22*
%TO.P,REF\u002A\u002A,1*%
%TO.N,N/C*%
X239780000Y-152550000D03*
D23*
X239780000Y-152550000D03*
%TD*%
D22*
%TO.P,REF\u002A\u002A,1*%
%TO.N,N/C*%
X239280000Y-122800000D03*
D23*
X239280000Y-122800000D03*
%TD*%
D22*
%TO.P,REF\u002A\u002A,1*%
%TO.N,N/C*%
X219430000Y-122750000D03*
D23*
X219430000Y-122750000D03*
%TD*%
D22*
%TO.P,REF\u002A\u002A,1*%
%TO.N,N/C*%
X206250000Y-123100000D03*
D23*
X206250000Y-123100000D03*
%TD*%
D22*
%TO.P,REF\u002A\u002A,1*%
%TO.N,N/C*%
X186400000Y-123050000D03*
D23*
X186400000Y-123050000D03*
%TD*%
D22*
%TO.P,REF\u002A\u002A,1*%
%TO.N,N/C*%
X206750000Y-152850000D03*
D23*
X206750000Y-152850000D03*
%TD*%
D22*
%TO.P,REF\u002A\u002A,1*%
%TO.N,N/C*%
X186450000Y-152850000D03*
D23*
X186450000Y-152850000D03*
%TD*%
D24*
%TO.P,R1,2*%
%TO.N,Net-(LED2-A)*%
X177830000Y-92600000D03*
%TO.P,R1,1*%
%TO.N,+12V*%
X177830000Y-90600000D03*
%TD*%
D25*
%TO.P,LED2,2,A*%
%TO.N,Net-(LED2-A)*%
X177830000Y-95260000D03*
%TO.P,LED2,1,K*%
%TO.N,Net-(D1-A)*%
X177830000Y-97310000D03*
%TD*%
D26*
%TO.P,D1,2,A*%
%TO.N,Net-(D1-A)*%
X177830000Y-99650000D03*
%TO.P,D1,1,K*%
%TO.N,GND*%
X177830000Y-102150000D03*
%TD*%
D27*
%TO.P,R2,1*%
%TO.N,GND*%
X135050000Y-87350000D03*
%TO.P,R2,2*%
%TO.N,Net-(LED3-A)*%
X137050000Y-87350000D03*
%TD*%
D28*
%TO.P,LED3,1,K*%
%TO.N,+5V*%
X141550000Y-87550000D03*
%TO.P,LED3,2,A*%
%TO.N,Net-(LED3-A)*%
X139500000Y-87550000D03*
%TD*%
D23*
%TO.P,REF\u002A\u002A,1*%
%TO.N,N/C*%
X251950000Y-122480000D03*
D22*
X251950000Y-122480000D03*
%TD*%
D23*
%TO.P,REF\u002A\u002A,1*%
%TO.N,N/C*%
X301650000Y-80150000D03*
D22*
X301650000Y-80150000D03*
%TD*%
D29*
%TO.P,VCAP1,1*%
%TO.N,Net-(IC1-EN)*%
X167350000Y-142712500D03*
%TO.P,VCAP1,2*%
%TO.N,Net-(IC1-VCAP)*%
X167350000Y-144787500D03*
%TD*%
D30*
%TO.P,MH5,1*%
%TO.N,N/C*%
X82125000Y-145150000D03*
X82674175Y-143824175D03*
X82674175Y-146475825D03*
X84000000Y-143275000D03*
D31*
X84000000Y-145150000D03*
D30*
X84000000Y-147025000D03*
X85325825Y-143824175D03*
X85325825Y-146475825D03*
X85875000Y-145150000D03*
%TD*%
%TO.P,MH3,1*%
%TO.N,N/C*%
X140125000Y-119200000D03*
X140674175Y-117874175D03*
X140674175Y-120525825D03*
X142000000Y-117325000D03*
D31*
X142000000Y-119200000D03*
D30*
X142000000Y-121075000D03*
X143325825Y-117874175D03*
X143325825Y-120525825D03*
X143875000Y-119200000D03*
%TD*%
D28*
%TO.P,LED1,1,K*%
%TO.N,Net-(D2-A)*%
X168500000Y-108075000D03*
%TO.P,LED1,2,A*%
%TO.N,Net-(LED1-A)*%
X166450000Y-108075000D03*
%TD*%
D19*
%TO.P,J1,1,Pin_1*%
%TO.N,+3V3*%
X137180000Y-97450000D03*
D20*
%TO.P,J1,2,Pin_2*%
%TO.N,+5V*%
X137180000Y-94910000D03*
%TO.P,J1,3,Pin_3*%
%TO.N,/GPIO2{slash}SDA1*%
X134640000Y-97450000D03*
%TO.P,J1,4,Pin_4*%
%TO.N,+5V*%
X134640000Y-94910000D03*
%TO.P,J1,5,Pin_5*%
%TO.N,/GPIO3{slash}SCL1*%
X132100000Y-97450000D03*
%TO.P,J1,6,Pin_6*%
%TO.N,GND*%
X132100000Y-94910000D03*
%TO.P,J1,7,Pin_7*%
%TO.N,/GPIO4{slash}GPCLK0*%
X129560000Y-97450000D03*
%TO.P,J1,8,Pin_8*%
%TO.N,/GPIO14{slash}TXD0*%
X129560000Y-94910000D03*
%TO.P,J1,9,Pin_9*%
%TO.N,GND*%
X127020000Y-97450000D03*
%TO.P,J1,10,Pin_10*%
%TO.N,/GPIO15{slash}RXD0*%
X127020000Y-94910000D03*
%TO.P,J1,11,Pin_11*%
%TO.N,/GPIO17*%
X124480000Y-97450000D03*
%TO.P,J1,12,Pin_12*%
%TO.N,/GPIO18{slash}PCM.CLK*%
X124480000Y-94910000D03*
%TO.P,J1,13,Pin_13*%
%TO.N,/GPIO27*%
X121940000Y-97450000D03*
%TO.P,J1,14,Pin_14*%
%TO.N,GND*%
X121940000Y-94910000D03*
%TO.P,J1,15,Pin_15*%
%TO.N,/GPIO22*%
X119400000Y-97450000D03*
%TO.P,J1,16,Pin_16*%
%TO.N,/GPIO23*%
X119400000Y-94910000D03*
%TO.P,J1,17,Pin_17*%
%TO.N,+3V3*%
X116860000Y-97450000D03*
%TO.P,J1,18,Pin_18*%
%TO.N,/GPIO24*%
X116860000Y-94910000D03*
%TO.P,J1,19,Pin_19*%
%TO.N,/GPIO10{slash}SPI0.MOSI*%
X114320000Y-97450000D03*
%TO.P,J1,20,Pin_20*%
%TO.N,GND*%
X114320000Y-94910000D03*
%TO.P,J1,21,Pin_21*%
%TO.N,/GPIO9{slash}SPI0.MISO*%
X111780000Y-97450000D03*
%TO.P,J1,22,Pin_22*%
%TO.N,/GPIO25*%
X111780000Y-94910000D03*
%TO.P,J1,23,Pin_23*%
%TO.N,/GPIO11{slash}SPI0.SCLK*%
X109240000Y-97450000D03*
%TO.P,J1,24,Pin_24*%
%TO.N,/GPIO8{slash}SPI0.CE0*%
X109240000Y-94910000D03*
%TO.P,J1,25,Pin_25*%
%TO.N,GND*%
X106700000Y-97450000D03*
%TO.P,J1,26,Pin_26*%
%TO.N,/GPIO7{slash}SPI0.CE1*%
X106700000Y-94910000D03*
%TO.P,J1,27,Pin_27*%
%TO.N,/ID_SDA*%
X104160000Y-97450000D03*
%TO.P,J1,28,Pin_28*%
%TO.N,/ID_SCL*%
X104160000Y-94910000D03*
%TO.P,J1,29,Pin_29*%
%TO.N,/GPIO5*%
X101620000Y-97450000D03*
%TO.P,J1,30,Pin_30*%
%TO.N,GND*%
X101620000Y-94910000D03*
%TO.P,J1,31,Pin_31*%
%TO.N,/GPIO6*%
X99080000Y-97450000D03*
%TO.P,J1,32,Pin_32*%
%TO.N,/GPIO12*%
X99080000Y-94910000D03*
%TO.P,J1,33,Pin_33*%
%TO.N,/GPIO13*%
X96540000Y-97450000D03*
%TO.P,J1,34,Pin_34*%
%TO.N,GND*%
X96540000Y-94910000D03*
%TO.P,J1,35,Pin_35*%
%TO.N,/GPIO19*%
X94000000Y-97450000D03*
%TO.P,J1,36,Pin_36*%
%TO.N,/GPIO16*%
X94000000Y-94910000D03*
%TO.P,J1,37,Pin_37*%
%TO.N,/GPIO26*%
X91460000Y-97450000D03*
%TO.P,J1,38,Pin_38*%
%TO.N,/GPIO20*%
X91460000Y-94910000D03*
%TO.P,J1,39,Pin_39*%
%TO.N,GND*%
X88920000Y-97450000D03*
%TO.P,J1,40,Pin_40*%
%TO.N,/GPIO21*%
X88920000Y-94910000D03*
%TD*%
D32*
%TO.P,C3,1*%
%TO.N,Net-(C3-Pad1)*%
X159200000Y-114025000D03*
%TO.P,C3,2*%
%TO.N,GND*%
X159200000Y-111950000D03*
%TD*%
D23*
%TO.P,REF\u002A\u002A,1*%
%TO.N,N/C*%
X301750000Y-122530000D03*
D22*
X301750000Y-122530000D03*
%TD*%
D23*
%TO.P,REF\u002A\u002A,1*%
%TO.N,N/C*%
X302250000Y-152280000D03*
D22*
X302250000Y-152280000D03*
%TD*%
D24*
%TO.P,R7,1*%
%TO.N,Net-(R7-Pad1)*%
X156600000Y-112075000D03*
%TO.P,R7,2*%
%TO.N,Net-(C3-Pad1)*%
X156600000Y-114075000D03*
%TD*%
D23*
%TO.P,REF\u002A\u002A,1*%
%TO.N,N/C*%
X281900000Y-122480000D03*
D22*
X281900000Y-122480000D03*
%TD*%
D27*
%TO.P,R8,1*%
%TO.N,Net-(C3-Pad1)*%
X159250000Y-116375000D03*
%TO.P,R8,2*%
%TO.N,Net-(R10-Pad1)*%
X161250000Y-116375000D03*
%TD*%
D30*
%TO.P,MH1,1*%
%TO.N,N/C*%
X82125000Y-96150000D03*
X82674175Y-94824175D03*
X82674175Y-97475825D03*
X84000000Y-94275000D03*
D31*
X84000000Y-96150000D03*
D30*
X84000000Y-98025000D03*
X85325825Y-94824175D03*
X85325825Y-97475825D03*
X85875000Y-96150000D03*
%TD*%
D11*
%TO.P,C10,1*%
%TO.N,+12V*%
X293450000Y-116150000D03*
D12*
%TO.P,C10,2*%
%TO.N,GND*%
X295950000Y-116150000D03*
%TD*%
D24*
%TO.P,R12,1*%
%TO.N,+12V*%
X163225000Y-105925000D03*
%TO.P,R12,2*%
%TO.N,/FAIL*%
X163225000Y-107925000D03*
%TD*%
D33*
%TO.P,U1,1*%
%TO.N,Net-(R7-Pad1)*%
X156470000Y-109565000D03*
D34*
%TO.P,U1,2*%
%TO.N,GND*%
X156470000Y-107025000D03*
%TO.P,U1,3*%
X148850000Y-107025000D03*
%TO.P,U1,4*%
%TO.N,/GPIO17*%
X148850000Y-109565000D03*
%TD*%
D23*
%TO.P,REF\u002A\u002A,1*%
%TO.N,N/C*%
X206800000Y-110200000D03*
D22*
X206800000Y-110200000D03*
%TD*%
D35*
%TO.P,C1,1*%
%TO.N,+12V*%
X179550000Y-81205113D03*
D34*
%TO.P,C1,2*%
%TO.N,GND*%
X179550000Y-79205113D03*
%TD*%
D32*
%TO.P,C6,1*%
%TO.N,Net-(C6-Pad1)*%
X167850000Y-166150000D03*
%TO.P,C6,2*%
%TO.N,GND*%
X167850000Y-164075000D03*
%TD*%
D30*
%TO.P,MH2,1*%
%TO.N,N/C*%
X140125000Y-96150000D03*
X140674175Y-94824175D03*
X140674175Y-97475825D03*
X142000000Y-94275000D03*
D31*
X142000000Y-96150000D03*
D30*
X142000000Y-98025000D03*
X143325825Y-94824175D03*
X143325825Y-97475825D03*
X143875000Y-96150000D03*
%TD*%
D36*
%TO.P,C8,1*%
%TO.N,+12V*%
X163300000Y-136500000D03*
D34*
%TO.P,C8,2*%
%TO.N,GND*%
X165300000Y-136500000D03*
%TD*%
D23*
%TO.P,REF\u002A\u002A,1*%
%TO.N,N/C*%
X252050000Y-80350000D03*
D22*
X252050000Y-80350000D03*
%TD*%
D23*
%TO.P,REF\u002A\u002A,1*%
%TO.N,N/C*%
X239750000Y-109900000D03*
D22*
X239750000Y-109900000D03*
%TD*%
D23*
%TO.P,REF\u002A\u002A,1*%
%TO.N,N/C*%
X219450000Y-109900000D03*
D22*
X219450000Y-109900000D03*
%TD*%
D23*
%TO.P,REF\u002A\u002A,1*%
%TO.N,N/C*%
X252000000Y-152280000D03*
D22*
X252000000Y-152280000D03*
%TD*%
D30*
%TO.P,MH6,1*%
%TO.N,N/C*%
X140125000Y-145150000D03*
X140674175Y-143824175D03*
X140674175Y-146475825D03*
X142000000Y-143275000D03*
D31*
X142000000Y-145150000D03*
D30*
X142000000Y-147025000D03*
X143325825Y-143824175D03*
X143325825Y-146475825D03*
X143875000Y-145150000D03*
%TD*%
D23*
%TO.P,REF\u002A\u002A,1*%
%TO.N,N/C*%
X302150000Y-109900000D03*
D22*
X302150000Y-109900000D03*
%TD*%
D11*
%TO.P,C7,1*%
%TO.N,+5V*%
X147000000Y-91400000D03*
D12*
%TO.P,C7,2*%
%TO.N,GND*%
X147000000Y-88900000D03*
%TD*%
D23*
%TO.P,REF\u002A\u002A,1*%
%TO.N,N/C*%
X206300000Y-80450000D03*
D22*
X206300000Y-80450000D03*
%TD*%
D30*
%TO.P,MH4,1*%
%TO.N,N/C*%
X82125000Y-119200000D03*
X82674175Y-117874175D03*
X82674175Y-120525825D03*
X84000000Y-117325000D03*
D31*
X84000000Y-119200000D03*
D30*
X84000000Y-121075000D03*
X85325825Y-117874175D03*
X85325825Y-120525825D03*
X85875000Y-119200000D03*
%TD*%
D37*
%TO.P,L1,1,1*%
%TO.N,Net-(C6-Pad1)*%
X160950000Y-157050000D03*
%TO.P,L1,2,2*%
%TO.N,Net-(IC1-EN)*%
X151620000Y-156970000D03*
%TD*%
D23*
%TO.P,REF\u002A\u002A,1*%
%TO.N,N/C*%
X219400000Y-80100000D03*
D22*
X219400000Y-80100000D03*
%TD*%
D23*
%TO.P,REF\u002A\u002A,1*%
%TO.N,N/C*%
X281850000Y-109900000D03*
D22*
X281850000Y-109900000D03*
%TD*%
D23*
%TO.P,REF\u002A\u002A,1*%
%TO.N,N/C*%
X186500000Y-110200000D03*
D22*
X186500000Y-110200000D03*
%TD*%
D23*
%TO.P,REF\u002A\u002A,1*%
%TO.N,N/C*%
X281800000Y-80100000D03*
D22*
X281800000Y-80100000D03*
%TD*%
D38*
%TO.P,D2,1,K*%
%TO.N,/FAIL*%
X166500000Y-110875000D03*
%TO.P,D2,2,A*%
%TO.N,Net-(D2-A)*%
X169000000Y-110875000D03*
%TD*%
D39*
%TO.P,SW1,2,A*%
%TO.N,Net-(SW1-A)*%
X224850000Y-164072500D03*
%TO.P,SW1,3,B*%
%TO.N,Net-(J12-Pin_1)*%
X229660000Y-164042500D03*
%TO.P,SW1,2*%
%TO.N,N/C*%
X220150000Y-164072500D03*
%TD*%
D27*
%TO.P,R10,1*%
%TO.N,Net-(R10-Pad1)*%
X164400000Y-113875000D03*
%TO.P,R10,2*%
%TO.N,/FAIL*%
X166400000Y-113875000D03*
%TD*%
D23*
%TO.P,REF\u002A\u002A,1*%
%TO.N,N/C*%
X271800000Y-122530000D03*
D22*
X271800000Y-122530000D03*
%TD*%
D23*
%TO.P,REF\u002A\u002A,1*%
%TO.N,N/C*%
X271900000Y-80400000D03*
D22*
X271900000Y-80400000D03*
%TD*%
D35*
%TO.P,C2,1*%
%TO.N,+12V*%
X212700000Y-81205113D03*
D34*
%TO.P,C2,2*%
%TO.N,GND*%
X212700000Y-79205113D03*
%TD*%
D35*
%TO.P,C4,1*%
%TO.N,+12V*%
X245750000Y-81100000D03*
D34*
%TO.P,C4,2*%
%TO.N,GND*%
X245750000Y-79100000D03*
%TD*%
D23*
%TO.P,REF\u002A\u002A,1*%
%TO.N,N/C*%
X281950000Y-152280000D03*
D22*
X281950000Y-152280000D03*
%TD*%
D40*
%TO.P,J12,1,Pin_1*%
%TO.N,Net-(J12-Pin_1)*%
X238305000Y-164072500D03*
D23*
%TO.P,J12,2,Pin_2*%
%TO.N,GND*%
X243385000Y-164072500D03*
%TD*%
D11*
%TO.P,C5,1*%
%TO.N,+12V*%
X230950000Y-116300000D03*
D12*
%TO.P,C5,2*%
%TO.N,GND*%
X233450000Y-116300000D03*
%TD*%
D23*
%TO.P,REF\u002A\u002A,1*%
%TO.N,N/C*%
X272400000Y-110150000D03*
D22*
X272400000Y-110150000D03*
%TD*%
D40*
%TO.P,J11,1,Pin_1*%
%TO.N,unconnected-(J11-Pin_1-Pad1)*%
X255090000Y-164072500D03*
D23*
%TO.P,J11,2,Pin_2*%
%TO.N,+12V*%
X260170000Y-164072500D03*
%TO.P,J11,3,Pin_3*%
%TO.N,/OUT1*%
X265250000Y-164072500D03*
%TO.P,J11,4,Pin_4*%
%TO.N,/OUT2*%
X270330000Y-164072500D03*
%TO.P,J11,5,Pin_5*%
%TO.N,/OUT3*%
X275410000Y-164072500D03*
%TO.P,J11,6,Pin_6*%
%TO.N,/OUT4*%
X280490000Y-164072500D03*
%TO.P,J11,7,Pin_7*%
%TO.N,/OUT5*%
X285570000Y-164072500D03*
%TO.P,J11,8,Pin_8*%
%TO.N,/OUT6*%
X290650000Y-164072500D03*
%TO.P,J11,9,Pin_9*%
%TO.N,/OUT7*%
X295730000Y-164072500D03*
%TO.P,J11,10,Pin_10*%
%TO.N,/OUT8*%
X300810000Y-164072500D03*
%TD*%
D41*
%TO.P,R9,1*%
%TO.N,Net-(R10-Pad1)*%
X161950000Y-113975000D03*
%TO.P,R9,2*%
%TO.N,GND*%
X161950000Y-111975000D03*
%TD*%
D42*
%TO.P,R6,1*%
%TO.N,/GPIO17*%
X153225000Y-112550000D03*
%TO.P,R6,2*%
%TO.N,+3V3*%
X151225000Y-112550000D03*
%TD*%
D23*
%TO.P,REF\u002A\u002A,1*%
%TO.N,N/C*%
X252100000Y-110150000D03*
D22*
X252100000Y-110150000D03*
%TD*%
D11*
%TO.P,C9,1*%
%TO.N,+12V*%
X263250000Y-116150000D03*
D12*
%TO.P,C9,2*%
%TO.N,GND*%
X265750000Y-116150000D03*
%TD*%
D23*
%TO.P,REF\u002A\u002A,1*%
%TO.N,N/C*%
X239250000Y-80150000D03*
D22*
X239250000Y-80150000D03*
%TD*%
D23*
%TO.P,REF\u002A\u002A,1*%
%TO.N,N/C*%
X186450000Y-80400000D03*
D22*
X186450000Y-80400000D03*
%TD*%
D27*
%TO.P,R11,1*%
%TO.N,+12V*%
X166450000Y-105225000D03*
%TO.P,R11,2*%
%TO.N,Net-(LED1-A)*%
X168450000Y-105225000D03*
%TD*%
D23*
%TO.P,REF\u002A\u002A,1*%
%TO.N,N/C*%
X272300000Y-152280000D03*
D22*
X272300000Y-152280000D03*
%TD*%
D43*
%TO.N,GND*%
X170500000Y-159650000D03*
X164650000Y-146450000D03*
X174450000Y-156250000D03*
%TO.N,/FAIL*%
X192689000Y-113850000D03*
X258239000Y-113825000D03*
X225719000Y-113900000D03*
X288189000Y-113775000D03*
X168125000Y-113850000D03*
%TO.N,/OUT2*%
X229350000Y-143525000D03*
%TO.N,/OUT1*%
X198975000Y-131050000D03*
%TD*%
D10*
%TO.N,/FAIL*%
X163450000Y-107975000D02*
X163250000Y-108175000D01*
X163250000Y-108175000D02*
X163250000Y-110075000D01*
X163250000Y-110075000D02*
X164050000Y-110875000D01*
X164050000Y-110875000D02*
X166500000Y-110875000D01*
%TO.N,+12V*%
X163450000Y-105975000D02*
X163300000Y-105825000D01*
X163300000Y-105825000D02*
X163300000Y-100380000D01*
X163300000Y-100380000D02*
X163450000Y-100230000D01*
D44*
%TO.N,/OUT2*%
X198970000Y-82570000D02*
X198970000Y-80030000D01*
D10*
%TO.N,GND*%
X177830000Y-116410000D02*
X179980000Y-118560000D01*
X177830000Y-102150000D02*
X177830000Y-116410000D01*
X179980000Y-118560000D02*
X189426000Y-118560000D01*
X189426000Y-118560000D02*
X191733000Y-120867000D01*
%TO.N,+12V*%
X177830000Y-90600000D02*
X177830000Y-88520000D01*
%TO.N,Net-(LED2-A)*%
X177830000Y-95260000D02*
X177830000Y-92810000D01*
%TO.N,Net-(D1-A)*%
X177830000Y-99650000D02*
X177830000Y-97440000D01*
D45*
%TO.N,+12V*%
X179300000Y-88350000D02*
X177450000Y-88350000D01*
D10*
%TO.N,+5V*%
X141560000Y-87560000D02*
X143310000Y-87560000D01*
X143310000Y-87560000D02*
X143310000Y-91440000D01*
X143310000Y-91440000D02*
X143300000Y-91450000D01*
%TO.N,Net-(LED3-A)*%
X137050000Y-87350000D02*
X139300000Y-87350000D01*
%TO.N,GND*%
X135050000Y-87350000D02*
X132550000Y-87350000D01*
X132550000Y-87350000D02*
X132100000Y-87800000D01*
D45*
%TO.N,+5V*%
X137180000Y-94910000D02*
X137180000Y-92020000D01*
X137180000Y-92020000D02*
X137750000Y-91450000D01*
X137750000Y-91450000D02*
X143300000Y-91450000D01*
X143300000Y-91450000D02*
X153925000Y-91450000D01*
%TO.N,GND*%
X132100000Y-83325000D02*
X147100000Y-83325000D01*
D46*
X147000000Y-88900000D02*
X147000000Y-83425000D01*
X147000000Y-83425000D02*
X147100000Y-83325000D01*
D45*
X132100000Y-87800000D02*
X132100000Y-83325000D01*
X147100000Y-83325000D02*
X151350000Y-83325000D01*
X151350000Y-83325000D02*
X158115000Y-90090000D01*
X158115000Y-90090000D02*
X158115000Y-97435000D01*
D10*
%TO.N,/GPIO12*%
X191350000Y-82570000D02*
X189820000Y-82570000D01*
X108300000Y-81250000D02*
X99080000Y-90470000D01*
X99080000Y-90470000D02*
X99080000Y-94910000D01*
X189300000Y-78900000D02*
X187750000Y-77350000D01*
X189820000Y-82570000D02*
X189300000Y-82050000D01*
X189300000Y-82050000D02*
X189300000Y-78900000D01*
X175550000Y-77350000D02*
X171650000Y-81250000D01*
X187750000Y-77350000D02*
X175550000Y-77350000D01*
X171650000Y-81250000D02*
X108300000Y-81250000D01*
%TO.N,/GPIO16*%
X94090000Y-94910000D02*
X94090000Y-90710000D01*
X104850000Y-79950000D02*
X170050000Y-79950000D01*
X94090000Y-90710000D02*
X104850000Y-79950000D01*
X170050000Y-79950000D02*
X173300000Y-76700000D01*
X173300000Y-76700000D02*
X220500000Y-76700000D01*
X220500000Y-76700000D02*
X222100000Y-78300000D01*
X222100000Y-78300000D02*
X222100000Y-82000000D01*
X222370000Y-82270000D02*
X224300000Y-82270000D01*
X222100000Y-82000000D02*
X222370000Y-82270000D01*
%TO.N,/GPIO20*%
X91460000Y-94910000D02*
X91460000Y-90440000D01*
X103125000Y-78775000D02*
X168925000Y-78775000D01*
X168925000Y-78775000D02*
X172150000Y-75550000D01*
X91460000Y-90440000D02*
X103125000Y-78775000D01*
X253700000Y-75550000D02*
X255250000Y-77100000D01*
X255250000Y-77100000D02*
X255250000Y-81900000D01*
X255250000Y-81900000D02*
X255870000Y-82520000D01*
X172150000Y-75550000D02*
X253700000Y-75550000D01*
X255870000Y-82520000D02*
X256950000Y-82520000D01*
%TO.N,/GPIO21*%
X88920000Y-94910000D02*
X88920000Y-90330000D01*
X88920000Y-90330000D02*
X101750000Y-77500000D01*
X101750000Y-77500000D02*
X168050000Y-77500000D01*
X168050000Y-77500000D02*
X171200000Y-74350000D01*
X271950000Y-74350000D02*
X280650000Y-83050000D01*
X171200000Y-74350000D02*
X271950000Y-74350000D01*
X280650000Y-83050000D02*
X285920000Y-83050000D01*
X285920000Y-83050000D02*
X286700000Y-82270000D01*
D45*
%TO.N,GND*%
X132100000Y-87800000D02*
X132100000Y-90700000D01*
%TO.N,+5V*%
X155575000Y-99975000D02*
X155575000Y-97435000D01*
X153925000Y-91450000D02*
X155575000Y-93100000D01*
X134640000Y-94910000D02*
X137180000Y-94910000D01*
X155575000Y-93100000D02*
X155575000Y-97435000D01*
%TO.N,GND*%
X158200000Y-102525000D02*
X158115000Y-102440000D01*
D46*
X234450000Y-121100000D02*
X234450000Y-124842081D01*
D45*
X116750000Y-90700000D02*
X132100000Y-90700000D01*
X156470000Y-107025000D02*
X157800000Y-107025000D01*
X158115000Y-102440000D02*
X158115000Y-99975000D01*
D46*
X191733000Y-120867000D02*
X200849081Y-120867000D01*
D10*
X163675000Y-145475000D02*
X164650000Y-146450000D01*
D46*
X191300000Y-122680000D02*
X191300000Y-121300000D01*
X224723000Y-120489081D02*
X233839081Y-120489081D01*
X170500000Y-159650000D02*
X174450000Y-159650000D01*
D45*
X148850000Y-107025000D02*
X148850000Y-104625000D01*
X157800000Y-107025000D02*
X158200000Y-106625000D01*
D46*
X174450000Y-159650000D02*
X174450000Y-156850000D01*
D45*
X101620000Y-91880000D02*
X102800000Y-90700000D01*
X160200000Y-101425000D02*
X160200000Y-99975000D01*
X158115000Y-99975000D02*
X160200000Y-99975000D01*
D10*
X159200000Y-107625000D02*
X158200000Y-106625000D01*
D45*
X150050000Y-103425000D02*
X158200000Y-103425000D01*
D10*
X159200000Y-111950000D02*
X161875000Y-111950000D01*
D46*
X224290000Y-122302081D02*
X224290000Y-120922081D01*
D45*
X160200000Y-99975000D02*
X160655000Y-99975000D01*
D46*
X200849081Y-120867000D02*
X201460000Y-121477919D01*
X191300000Y-121300000D02*
X191733000Y-120867000D01*
X201460000Y-121477919D02*
X201460000Y-125220000D01*
X167850000Y-164075000D02*
X167850000Y-162050000D01*
D45*
X158200000Y-103425000D02*
X160200000Y-101425000D01*
X102800000Y-90700000D02*
X116750000Y-90700000D01*
X148850000Y-104625000D02*
X150050000Y-103425000D01*
X160655000Y-97435000D02*
X160655000Y-99975000D01*
X101620000Y-94910000D02*
X101620000Y-91880000D01*
D46*
X167850000Y-162050000D02*
X170250000Y-159650000D01*
D45*
X158115000Y-97435000D02*
X160655000Y-97435000D01*
X115450000Y-90700000D02*
X116750000Y-90700000D01*
D10*
X159200000Y-112150000D02*
X159200000Y-107625000D01*
D46*
X174500000Y-156800000D02*
X174450000Y-156850000D01*
D10*
X163675000Y-144800000D02*
X163675000Y-145475000D01*
D45*
X158200000Y-103425000D02*
X158200000Y-102525000D01*
X114320000Y-91830000D02*
X115450000Y-90700000D01*
X114320000Y-94910000D02*
X114320000Y-91830000D01*
X158200000Y-106625000D02*
X158200000Y-103425000D01*
D46*
X170250000Y-159650000D02*
X170500000Y-159650000D01*
X224290000Y-120922081D02*
X224723000Y-120489081D01*
X233839081Y-120489081D02*
X234450000Y-121100000D01*
D45*
X132100000Y-90700000D02*
X132100000Y-94910000D01*
X158115000Y-99975000D02*
X158115000Y-97435000D01*
%TO.N,+12V*%
X229380000Y-79730000D02*
X229380000Y-88245000D01*
X262150000Y-88350000D02*
X262030000Y-88230000D01*
X246000000Y-88350000D02*
X262150000Y-88350000D01*
X229380000Y-88245000D02*
X229275000Y-88350000D01*
X196430000Y-88280000D02*
X196500000Y-88350000D01*
X262150000Y-88350000D02*
X290900000Y-88350000D01*
D46*
X179550000Y-88100000D02*
X179300000Y-88350000D01*
D10*
X163450000Y-105975000D02*
X164200000Y-105225000D01*
D46*
X157450000Y-136500000D02*
X156310000Y-137640000D01*
D45*
X167975000Y-88350000D02*
X163195000Y-93130000D01*
X177450000Y-88350000D02*
X167975000Y-88350000D01*
X262030000Y-88230000D02*
X262030000Y-79980000D01*
D46*
X245750000Y-81100000D02*
X245750000Y-88100000D01*
D45*
X229275000Y-88350000D02*
X246000000Y-88350000D01*
D46*
X179550000Y-81205113D02*
X179550000Y-88100000D01*
X212650000Y-82200000D02*
X212650000Y-87250000D01*
X245750000Y-88100000D02*
X246000000Y-88350000D01*
D10*
X164200000Y-105225000D02*
X166450000Y-105225000D01*
D45*
X196500000Y-88350000D02*
X179300000Y-88350000D01*
D46*
X163300000Y-136500000D02*
X157450000Y-136500000D01*
D45*
X290900000Y-88350000D02*
X291780000Y-87470000D01*
D46*
X156310000Y-137640000D02*
X159655000Y-137640000D01*
D45*
X291780000Y-87470000D02*
X291780000Y-82270000D01*
X196500000Y-88350000D02*
X229275000Y-88350000D01*
X163195000Y-93130000D02*
X163195000Y-97435000D01*
X196430000Y-80030000D02*
X196430000Y-88280000D01*
D10*
%TO.N,/FAIL*%
X167900000Y-113850000D02*
X167875000Y-113875000D01*
X166400000Y-113875000D02*
X166400000Y-110975000D01*
X287989000Y-113800000D02*
X258264000Y-113800000D01*
X167875000Y-113875000D02*
X166400000Y-113875000D01*
X288014000Y-113775000D02*
X287989000Y-113800000D01*
X288189000Y-113775000D02*
X288014000Y-113775000D01*
X258264000Y-113800000D02*
X258239000Y-113825000D01*
X258014000Y-113825000D02*
X257964000Y-113875000D01*
X192914000Y-113875000D02*
X192689000Y-113650000D01*
X258239000Y-113825000D02*
X258014000Y-113825000D01*
X257964000Y-113875000D02*
X192914000Y-113875000D01*
X168125000Y-113850000D02*
X167900000Y-113850000D01*
X192689000Y-113650000D02*
X192689000Y-113850000D01*
%TO.N,Net-(C3-Pad1)*%
X156600000Y-114075000D02*
X159050000Y-114075000D01*
X159250000Y-116375000D02*
X159250000Y-114075000D01*
%TO.N,Net-(D2-A)*%
X169000000Y-110875000D02*
X169000000Y-109575000D01*
X169000000Y-109575000D02*
X168475000Y-109050000D01*
X168475000Y-109050000D02*
X168475000Y-108375000D01*
%TO.N,/GPIO26*%
X153000000Y-122350000D02*
X141300000Y-110650000D01*
X91460000Y-99660000D02*
X91460000Y-97450000D01*
X179650000Y-126500000D02*
X179650000Y-122800000D01*
X141300000Y-105150000D02*
X140100000Y-103950000D01*
X182650000Y-129500000D02*
X179650000Y-126500000D01*
X95750000Y-103950000D02*
X91460000Y-99660000D01*
X140100000Y-103950000D02*
X95750000Y-103950000D01*
X141300000Y-110650000D02*
X141300000Y-105150000D01*
X179650000Y-122800000D02*
X179200000Y-122350000D01*
X281950000Y-129500000D02*
X182650000Y-129500000D01*
X286800000Y-124650000D02*
X281950000Y-129500000D01*
X179200000Y-122350000D02*
X153000000Y-122350000D01*
D44*
%TO.N,+3V3*%
X137200000Y-99475000D02*
X137250000Y-99525000D01*
X137250000Y-99525000D02*
X137800000Y-100075000D01*
X137200000Y-99475000D02*
X137200000Y-97470000D01*
X137180000Y-97450000D02*
X137180000Y-99455000D01*
X146375000Y-109775000D02*
X149150000Y-112550000D01*
X149150000Y-112550000D02*
X151225000Y-112550000D01*
X116860000Y-97885000D02*
X118450000Y-99475000D01*
X118450000Y-99475000D02*
X137200000Y-99475000D01*
X137800000Y-100075000D02*
X145375000Y-100075000D01*
X137180000Y-99455000D02*
X137250000Y-99525000D01*
D10*
X137250000Y-97520000D02*
X137250000Y-99525000D01*
D44*
X116860000Y-97450000D02*
X116860000Y-97885000D01*
X145375000Y-100075000D02*
X146375000Y-101075000D01*
X146375000Y-101075000D02*
X146375000Y-109775000D01*
D10*
%TO.N,/GPIO17*%
X148850000Y-109565000D02*
X152165000Y-109565000D01*
X152165000Y-109565000D02*
X153250000Y-110650000D01*
X153250000Y-110650000D02*
X153250000Y-112150000D01*
%TO.N,/GPIO6*%
X182550000Y-124700000D02*
X184200000Y-126350000D01*
X184200000Y-126350000D02*
X190170000Y-126350000D01*
X99080000Y-97450000D02*
X99080000Y-99430000D01*
X182550000Y-122000000D02*
X182550000Y-124700000D01*
X144700000Y-109750000D02*
X155150000Y-120200000D01*
X190170000Y-126350000D02*
X191300000Y-125220000D01*
X180750000Y-120200000D02*
X182550000Y-122000000D01*
X101085000Y-101435000D02*
X142535000Y-101435000D01*
X142535000Y-101435000D02*
X144700000Y-103600000D01*
X155150000Y-120200000D02*
X180750000Y-120200000D01*
X144700000Y-103600000D02*
X144700000Y-109750000D01*
X99080000Y-99430000D02*
X101085000Y-101435000D01*
%TO.N,Net-(R7-Pad1)*%
X156600000Y-112075000D02*
X156600000Y-109695000D01*
%TO.N,Net-(R10-Pad1)*%
X161250000Y-116375000D02*
X161250000Y-115025000D01*
X161950000Y-113975000D02*
X164300000Y-113975000D01*
X161250000Y-115025000D02*
X162100000Y-114175000D01*
%TO.N,Net-(LED1-A)*%
X166425000Y-107050000D02*
X166850000Y-106625000D01*
X168450000Y-106325000D02*
X168450000Y-105225000D01*
X166850000Y-106625000D02*
X168150000Y-106625000D01*
X166425000Y-108375000D02*
X166425000Y-107050000D01*
X168150000Y-106625000D02*
X168450000Y-106325000D01*
%TO.N,/GPIO13*%
X141950000Y-102300000D02*
X99850000Y-102300000D01*
X224330000Y-124920000D02*
X224330000Y-127170000D01*
X143800000Y-110100000D02*
X143800000Y-104150000D01*
X181500000Y-125450000D02*
X181500000Y-122150000D01*
X96540000Y-98990000D02*
X96540000Y-97450000D01*
X180300000Y-120950000D02*
X154650000Y-120950000D01*
X143800000Y-104150000D02*
X141950000Y-102300000D01*
X183550000Y-127500000D02*
X181500000Y-125450000D01*
X181500000Y-122150000D02*
X180300000Y-120950000D01*
X224330000Y-127170000D02*
X224000000Y-127500000D01*
X99850000Y-102300000D02*
X96540000Y-98990000D01*
X154650000Y-120950000D02*
X143800000Y-110100000D01*
X224000000Y-127500000D02*
X183550000Y-127500000D01*
%TO.N,/GPIO19*%
X179400000Y-121650000D02*
X153650000Y-121650000D01*
X142450000Y-110450000D02*
X142450000Y-104700000D01*
X180600000Y-122850000D02*
X179400000Y-121650000D01*
X142450000Y-104700000D02*
X140850000Y-103100000D01*
X140850000Y-103100000D02*
X98300000Y-103100000D01*
X254700000Y-128550000D02*
X183250000Y-128550000D01*
X256850000Y-124650000D02*
X256850000Y-126400000D01*
X98300000Y-103100000D02*
X94000000Y-98800000D01*
X153650000Y-121650000D02*
X142450000Y-110450000D01*
X94000000Y-98800000D02*
X94000000Y-97450000D01*
X180600000Y-125900000D02*
X180600000Y-122850000D01*
X183250000Y-128550000D02*
X180600000Y-125900000D01*
X256850000Y-126400000D02*
X254700000Y-128550000D01*
D46*
%TO.N,Net-(C6-Pad1)*%
X167850000Y-166150000D02*
X173950000Y-166150000D01*
D45*
X172950000Y-166650000D02*
X166250000Y-166650000D01*
X205200000Y-163230000D02*
X203720000Y-163230000D01*
D46*
X173950000Y-166150000D02*
X174450000Y-166650000D01*
D45*
X203720000Y-163230000D02*
X200300000Y-166650000D01*
X191000000Y-166650000D02*
X174450000Y-166650000D01*
X191000000Y-166650000D02*
X194600000Y-166650000D01*
X160950000Y-161350000D02*
X166250000Y-166650000D01*
X194600000Y-166650000D02*
X192800000Y-164850000D01*
X200300000Y-166650000D02*
X194600000Y-166650000D01*
X192800000Y-164850000D02*
X191000000Y-166650000D01*
X160950000Y-157050000D02*
X160950000Y-161350000D01*
%TO.N,Net-(IC1-EN)*%
X151620000Y-156970000D02*
X151620000Y-149730000D01*
D10*
X157650000Y-144800000D02*
X157100000Y-144250000D01*
X163025000Y-146475000D02*
X163950000Y-147400000D01*
X163025000Y-144800000D02*
X157650000Y-144800000D01*
D45*
X151620000Y-149730000D02*
X157100000Y-144250000D01*
D10*
X163025000Y-144800000D02*
X163025000Y-146475000D01*
X168412500Y-142712500D02*
X167350000Y-142712500D01*
X163950000Y-147400000D02*
X168950000Y-147400000D01*
X168950000Y-143250000D02*
X168412500Y-142712500D01*
X164975000Y-142300000D02*
X166937500Y-142300000D01*
X168950000Y-147400000D02*
X168950000Y-143250000D01*
%TO.N,Net-(IC1-VCAP)*%
X164975000Y-144800000D02*
X167337500Y-144800000D01*
%TO.N,Net-(IC1-G)*%
X161750000Y-140950000D02*
X164150000Y-140950000D01*
X164325000Y-141125000D02*
X164325000Y-142300000D01*
X161550000Y-141150000D02*
X161750000Y-140950000D01*
X159655000Y-143571000D02*
X161129000Y-143571000D01*
X161129000Y-143571000D02*
X161550000Y-143150000D01*
X161550000Y-143150000D02*
X161550000Y-141150000D01*
X164150000Y-140950000D02*
X164325000Y-141125000D01*
D44*
%TO.N,/OUT8*%
X294320000Y-82270000D02*
X294320000Y-85920000D01*
%TO.N,/OUT7*%
X294420000Y-157570000D02*
X294420000Y-124650000D01*
%TO.N,/OUT8*%
X294320000Y-85920000D02*
X298519000Y-90119000D01*
X298519000Y-90119000D02*
X298519000Y-155719000D01*
%TO.N,/OUT7*%
X295600000Y-158750000D02*
X294420000Y-157570000D01*
%TO.N,/OUT8*%
X298519000Y-155719000D02*
X300810000Y-158010000D01*
%TO.N,/OUT2*%
X229350000Y-143525000D02*
X229375000Y-143550000D01*
X229375000Y-143550000D02*
X253700000Y-143550000D01*
X253700000Y-143550000D02*
X270330000Y-160180000D01*
%TO.N,/OUT1*%
X252375000Y-146875000D02*
X265250000Y-159750000D01*
X199800000Y-146875000D02*
X252375000Y-146875000D01*
X198975000Y-146050000D02*
X199800000Y-146875000D01*
X198975000Y-131050000D02*
X198975000Y-146050000D01*
%TO.N,/OUT2*%
X270330000Y-160180000D02*
X270330000Y-164072500D01*
%TO.N,/OUT1*%
X265250000Y-159750000D02*
X265250000Y-164072500D01*
%TO.N,/OUT8*%
X300810000Y-158010000D02*
X300810000Y-164072500D01*
%TO.N,/OUT7*%
X295600000Y-163942500D02*
X295600000Y-158750000D01*
%TD*%
M02*
