M48
; DRILL file {KiCad 9.0.3} date 2025-07-11T14:36:58-0500
; FORMAT={-:-/ absolute / inch / decimal}
; #@! TF.CreationDate,2025-07-11T14:36:58-05:00
; #@! TF.GenerationSoftware,Kicad,Pcbnew,9.0.3
; #@! TF.FileFunction,Plated,1,2,PTH
FMAT,2
INCH
; #@! TA.AperFunction,Plated,PTH,ViaDrill
T1C0.0118
; #@! TA.AperFunction,Plated,PTH,ComponentDrill
T2C0.0315
; #@! TA.AperFunction,Plated,PTH,ComponentDrill
T3C0.0394
; #@! TA.AperFunction,Plated,PTH,ComponentDrill
T4C0.0866
%
G90
G05
T1
X1.8681Y-1.7618
X2.1673Y-1.8228
X2.2589Y-2.19
X2.3169Y-1.7618
X2.4154Y-2.2146
X2.6112Y-1.8081
X2.6545Y-2.1801
T2
X2.4803Y-2.248
X2.4803Y-2.548
X2.5803Y-2.248
X2.5803Y-2.548
T3
X1.5522Y-1.9634
X1.5522Y-2.0634
X1.5522Y-2.1634
X1.5522Y-2.2634
X1.5522Y-2.3634
X1.6522Y-1.9634
X1.6522Y-2.0634
X1.6522Y-2.1634
X1.6522Y-2.2634
X1.6522Y-2.3634
T4
X1.5669Y-2.5551
X1.5689Y-1.7736
X2.7402Y-1.7539
X2.7402Y-2.5531
M30
