%TF.GenerationSoftware,KiCad,Pcbnew,9.0.3*%
%TF.CreationDate,2025-07-11T14:37:00-05:00*%
%TF.ProjectId,drvplugin,64727670-6c75-4676-996e-2e6b69636164,rev?*%
%TF.SameCoordinates,Original*%
%TF.FileFunction,Copper,L2,Bot*%
%TF.FilePolarity,Positive*%
%FSLAX46Y46*%
G04 Gerber Fmt 4.6, Leading zero omitted, Abs format (unit mm)*
G04 Created by KiCad (PCBNEW 9.0.3) date 2025-07-11 14:37:00*
%MOMM*%
%LPD*%
G01*
G04 APERTURE LIST*
G04 Aperture macros list*
%AMRoundRect*
0 Rectangle with rounded corners*
0 $1 Rounding radius*
0 $2 $3 $4 $5 $6 $7 $8 $9 X,Y pos of 4 corners*
0 Add a 4 corners polygon primitive as box body*
4,1,4,$2,$3,$4,$5,$6,$7,$8,$9,$2,$3,0*
0 Add four circle primitives for the rounded corners*
1,1,$1+$1,$2,$3*
1,1,$1+$1,$4,$5*
1,1,$1+$1,$6,$7*
1,1,$1+$1,$8,$9*
0 Add four rect primitives between the rounded corners*
20,1,$1+$1,$2,$3,$4,$5,0*
20,1,$1+$1,$4,$5,$6,$7,0*
20,1,$1+$1,$6,$7,$8,$9,0*
20,1,$1+$1,$8,$9,$2,$3,0*%
G04 Aperture macros list end*
%TA.AperFunction,ComponentPad*%
%ADD10C,2.600000*%
%TD*%
%TA.AperFunction,ConnectorPad*%
%ADD11C,3.500000*%
%TD*%
%TA.AperFunction,ComponentPad*%
%ADD12RoundRect,0.250000X0.550000X-0.550000X0.550000X0.550000X-0.550000X0.550000X-0.550000X-0.550000X0*%
%TD*%
%TA.AperFunction,ComponentPad*%
%ADD13C,1.600000*%
%TD*%
%TA.AperFunction,ComponentPad*%
%ADD14R,1.700000X1.700000*%
%TD*%
%TA.AperFunction,ComponentPad*%
%ADD15C,1.700000*%
%TD*%
%TA.AperFunction,ViaPad*%
%ADD16C,0.600000*%
%TD*%
%TA.AperFunction,Conductor*%
%ADD17C,0.600000*%
%TD*%
%TA.AperFunction,Conductor*%
%ADD18C,0.200000*%
%TD*%
G04 APERTURE END LIST*
D10*
%TO.P,REF\u002A\u002A,1*%
%TO.N,N/C*%
X69600000Y-64850000D03*
D11*
X69600000Y-64850000D03*
%TD*%
D10*
%TO.P,REF\u002A\u002A,1*%
%TO.N,N/C*%
X69600000Y-44550000D03*
D11*
X69600000Y-44550000D03*
%TD*%
D10*
%TO.P,REF\u002A\u002A,1*%
%TO.N,N/C*%
X39850000Y-45050000D03*
D11*
X39850000Y-45050000D03*
%TD*%
D12*
%TO.P,U1,1*%
%TO.N,Net-(R3-Pad1)*%
X63000000Y-64720000D03*
D13*
%TO.P,U1,2*%
%TO.N,GND*%
X65540000Y-64720000D03*
%TO.P,U1,3*%
%TO.N,GND1*%
X65540000Y-57100000D03*
%TO.P,U1,4*%
%TO.N,Net-(U2-INPUT)*%
X63000000Y-57100000D03*
%TD*%
D10*
%TO.P,REF\u002A\u002A,1*%
%TO.N,N/C*%
X39800000Y-64900000D03*
D11*
X39800000Y-64900000D03*
%TD*%
D14*
%TO.P,J1,1,Pin_1*%
%TO.N,GND*%
X39425000Y-60030000D03*
D15*
%TO.P,J1,2,Pin_2*%
%TO.N,/GPIO*%
X41965000Y-60030000D03*
%TO.P,J1,3,Pin_3*%
%TO.N,unconnected-(J1-Pin_3-Pad3)*%
X39425000Y-57490000D03*
%TO.P,J1,4,Pin_4*%
%TO.N,/FAIL*%
X41965000Y-57490000D03*
%TO.P,J1,5,Pin_5*%
%TO.N,+12V*%
X39425000Y-54950000D03*
%TO.P,J1,6,Pin_6*%
X41965000Y-54950000D03*
%TO.P,J1,7,Pin_7*%
%TO.N,/OUT*%
X39425000Y-52410000D03*
%TO.P,J1,8,Pin_8*%
X41965000Y-52410000D03*
%TO.P,J1,9,Pin_9*%
%TO.N,GND1*%
X39425000Y-49870000D03*
%TO.P,J1,10,Pin_10*%
X41965000Y-49870000D03*
%TD*%
D16*
%TO.N,GND1*%
X67425000Y-55375000D03*
X66325000Y-45925000D03*
X47450000Y-44750000D03*
X58850000Y-44750000D03*
%TO.N,+12V*%
X57375000Y-55625000D03*
X55050000Y-46300000D03*
%TO.N,/FAIL*%
X61350000Y-56250000D03*
%TD*%
D17*
%TO.N,+12V*%
X57375000Y-55625000D02*
X55100000Y-53350000D01*
X55100000Y-53350000D02*
X55100000Y-46350000D01*
X55100000Y-46350000D02*
X55050000Y-46300000D01*
D18*
%TO.N,/FAIL*%
X61350000Y-56250000D02*
X60100000Y-57500000D01*
X60100000Y-57500000D02*
X42135000Y-57500000D01*
%TD*%
M02*
