%TF.GenerationSoftware,KiCad,Pcbnew,9.0.3*%
%TF.CreationDate,2025-07-11T14:36:58-05:00*%
%TF.ProjectId,drvplugin,64727670-6c75-4676-996e-2e6b69636164,rev?*%
%TF.SameCoordinates,Original*%
%TF.FileFunction,Drillmap*%
%TF.FilePolarity,Positive*%
%FSLAX45Y45*%
G04 Gerber Fmt 4.5, Leading zero omitted, Abs format (unit mm)*
G04 Created by KiCad (PCBNEW 9.0.3) date 2025-07-11 14:36:58*
%MOMM*%
%LPD*%
G01*
G04 APERTURE LIST*
%ADD10C,0.050000*%
%ADD11C,0.200000*%
%ADD12C,0.100000*%
%ADD13C,0.220000*%
G04 APERTURE END LIST*
D10*
X3540000Y-4210000D02*
X7350000Y-4210000D01*
X7350000Y-6750000D01*
X3540000Y-6750000D01*
X3540000Y-4210000D01*
D11*
D12*
X4730000Y-4460000D02*
X4760000Y-4490000D01*
X4760000Y-4460000D02*
X4730000Y-4490000D01*
X5490000Y-4615000D02*
X5520000Y-4645000D01*
X5520000Y-4615000D02*
X5490000Y-4645000D01*
X5722500Y-5547500D02*
X5752500Y-5577500D01*
X5752500Y-5547500D02*
X5722500Y-5577500D01*
X5870000Y-4460000D02*
X5900000Y-4490000D01*
X5900000Y-4460000D02*
X5870000Y-4490000D01*
X6120000Y-5610000D02*
X6150000Y-5640000D01*
X6150000Y-5610000D02*
X6120000Y-5640000D01*
X6617500Y-4577500D02*
X6647500Y-4607500D01*
X6647500Y-4577500D02*
X6617500Y-4607500D01*
X6727500Y-5522500D02*
X6757500Y-5552500D01*
X6757500Y-5522500D02*
X6727500Y-5552500D01*
X6340000Y-5710000D02*
G75*
G02*
X6260000Y-5710000I-40000J0D01*
G01*
X6260000Y-5710000D02*
G75*
G02*
X6340000Y-5710000I40000J0D01*
G01*
X6340000Y-6472000D02*
G75*
G02*
X6260000Y-6472000I-40000J0D01*
G01*
X6260000Y-6472000D02*
G75*
G02*
X6340000Y-6472000I40000J0D01*
G01*
X6594000Y-5710000D02*
G75*
G02*
X6514000Y-5710000I-40000J0D01*
G01*
X6514000Y-5710000D02*
G75*
G02*
X6594000Y-5710000I40000J0D01*
G01*
X6594000Y-6472000D02*
G75*
G02*
X6514000Y-6472000I-40000J0D01*
G01*
X6514000Y-6472000D02*
G75*
G02*
X6594000Y-6472000I40000J0D01*
G01*
X3942500Y-4937000D02*
X3942500Y-5037000D01*
X3892500Y-4987000D02*
X3992500Y-4987000D01*
X3942500Y-5191000D02*
X3942500Y-5291000D01*
X3892500Y-5241000D02*
X3992500Y-5241000D01*
X3942500Y-5445000D02*
X3942500Y-5545000D01*
X3892500Y-5495000D02*
X3992500Y-5495000D01*
X3942500Y-5699000D02*
X3942500Y-5799000D01*
X3892500Y-5749000D02*
X3992500Y-5749000D01*
X3942500Y-5953000D02*
X3942500Y-6053000D01*
X3892500Y-6003000D02*
X3992500Y-6003000D01*
X4196500Y-4937000D02*
X4196500Y-5037000D01*
X4146500Y-4987000D02*
X4246500Y-4987000D01*
X4196500Y-5191000D02*
X4196500Y-5291000D01*
X4146500Y-5241000D02*
X4246500Y-5241000D01*
X4196500Y-5445000D02*
X4196500Y-5545000D01*
X4146500Y-5495000D02*
X4246500Y-5495000D01*
X4196500Y-5699000D02*
X4196500Y-5799000D01*
X4146500Y-5749000D02*
X4246500Y-5749000D01*
X4196500Y-5953000D02*
X4196500Y-6053000D01*
X4146500Y-6003000D02*
X4246500Y-6003000D01*
D13*
X4057782Y-6567782D02*
X4057782Y-6412217D01*
X3902217Y-6412217D01*
X3902217Y-6567782D01*
X4057782Y-6567782D01*
X4062782Y-4582783D02*
X4062782Y-4427218D01*
X3907217Y-4427218D01*
X3907217Y-4582783D01*
X4062782Y-4582783D01*
X7037782Y-4532783D02*
X7037782Y-4377218D01*
X6882217Y-4377218D01*
X6882217Y-4532783D01*
X7037782Y-4532783D01*
X7037782Y-6562782D02*
X7037782Y-6407217D01*
X6882217Y-6407217D01*
X6882217Y-6562782D01*
X7037782Y-6562782D01*
D11*
X3798277Y-7063984D02*
X3798277Y-6863984D01*
X3798277Y-6863984D02*
X3845896Y-6863984D01*
X3845896Y-6863984D02*
X3874467Y-6873508D01*
X3874467Y-6873508D02*
X3893515Y-6892555D01*
X3893515Y-6892555D02*
X3903039Y-6911603D01*
X3903039Y-6911603D02*
X3912562Y-6949698D01*
X3912562Y-6949698D02*
X3912562Y-6978269D01*
X3912562Y-6978269D02*
X3903039Y-7016365D01*
X3903039Y-7016365D02*
X3893515Y-7035412D01*
X3893515Y-7035412D02*
X3874467Y-7054460D01*
X3874467Y-7054460D02*
X3845896Y-7063984D01*
X3845896Y-7063984D02*
X3798277Y-7063984D01*
X3998277Y-7063984D02*
X3998277Y-6930650D01*
X3998277Y-6968746D02*
X4007801Y-6949698D01*
X4007801Y-6949698D02*
X4017324Y-6940174D01*
X4017324Y-6940174D02*
X4036372Y-6930650D01*
X4036372Y-6930650D02*
X4055420Y-6930650D01*
X4122086Y-7063984D02*
X4122086Y-6930650D01*
X4122086Y-6863984D02*
X4112562Y-6873508D01*
X4112562Y-6873508D02*
X4122086Y-6883031D01*
X4122086Y-6883031D02*
X4131610Y-6873508D01*
X4131610Y-6873508D02*
X4122086Y-6863984D01*
X4122086Y-6863984D02*
X4122086Y-6883031D01*
X4245896Y-7063984D02*
X4226848Y-7054460D01*
X4226848Y-7054460D02*
X4217324Y-7035412D01*
X4217324Y-7035412D02*
X4217324Y-6863984D01*
X4350658Y-7063984D02*
X4331610Y-7054460D01*
X4331610Y-7054460D02*
X4322086Y-7035412D01*
X4322086Y-7035412D02*
X4322086Y-6863984D01*
X4579229Y-7063984D02*
X4579229Y-6863984D01*
X4579229Y-6863984D02*
X4645896Y-7006841D01*
X4645896Y-7006841D02*
X4712563Y-6863984D01*
X4712563Y-6863984D02*
X4712563Y-7063984D01*
X4893515Y-7063984D02*
X4893515Y-6959222D01*
X4893515Y-6959222D02*
X4883991Y-6940174D01*
X4883991Y-6940174D02*
X4864944Y-6930650D01*
X4864944Y-6930650D02*
X4826848Y-6930650D01*
X4826848Y-6930650D02*
X4807801Y-6940174D01*
X4893515Y-7054460D02*
X4874467Y-7063984D01*
X4874467Y-7063984D02*
X4826848Y-7063984D01*
X4826848Y-7063984D02*
X4807801Y-7054460D01*
X4807801Y-7054460D02*
X4798277Y-7035412D01*
X4798277Y-7035412D02*
X4798277Y-7016365D01*
X4798277Y-7016365D02*
X4807801Y-6997317D01*
X4807801Y-6997317D02*
X4826848Y-6987793D01*
X4826848Y-6987793D02*
X4874467Y-6987793D01*
X4874467Y-6987793D02*
X4893515Y-6978269D01*
X4988753Y-6930650D02*
X4988753Y-7130650D01*
X4988753Y-6940174D02*
X5007801Y-6930650D01*
X5007801Y-6930650D02*
X5045896Y-6930650D01*
X5045896Y-6930650D02*
X5064944Y-6940174D01*
X5064944Y-6940174D02*
X5074467Y-6949698D01*
X5074467Y-6949698D02*
X5083991Y-6968746D01*
X5083991Y-6968746D02*
X5083991Y-7025888D01*
X5083991Y-7025888D02*
X5074467Y-7044936D01*
X5074467Y-7044936D02*
X5064944Y-7054460D01*
X5064944Y-7054460D02*
X5045896Y-7063984D01*
X5045896Y-7063984D02*
X5007801Y-7063984D01*
X5007801Y-7063984D02*
X4988753Y-7054460D01*
X5169705Y-7044936D02*
X5179229Y-7054460D01*
X5179229Y-7054460D02*
X5169705Y-7063984D01*
X5169705Y-7063984D02*
X5160182Y-7054460D01*
X5160182Y-7054460D02*
X5169705Y-7044936D01*
X5169705Y-7044936D02*
X5169705Y-7063984D01*
X5169705Y-6940174D02*
X5179229Y-6949698D01*
X5179229Y-6949698D02*
X5169705Y-6959222D01*
X5169705Y-6959222D02*
X5160182Y-6949698D01*
X5160182Y-6949698D02*
X5169705Y-6940174D01*
X5169705Y-6940174D02*
X5169705Y-6959222D01*
D12*
X3507500Y-7377500D02*
X3537500Y-7407500D01*
X3537500Y-7377500D02*
X3507500Y-7407500D01*
D11*
X3836372Y-7283984D02*
X3855420Y-7283984D01*
X3855420Y-7283984D02*
X3874467Y-7293508D01*
X3874467Y-7293508D02*
X3883991Y-7303031D01*
X3883991Y-7303031D02*
X3893515Y-7322079D01*
X3893515Y-7322079D02*
X3903039Y-7360174D01*
X3903039Y-7360174D02*
X3903039Y-7407793D01*
X3903039Y-7407793D02*
X3893515Y-7445888D01*
X3893515Y-7445888D02*
X3883991Y-7464936D01*
X3883991Y-7464936D02*
X3874467Y-7474460D01*
X3874467Y-7474460D02*
X3855420Y-7483984D01*
X3855420Y-7483984D02*
X3836372Y-7483984D01*
X3836372Y-7483984D02*
X3817324Y-7474460D01*
X3817324Y-7474460D02*
X3807801Y-7464936D01*
X3807801Y-7464936D02*
X3798277Y-7445888D01*
X3798277Y-7445888D02*
X3788753Y-7407793D01*
X3788753Y-7407793D02*
X3788753Y-7360174D01*
X3788753Y-7360174D02*
X3798277Y-7322079D01*
X3798277Y-7322079D02*
X3807801Y-7303031D01*
X3807801Y-7303031D02*
X3817324Y-7293508D01*
X3817324Y-7293508D02*
X3836372Y-7283984D01*
X3988753Y-7464936D02*
X3998277Y-7474460D01*
X3998277Y-7474460D02*
X3988753Y-7483984D01*
X3988753Y-7483984D02*
X3979229Y-7474460D01*
X3979229Y-7474460D02*
X3988753Y-7464936D01*
X3988753Y-7464936D02*
X3988753Y-7483984D01*
X4064943Y-7283984D02*
X4188753Y-7283984D01*
X4188753Y-7283984D02*
X4122086Y-7360174D01*
X4122086Y-7360174D02*
X4150658Y-7360174D01*
X4150658Y-7360174D02*
X4169705Y-7369698D01*
X4169705Y-7369698D02*
X4179229Y-7379222D01*
X4179229Y-7379222D02*
X4188753Y-7398269D01*
X4188753Y-7398269D02*
X4188753Y-7445888D01*
X4188753Y-7445888D02*
X4179229Y-7464936D01*
X4179229Y-7464936D02*
X4169705Y-7474460D01*
X4169705Y-7474460D02*
X4150658Y-7483984D01*
X4150658Y-7483984D02*
X4093515Y-7483984D01*
X4093515Y-7483984D02*
X4074467Y-7474460D01*
X4074467Y-7474460D02*
X4064943Y-7464936D01*
X4312563Y-7283984D02*
X4331610Y-7283984D01*
X4331610Y-7283984D02*
X4350658Y-7293508D01*
X4350658Y-7293508D02*
X4360182Y-7303031D01*
X4360182Y-7303031D02*
X4369705Y-7322079D01*
X4369705Y-7322079D02*
X4379229Y-7360174D01*
X4379229Y-7360174D02*
X4379229Y-7407793D01*
X4379229Y-7407793D02*
X4369705Y-7445888D01*
X4369705Y-7445888D02*
X4360182Y-7464936D01*
X4360182Y-7464936D02*
X4350658Y-7474460D01*
X4350658Y-7474460D02*
X4331610Y-7483984D01*
X4331610Y-7483984D02*
X4312563Y-7483984D01*
X4312563Y-7483984D02*
X4293515Y-7474460D01*
X4293515Y-7474460D02*
X4283991Y-7464936D01*
X4283991Y-7464936D02*
X4274467Y-7445888D01*
X4274467Y-7445888D02*
X4264944Y-7407793D01*
X4264944Y-7407793D02*
X4264944Y-7360174D01*
X4264944Y-7360174D02*
X4274467Y-7322079D01*
X4274467Y-7322079D02*
X4283991Y-7303031D01*
X4283991Y-7303031D02*
X4293515Y-7293508D01*
X4293515Y-7293508D02*
X4312563Y-7283984D01*
X4503039Y-7283984D02*
X4522086Y-7283984D01*
X4522086Y-7283984D02*
X4541134Y-7293508D01*
X4541134Y-7293508D02*
X4550658Y-7303031D01*
X4550658Y-7303031D02*
X4560182Y-7322079D01*
X4560182Y-7322079D02*
X4569705Y-7360174D01*
X4569705Y-7360174D02*
X4569705Y-7407793D01*
X4569705Y-7407793D02*
X4560182Y-7445888D01*
X4560182Y-7445888D02*
X4550658Y-7464936D01*
X4550658Y-7464936D02*
X4541134Y-7474460D01*
X4541134Y-7474460D02*
X4522086Y-7483984D01*
X4522086Y-7483984D02*
X4503039Y-7483984D01*
X4503039Y-7483984D02*
X4483991Y-7474460D01*
X4483991Y-7474460D02*
X4474467Y-7464936D01*
X4474467Y-7464936D02*
X4464944Y-7445888D01*
X4464944Y-7445888D02*
X4455420Y-7407793D01*
X4455420Y-7407793D02*
X4455420Y-7360174D01*
X4455420Y-7360174D02*
X4464944Y-7322079D01*
X4464944Y-7322079D02*
X4474467Y-7303031D01*
X4474467Y-7303031D02*
X4483991Y-7293508D01*
X4483991Y-7293508D02*
X4503039Y-7283984D01*
X4655420Y-7483984D02*
X4655420Y-7350650D01*
X4655420Y-7369698D02*
X4664944Y-7360174D01*
X4664944Y-7360174D02*
X4683991Y-7350650D01*
X4683991Y-7350650D02*
X4712563Y-7350650D01*
X4712563Y-7350650D02*
X4731610Y-7360174D01*
X4731610Y-7360174D02*
X4741134Y-7379222D01*
X4741134Y-7379222D02*
X4741134Y-7483984D01*
X4741134Y-7379222D02*
X4750658Y-7360174D01*
X4750658Y-7360174D02*
X4769705Y-7350650D01*
X4769705Y-7350650D02*
X4798277Y-7350650D01*
X4798277Y-7350650D02*
X4817325Y-7360174D01*
X4817325Y-7360174D02*
X4826848Y-7379222D01*
X4826848Y-7379222D02*
X4826848Y-7483984D01*
X4922086Y-7483984D02*
X4922086Y-7350650D01*
X4922086Y-7369698D02*
X4931610Y-7360174D01*
X4931610Y-7360174D02*
X4950658Y-7350650D01*
X4950658Y-7350650D02*
X4979229Y-7350650D01*
X4979229Y-7350650D02*
X4998277Y-7360174D01*
X4998277Y-7360174D02*
X5007801Y-7379222D01*
X5007801Y-7379222D02*
X5007801Y-7483984D01*
X5007801Y-7379222D02*
X5017325Y-7360174D01*
X5017325Y-7360174D02*
X5036372Y-7350650D01*
X5036372Y-7350650D02*
X5064944Y-7350650D01*
X5064944Y-7350650D02*
X5083991Y-7360174D01*
X5083991Y-7360174D02*
X5093515Y-7379222D01*
X5093515Y-7379222D02*
X5093515Y-7483984D01*
X5483991Y-7274460D02*
X5312563Y-7531603D01*
X5741134Y-7283984D02*
X5760182Y-7283984D01*
X5760182Y-7283984D02*
X5779229Y-7293508D01*
X5779229Y-7293508D02*
X5788753Y-7303031D01*
X5788753Y-7303031D02*
X5798277Y-7322079D01*
X5798277Y-7322079D02*
X5807801Y-7360174D01*
X5807801Y-7360174D02*
X5807801Y-7407793D01*
X5807801Y-7407793D02*
X5798277Y-7445888D01*
X5798277Y-7445888D02*
X5788753Y-7464936D01*
X5788753Y-7464936D02*
X5779229Y-7474460D01*
X5779229Y-7474460D02*
X5760182Y-7483984D01*
X5760182Y-7483984D02*
X5741134Y-7483984D01*
X5741134Y-7483984D02*
X5722086Y-7474460D01*
X5722086Y-7474460D02*
X5712563Y-7464936D01*
X5712563Y-7464936D02*
X5703039Y-7445888D01*
X5703039Y-7445888D02*
X5693515Y-7407793D01*
X5693515Y-7407793D02*
X5693515Y-7360174D01*
X5693515Y-7360174D02*
X5703039Y-7322079D01*
X5703039Y-7322079D02*
X5712563Y-7303031D01*
X5712563Y-7303031D02*
X5722086Y-7293508D01*
X5722086Y-7293508D02*
X5741134Y-7283984D01*
X5893515Y-7464936D02*
X5903039Y-7474460D01*
X5903039Y-7474460D02*
X5893515Y-7483984D01*
X5893515Y-7483984D02*
X5883991Y-7474460D01*
X5883991Y-7474460D02*
X5893515Y-7464936D01*
X5893515Y-7464936D02*
X5893515Y-7483984D01*
X6026848Y-7283984D02*
X6045896Y-7283984D01*
X6045896Y-7283984D02*
X6064944Y-7293508D01*
X6064944Y-7293508D02*
X6074467Y-7303031D01*
X6074467Y-7303031D02*
X6083991Y-7322079D01*
X6083991Y-7322079D02*
X6093515Y-7360174D01*
X6093515Y-7360174D02*
X6093515Y-7407793D01*
X6093515Y-7407793D02*
X6083991Y-7445888D01*
X6083991Y-7445888D02*
X6074467Y-7464936D01*
X6074467Y-7464936D02*
X6064944Y-7474460D01*
X6064944Y-7474460D02*
X6045896Y-7483984D01*
X6045896Y-7483984D02*
X6026848Y-7483984D01*
X6026848Y-7483984D02*
X6007801Y-7474460D01*
X6007801Y-7474460D02*
X5998277Y-7464936D01*
X5998277Y-7464936D02*
X5988753Y-7445888D01*
X5988753Y-7445888D02*
X5979229Y-7407793D01*
X5979229Y-7407793D02*
X5979229Y-7360174D01*
X5979229Y-7360174D02*
X5988753Y-7322079D01*
X5988753Y-7322079D02*
X5998277Y-7303031D01*
X5998277Y-7303031D02*
X6007801Y-7293508D01*
X6007801Y-7293508D02*
X6026848Y-7283984D01*
X6283991Y-7483984D02*
X6169706Y-7483984D01*
X6226848Y-7483984D02*
X6226848Y-7283984D01*
X6226848Y-7283984D02*
X6207801Y-7312555D01*
X6207801Y-7312555D02*
X6188753Y-7331603D01*
X6188753Y-7331603D02*
X6169706Y-7341127D01*
X6474467Y-7483984D02*
X6360182Y-7483984D01*
X6417325Y-7483984D02*
X6417325Y-7283984D01*
X6417325Y-7283984D02*
X6398277Y-7312555D01*
X6398277Y-7312555D02*
X6379229Y-7331603D01*
X6379229Y-7331603D02*
X6360182Y-7341127D01*
X6588753Y-7369698D02*
X6569706Y-7360174D01*
X6569706Y-7360174D02*
X6560182Y-7350650D01*
X6560182Y-7350650D02*
X6550658Y-7331603D01*
X6550658Y-7331603D02*
X6550658Y-7322079D01*
X6550658Y-7322079D02*
X6560182Y-7303031D01*
X6560182Y-7303031D02*
X6569706Y-7293508D01*
X6569706Y-7293508D02*
X6588753Y-7283984D01*
X6588753Y-7283984D02*
X6626848Y-7283984D01*
X6626848Y-7283984D02*
X6645896Y-7293508D01*
X6645896Y-7293508D02*
X6655420Y-7303031D01*
X6655420Y-7303031D02*
X6664944Y-7322079D01*
X6664944Y-7322079D02*
X6664944Y-7331603D01*
X6664944Y-7331603D02*
X6655420Y-7350650D01*
X6655420Y-7350650D02*
X6645896Y-7360174D01*
X6645896Y-7360174D02*
X6626848Y-7369698D01*
X6626848Y-7369698D02*
X6588753Y-7369698D01*
X6588753Y-7369698D02*
X6569706Y-7379222D01*
X6569706Y-7379222D02*
X6560182Y-7388746D01*
X6560182Y-7388746D02*
X6550658Y-7407793D01*
X6550658Y-7407793D02*
X6550658Y-7445888D01*
X6550658Y-7445888D02*
X6560182Y-7464936D01*
X6560182Y-7464936D02*
X6569706Y-7474460D01*
X6569706Y-7474460D02*
X6588753Y-7483984D01*
X6588753Y-7483984D02*
X6626848Y-7483984D01*
X6626848Y-7483984D02*
X6645896Y-7474460D01*
X6645896Y-7474460D02*
X6655420Y-7464936D01*
X6655420Y-7464936D02*
X6664944Y-7445888D01*
X6664944Y-7445888D02*
X6664944Y-7407793D01*
X6664944Y-7407793D02*
X6655420Y-7388746D01*
X6655420Y-7388746D02*
X6645896Y-7379222D01*
X6645896Y-7379222D02*
X6626848Y-7369698D01*
X6741134Y-7283984D02*
X6741134Y-7322079D01*
X6817325Y-7283984D02*
X6817325Y-7322079D01*
X7112563Y-7560174D02*
X7103039Y-7550650D01*
X7103039Y-7550650D02*
X7083991Y-7522079D01*
X7083991Y-7522079D02*
X7074468Y-7503031D01*
X7074468Y-7503031D02*
X7064944Y-7474460D01*
X7064944Y-7474460D02*
X7055420Y-7426841D01*
X7055420Y-7426841D02*
X7055420Y-7388746D01*
X7055420Y-7388746D02*
X7064944Y-7341127D01*
X7064944Y-7341127D02*
X7074468Y-7312555D01*
X7074468Y-7312555D02*
X7083991Y-7293508D01*
X7083991Y-7293508D02*
X7103039Y-7264936D01*
X7103039Y-7264936D02*
X7112563Y-7255412D01*
X7169706Y-7283984D02*
X7303039Y-7283984D01*
X7303039Y-7283984D02*
X7217325Y-7483984D01*
X7531610Y-7483984D02*
X7531610Y-7283984D01*
X7617325Y-7483984D02*
X7617325Y-7379222D01*
X7617325Y-7379222D02*
X7607801Y-7360174D01*
X7607801Y-7360174D02*
X7588753Y-7350650D01*
X7588753Y-7350650D02*
X7560182Y-7350650D01*
X7560182Y-7350650D02*
X7541134Y-7360174D01*
X7541134Y-7360174D02*
X7531610Y-7369698D01*
X7741134Y-7483984D02*
X7722087Y-7474460D01*
X7722087Y-7474460D02*
X7712563Y-7464936D01*
X7712563Y-7464936D02*
X7703039Y-7445888D01*
X7703039Y-7445888D02*
X7703039Y-7388746D01*
X7703039Y-7388746D02*
X7712563Y-7369698D01*
X7712563Y-7369698D02*
X7722087Y-7360174D01*
X7722087Y-7360174D02*
X7741134Y-7350650D01*
X7741134Y-7350650D02*
X7769706Y-7350650D01*
X7769706Y-7350650D02*
X7788753Y-7360174D01*
X7788753Y-7360174D02*
X7798277Y-7369698D01*
X7798277Y-7369698D02*
X7807801Y-7388746D01*
X7807801Y-7388746D02*
X7807801Y-7445888D01*
X7807801Y-7445888D02*
X7798277Y-7464936D01*
X7798277Y-7464936D02*
X7788753Y-7474460D01*
X7788753Y-7474460D02*
X7769706Y-7483984D01*
X7769706Y-7483984D02*
X7741134Y-7483984D01*
X7922087Y-7483984D02*
X7903039Y-7474460D01*
X7903039Y-7474460D02*
X7893515Y-7455412D01*
X7893515Y-7455412D02*
X7893515Y-7283984D01*
X8074468Y-7474460D02*
X8055420Y-7483984D01*
X8055420Y-7483984D02*
X8017325Y-7483984D01*
X8017325Y-7483984D02*
X7998277Y-7474460D01*
X7998277Y-7474460D02*
X7988753Y-7455412D01*
X7988753Y-7455412D02*
X7988753Y-7379222D01*
X7988753Y-7379222D02*
X7998277Y-7360174D01*
X7998277Y-7360174D02*
X8017325Y-7350650D01*
X8017325Y-7350650D02*
X8055420Y-7350650D01*
X8055420Y-7350650D02*
X8074468Y-7360174D01*
X8074468Y-7360174D02*
X8083991Y-7379222D01*
X8083991Y-7379222D02*
X8083991Y-7398269D01*
X8083991Y-7398269D02*
X7988753Y-7417317D01*
X8160182Y-7474460D02*
X8179230Y-7483984D01*
X8179230Y-7483984D02*
X8217325Y-7483984D01*
X8217325Y-7483984D02*
X8236372Y-7474460D01*
X8236372Y-7474460D02*
X8245896Y-7455412D01*
X8245896Y-7455412D02*
X8245896Y-7445888D01*
X8245896Y-7445888D02*
X8236372Y-7426841D01*
X8236372Y-7426841D02*
X8217325Y-7417317D01*
X8217325Y-7417317D02*
X8188753Y-7417317D01*
X8188753Y-7417317D02*
X8169706Y-7407793D01*
X8169706Y-7407793D02*
X8160182Y-7388746D01*
X8160182Y-7388746D02*
X8160182Y-7379222D01*
X8160182Y-7379222D02*
X8169706Y-7360174D01*
X8169706Y-7360174D02*
X8188753Y-7350650D01*
X8188753Y-7350650D02*
X8217325Y-7350650D01*
X8217325Y-7350650D02*
X8236372Y-7360174D01*
X8312563Y-7560174D02*
X8322087Y-7550650D01*
X8322087Y-7550650D02*
X8341134Y-7522079D01*
X8341134Y-7522079D02*
X8350658Y-7503031D01*
X8350658Y-7503031D02*
X8360182Y-7474460D01*
X8360182Y-7474460D02*
X8369706Y-7426841D01*
X8369706Y-7426841D02*
X8369706Y-7388746D01*
X8369706Y-7388746D02*
X8360182Y-7341127D01*
X8360182Y-7341127D02*
X8350658Y-7312555D01*
X8350658Y-7312555D02*
X8341134Y-7293508D01*
X8341134Y-7293508D02*
X8322087Y-7264936D01*
X8322087Y-7264936D02*
X8312563Y-7255412D01*
D12*
X3537500Y-7656500D02*
G75*
G02*
X3457500Y-7656500I-40000J0D01*
G01*
X3457500Y-7656500D02*
G75*
G02*
X3537500Y-7656500I40000J0D01*
G01*
D11*
X3836372Y-7547984D02*
X3855420Y-7547984D01*
X3855420Y-7547984D02*
X3874467Y-7557508D01*
X3874467Y-7557508D02*
X3883991Y-7567031D01*
X3883991Y-7567031D02*
X3893515Y-7586079D01*
X3893515Y-7586079D02*
X3903039Y-7624174D01*
X3903039Y-7624174D02*
X3903039Y-7671793D01*
X3903039Y-7671793D02*
X3893515Y-7709888D01*
X3893515Y-7709888D02*
X3883991Y-7728936D01*
X3883991Y-7728936D02*
X3874467Y-7738460D01*
X3874467Y-7738460D02*
X3855420Y-7747984D01*
X3855420Y-7747984D02*
X3836372Y-7747984D01*
X3836372Y-7747984D02*
X3817324Y-7738460D01*
X3817324Y-7738460D02*
X3807801Y-7728936D01*
X3807801Y-7728936D02*
X3798277Y-7709888D01*
X3798277Y-7709888D02*
X3788753Y-7671793D01*
X3788753Y-7671793D02*
X3788753Y-7624174D01*
X3788753Y-7624174D02*
X3798277Y-7586079D01*
X3798277Y-7586079D02*
X3807801Y-7567031D01*
X3807801Y-7567031D02*
X3817324Y-7557508D01*
X3817324Y-7557508D02*
X3836372Y-7547984D01*
X3988753Y-7728936D02*
X3998277Y-7738460D01*
X3998277Y-7738460D02*
X3988753Y-7747984D01*
X3988753Y-7747984D02*
X3979229Y-7738460D01*
X3979229Y-7738460D02*
X3988753Y-7728936D01*
X3988753Y-7728936D02*
X3988753Y-7747984D01*
X4112562Y-7633698D02*
X4093515Y-7624174D01*
X4093515Y-7624174D02*
X4083991Y-7614650D01*
X4083991Y-7614650D02*
X4074467Y-7595603D01*
X4074467Y-7595603D02*
X4074467Y-7586079D01*
X4074467Y-7586079D02*
X4083991Y-7567031D01*
X4083991Y-7567031D02*
X4093515Y-7557508D01*
X4093515Y-7557508D02*
X4112562Y-7547984D01*
X4112562Y-7547984D02*
X4150658Y-7547984D01*
X4150658Y-7547984D02*
X4169705Y-7557508D01*
X4169705Y-7557508D02*
X4179229Y-7567031D01*
X4179229Y-7567031D02*
X4188753Y-7586079D01*
X4188753Y-7586079D02*
X4188753Y-7595603D01*
X4188753Y-7595603D02*
X4179229Y-7614650D01*
X4179229Y-7614650D02*
X4169705Y-7624174D01*
X4169705Y-7624174D02*
X4150658Y-7633698D01*
X4150658Y-7633698D02*
X4112562Y-7633698D01*
X4112562Y-7633698D02*
X4093515Y-7643222D01*
X4093515Y-7643222D02*
X4083991Y-7652746D01*
X4083991Y-7652746D02*
X4074467Y-7671793D01*
X4074467Y-7671793D02*
X4074467Y-7709888D01*
X4074467Y-7709888D02*
X4083991Y-7728936D01*
X4083991Y-7728936D02*
X4093515Y-7738460D01*
X4093515Y-7738460D02*
X4112562Y-7747984D01*
X4112562Y-7747984D02*
X4150658Y-7747984D01*
X4150658Y-7747984D02*
X4169705Y-7738460D01*
X4169705Y-7738460D02*
X4179229Y-7728936D01*
X4179229Y-7728936D02*
X4188753Y-7709888D01*
X4188753Y-7709888D02*
X4188753Y-7671793D01*
X4188753Y-7671793D02*
X4179229Y-7652746D01*
X4179229Y-7652746D02*
X4169705Y-7643222D01*
X4169705Y-7643222D02*
X4150658Y-7633698D01*
X4312563Y-7547984D02*
X4331610Y-7547984D01*
X4331610Y-7547984D02*
X4350658Y-7557508D01*
X4350658Y-7557508D02*
X4360182Y-7567031D01*
X4360182Y-7567031D02*
X4369705Y-7586079D01*
X4369705Y-7586079D02*
X4379229Y-7624174D01*
X4379229Y-7624174D02*
X4379229Y-7671793D01*
X4379229Y-7671793D02*
X4369705Y-7709888D01*
X4369705Y-7709888D02*
X4360182Y-7728936D01*
X4360182Y-7728936D02*
X4350658Y-7738460D01*
X4350658Y-7738460D02*
X4331610Y-7747984D01*
X4331610Y-7747984D02*
X4312563Y-7747984D01*
X4312563Y-7747984D02*
X4293515Y-7738460D01*
X4293515Y-7738460D02*
X4283991Y-7728936D01*
X4283991Y-7728936D02*
X4274467Y-7709888D01*
X4274467Y-7709888D02*
X4264944Y-7671793D01*
X4264944Y-7671793D02*
X4264944Y-7624174D01*
X4264944Y-7624174D02*
X4274467Y-7586079D01*
X4274467Y-7586079D02*
X4283991Y-7567031D01*
X4283991Y-7567031D02*
X4293515Y-7557508D01*
X4293515Y-7557508D02*
X4312563Y-7547984D01*
X4503039Y-7547984D02*
X4522086Y-7547984D01*
X4522086Y-7547984D02*
X4541134Y-7557508D01*
X4541134Y-7557508D02*
X4550658Y-7567031D01*
X4550658Y-7567031D02*
X4560182Y-7586079D01*
X4560182Y-7586079D02*
X4569705Y-7624174D01*
X4569705Y-7624174D02*
X4569705Y-7671793D01*
X4569705Y-7671793D02*
X4560182Y-7709888D01*
X4560182Y-7709888D02*
X4550658Y-7728936D01*
X4550658Y-7728936D02*
X4541134Y-7738460D01*
X4541134Y-7738460D02*
X4522086Y-7747984D01*
X4522086Y-7747984D02*
X4503039Y-7747984D01*
X4503039Y-7747984D02*
X4483991Y-7738460D01*
X4483991Y-7738460D02*
X4474467Y-7728936D01*
X4474467Y-7728936D02*
X4464944Y-7709888D01*
X4464944Y-7709888D02*
X4455420Y-7671793D01*
X4455420Y-7671793D02*
X4455420Y-7624174D01*
X4455420Y-7624174D02*
X4464944Y-7586079D01*
X4464944Y-7586079D02*
X4474467Y-7567031D01*
X4474467Y-7567031D02*
X4483991Y-7557508D01*
X4483991Y-7557508D02*
X4503039Y-7547984D01*
X4655420Y-7747984D02*
X4655420Y-7614650D01*
X4655420Y-7633698D02*
X4664944Y-7624174D01*
X4664944Y-7624174D02*
X4683991Y-7614650D01*
X4683991Y-7614650D02*
X4712563Y-7614650D01*
X4712563Y-7614650D02*
X4731610Y-7624174D01*
X4731610Y-7624174D02*
X4741134Y-7643222D01*
X4741134Y-7643222D02*
X4741134Y-7747984D01*
X4741134Y-7643222D02*
X4750658Y-7624174D01*
X4750658Y-7624174D02*
X4769705Y-7614650D01*
X4769705Y-7614650D02*
X4798277Y-7614650D01*
X4798277Y-7614650D02*
X4817325Y-7624174D01*
X4817325Y-7624174D02*
X4826848Y-7643222D01*
X4826848Y-7643222D02*
X4826848Y-7747984D01*
X4922086Y-7747984D02*
X4922086Y-7614650D01*
X4922086Y-7633698D02*
X4931610Y-7624174D01*
X4931610Y-7624174D02*
X4950658Y-7614650D01*
X4950658Y-7614650D02*
X4979229Y-7614650D01*
X4979229Y-7614650D02*
X4998277Y-7624174D01*
X4998277Y-7624174D02*
X5007801Y-7643222D01*
X5007801Y-7643222D02*
X5007801Y-7747984D01*
X5007801Y-7643222D02*
X5017325Y-7624174D01*
X5017325Y-7624174D02*
X5036372Y-7614650D01*
X5036372Y-7614650D02*
X5064944Y-7614650D01*
X5064944Y-7614650D02*
X5083991Y-7624174D01*
X5083991Y-7624174D02*
X5093515Y-7643222D01*
X5093515Y-7643222D02*
X5093515Y-7747984D01*
X5483991Y-7538460D02*
X5312563Y-7795603D01*
X5741134Y-7547984D02*
X5760182Y-7547984D01*
X5760182Y-7547984D02*
X5779229Y-7557508D01*
X5779229Y-7557508D02*
X5788753Y-7567031D01*
X5788753Y-7567031D02*
X5798277Y-7586079D01*
X5798277Y-7586079D02*
X5807801Y-7624174D01*
X5807801Y-7624174D02*
X5807801Y-7671793D01*
X5807801Y-7671793D02*
X5798277Y-7709888D01*
X5798277Y-7709888D02*
X5788753Y-7728936D01*
X5788753Y-7728936D02*
X5779229Y-7738460D01*
X5779229Y-7738460D02*
X5760182Y-7747984D01*
X5760182Y-7747984D02*
X5741134Y-7747984D01*
X5741134Y-7747984D02*
X5722086Y-7738460D01*
X5722086Y-7738460D02*
X5712563Y-7728936D01*
X5712563Y-7728936D02*
X5703039Y-7709888D01*
X5703039Y-7709888D02*
X5693515Y-7671793D01*
X5693515Y-7671793D02*
X5693515Y-7624174D01*
X5693515Y-7624174D02*
X5703039Y-7586079D01*
X5703039Y-7586079D02*
X5712563Y-7567031D01*
X5712563Y-7567031D02*
X5722086Y-7557508D01*
X5722086Y-7557508D02*
X5741134Y-7547984D01*
X5893515Y-7728936D02*
X5903039Y-7738460D01*
X5903039Y-7738460D02*
X5893515Y-7747984D01*
X5893515Y-7747984D02*
X5883991Y-7738460D01*
X5883991Y-7738460D02*
X5893515Y-7728936D01*
X5893515Y-7728936D02*
X5893515Y-7747984D01*
X6026848Y-7547984D02*
X6045896Y-7547984D01*
X6045896Y-7547984D02*
X6064944Y-7557508D01*
X6064944Y-7557508D02*
X6074467Y-7567031D01*
X6074467Y-7567031D02*
X6083991Y-7586079D01*
X6083991Y-7586079D02*
X6093515Y-7624174D01*
X6093515Y-7624174D02*
X6093515Y-7671793D01*
X6093515Y-7671793D02*
X6083991Y-7709888D01*
X6083991Y-7709888D02*
X6074467Y-7728936D01*
X6074467Y-7728936D02*
X6064944Y-7738460D01*
X6064944Y-7738460D02*
X6045896Y-7747984D01*
X6045896Y-7747984D02*
X6026848Y-7747984D01*
X6026848Y-7747984D02*
X6007801Y-7738460D01*
X6007801Y-7738460D02*
X5998277Y-7728936D01*
X5998277Y-7728936D02*
X5988753Y-7709888D01*
X5988753Y-7709888D02*
X5979229Y-7671793D01*
X5979229Y-7671793D02*
X5979229Y-7624174D01*
X5979229Y-7624174D02*
X5988753Y-7586079D01*
X5988753Y-7586079D02*
X5998277Y-7567031D01*
X5998277Y-7567031D02*
X6007801Y-7557508D01*
X6007801Y-7557508D02*
X6026848Y-7547984D01*
X6160182Y-7547984D02*
X6283991Y-7547984D01*
X6283991Y-7547984D02*
X6217325Y-7624174D01*
X6217325Y-7624174D02*
X6245896Y-7624174D01*
X6245896Y-7624174D02*
X6264944Y-7633698D01*
X6264944Y-7633698D02*
X6274467Y-7643222D01*
X6274467Y-7643222D02*
X6283991Y-7662269D01*
X6283991Y-7662269D02*
X6283991Y-7709888D01*
X6283991Y-7709888D02*
X6274467Y-7728936D01*
X6274467Y-7728936D02*
X6264944Y-7738460D01*
X6264944Y-7738460D02*
X6245896Y-7747984D01*
X6245896Y-7747984D02*
X6188753Y-7747984D01*
X6188753Y-7747984D02*
X6169706Y-7738460D01*
X6169706Y-7738460D02*
X6160182Y-7728936D01*
X6474467Y-7747984D02*
X6360182Y-7747984D01*
X6417325Y-7747984D02*
X6417325Y-7547984D01*
X6417325Y-7547984D02*
X6398277Y-7576555D01*
X6398277Y-7576555D02*
X6379229Y-7595603D01*
X6379229Y-7595603D02*
X6360182Y-7605127D01*
X6655420Y-7547984D02*
X6560182Y-7547984D01*
X6560182Y-7547984D02*
X6550658Y-7643222D01*
X6550658Y-7643222D02*
X6560182Y-7633698D01*
X6560182Y-7633698D02*
X6579229Y-7624174D01*
X6579229Y-7624174D02*
X6626848Y-7624174D01*
X6626848Y-7624174D02*
X6645896Y-7633698D01*
X6645896Y-7633698D02*
X6655420Y-7643222D01*
X6655420Y-7643222D02*
X6664944Y-7662269D01*
X6664944Y-7662269D02*
X6664944Y-7709888D01*
X6664944Y-7709888D02*
X6655420Y-7728936D01*
X6655420Y-7728936D02*
X6645896Y-7738460D01*
X6645896Y-7738460D02*
X6626848Y-7747984D01*
X6626848Y-7747984D02*
X6579229Y-7747984D01*
X6579229Y-7747984D02*
X6560182Y-7738460D01*
X6560182Y-7738460D02*
X6550658Y-7728936D01*
X6741134Y-7547984D02*
X6741134Y-7586079D01*
X6817325Y-7547984D02*
X6817325Y-7586079D01*
X7112563Y-7824174D02*
X7103039Y-7814650D01*
X7103039Y-7814650D02*
X7083991Y-7786079D01*
X7083991Y-7786079D02*
X7074468Y-7767031D01*
X7074468Y-7767031D02*
X7064944Y-7738460D01*
X7064944Y-7738460D02*
X7055420Y-7690841D01*
X7055420Y-7690841D02*
X7055420Y-7652746D01*
X7055420Y-7652746D02*
X7064944Y-7605127D01*
X7064944Y-7605127D02*
X7074468Y-7576555D01*
X7074468Y-7576555D02*
X7083991Y-7557508D01*
X7083991Y-7557508D02*
X7103039Y-7528936D01*
X7103039Y-7528936D02*
X7112563Y-7519412D01*
X7274468Y-7614650D02*
X7274468Y-7747984D01*
X7226848Y-7538460D02*
X7179229Y-7681317D01*
X7179229Y-7681317D02*
X7303039Y-7681317D01*
X7531610Y-7747984D02*
X7531610Y-7547984D01*
X7617325Y-7747984D02*
X7617325Y-7643222D01*
X7617325Y-7643222D02*
X7607801Y-7624174D01*
X7607801Y-7624174D02*
X7588753Y-7614650D01*
X7588753Y-7614650D02*
X7560182Y-7614650D01*
X7560182Y-7614650D02*
X7541134Y-7624174D01*
X7541134Y-7624174D02*
X7531610Y-7633698D01*
X7741134Y-7747984D02*
X7722087Y-7738460D01*
X7722087Y-7738460D02*
X7712563Y-7728936D01*
X7712563Y-7728936D02*
X7703039Y-7709888D01*
X7703039Y-7709888D02*
X7703039Y-7652746D01*
X7703039Y-7652746D02*
X7712563Y-7633698D01*
X7712563Y-7633698D02*
X7722087Y-7624174D01*
X7722087Y-7624174D02*
X7741134Y-7614650D01*
X7741134Y-7614650D02*
X7769706Y-7614650D01*
X7769706Y-7614650D02*
X7788753Y-7624174D01*
X7788753Y-7624174D02*
X7798277Y-7633698D01*
X7798277Y-7633698D02*
X7807801Y-7652746D01*
X7807801Y-7652746D02*
X7807801Y-7709888D01*
X7807801Y-7709888D02*
X7798277Y-7728936D01*
X7798277Y-7728936D02*
X7788753Y-7738460D01*
X7788753Y-7738460D02*
X7769706Y-7747984D01*
X7769706Y-7747984D02*
X7741134Y-7747984D01*
X7922087Y-7747984D02*
X7903039Y-7738460D01*
X7903039Y-7738460D02*
X7893515Y-7719412D01*
X7893515Y-7719412D02*
X7893515Y-7547984D01*
X8074468Y-7738460D02*
X8055420Y-7747984D01*
X8055420Y-7747984D02*
X8017325Y-7747984D01*
X8017325Y-7747984D02*
X7998277Y-7738460D01*
X7998277Y-7738460D02*
X7988753Y-7719412D01*
X7988753Y-7719412D02*
X7988753Y-7643222D01*
X7988753Y-7643222D02*
X7998277Y-7624174D01*
X7998277Y-7624174D02*
X8017325Y-7614650D01*
X8017325Y-7614650D02*
X8055420Y-7614650D01*
X8055420Y-7614650D02*
X8074468Y-7624174D01*
X8074468Y-7624174D02*
X8083991Y-7643222D01*
X8083991Y-7643222D02*
X8083991Y-7662269D01*
X8083991Y-7662269D02*
X7988753Y-7681317D01*
X8160182Y-7738460D02*
X8179230Y-7747984D01*
X8179230Y-7747984D02*
X8217325Y-7747984D01*
X8217325Y-7747984D02*
X8236372Y-7738460D01*
X8236372Y-7738460D02*
X8245896Y-7719412D01*
X8245896Y-7719412D02*
X8245896Y-7709888D01*
X8245896Y-7709888D02*
X8236372Y-7690841D01*
X8236372Y-7690841D02*
X8217325Y-7681317D01*
X8217325Y-7681317D02*
X8188753Y-7681317D01*
X8188753Y-7681317D02*
X8169706Y-7671793D01*
X8169706Y-7671793D02*
X8160182Y-7652746D01*
X8160182Y-7652746D02*
X8160182Y-7643222D01*
X8160182Y-7643222D02*
X8169706Y-7624174D01*
X8169706Y-7624174D02*
X8188753Y-7614650D01*
X8188753Y-7614650D02*
X8217325Y-7614650D01*
X8217325Y-7614650D02*
X8236372Y-7624174D01*
X8312563Y-7824174D02*
X8322087Y-7814650D01*
X8322087Y-7814650D02*
X8341134Y-7786079D01*
X8341134Y-7786079D02*
X8350658Y-7767031D01*
X8350658Y-7767031D02*
X8360182Y-7738460D01*
X8360182Y-7738460D02*
X8369706Y-7690841D01*
X8369706Y-7690841D02*
X8369706Y-7652746D01*
X8369706Y-7652746D02*
X8360182Y-7605127D01*
X8360182Y-7605127D02*
X8350658Y-7576555D01*
X8350658Y-7576555D02*
X8341134Y-7557508D01*
X8341134Y-7557508D02*
X8322087Y-7528936D01*
X8322087Y-7528936D02*
X8312563Y-7519412D01*
D12*
X3487500Y-7870500D02*
X3487500Y-7970500D01*
X3437500Y-7920500D02*
X3537500Y-7920500D01*
D11*
X3903039Y-8011984D02*
X3788753Y-8011984D01*
X3845896Y-8011984D02*
X3845896Y-7811984D01*
X3845896Y-7811984D02*
X3826848Y-7840555D01*
X3826848Y-7840555D02*
X3807801Y-7859603D01*
X3807801Y-7859603D02*
X3788753Y-7869127D01*
X3988753Y-7992936D02*
X3998277Y-8002460D01*
X3998277Y-8002460D02*
X3988753Y-8011984D01*
X3988753Y-8011984D02*
X3979229Y-8002460D01*
X3979229Y-8002460D02*
X3988753Y-7992936D01*
X3988753Y-7992936D02*
X3988753Y-8011984D01*
X4122086Y-7811984D02*
X4141134Y-7811984D01*
X4141134Y-7811984D02*
X4160182Y-7821508D01*
X4160182Y-7821508D02*
X4169705Y-7831031D01*
X4169705Y-7831031D02*
X4179229Y-7850079D01*
X4179229Y-7850079D02*
X4188753Y-7888174D01*
X4188753Y-7888174D02*
X4188753Y-7935793D01*
X4188753Y-7935793D02*
X4179229Y-7973888D01*
X4179229Y-7973888D02*
X4169705Y-7992936D01*
X4169705Y-7992936D02*
X4160182Y-8002460D01*
X4160182Y-8002460D02*
X4141134Y-8011984D01*
X4141134Y-8011984D02*
X4122086Y-8011984D01*
X4122086Y-8011984D02*
X4103039Y-8002460D01*
X4103039Y-8002460D02*
X4093515Y-7992936D01*
X4093515Y-7992936D02*
X4083991Y-7973888D01*
X4083991Y-7973888D02*
X4074467Y-7935793D01*
X4074467Y-7935793D02*
X4074467Y-7888174D01*
X4074467Y-7888174D02*
X4083991Y-7850079D01*
X4083991Y-7850079D02*
X4093515Y-7831031D01*
X4093515Y-7831031D02*
X4103039Y-7821508D01*
X4103039Y-7821508D02*
X4122086Y-7811984D01*
X4312563Y-7811984D02*
X4331610Y-7811984D01*
X4331610Y-7811984D02*
X4350658Y-7821508D01*
X4350658Y-7821508D02*
X4360182Y-7831031D01*
X4360182Y-7831031D02*
X4369705Y-7850079D01*
X4369705Y-7850079D02*
X4379229Y-7888174D01*
X4379229Y-7888174D02*
X4379229Y-7935793D01*
X4379229Y-7935793D02*
X4369705Y-7973888D01*
X4369705Y-7973888D02*
X4360182Y-7992936D01*
X4360182Y-7992936D02*
X4350658Y-8002460D01*
X4350658Y-8002460D02*
X4331610Y-8011984D01*
X4331610Y-8011984D02*
X4312563Y-8011984D01*
X4312563Y-8011984D02*
X4293515Y-8002460D01*
X4293515Y-8002460D02*
X4283991Y-7992936D01*
X4283991Y-7992936D02*
X4274467Y-7973888D01*
X4274467Y-7973888D02*
X4264944Y-7935793D01*
X4264944Y-7935793D02*
X4264944Y-7888174D01*
X4264944Y-7888174D02*
X4274467Y-7850079D01*
X4274467Y-7850079D02*
X4283991Y-7831031D01*
X4283991Y-7831031D02*
X4293515Y-7821508D01*
X4293515Y-7821508D02*
X4312563Y-7811984D01*
X4503039Y-7811984D02*
X4522086Y-7811984D01*
X4522086Y-7811984D02*
X4541134Y-7821508D01*
X4541134Y-7821508D02*
X4550658Y-7831031D01*
X4550658Y-7831031D02*
X4560182Y-7850079D01*
X4560182Y-7850079D02*
X4569705Y-7888174D01*
X4569705Y-7888174D02*
X4569705Y-7935793D01*
X4569705Y-7935793D02*
X4560182Y-7973888D01*
X4560182Y-7973888D02*
X4550658Y-7992936D01*
X4550658Y-7992936D02*
X4541134Y-8002460D01*
X4541134Y-8002460D02*
X4522086Y-8011984D01*
X4522086Y-8011984D02*
X4503039Y-8011984D01*
X4503039Y-8011984D02*
X4483991Y-8002460D01*
X4483991Y-8002460D02*
X4474467Y-7992936D01*
X4474467Y-7992936D02*
X4464944Y-7973888D01*
X4464944Y-7973888D02*
X4455420Y-7935793D01*
X4455420Y-7935793D02*
X4455420Y-7888174D01*
X4455420Y-7888174D02*
X4464944Y-7850079D01*
X4464944Y-7850079D02*
X4474467Y-7831031D01*
X4474467Y-7831031D02*
X4483991Y-7821508D01*
X4483991Y-7821508D02*
X4503039Y-7811984D01*
X4655420Y-8011984D02*
X4655420Y-7878650D01*
X4655420Y-7897698D02*
X4664944Y-7888174D01*
X4664944Y-7888174D02*
X4683991Y-7878650D01*
X4683991Y-7878650D02*
X4712563Y-7878650D01*
X4712563Y-7878650D02*
X4731610Y-7888174D01*
X4731610Y-7888174D02*
X4741134Y-7907222D01*
X4741134Y-7907222D02*
X4741134Y-8011984D01*
X4741134Y-7907222D02*
X4750658Y-7888174D01*
X4750658Y-7888174D02*
X4769705Y-7878650D01*
X4769705Y-7878650D02*
X4798277Y-7878650D01*
X4798277Y-7878650D02*
X4817325Y-7888174D01*
X4817325Y-7888174D02*
X4826848Y-7907222D01*
X4826848Y-7907222D02*
X4826848Y-8011984D01*
X4922086Y-8011984D02*
X4922086Y-7878650D01*
X4922086Y-7897698D02*
X4931610Y-7888174D01*
X4931610Y-7888174D02*
X4950658Y-7878650D01*
X4950658Y-7878650D02*
X4979229Y-7878650D01*
X4979229Y-7878650D02*
X4998277Y-7888174D01*
X4998277Y-7888174D02*
X5007801Y-7907222D01*
X5007801Y-7907222D02*
X5007801Y-8011984D01*
X5007801Y-7907222D02*
X5017325Y-7888174D01*
X5017325Y-7888174D02*
X5036372Y-7878650D01*
X5036372Y-7878650D02*
X5064944Y-7878650D01*
X5064944Y-7878650D02*
X5083991Y-7888174D01*
X5083991Y-7888174D02*
X5093515Y-7907222D01*
X5093515Y-7907222D02*
X5093515Y-8011984D01*
X5483991Y-7802460D02*
X5312563Y-8059603D01*
X5741134Y-7811984D02*
X5760182Y-7811984D01*
X5760182Y-7811984D02*
X5779229Y-7821508D01*
X5779229Y-7821508D02*
X5788753Y-7831031D01*
X5788753Y-7831031D02*
X5798277Y-7850079D01*
X5798277Y-7850079D02*
X5807801Y-7888174D01*
X5807801Y-7888174D02*
X5807801Y-7935793D01*
X5807801Y-7935793D02*
X5798277Y-7973888D01*
X5798277Y-7973888D02*
X5788753Y-7992936D01*
X5788753Y-7992936D02*
X5779229Y-8002460D01*
X5779229Y-8002460D02*
X5760182Y-8011984D01*
X5760182Y-8011984D02*
X5741134Y-8011984D01*
X5741134Y-8011984D02*
X5722086Y-8002460D01*
X5722086Y-8002460D02*
X5712563Y-7992936D01*
X5712563Y-7992936D02*
X5703039Y-7973888D01*
X5703039Y-7973888D02*
X5693515Y-7935793D01*
X5693515Y-7935793D02*
X5693515Y-7888174D01*
X5693515Y-7888174D02*
X5703039Y-7850079D01*
X5703039Y-7850079D02*
X5712563Y-7831031D01*
X5712563Y-7831031D02*
X5722086Y-7821508D01*
X5722086Y-7821508D02*
X5741134Y-7811984D01*
X5893515Y-7992936D02*
X5903039Y-8002460D01*
X5903039Y-8002460D02*
X5893515Y-8011984D01*
X5893515Y-8011984D02*
X5883991Y-8002460D01*
X5883991Y-8002460D02*
X5893515Y-7992936D01*
X5893515Y-7992936D02*
X5893515Y-8011984D01*
X6026848Y-7811984D02*
X6045896Y-7811984D01*
X6045896Y-7811984D02*
X6064944Y-7821508D01*
X6064944Y-7821508D02*
X6074467Y-7831031D01*
X6074467Y-7831031D02*
X6083991Y-7850079D01*
X6083991Y-7850079D02*
X6093515Y-7888174D01*
X6093515Y-7888174D02*
X6093515Y-7935793D01*
X6093515Y-7935793D02*
X6083991Y-7973888D01*
X6083991Y-7973888D02*
X6074467Y-7992936D01*
X6074467Y-7992936D02*
X6064944Y-8002460D01*
X6064944Y-8002460D02*
X6045896Y-8011984D01*
X6045896Y-8011984D02*
X6026848Y-8011984D01*
X6026848Y-8011984D02*
X6007801Y-8002460D01*
X6007801Y-8002460D02*
X5998277Y-7992936D01*
X5998277Y-7992936D02*
X5988753Y-7973888D01*
X5988753Y-7973888D02*
X5979229Y-7935793D01*
X5979229Y-7935793D02*
X5979229Y-7888174D01*
X5979229Y-7888174D02*
X5988753Y-7850079D01*
X5988753Y-7850079D02*
X5998277Y-7831031D01*
X5998277Y-7831031D02*
X6007801Y-7821508D01*
X6007801Y-7821508D02*
X6026848Y-7811984D01*
X6160182Y-7811984D02*
X6283991Y-7811984D01*
X6283991Y-7811984D02*
X6217325Y-7888174D01*
X6217325Y-7888174D02*
X6245896Y-7888174D01*
X6245896Y-7888174D02*
X6264944Y-7897698D01*
X6264944Y-7897698D02*
X6274467Y-7907222D01*
X6274467Y-7907222D02*
X6283991Y-7926269D01*
X6283991Y-7926269D02*
X6283991Y-7973888D01*
X6283991Y-7973888D02*
X6274467Y-7992936D01*
X6274467Y-7992936D02*
X6264944Y-8002460D01*
X6264944Y-8002460D02*
X6245896Y-8011984D01*
X6245896Y-8011984D02*
X6188753Y-8011984D01*
X6188753Y-8011984D02*
X6169706Y-8002460D01*
X6169706Y-8002460D02*
X6160182Y-7992936D01*
X6379229Y-8011984D02*
X6417325Y-8011984D01*
X6417325Y-8011984D02*
X6436372Y-8002460D01*
X6436372Y-8002460D02*
X6445896Y-7992936D01*
X6445896Y-7992936D02*
X6464944Y-7964365D01*
X6464944Y-7964365D02*
X6474467Y-7926269D01*
X6474467Y-7926269D02*
X6474467Y-7850079D01*
X6474467Y-7850079D02*
X6464944Y-7831031D01*
X6464944Y-7831031D02*
X6455420Y-7821508D01*
X6455420Y-7821508D02*
X6436372Y-7811984D01*
X6436372Y-7811984D02*
X6398277Y-7811984D01*
X6398277Y-7811984D02*
X6379229Y-7821508D01*
X6379229Y-7821508D02*
X6369706Y-7831031D01*
X6369706Y-7831031D02*
X6360182Y-7850079D01*
X6360182Y-7850079D02*
X6360182Y-7897698D01*
X6360182Y-7897698D02*
X6369706Y-7916746D01*
X6369706Y-7916746D02*
X6379229Y-7926269D01*
X6379229Y-7926269D02*
X6398277Y-7935793D01*
X6398277Y-7935793D02*
X6436372Y-7935793D01*
X6436372Y-7935793D02*
X6455420Y-7926269D01*
X6455420Y-7926269D02*
X6464944Y-7916746D01*
X6464944Y-7916746D02*
X6474467Y-7897698D01*
X6645896Y-7878650D02*
X6645896Y-8011984D01*
X6598277Y-7802460D02*
X6550658Y-7945317D01*
X6550658Y-7945317D02*
X6674467Y-7945317D01*
X6741134Y-7811984D02*
X6741134Y-7850079D01*
X6817325Y-7811984D02*
X6817325Y-7850079D01*
X7112563Y-8088174D02*
X7103039Y-8078650D01*
X7103039Y-8078650D02*
X7083991Y-8050079D01*
X7083991Y-8050079D02*
X7074468Y-8031031D01*
X7074468Y-8031031D02*
X7064944Y-8002460D01*
X7064944Y-8002460D02*
X7055420Y-7954841D01*
X7055420Y-7954841D02*
X7055420Y-7916746D01*
X7055420Y-7916746D02*
X7064944Y-7869127D01*
X7064944Y-7869127D02*
X7074468Y-7840555D01*
X7074468Y-7840555D02*
X7083991Y-7821508D01*
X7083991Y-7821508D02*
X7103039Y-7792936D01*
X7103039Y-7792936D02*
X7112563Y-7783412D01*
X7293515Y-8011984D02*
X7179229Y-8011984D01*
X7236372Y-8011984D02*
X7236372Y-7811984D01*
X7236372Y-7811984D02*
X7217325Y-7840555D01*
X7217325Y-7840555D02*
X7198277Y-7859603D01*
X7198277Y-7859603D02*
X7179229Y-7869127D01*
X7417325Y-7811984D02*
X7436372Y-7811984D01*
X7436372Y-7811984D02*
X7455420Y-7821508D01*
X7455420Y-7821508D02*
X7464944Y-7831031D01*
X7464944Y-7831031D02*
X7474468Y-7850079D01*
X7474468Y-7850079D02*
X7483991Y-7888174D01*
X7483991Y-7888174D02*
X7483991Y-7935793D01*
X7483991Y-7935793D02*
X7474468Y-7973888D01*
X7474468Y-7973888D02*
X7464944Y-7992936D01*
X7464944Y-7992936D02*
X7455420Y-8002460D01*
X7455420Y-8002460D02*
X7436372Y-8011984D01*
X7436372Y-8011984D02*
X7417325Y-8011984D01*
X7417325Y-8011984D02*
X7398277Y-8002460D01*
X7398277Y-8002460D02*
X7388753Y-7992936D01*
X7388753Y-7992936D02*
X7379229Y-7973888D01*
X7379229Y-7973888D02*
X7369706Y-7935793D01*
X7369706Y-7935793D02*
X7369706Y-7888174D01*
X7369706Y-7888174D02*
X7379229Y-7850079D01*
X7379229Y-7850079D02*
X7388753Y-7831031D01*
X7388753Y-7831031D02*
X7398277Y-7821508D01*
X7398277Y-7821508D02*
X7417325Y-7811984D01*
X7722087Y-8011984D02*
X7722087Y-7811984D01*
X7807801Y-8011984D02*
X7807801Y-7907222D01*
X7807801Y-7907222D02*
X7798277Y-7888174D01*
X7798277Y-7888174D02*
X7779230Y-7878650D01*
X7779230Y-7878650D02*
X7750658Y-7878650D01*
X7750658Y-7878650D02*
X7731610Y-7888174D01*
X7731610Y-7888174D02*
X7722087Y-7897698D01*
X7931610Y-8011984D02*
X7912563Y-8002460D01*
X7912563Y-8002460D02*
X7903039Y-7992936D01*
X7903039Y-7992936D02*
X7893515Y-7973888D01*
X7893515Y-7973888D02*
X7893515Y-7916746D01*
X7893515Y-7916746D02*
X7903039Y-7897698D01*
X7903039Y-7897698D02*
X7912563Y-7888174D01*
X7912563Y-7888174D02*
X7931610Y-7878650D01*
X7931610Y-7878650D02*
X7960182Y-7878650D01*
X7960182Y-7878650D02*
X7979230Y-7888174D01*
X7979230Y-7888174D02*
X7988753Y-7897698D01*
X7988753Y-7897698D02*
X7998277Y-7916746D01*
X7998277Y-7916746D02*
X7998277Y-7973888D01*
X7998277Y-7973888D02*
X7988753Y-7992936D01*
X7988753Y-7992936D02*
X7979230Y-8002460D01*
X7979230Y-8002460D02*
X7960182Y-8011984D01*
X7960182Y-8011984D02*
X7931610Y-8011984D01*
X8112563Y-8011984D02*
X8093515Y-8002460D01*
X8093515Y-8002460D02*
X8083991Y-7983412D01*
X8083991Y-7983412D02*
X8083991Y-7811984D01*
X8264944Y-8002460D02*
X8245896Y-8011984D01*
X8245896Y-8011984D02*
X8207801Y-8011984D01*
X8207801Y-8011984D02*
X8188753Y-8002460D01*
X8188753Y-8002460D02*
X8179230Y-7983412D01*
X8179230Y-7983412D02*
X8179230Y-7907222D01*
X8179230Y-7907222D02*
X8188753Y-7888174D01*
X8188753Y-7888174D02*
X8207801Y-7878650D01*
X8207801Y-7878650D02*
X8245896Y-7878650D01*
X8245896Y-7878650D02*
X8264944Y-7888174D01*
X8264944Y-7888174D02*
X8274468Y-7907222D01*
X8274468Y-7907222D02*
X8274468Y-7926269D01*
X8274468Y-7926269D02*
X8179230Y-7945317D01*
X8350658Y-8002460D02*
X8369706Y-8011984D01*
X8369706Y-8011984D02*
X8407801Y-8011984D01*
X8407801Y-8011984D02*
X8426849Y-8002460D01*
X8426849Y-8002460D02*
X8436373Y-7983412D01*
X8436373Y-7983412D02*
X8436373Y-7973888D01*
X8436373Y-7973888D02*
X8426849Y-7954841D01*
X8426849Y-7954841D02*
X8407801Y-7945317D01*
X8407801Y-7945317D02*
X8379230Y-7945317D01*
X8379230Y-7945317D02*
X8360182Y-7935793D01*
X8360182Y-7935793D02*
X8350658Y-7916746D01*
X8350658Y-7916746D02*
X8350658Y-7907222D01*
X8350658Y-7907222D02*
X8360182Y-7888174D01*
X8360182Y-7888174D02*
X8379230Y-7878650D01*
X8379230Y-7878650D02*
X8407801Y-7878650D01*
X8407801Y-7878650D02*
X8426849Y-7888174D01*
X8503039Y-8088174D02*
X8512563Y-8078650D01*
X8512563Y-8078650D02*
X8531611Y-8050079D01*
X8531611Y-8050079D02*
X8541134Y-8031031D01*
X8541134Y-8031031D02*
X8550658Y-8002460D01*
X8550658Y-8002460D02*
X8560182Y-7954841D01*
X8560182Y-7954841D02*
X8560182Y-7916746D01*
X8560182Y-7916746D02*
X8550658Y-7869127D01*
X8550658Y-7869127D02*
X8541134Y-7840555D01*
X8541134Y-7840555D02*
X8531611Y-7821508D01*
X8531611Y-7821508D02*
X8512563Y-7792936D01*
X8512563Y-7792936D02*
X8503039Y-7783412D01*
X3508211Y-8255211D02*
X3508211Y-8113789D01*
X3366789Y-8113789D01*
X3366789Y-8255211D01*
X3508211Y-8255211D01*
X3788753Y-8095031D02*
X3798277Y-8085508D01*
X3798277Y-8085508D02*
X3817324Y-8075984D01*
X3817324Y-8075984D02*
X3864943Y-8075984D01*
X3864943Y-8075984D02*
X3883991Y-8085508D01*
X3883991Y-8085508D02*
X3893515Y-8095031D01*
X3893515Y-8095031D02*
X3903039Y-8114079D01*
X3903039Y-8114079D02*
X3903039Y-8133127D01*
X3903039Y-8133127D02*
X3893515Y-8161698D01*
X3893515Y-8161698D02*
X3779229Y-8275984D01*
X3779229Y-8275984D02*
X3903039Y-8275984D01*
X3988753Y-8256936D02*
X3998277Y-8266460D01*
X3998277Y-8266460D02*
X3988753Y-8275984D01*
X3988753Y-8275984D02*
X3979229Y-8266460D01*
X3979229Y-8266460D02*
X3988753Y-8256936D01*
X3988753Y-8256936D02*
X3988753Y-8275984D01*
X4074467Y-8095031D02*
X4083991Y-8085508D01*
X4083991Y-8085508D02*
X4103039Y-8075984D01*
X4103039Y-8075984D02*
X4150658Y-8075984D01*
X4150658Y-8075984D02*
X4169705Y-8085508D01*
X4169705Y-8085508D02*
X4179229Y-8095031D01*
X4179229Y-8095031D02*
X4188753Y-8114079D01*
X4188753Y-8114079D02*
X4188753Y-8133127D01*
X4188753Y-8133127D02*
X4179229Y-8161698D01*
X4179229Y-8161698D02*
X4064943Y-8275984D01*
X4064943Y-8275984D02*
X4188753Y-8275984D01*
X4312563Y-8075984D02*
X4331610Y-8075984D01*
X4331610Y-8075984D02*
X4350658Y-8085508D01*
X4350658Y-8085508D02*
X4360182Y-8095031D01*
X4360182Y-8095031D02*
X4369705Y-8114079D01*
X4369705Y-8114079D02*
X4379229Y-8152174D01*
X4379229Y-8152174D02*
X4379229Y-8199793D01*
X4379229Y-8199793D02*
X4369705Y-8237888D01*
X4369705Y-8237888D02*
X4360182Y-8256936D01*
X4360182Y-8256936D02*
X4350658Y-8266460D01*
X4350658Y-8266460D02*
X4331610Y-8275984D01*
X4331610Y-8275984D02*
X4312563Y-8275984D01*
X4312563Y-8275984D02*
X4293515Y-8266460D01*
X4293515Y-8266460D02*
X4283991Y-8256936D01*
X4283991Y-8256936D02*
X4274467Y-8237888D01*
X4274467Y-8237888D02*
X4264944Y-8199793D01*
X4264944Y-8199793D02*
X4264944Y-8152174D01*
X4264944Y-8152174D02*
X4274467Y-8114079D01*
X4274467Y-8114079D02*
X4283991Y-8095031D01*
X4283991Y-8095031D02*
X4293515Y-8085508D01*
X4293515Y-8085508D02*
X4312563Y-8075984D01*
X4503039Y-8075984D02*
X4522086Y-8075984D01*
X4522086Y-8075984D02*
X4541134Y-8085508D01*
X4541134Y-8085508D02*
X4550658Y-8095031D01*
X4550658Y-8095031D02*
X4560182Y-8114079D01*
X4560182Y-8114079D02*
X4569705Y-8152174D01*
X4569705Y-8152174D02*
X4569705Y-8199793D01*
X4569705Y-8199793D02*
X4560182Y-8237888D01*
X4560182Y-8237888D02*
X4550658Y-8256936D01*
X4550658Y-8256936D02*
X4541134Y-8266460D01*
X4541134Y-8266460D02*
X4522086Y-8275984D01*
X4522086Y-8275984D02*
X4503039Y-8275984D01*
X4503039Y-8275984D02*
X4483991Y-8266460D01*
X4483991Y-8266460D02*
X4474467Y-8256936D01*
X4474467Y-8256936D02*
X4464944Y-8237888D01*
X4464944Y-8237888D02*
X4455420Y-8199793D01*
X4455420Y-8199793D02*
X4455420Y-8152174D01*
X4455420Y-8152174D02*
X4464944Y-8114079D01*
X4464944Y-8114079D02*
X4474467Y-8095031D01*
X4474467Y-8095031D02*
X4483991Y-8085508D01*
X4483991Y-8085508D02*
X4503039Y-8075984D01*
X4655420Y-8275984D02*
X4655420Y-8142650D01*
X4655420Y-8161698D02*
X4664944Y-8152174D01*
X4664944Y-8152174D02*
X4683991Y-8142650D01*
X4683991Y-8142650D02*
X4712563Y-8142650D01*
X4712563Y-8142650D02*
X4731610Y-8152174D01*
X4731610Y-8152174D02*
X4741134Y-8171222D01*
X4741134Y-8171222D02*
X4741134Y-8275984D01*
X4741134Y-8171222D02*
X4750658Y-8152174D01*
X4750658Y-8152174D02*
X4769705Y-8142650D01*
X4769705Y-8142650D02*
X4798277Y-8142650D01*
X4798277Y-8142650D02*
X4817325Y-8152174D01*
X4817325Y-8152174D02*
X4826848Y-8171222D01*
X4826848Y-8171222D02*
X4826848Y-8275984D01*
X4922086Y-8275984D02*
X4922086Y-8142650D01*
X4922086Y-8161698D02*
X4931610Y-8152174D01*
X4931610Y-8152174D02*
X4950658Y-8142650D01*
X4950658Y-8142650D02*
X4979229Y-8142650D01*
X4979229Y-8142650D02*
X4998277Y-8152174D01*
X4998277Y-8152174D02*
X5007801Y-8171222D01*
X5007801Y-8171222D02*
X5007801Y-8275984D01*
X5007801Y-8171222D02*
X5017325Y-8152174D01*
X5017325Y-8152174D02*
X5036372Y-8142650D01*
X5036372Y-8142650D02*
X5064944Y-8142650D01*
X5064944Y-8142650D02*
X5083991Y-8152174D01*
X5083991Y-8152174D02*
X5093515Y-8171222D01*
X5093515Y-8171222D02*
X5093515Y-8275984D01*
X5483991Y-8066460D02*
X5312563Y-8323603D01*
X5741134Y-8075984D02*
X5760182Y-8075984D01*
X5760182Y-8075984D02*
X5779229Y-8085508D01*
X5779229Y-8085508D02*
X5788753Y-8095031D01*
X5788753Y-8095031D02*
X5798277Y-8114079D01*
X5798277Y-8114079D02*
X5807801Y-8152174D01*
X5807801Y-8152174D02*
X5807801Y-8199793D01*
X5807801Y-8199793D02*
X5798277Y-8237888D01*
X5798277Y-8237888D02*
X5788753Y-8256936D01*
X5788753Y-8256936D02*
X5779229Y-8266460D01*
X5779229Y-8266460D02*
X5760182Y-8275984D01*
X5760182Y-8275984D02*
X5741134Y-8275984D01*
X5741134Y-8275984D02*
X5722086Y-8266460D01*
X5722086Y-8266460D02*
X5712563Y-8256936D01*
X5712563Y-8256936D02*
X5703039Y-8237888D01*
X5703039Y-8237888D02*
X5693515Y-8199793D01*
X5693515Y-8199793D02*
X5693515Y-8152174D01*
X5693515Y-8152174D02*
X5703039Y-8114079D01*
X5703039Y-8114079D02*
X5712563Y-8095031D01*
X5712563Y-8095031D02*
X5722086Y-8085508D01*
X5722086Y-8085508D02*
X5741134Y-8075984D01*
X5893515Y-8256936D02*
X5903039Y-8266460D01*
X5903039Y-8266460D02*
X5893515Y-8275984D01*
X5893515Y-8275984D02*
X5883991Y-8266460D01*
X5883991Y-8266460D02*
X5893515Y-8256936D01*
X5893515Y-8256936D02*
X5893515Y-8275984D01*
X6026848Y-8075984D02*
X6045896Y-8075984D01*
X6045896Y-8075984D02*
X6064944Y-8085508D01*
X6064944Y-8085508D02*
X6074467Y-8095031D01*
X6074467Y-8095031D02*
X6083991Y-8114079D01*
X6083991Y-8114079D02*
X6093515Y-8152174D01*
X6093515Y-8152174D02*
X6093515Y-8199793D01*
X6093515Y-8199793D02*
X6083991Y-8237888D01*
X6083991Y-8237888D02*
X6074467Y-8256936D01*
X6074467Y-8256936D02*
X6064944Y-8266460D01*
X6064944Y-8266460D02*
X6045896Y-8275984D01*
X6045896Y-8275984D02*
X6026848Y-8275984D01*
X6026848Y-8275984D02*
X6007801Y-8266460D01*
X6007801Y-8266460D02*
X5998277Y-8256936D01*
X5998277Y-8256936D02*
X5988753Y-8237888D01*
X5988753Y-8237888D02*
X5979229Y-8199793D01*
X5979229Y-8199793D02*
X5979229Y-8152174D01*
X5979229Y-8152174D02*
X5988753Y-8114079D01*
X5988753Y-8114079D02*
X5998277Y-8095031D01*
X5998277Y-8095031D02*
X6007801Y-8085508D01*
X6007801Y-8085508D02*
X6026848Y-8075984D01*
X6207801Y-8161698D02*
X6188753Y-8152174D01*
X6188753Y-8152174D02*
X6179229Y-8142650D01*
X6179229Y-8142650D02*
X6169706Y-8123603D01*
X6169706Y-8123603D02*
X6169706Y-8114079D01*
X6169706Y-8114079D02*
X6179229Y-8095031D01*
X6179229Y-8095031D02*
X6188753Y-8085508D01*
X6188753Y-8085508D02*
X6207801Y-8075984D01*
X6207801Y-8075984D02*
X6245896Y-8075984D01*
X6245896Y-8075984D02*
X6264944Y-8085508D01*
X6264944Y-8085508D02*
X6274467Y-8095031D01*
X6274467Y-8095031D02*
X6283991Y-8114079D01*
X6283991Y-8114079D02*
X6283991Y-8123603D01*
X6283991Y-8123603D02*
X6274467Y-8142650D01*
X6274467Y-8142650D02*
X6264944Y-8152174D01*
X6264944Y-8152174D02*
X6245896Y-8161698D01*
X6245896Y-8161698D02*
X6207801Y-8161698D01*
X6207801Y-8161698D02*
X6188753Y-8171222D01*
X6188753Y-8171222D02*
X6179229Y-8180746D01*
X6179229Y-8180746D02*
X6169706Y-8199793D01*
X6169706Y-8199793D02*
X6169706Y-8237888D01*
X6169706Y-8237888D02*
X6179229Y-8256936D01*
X6179229Y-8256936D02*
X6188753Y-8266460D01*
X6188753Y-8266460D02*
X6207801Y-8275984D01*
X6207801Y-8275984D02*
X6245896Y-8275984D01*
X6245896Y-8275984D02*
X6264944Y-8266460D01*
X6264944Y-8266460D02*
X6274467Y-8256936D01*
X6274467Y-8256936D02*
X6283991Y-8237888D01*
X6283991Y-8237888D02*
X6283991Y-8199793D01*
X6283991Y-8199793D02*
X6274467Y-8180746D01*
X6274467Y-8180746D02*
X6264944Y-8171222D01*
X6264944Y-8171222D02*
X6245896Y-8161698D01*
X6455420Y-8075984D02*
X6417325Y-8075984D01*
X6417325Y-8075984D02*
X6398277Y-8085508D01*
X6398277Y-8085508D02*
X6388753Y-8095031D01*
X6388753Y-8095031D02*
X6369706Y-8123603D01*
X6369706Y-8123603D02*
X6360182Y-8161698D01*
X6360182Y-8161698D02*
X6360182Y-8237888D01*
X6360182Y-8237888D02*
X6369706Y-8256936D01*
X6369706Y-8256936D02*
X6379229Y-8266460D01*
X6379229Y-8266460D02*
X6398277Y-8275984D01*
X6398277Y-8275984D02*
X6436372Y-8275984D01*
X6436372Y-8275984D02*
X6455420Y-8266460D01*
X6455420Y-8266460D02*
X6464944Y-8256936D01*
X6464944Y-8256936D02*
X6474467Y-8237888D01*
X6474467Y-8237888D02*
X6474467Y-8190269D01*
X6474467Y-8190269D02*
X6464944Y-8171222D01*
X6464944Y-8171222D02*
X6455420Y-8161698D01*
X6455420Y-8161698D02*
X6436372Y-8152174D01*
X6436372Y-8152174D02*
X6398277Y-8152174D01*
X6398277Y-8152174D02*
X6379229Y-8161698D01*
X6379229Y-8161698D02*
X6369706Y-8171222D01*
X6369706Y-8171222D02*
X6360182Y-8190269D01*
X6645896Y-8075984D02*
X6607801Y-8075984D01*
X6607801Y-8075984D02*
X6588753Y-8085508D01*
X6588753Y-8085508D02*
X6579229Y-8095031D01*
X6579229Y-8095031D02*
X6560182Y-8123603D01*
X6560182Y-8123603D02*
X6550658Y-8161698D01*
X6550658Y-8161698D02*
X6550658Y-8237888D01*
X6550658Y-8237888D02*
X6560182Y-8256936D01*
X6560182Y-8256936D02*
X6569706Y-8266460D01*
X6569706Y-8266460D02*
X6588753Y-8275984D01*
X6588753Y-8275984D02*
X6626848Y-8275984D01*
X6626848Y-8275984D02*
X6645896Y-8266460D01*
X6645896Y-8266460D02*
X6655420Y-8256936D01*
X6655420Y-8256936D02*
X6664944Y-8237888D01*
X6664944Y-8237888D02*
X6664944Y-8190269D01*
X6664944Y-8190269D02*
X6655420Y-8171222D01*
X6655420Y-8171222D02*
X6645896Y-8161698D01*
X6645896Y-8161698D02*
X6626848Y-8152174D01*
X6626848Y-8152174D02*
X6588753Y-8152174D01*
X6588753Y-8152174D02*
X6569706Y-8161698D01*
X6569706Y-8161698D02*
X6560182Y-8171222D01*
X6560182Y-8171222D02*
X6550658Y-8190269D01*
X6741134Y-8075984D02*
X6741134Y-8114079D01*
X6817325Y-8075984D02*
X6817325Y-8114079D01*
X7112563Y-8352174D02*
X7103039Y-8342650D01*
X7103039Y-8342650D02*
X7083991Y-8314079D01*
X7083991Y-8314079D02*
X7074468Y-8295031D01*
X7074468Y-8295031D02*
X7064944Y-8266460D01*
X7064944Y-8266460D02*
X7055420Y-8218841D01*
X7055420Y-8218841D02*
X7055420Y-8180746D01*
X7055420Y-8180746D02*
X7064944Y-8133127D01*
X7064944Y-8133127D02*
X7074468Y-8104555D01*
X7074468Y-8104555D02*
X7083991Y-8085508D01*
X7083991Y-8085508D02*
X7103039Y-8056936D01*
X7103039Y-8056936D02*
X7112563Y-8047412D01*
X7274468Y-8142650D02*
X7274468Y-8275984D01*
X7226848Y-8066460D02*
X7179229Y-8209317D01*
X7179229Y-8209317D02*
X7303039Y-8209317D01*
X7531610Y-8275984D02*
X7531610Y-8075984D01*
X7617325Y-8275984D02*
X7617325Y-8171222D01*
X7617325Y-8171222D02*
X7607801Y-8152174D01*
X7607801Y-8152174D02*
X7588753Y-8142650D01*
X7588753Y-8142650D02*
X7560182Y-8142650D01*
X7560182Y-8142650D02*
X7541134Y-8152174D01*
X7541134Y-8152174D02*
X7531610Y-8161698D01*
X7741134Y-8275984D02*
X7722087Y-8266460D01*
X7722087Y-8266460D02*
X7712563Y-8256936D01*
X7712563Y-8256936D02*
X7703039Y-8237888D01*
X7703039Y-8237888D02*
X7703039Y-8180746D01*
X7703039Y-8180746D02*
X7712563Y-8161698D01*
X7712563Y-8161698D02*
X7722087Y-8152174D01*
X7722087Y-8152174D02*
X7741134Y-8142650D01*
X7741134Y-8142650D02*
X7769706Y-8142650D01*
X7769706Y-8142650D02*
X7788753Y-8152174D01*
X7788753Y-8152174D02*
X7798277Y-8161698D01*
X7798277Y-8161698D02*
X7807801Y-8180746D01*
X7807801Y-8180746D02*
X7807801Y-8237888D01*
X7807801Y-8237888D02*
X7798277Y-8256936D01*
X7798277Y-8256936D02*
X7788753Y-8266460D01*
X7788753Y-8266460D02*
X7769706Y-8275984D01*
X7769706Y-8275984D02*
X7741134Y-8275984D01*
X7922087Y-8275984D02*
X7903039Y-8266460D01*
X7903039Y-8266460D02*
X7893515Y-8247412D01*
X7893515Y-8247412D02*
X7893515Y-8075984D01*
X8074468Y-8266460D02*
X8055420Y-8275984D01*
X8055420Y-8275984D02*
X8017325Y-8275984D01*
X8017325Y-8275984D02*
X7998277Y-8266460D01*
X7998277Y-8266460D02*
X7988753Y-8247412D01*
X7988753Y-8247412D02*
X7988753Y-8171222D01*
X7988753Y-8171222D02*
X7998277Y-8152174D01*
X7998277Y-8152174D02*
X8017325Y-8142650D01*
X8017325Y-8142650D02*
X8055420Y-8142650D01*
X8055420Y-8142650D02*
X8074468Y-8152174D01*
X8074468Y-8152174D02*
X8083991Y-8171222D01*
X8083991Y-8171222D02*
X8083991Y-8190269D01*
X8083991Y-8190269D02*
X7988753Y-8209317D01*
X8160182Y-8266460D02*
X8179230Y-8275984D01*
X8179230Y-8275984D02*
X8217325Y-8275984D01*
X8217325Y-8275984D02*
X8236372Y-8266460D01*
X8236372Y-8266460D02*
X8245896Y-8247412D01*
X8245896Y-8247412D02*
X8245896Y-8237888D01*
X8245896Y-8237888D02*
X8236372Y-8218841D01*
X8236372Y-8218841D02*
X8217325Y-8209317D01*
X8217325Y-8209317D02*
X8188753Y-8209317D01*
X8188753Y-8209317D02*
X8169706Y-8199793D01*
X8169706Y-8199793D02*
X8160182Y-8180746D01*
X8160182Y-8180746D02*
X8160182Y-8171222D01*
X8160182Y-8171222D02*
X8169706Y-8152174D01*
X8169706Y-8152174D02*
X8188753Y-8142650D01*
X8188753Y-8142650D02*
X8217325Y-8142650D01*
X8217325Y-8142650D02*
X8236372Y-8152174D01*
X8312563Y-8352174D02*
X8322087Y-8342650D01*
X8322087Y-8342650D02*
X8341134Y-8314079D01*
X8341134Y-8314079D02*
X8350658Y-8295031D01*
X8350658Y-8295031D02*
X8360182Y-8266460D01*
X8360182Y-8266460D02*
X8369706Y-8218841D01*
X8369706Y-8218841D02*
X8369706Y-8180746D01*
X8369706Y-8180746D02*
X8360182Y-8133127D01*
X8360182Y-8133127D02*
X8350658Y-8104555D01*
X8350658Y-8104555D02*
X8341134Y-8085508D01*
X8341134Y-8085508D02*
X8322087Y-8056936D01*
X8322087Y-8056936D02*
X8312563Y-8047412D01*
M02*
