%TF.GenerationSoftware,KiCad,Pcbnew,9.0.3*%
%TF.CreationDate,2025-07-11T14:37:00-05:00*%
%TF.ProjectId,drvplugin,64727670-6c75-4676-996e-2e6b69636164,rev?*%
%TF.SameCoordinates,Original*%
%TF.FileFunction,Legend,Top*%
%TF.FilePolarity,Positive*%
%FSLAX46Y46*%
G04 Gerber Fmt 4.6, Leading zero omitted, Abs format (unit mm)*
G04 Created by KiCad (PCBNEW 9.0.3) date 2025-07-11 14:37:00*
%MOMM*%
%LPD*%
G01*
G04 APERTURE LIST*
%ADD10C,0.150000*%
%ADD11C,0.187500*%
%ADD12C,0.254000*%
%ADD13C,0.127000*%
%ADD14C,0.120000*%
%ADD15C,0.200000*%
G04 APERTURE END LIST*
D10*
X42657541Y-45390945D02*
X42838969Y-45898945D01*
X42838969Y-45898945D02*
X43020398Y-45390945D01*
X43310683Y-45898945D02*
X43310683Y-45390945D01*
X43310683Y-45136945D02*
X43274397Y-45173231D01*
X43274397Y-45173231D02*
X43310683Y-45209517D01*
X43310683Y-45209517D02*
X43346969Y-45173231D01*
X43346969Y-45173231D02*
X43310683Y-45136945D01*
X43310683Y-45136945D02*
X43310683Y-45209517D01*
X43673540Y-45390945D02*
X43673540Y-45898945D01*
X43673540Y-45463517D02*
X43709826Y-45427231D01*
X43709826Y-45427231D02*
X43782397Y-45390945D01*
X43782397Y-45390945D02*
X43891254Y-45390945D01*
X43891254Y-45390945D02*
X43963826Y-45427231D01*
X43963826Y-45427231D02*
X44000112Y-45499802D01*
X44000112Y-45499802D02*
X44000112Y-45898945D01*
X44254112Y-45390945D02*
X44544398Y-45390945D01*
X44362969Y-45136945D02*
X44362969Y-45790088D01*
X44362969Y-45790088D02*
X44399255Y-45862660D01*
X44399255Y-45862660D02*
X44471826Y-45898945D01*
X44471826Y-45898945D02*
X44544398Y-45898945D01*
X44798398Y-45898945D02*
X44798398Y-45136945D01*
X45124970Y-45898945D02*
X45124970Y-45499802D01*
X45124970Y-45499802D02*
X45088684Y-45427231D01*
X45088684Y-45427231D02*
X45016112Y-45390945D01*
X45016112Y-45390945D02*
X44907255Y-45390945D01*
X44907255Y-45390945D02*
X44834684Y-45427231D01*
X44834684Y-45427231D02*
X44798398Y-45463517D01*
X45778113Y-45862660D02*
X45705541Y-45898945D01*
X45705541Y-45898945D02*
X45560399Y-45898945D01*
X45560399Y-45898945D02*
X45487827Y-45862660D01*
X45487827Y-45862660D02*
X45451541Y-45790088D01*
X45451541Y-45790088D02*
X45451541Y-45499802D01*
X45451541Y-45499802D02*
X45487827Y-45427231D01*
X45487827Y-45427231D02*
X45560399Y-45390945D01*
X45560399Y-45390945D02*
X45705541Y-45390945D01*
X45705541Y-45390945D02*
X45778113Y-45427231D01*
X45778113Y-45427231D02*
X45814399Y-45499802D01*
X45814399Y-45499802D02*
X45814399Y-45572374D01*
X45814399Y-45572374D02*
X45451541Y-45644945D01*
X46068399Y-45390945D02*
X46213542Y-45898945D01*
X46213542Y-45898945D02*
X46358684Y-45536088D01*
X46358684Y-45536088D02*
X46503827Y-45898945D01*
X46503827Y-45898945D02*
X46648970Y-45390945D01*
X46939256Y-45898945D02*
X46939256Y-45390945D01*
X46939256Y-45536088D02*
X46975542Y-45463517D01*
X46975542Y-45463517D02*
X47011828Y-45427231D01*
X47011828Y-45427231D02*
X47084399Y-45390945D01*
X47084399Y-45390945D02*
X47156970Y-45390945D01*
X47701256Y-45862660D02*
X47628684Y-45898945D01*
X47628684Y-45898945D02*
X47483542Y-45898945D01*
X47483542Y-45898945D02*
X47410970Y-45862660D01*
X47410970Y-45862660D02*
X47374684Y-45790088D01*
X47374684Y-45790088D02*
X47374684Y-45499802D01*
X47374684Y-45499802D02*
X47410970Y-45427231D01*
X47410970Y-45427231D02*
X47483542Y-45390945D01*
X47483542Y-45390945D02*
X47628684Y-45390945D01*
X47628684Y-45390945D02*
X47701256Y-45427231D01*
X47701256Y-45427231D02*
X47737542Y-45499802D01*
X47737542Y-45499802D02*
X47737542Y-45572374D01*
X47737542Y-45572374D02*
X47374684Y-45644945D01*
X48064113Y-45390945D02*
X48064113Y-45898945D01*
X48064113Y-45463517D02*
X48100399Y-45427231D01*
X48100399Y-45427231D02*
X48172970Y-45390945D01*
X48172970Y-45390945D02*
X48281827Y-45390945D01*
X48281827Y-45390945D02*
X48354399Y-45427231D01*
X48354399Y-45427231D02*
X48390685Y-45499802D01*
X48390685Y-45499802D02*
X48390685Y-45898945D01*
X49080114Y-45862660D02*
X49007542Y-45898945D01*
X49007542Y-45898945D02*
X48862399Y-45898945D01*
X48862399Y-45898945D02*
X48789828Y-45862660D01*
X48789828Y-45862660D02*
X48753542Y-45826374D01*
X48753542Y-45826374D02*
X48717256Y-45753802D01*
X48717256Y-45753802D02*
X48717256Y-45536088D01*
X48717256Y-45536088D02*
X48753542Y-45463517D01*
X48753542Y-45463517D02*
X48789828Y-45427231D01*
X48789828Y-45427231D02*
X48862399Y-45390945D01*
X48862399Y-45390945D02*
X49007542Y-45390945D01*
X49007542Y-45390945D02*
X49080114Y-45427231D01*
X49406685Y-45898945D02*
X49406685Y-45136945D01*
X49733257Y-45898945D02*
X49733257Y-45499802D01*
X49733257Y-45499802D02*
X49696971Y-45427231D01*
X49696971Y-45427231D02*
X49624399Y-45390945D01*
X49624399Y-45390945D02*
X49515542Y-45390945D01*
X49515542Y-45390945D02*
X49442971Y-45427231D01*
X49442971Y-45427231D02*
X49406685Y-45463517D01*
X50096114Y-45826374D02*
X50132400Y-45862660D01*
X50132400Y-45862660D02*
X50096114Y-45898945D01*
X50096114Y-45898945D02*
X50059828Y-45862660D01*
X50059828Y-45862660D02*
X50096114Y-45826374D01*
X50096114Y-45826374D02*
X50096114Y-45898945D01*
X50785543Y-45862660D02*
X50712971Y-45898945D01*
X50712971Y-45898945D02*
X50567828Y-45898945D01*
X50567828Y-45898945D02*
X50495257Y-45862660D01*
X50495257Y-45862660D02*
X50458971Y-45826374D01*
X50458971Y-45826374D02*
X50422685Y-45753802D01*
X50422685Y-45753802D02*
X50422685Y-45536088D01*
X50422685Y-45536088D02*
X50458971Y-45463517D01*
X50458971Y-45463517D02*
X50495257Y-45427231D01*
X50495257Y-45427231D02*
X50567828Y-45390945D01*
X50567828Y-45390945D02*
X50712971Y-45390945D01*
X50712971Y-45390945D02*
X50785543Y-45427231D01*
X51220971Y-45898945D02*
X51148400Y-45862660D01*
X51148400Y-45862660D02*
X51112114Y-45826374D01*
X51112114Y-45826374D02*
X51075828Y-45753802D01*
X51075828Y-45753802D02*
X51075828Y-45536088D01*
X51075828Y-45536088D02*
X51112114Y-45463517D01*
X51112114Y-45463517D02*
X51148400Y-45427231D01*
X51148400Y-45427231D02*
X51220971Y-45390945D01*
X51220971Y-45390945D02*
X51329828Y-45390945D01*
X51329828Y-45390945D02*
X51402400Y-45427231D01*
X51402400Y-45427231D02*
X51438686Y-45463517D01*
X51438686Y-45463517D02*
X51474971Y-45536088D01*
X51474971Y-45536088D02*
X51474971Y-45753802D01*
X51474971Y-45753802D02*
X51438686Y-45826374D01*
X51438686Y-45826374D02*
X51402400Y-45862660D01*
X51402400Y-45862660D02*
X51329828Y-45898945D01*
X51329828Y-45898945D02*
X51220971Y-45898945D01*
X51801543Y-45898945D02*
X51801543Y-45390945D01*
X51801543Y-45463517D02*
X51837829Y-45427231D01*
X51837829Y-45427231D02*
X51910400Y-45390945D01*
X51910400Y-45390945D02*
X52019257Y-45390945D01*
X52019257Y-45390945D02*
X52091829Y-45427231D01*
X52091829Y-45427231D02*
X52128115Y-45499802D01*
X52128115Y-45499802D02*
X52128115Y-45898945D01*
X52128115Y-45499802D02*
X52164400Y-45427231D01*
X52164400Y-45427231D02*
X52236972Y-45390945D01*
X52236972Y-45390945D02*
X52345829Y-45390945D01*
X52345829Y-45390945D02*
X52418400Y-45427231D01*
X52418400Y-45427231D02*
X52454686Y-45499802D01*
X52454686Y-45499802D02*
X52454686Y-45898945D01*
D11*
X42473429Y-44346995D02*
X42473429Y-43584995D01*
X42473429Y-43584995D02*
X42654858Y-43584995D01*
X42654858Y-43584995D02*
X42763715Y-43621281D01*
X42763715Y-43621281D02*
X42836286Y-43693852D01*
X42836286Y-43693852D02*
X42872572Y-43766424D01*
X42872572Y-43766424D02*
X42908858Y-43911567D01*
X42908858Y-43911567D02*
X42908858Y-44020424D01*
X42908858Y-44020424D02*
X42872572Y-44165567D01*
X42872572Y-44165567D02*
X42836286Y-44238138D01*
X42836286Y-44238138D02*
X42763715Y-44310710D01*
X42763715Y-44310710D02*
X42654858Y-44346995D01*
X42654858Y-44346995D02*
X42473429Y-44346995D01*
X43670858Y-44346995D02*
X43416858Y-43984138D01*
X43235429Y-44346995D02*
X43235429Y-43584995D01*
X43235429Y-43584995D02*
X43525715Y-43584995D01*
X43525715Y-43584995D02*
X43598286Y-43621281D01*
X43598286Y-43621281D02*
X43634572Y-43657567D01*
X43634572Y-43657567D02*
X43670858Y-43730138D01*
X43670858Y-43730138D02*
X43670858Y-43838995D01*
X43670858Y-43838995D02*
X43634572Y-43911567D01*
X43634572Y-43911567D02*
X43598286Y-43947852D01*
X43598286Y-43947852D02*
X43525715Y-43984138D01*
X43525715Y-43984138D02*
X43235429Y-43984138D01*
X43888572Y-43584995D02*
X44142572Y-44346995D01*
X44142572Y-44346995D02*
X44396572Y-43584995D01*
X45049715Y-44346995D02*
X44614286Y-44346995D01*
X44832001Y-44346995D02*
X44832001Y-43584995D01*
X44832001Y-43584995D02*
X44759429Y-43693852D01*
X44759429Y-43693852D02*
X44686858Y-43766424D01*
X44686858Y-43766424D02*
X44614286Y-43802710D01*
X45521429Y-43584995D02*
X45594000Y-43584995D01*
X45594000Y-43584995D02*
X45666572Y-43621281D01*
X45666572Y-43621281D02*
X45702858Y-43657567D01*
X45702858Y-43657567D02*
X45739143Y-43730138D01*
X45739143Y-43730138D02*
X45775429Y-43875281D01*
X45775429Y-43875281D02*
X45775429Y-44056710D01*
X45775429Y-44056710D02*
X45739143Y-44201852D01*
X45739143Y-44201852D02*
X45702858Y-44274424D01*
X45702858Y-44274424D02*
X45666572Y-44310710D01*
X45666572Y-44310710D02*
X45594000Y-44346995D01*
X45594000Y-44346995D02*
X45521429Y-44346995D01*
X45521429Y-44346995D02*
X45448858Y-44310710D01*
X45448858Y-44310710D02*
X45412572Y-44274424D01*
X45412572Y-44274424D02*
X45376286Y-44201852D01*
X45376286Y-44201852D02*
X45340000Y-44056710D01*
X45340000Y-44056710D02*
X45340000Y-43875281D01*
X45340000Y-43875281D02*
X45376286Y-43730138D01*
X45376286Y-43730138D02*
X45412572Y-43657567D01*
X45412572Y-43657567D02*
X45448858Y-43621281D01*
X45448858Y-43621281D02*
X45521429Y-43584995D01*
X46029429Y-43584995D02*
X46501143Y-43584995D01*
X46501143Y-43584995D02*
X46247143Y-43875281D01*
X46247143Y-43875281D02*
X46356000Y-43875281D01*
X46356000Y-43875281D02*
X46428572Y-43911567D01*
X46428572Y-43911567D02*
X46464857Y-43947852D01*
X46464857Y-43947852D02*
X46501143Y-44020424D01*
X46501143Y-44020424D02*
X46501143Y-44201852D01*
X46501143Y-44201852D02*
X46464857Y-44274424D01*
X46464857Y-44274424D02*
X46428572Y-44310710D01*
X46428572Y-44310710D02*
X46356000Y-44346995D01*
X46356000Y-44346995D02*
X46138286Y-44346995D01*
X46138286Y-44346995D02*
X46065714Y-44310710D01*
X46065714Y-44310710D02*
X46029429Y-44274424D01*
X47371999Y-44310710D02*
X47480857Y-44346995D01*
X47480857Y-44346995D02*
X47662285Y-44346995D01*
X47662285Y-44346995D02*
X47734857Y-44310710D01*
X47734857Y-44310710D02*
X47771142Y-44274424D01*
X47771142Y-44274424D02*
X47807428Y-44201852D01*
X47807428Y-44201852D02*
X47807428Y-44129281D01*
X47807428Y-44129281D02*
X47771142Y-44056710D01*
X47771142Y-44056710D02*
X47734857Y-44020424D01*
X47734857Y-44020424D02*
X47662285Y-43984138D01*
X47662285Y-43984138D02*
X47517142Y-43947852D01*
X47517142Y-43947852D02*
X47444571Y-43911567D01*
X47444571Y-43911567D02*
X47408285Y-43875281D01*
X47408285Y-43875281D02*
X47371999Y-43802710D01*
X47371999Y-43802710D02*
X47371999Y-43730138D01*
X47371999Y-43730138D02*
X47408285Y-43657567D01*
X47408285Y-43657567D02*
X47444571Y-43621281D01*
X47444571Y-43621281D02*
X47517142Y-43584995D01*
X47517142Y-43584995D02*
X47698571Y-43584995D01*
X47698571Y-43584995D02*
X47807428Y-43621281D01*
X48242856Y-44346995D02*
X48170285Y-44310710D01*
X48170285Y-44310710D02*
X48133999Y-44274424D01*
X48133999Y-44274424D02*
X48097713Y-44201852D01*
X48097713Y-44201852D02*
X48097713Y-43984138D01*
X48097713Y-43984138D02*
X48133999Y-43911567D01*
X48133999Y-43911567D02*
X48170285Y-43875281D01*
X48170285Y-43875281D02*
X48242856Y-43838995D01*
X48242856Y-43838995D02*
X48351713Y-43838995D01*
X48351713Y-43838995D02*
X48424285Y-43875281D01*
X48424285Y-43875281D02*
X48460571Y-43911567D01*
X48460571Y-43911567D02*
X48496856Y-43984138D01*
X48496856Y-43984138D02*
X48496856Y-44201852D01*
X48496856Y-44201852D02*
X48460571Y-44274424D01*
X48460571Y-44274424D02*
X48424285Y-44310710D01*
X48424285Y-44310710D02*
X48351713Y-44346995D01*
X48351713Y-44346995D02*
X48242856Y-44346995D01*
X48932285Y-44346995D02*
X48859714Y-44310710D01*
X48859714Y-44310710D02*
X48823428Y-44238138D01*
X48823428Y-44238138D02*
X48823428Y-43584995D01*
X49512857Y-44310710D02*
X49440285Y-44346995D01*
X49440285Y-44346995D02*
X49295143Y-44346995D01*
X49295143Y-44346995D02*
X49222571Y-44310710D01*
X49222571Y-44310710D02*
X49186285Y-44238138D01*
X49186285Y-44238138D02*
X49186285Y-43947852D01*
X49186285Y-43947852D02*
X49222571Y-43875281D01*
X49222571Y-43875281D02*
X49295143Y-43838995D01*
X49295143Y-43838995D02*
X49440285Y-43838995D01*
X49440285Y-43838995D02*
X49512857Y-43875281D01*
X49512857Y-43875281D02*
X49549143Y-43947852D01*
X49549143Y-43947852D02*
X49549143Y-44020424D01*
X49549143Y-44020424D02*
X49186285Y-44092995D01*
X49875714Y-43838995D02*
X49875714Y-44346995D01*
X49875714Y-43911567D02*
X49912000Y-43875281D01*
X49912000Y-43875281D02*
X49984571Y-43838995D01*
X49984571Y-43838995D02*
X50093428Y-43838995D01*
X50093428Y-43838995D02*
X50166000Y-43875281D01*
X50166000Y-43875281D02*
X50202286Y-43947852D01*
X50202286Y-43947852D02*
X50202286Y-44346995D01*
X50674000Y-44346995D02*
X50601429Y-44310710D01*
X50601429Y-44310710D02*
X50565143Y-44274424D01*
X50565143Y-44274424D02*
X50528857Y-44201852D01*
X50528857Y-44201852D02*
X50528857Y-43984138D01*
X50528857Y-43984138D02*
X50565143Y-43911567D01*
X50565143Y-43911567D02*
X50601429Y-43875281D01*
X50601429Y-43875281D02*
X50674000Y-43838995D01*
X50674000Y-43838995D02*
X50782857Y-43838995D01*
X50782857Y-43838995D02*
X50855429Y-43875281D01*
X50855429Y-43875281D02*
X50891715Y-43911567D01*
X50891715Y-43911567D02*
X50928000Y-43984138D01*
X50928000Y-43984138D02*
X50928000Y-44201852D01*
X50928000Y-44201852D02*
X50891715Y-44274424D01*
X50891715Y-44274424D02*
X50855429Y-44310710D01*
X50855429Y-44310710D02*
X50782857Y-44346995D01*
X50782857Y-44346995D02*
X50674000Y-44346995D01*
X51254572Y-44346995D02*
X51254572Y-43838995D01*
X51254572Y-43584995D02*
X51218286Y-43621281D01*
X51218286Y-43621281D02*
X51254572Y-43657567D01*
X51254572Y-43657567D02*
X51290858Y-43621281D01*
X51290858Y-43621281D02*
X51254572Y-43584995D01*
X51254572Y-43584995D02*
X51254572Y-43657567D01*
X51944001Y-44346995D02*
X51944001Y-43584995D01*
X51944001Y-44310710D02*
X51871429Y-44346995D01*
X51871429Y-44346995D02*
X51726286Y-44346995D01*
X51726286Y-44346995D02*
X51653715Y-44310710D01*
X51653715Y-44310710D02*
X51617429Y-44274424D01*
X51617429Y-44274424D02*
X51581143Y-44201852D01*
X51581143Y-44201852D02*
X51581143Y-43984138D01*
X51581143Y-43984138D02*
X51617429Y-43911567D01*
X51617429Y-43911567D02*
X51653715Y-43875281D01*
X51653715Y-43875281D02*
X51726286Y-43838995D01*
X51726286Y-43838995D02*
X51871429Y-43838995D01*
X51871429Y-43838995D02*
X51944001Y-43875281D01*
X52887429Y-44346995D02*
X52887429Y-43584995D01*
X52887429Y-43584995D02*
X53068858Y-43584995D01*
X53068858Y-43584995D02*
X53177715Y-43621281D01*
X53177715Y-43621281D02*
X53250286Y-43693852D01*
X53250286Y-43693852D02*
X53286572Y-43766424D01*
X53286572Y-43766424D02*
X53322858Y-43911567D01*
X53322858Y-43911567D02*
X53322858Y-44020424D01*
X53322858Y-44020424D02*
X53286572Y-44165567D01*
X53286572Y-44165567D02*
X53250286Y-44238138D01*
X53250286Y-44238138D02*
X53177715Y-44310710D01*
X53177715Y-44310710D02*
X53068858Y-44346995D01*
X53068858Y-44346995D02*
X52887429Y-44346995D01*
X53649429Y-44346995D02*
X53649429Y-43838995D01*
X53649429Y-43984138D02*
X53685715Y-43911567D01*
X53685715Y-43911567D02*
X53722001Y-43875281D01*
X53722001Y-43875281D02*
X53794572Y-43838995D01*
X53794572Y-43838995D02*
X53867143Y-43838995D01*
X54121143Y-44346995D02*
X54121143Y-43838995D01*
X54121143Y-43584995D02*
X54084857Y-43621281D01*
X54084857Y-43621281D02*
X54121143Y-43657567D01*
X54121143Y-43657567D02*
X54157429Y-43621281D01*
X54157429Y-43621281D02*
X54121143Y-43584995D01*
X54121143Y-43584995D02*
X54121143Y-43657567D01*
X54411429Y-43838995D02*
X54592857Y-44346995D01*
X54592857Y-44346995D02*
X54774286Y-43838995D01*
X55354857Y-44310710D02*
X55282285Y-44346995D01*
X55282285Y-44346995D02*
X55137143Y-44346995D01*
X55137143Y-44346995D02*
X55064571Y-44310710D01*
X55064571Y-44310710D02*
X55028285Y-44238138D01*
X55028285Y-44238138D02*
X55028285Y-43947852D01*
X55028285Y-43947852D02*
X55064571Y-43875281D01*
X55064571Y-43875281D02*
X55137143Y-43838995D01*
X55137143Y-43838995D02*
X55282285Y-43838995D01*
X55282285Y-43838995D02*
X55354857Y-43875281D01*
X55354857Y-43875281D02*
X55391143Y-43947852D01*
X55391143Y-43947852D02*
X55391143Y-44020424D01*
X55391143Y-44020424D02*
X55028285Y-44092995D01*
X55717714Y-44346995D02*
X55717714Y-43838995D01*
X55717714Y-43984138D02*
X55754000Y-43911567D01*
X55754000Y-43911567D02*
X55790286Y-43875281D01*
X55790286Y-43875281D02*
X55862857Y-43838995D01*
X55862857Y-43838995D02*
X55935428Y-43838995D01*
D10*
X69711333Y-53704819D02*
X69378000Y-53228628D01*
X69139905Y-53704819D02*
X69139905Y-52704819D01*
X69139905Y-52704819D02*
X69520857Y-52704819D01*
X69520857Y-52704819D02*
X69616095Y-52752438D01*
X69616095Y-52752438D02*
X69663714Y-52800057D01*
X69663714Y-52800057D02*
X69711333Y-52895295D01*
X69711333Y-52895295D02*
X69711333Y-53038152D01*
X69711333Y-53038152D02*
X69663714Y-53133390D01*
X69663714Y-53133390D02*
X69616095Y-53181009D01*
X69616095Y-53181009D02*
X69520857Y-53228628D01*
X69520857Y-53228628D02*
X69139905Y-53228628D01*
X70568476Y-52704819D02*
X70378000Y-52704819D01*
X70378000Y-52704819D02*
X70282762Y-52752438D01*
X70282762Y-52752438D02*
X70235143Y-52800057D01*
X70235143Y-52800057D02*
X70139905Y-52942914D01*
X70139905Y-52942914D02*
X70092286Y-53133390D01*
X70092286Y-53133390D02*
X70092286Y-53514342D01*
X70092286Y-53514342D02*
X70139905Y-53609580D01*
X70139905Y-53609580D02*
X70187524Y-53657200D01*
X70187524Y-53657200D02*
X70282762Y-53704819D01*
X70282762Y-53704819D02*
X70473238Y-53704819D01*
X70473238Y-53704819D02*
X70568476Y-53657200D01*
X70568476Y-53657200D02*
X70616095Y-53609580D01*
X70616095Y-53609580D02*
X70663714Y-53514342D01*
X70663714Y-53514342D02*
X70663714Y-53276247D01*
X70663714Y-53276247D02*
X70616095Y-53181009D01*
X70616095Y-53181009D02*
X70568476Y-53133390D01*
X70568476Y-53133390D02*
X70473238Y-53085771D01*
X70473238Y-53085771D02*
X70282762Y-53085771D01*
X70282762Y-53085771D02*
X70187524Y-53133390D01*
X70187524Y-53133390D02*
X70139905Y-53181009D01*
X70139905Y-53181009D02*
X70092286Y-53276247D01*
X56659580Y-61116666D02*
X56707200Y-61164285D01*
X56707200Y-61164285D02*
X56754819Y-61307142D01*
X56754819Y-61307142D02*
X56754819Y-61402380D01*
X56754819Y-61402380D02*
X56707200Y-61545237D01*
X56707200Y-61545237D02*
X56611961Y-61640475D01*
X56611961Y-61640475D02*
X56516723Y-61688094D01*
X56516723Y-61688094D02*
X56326247Y-61735713D01*
X56326247Y-61735713D02*
X56183390Y-61735713D01*
X56183390Y-61735713D02*
X55992914Y-61688094D01*
X55992914Y-61688094D02*
X55897676Y-61640475D01*
X55897676Y-61640475D02*
X55802438Y-61545237D01*
X55802438Y-61545237D02*
X55754819Y-61402380D01*
X55754819Y-61402380D02*
X55754819Y-61307142D01*
X55754819Y-61307142D02*
X55802438Y-61164285D01*
X55802438Y-61164285D02*
X55850057Y-61116666D01*
X56754819Y-60164285D02*
X56754819Y-60735713D01*
X56754819Y-60449999D02*
X55754819Y-60449999D01*
X55754819Y-60449999D02*
X55897676Y-60545237D01*
X55897676Y-60545237D02*
X55992914Y-60640475D01*
X55992914Y-60640475D02*
X56040533Y-60735713D01*
D12*
X60654318Y-46517619D02*
X61682413Y-46517619D01*
X61682413Y-46517619D02*
X61803365Y-46457142D01*
X61803365Y-46457142D02*
X61863842Y-46396666D01*
X61863842Y-46396666D02*
X61924318Y-46275714D01*
X61924318Y-46275714D02*
X61924318Y-46033809D01*
X61924318Y-46033809D02*
X61863842Y-45912857D01*
X61863842Y-45912857D02*
X61803365Y-45852380D01*
X61803365Y-45852380D02*
X61682413Y-45791904D01*
X61682413Y-45791904D02*
X60654318Y-45791904D01*
X60775270Y-45247619D02*
X60714794Y-45187143D01*
X60714794Y-45187143D02*
X60654318Y-45066190D01*
X60654318Y-45066190D02*
X60654318Y-44763809D01*
X60654318Y-44763809D02*
X60714794Y-44642857D01*
X60714794Y-44642857D02*
X60775270Y-44582381D01*
X60775270Y-44582381D02*
X60896222Y-44521904D01*
X60896222Y-44521904D02*
X61017175Y-44521904D01*
X61017175Y-44521904D02*
X61198603Y-44582381D01*
X61198603Y-44582381D02*
X61924318Y-45308095D01*
X61924318Y-45308095D02*
X61924318Y-44521904D01*
D10*
X52733333Y-59554819D02*
X52400000Y-59078628D01*
X52161905Y-59554819D02*
X52161905Y-58554819D01*
X52161905Y-58554819D02*
X52542857Y-58554819D01*
X52542857Y-58554819D02*
X52638095Y-58602438D01*
X52638095Y-58602438D02*
X52685714Y-58650057D01*
X52685714Y-58650057D02*
X52733333Y-58745295D01*
X52733333Y-58745295D02*
X52733333Y-58888152D01*
X52733333Y-58888152D02*
X52685714Y-58983390D01*
X52685714Y-58983390D02*
X52638095Y-59031009D01*
X52638095Y-59031009D02*
X52542857Y-59078628D01*
X52542857Y-59078628D02*
X52161905Y-59078628D01*
X53114286Y-58650057D02*
X53161905Y-58602438D01*
X53161905Y-58602438D02*
X53257143Y-58554819D01*
X53257143Y-58554819D02*
X53495238Y-58554819D01*
X53495238Y-58554819D02*
X53590476Y-58602438D01*
X53590476Y-58602438D02*
X53638095Y-58650057D01*
X53638095Y-58650057D02*
X53685714Y-58745295D01*
X53685714Y-58745295D02*
X53685714Y-58840533D01*
X53685714Y-58840533D02*
X53638095Y-58983390D01*
X53638095Y-58983390D02*
X53066667Y-59554819D01*
X53066667Y-59554819D02*
X53685714Y-59554819D01*
X54454819Y-61066666D02*
X53978628Y-61399999D01*
X54454819Y-61638094D02*
X53454819Y-61638094D01*
X53454819Y-61638094D02*
X53454819Y-61257142D01*
X53454819Y-61257142D02*
X53502438Y-61161904D01*
X53502438Y-61161904D02*
X53550057Y-61114285D01*
X53550057Y-61114285D02*
X53645295Y-61066666D01*
X53645295Y-61066666D02*
X53788152Y-61066666D01*
X53788152Y-61066666D02*
X53883390Y-61114285D01*
X53883390Y-61114285D02*
X53931009Y-61161904D01*
X53931009Y-61161904D02*
X53978628Y-61257142D01*
X53978628Y-61257142D02*
X53978628Y-61638094D01*
X54454819Y-60114285D02*
X54454819Y-60685713D01*
X54454819Y-60399999D02*
X53454819Y-60399999D01*
X53454819Y-60399999D02*
X53597676Y-60495237D01*
X53597676Y-60495237D02*
X53692914Y-60590475D01*
X53692914Y-60590475D02*
X53740533Y-60685713D01*
D12*
X48154318Y-53628381D02*
X46884318Y-53628381D01*
X46884318Y-53628381D02*
X46884318Y-53326000D01*
X46884318Y-53326000D02*
X46944794Y-53144571D01*
X46944794Y-53144571D02*
X47065746Y-53023619D01*
X47065746Y-53023619D02*
X47186699Y-52963142D01*
X47186699Y-52963142D02*
X47428603Y-52902666D01*
X47428603Y-52902666D02*
X47610032Y-52902666D01*
X47610032Y-52902666D02*
X47851937Y-52963142D01*
X47851937Y-52963142D02*
X47972889Y-53023619D01*
X47972889Y-53023619D02*
X48093842Y-53144571D01*
X48093842Y-53144571D02*
X48154318Y-53326000D01*
X48154318Y-53326000D02*
X48154318Y-53628381D01*
X47005270Y-52418857D02*
X46944794Y-52358381D01*
X46944794Y-52358381D02*
X46884318Y-52237428D01*
X46884318Y-52237428D02*
X46884318Y-51935047D01*
X46884318Y-51935047D02*
X46944794Y-51814095D01*
X46944794Y-51814095D02*
X47005270Y-51753619D01*
X47005270Y-51753619D02*
X47126222Y-51693142D01*
X47126222Y-51693142D02*
X47247175Y-51693142D01*
X47247175Y-51693142D02*
X47428603Y-51753619D01*
X47428603Y-51753619D02*
X48154318Y-52479333D01*
X48154318Y-52479333D02*
X48154318Y-51693142D01*
D10*
X69661333Y-48904819D02*
X69328000Y-48428628D01*
X69089905Y-48904819D02*
X69089905Y-47904819D01*
X69089905Y-47904819D02*
X69470857Y-47904819D01*
X69470857Y-47904819D02*
X69566095Y-47952438D01*
X69566095Y-47952438D02*
X69613714Y-48000057D01*
X69613714Y-48000057D02*
X69661333Y-48095295D01*
X69661333Y-48095295D02*
X69661333Y-48238152D01*
X69661333Y-48238152D02*
X69613714Y-48333390D01*
X69613714Y-48333390D02*
X69566095Y-48381009D01*
X69566095Y-48381009D02*
X69470857Y-48428628D01*
X69470857Y-48428628D02*
X69089905Y-48428628D01*
X70566095Y-47904819D02*
X70089905Y-47904819D01*
X70089905Y-47904819D02*
X70042286Y-48381009D01*
X70042286Y-48381009D02*
X70089905Y-48333390D01*
X70089905Y-48333390D02*
X70185143Y-48285771D01*
X70185143Y-48285771D02*
X70423238Y-48285771D01*
X70423238Y-48285771D02*
X70518476Y-48333390D01*
X70518476Y-48333390D02*
X70566095Y-48381009D01*
X70566095Y-48381009D02*
X70613714Y-48476247D01*
X70613714Y-48476247D02*
X70613714Y-48714342D01*
X70613714Y-48714342D02*
X70566095Y-48809580D01*
X70566095Y-48809580D02*
X70518476Y-48857200D01*
X70518476Y-48857200D02*
X70423238Y-48904819D01*
X70423238Y-48904819D02*
X70185143Y-48904819D01*
X70185143Y-48904819D02*
X70089905Y-48857200D01*
X70089905Y-48857200D02*
X70042286Y-48809580D01*
X59408333Y-62554819D02*
X59075000Y-62078628D01*
X58836905Y-62554819D02*
X58836905Y-61554819D01*
X58836905Y-61554819D02*
X59217857Y-61554819D01*
X59217857Y-61554819D02*
X59313095Y-61602438D01*
X59313095Y-61602438D02*
X59360714Y-61650057D01*
X59360714Y-61650057D02*
X59408333Y-61745295D01*
X59408333Y-61745295D02*
X59408333Y-61888152D01*
X59408333Y-61888152D02*
X59360714Y-61983390D01*
X59360714Y-61983390D02*
X59313095Y-62031009D01*
X59313095Y-62031009D02*
X59217857Y-62078628D01*
X59217857Y-62078628D02*
X58836905Y-62078628D01*
X59741667Y-61554819D02*
X60360714Y-61554819D01*
X60360714Y-61554819D02*
X60027381Y-61935771D01*
X60027381Y-61935771D02*
X60170238Y-61935771D01*
X60170238Y-61935771D02*
X60265476Y-61983390D01*
X60265476Y-61983390D02*
X60313095Y-62031009D01*
X60313095Y-62031009D02*
X60360714Y-62126247D01*
X60360714Y-62126247D02*
X60360714Y-62364342D01*
X60360714Y-62364342D02*
X60313095Y-62459580D01*
X60313095Y-62459580D02*
X60265476Y-62507200D01*
X60265476Y-62507200D02*
X60170238Y-62554819D01*
X60170238Y-62554819D02*
X59884524Y-62554819D01*
X59884524Y-62554819D02*
X59789286Y-62507200D01*
X59789286Y-62507200D02*
X59741667Y-62459580D01*
X63729819Y-61676904D02*
X64539342Y-61676904D01*
X64539342Y-61676904D02*
X64634580Y-61629285D01*
X64634580Y-61629285D02*
X64682200Y-61581666D01*
X64682200Y-61581666D02*
X64729819Y-61486428D01*
X64729819Y-61486428D02*
X64729819Y-61295952D01*
X64729819Y-61295952D02*
X64682200Y-61200714D01*
X64682200Y-61200714D02*
X64634580Y-61153095D01*
X64634580Y-61153095D02*
X64539342Y-61105476D01*
X64539342Y-61105476D02*
X63729819Y-61105476D01*
X64729819Y-60105476D02*
X64729819Y-60676904D01*
X64729819Y-60391190D02*
X63729819Y-60391190D01*
X63729819Y-60391190D02*
X63872676Y-60486428D01*
X63872676Y-60486428D02*
X63967914Y-60581666D01*
X63967914Y-60581666D02*
X64015533Y-60676904D01*
D13*
X52730000Y-52283911D02*
X53165429Y-52283911D01*
X52947714Y-53045911D02*
X52947714Y-52283911D01*
X53310571Y-52283911D02*
X53564571Y-53045911D01*
X53564571Y-53045911D02*
X53818571Y-52283911D01*
X54036285Y-53009626D02*
X54145143Y-53045911D01*
X54145143Y-53045911D02*
X54326571Y-53045911D01*
X54326571Y-53045911D02*
X54399143Y-53009626D01*
X54399143Y-53009626D02*
X54435428Y-52973340D01*
X54435428Y-52973340D02*
X54471714Y-52900768D01*
X54471714Y-52900768D02*
X54471714Y-52828197D01*
X54471714Y-52828197D02*
X54435428Y-52755626D01*
X54435428Y-52755626D02*
X54399143Y-52719340D01*
X54399143Y-52719340D02*
X54326571Y-52683054D01*
X54326571Y-52683054D02*
X54181428Y-52646768D01*
X54181428Y-52646768D02*
X54108857Y-52610483D01*
X54108857Y-52610483D02*
X54072571Y-52574197D01*
X54072571Y-52574197D02*
X54036285Y-52501626D01*
X54036285Y-52501626D02*
X54036285Y-52429054D01*
X54036285Y-52429054D02*
X54072571Y-52356483D01*
X54072571Y-52356483D02*
X54108857Y-52320197D01*
X54108857Y-52320197D02*
X54181428Y-52283911D01*
X54181428Y-52283911D02*
X54362857Y-52283911D01*
X54362857Y-52283911D02*
X54471714Y-52320197D01*
X55197428Y-53045911D02*
X54761999Y-53045911D01*
X54979714Y-53045911D02*
X54979714Y-52283911D01*
X54979714Y-52283911D02*
X54907142Y-52392768D01*
X54907142Y-52392768D02*
X54834571Y-52465340D01*
X54834571Y-52465340D02*
X54761999Y-52501626D01*
D10*
X48411905Y-64254819D02*
X48411905Y-63254819D01*
X48411905Y-63254819D02*
X48650000Y-63254819D01*
X48650000Y-63254819D02*
X48792857Y-63302438D01*
X48792857Y-63302438D02*
X48888095Y-63397676D01*
X48888095Y-63397676D02*
X48935714Y-63492914D01*
X48935714Y-63492914D02*
X48983333Y-63683390D01*
X48983333Y-63683390D02*
X48983333Y-63826247D01*
X48983333Y-63826247D02*
X48935714Y-64016723D01*
X48935714Y-64016723D02*
X48888095Y-64111961D01*
X48888095Y-64111961D02*
X48792857Y-64207200D01*
X48792857Y-64207200D02*
X48650000Y-64254819D01*
X48650000Y-64254819D02*
X48411905Y-64254819D01*
X49935714Y-64254819D02*
X49364286Y-64254819D01*
X49650000Y-64254819D02*
X49650000Y-63254819D01*
X49650000Y-63254819D02*
X49554762Y-63397676D01*
X49554762Y-63397676D02*
X49459524Y-63492914D01*
X49459524Y-63492914D02*
X49364286Y-63540533D01*
X57633333Y-44879580D02*
X57585714Y-44927200D01*
X57585714Y-44927200D02*
X57442857Y-44974819D01*
X57442857Y-44974819D02*
X57347619Y-44974819D01*
X57347619Y-44974819D02*
X57204762Y-44927200D01*
X57204762Y-44927200D02*
X57109524Y-44831961D01*
X57109524Y-44831961D02*
X57061905Y-44736723D01*
X57061905Y-44736723D02*
X57014286Y-44546247D01*
X57014286Y-44546247D02*
X57014286Y-44403390D01*
X57014286Y-44403390D02*
X57061905Y-44212914D01*
X57061905Y-44212914D02*
X57109524Y-44117676D01*
X57109524Y-44117676D02*
X57204762Y-44022438D01*
X57204762Y-44022438D02*
X57347619Y-43974819D01*
X57347619Y-43974819D02*
X57442857Y-43974819D01*
X57442857Y-43974819D02*
X57585714Y-44022438D01*
X57585714Y-44022438D02*
X57633333Y-44070057D01*
X58014286Y-44070057D02*
X58061905Y-44022438D01*
X58061905Y-44022438D02*
X58157143Y-43974819D01*
X58157143Y-43974819D02*
X58395238Y-43974819D01*
X58395238Y-43974819D02*
X58490476Y-44022438D01*
X58490476Y-44022438D02*
X58538095Y-44070057D01*
X58538095Y-44070057D02*
X58585714Y-44165295D01*
X58585714Y-44165295D02*
X58585714Y-44260533D01*
X58585714Y-44260533D02*
X58538095Y-44403390D01*
X58538095Y-44403390D02*
X57966667Y-44974819D01*
X57966667Y-44974819D02*
X58585714Y-44974819D01*
X58783333Y-60404819D02*
X58450000Y-59928628D01*
X58211905Y-60404819D02*
X58211905Y-59404819D01*
X58211905Y-59404819D02*
X58592857Y-59404819D01*
X58592857Y-59404819D02*
X58688095Y-59452438D01*
X58688095Y-59452438D02*
X58735714Y-59500057D01*
X58735714Y-59500057D02*
X58783333Y-59595295D01*
X58783333Y-59595295D02*
X58783333Y-59738152D01*
X58783333Y-59738152D02*
X58735714Y-59833390D01*
X58735714Y-59833390D02*
X58688095Y-59881009D01*
X58688095Y-59881009D02*
X58592857Y-59928628D01*
X58592857Y-59928628D02*
X58211905Y-59928628D01*
X59640476Y-59738152D02*
X59640476Y-60404819D01*
X59402381Y-59357200D02*
X59164286Y-60071485D01*
X59164286Y-60071485D02*
X59783333Y-60071485D01*
X46004819Y-65819047D02*
X46004819Y-66295237D01*
X46004819Y-66295237D02*
X45004819Y-66295237D01*
X45481009Y-65485713D02*
X45481009Y-65152380D01*
X46004819Y-65009523D02*
X46004819Y-65485713D01*
X46004819Y-65485713D02*
X45004819Y-65485713D01*
X45004819Y-65485713D02*
X45004819Y-65009523D01*
X46004819Y-64580951D02*
X45004819Y-64580951D01*
X45004819Y-64580951D02*
X45004819Y-64342856D01*
X45004819Y-64342856D02*
X45052438Y-64199999D01*
X45052438Y-64199999D02*
X45147676Y-64104761D01*
X45147676Y-64104761D02*
X45242914Y-64057142D01*
X45242914Y-64057142D02*
X45433390Y-64009523D01*
X45433390Y-64009523D02*
X45576247Y-64009523D01*
X45576247Y-64009523D02*
X45766723Y-64057142D01*
X45766723Y-64057142D02*
X45861961Y-64104761D01*
X45861961Y-64104761D02*
X45957200Y-64199999D01*
X45957200Y-64199999D02*
X46004819Y-64342856D01*
X46004819Y-64342856D02*
X46004819Y-64580951D01*
X46004819Y-63057142D02*
X46004819Y-63628570D01*
X46004819Y-63342856D02*
X45004819Y-63342856D01*
X45004819Y-63342856D02*
X45147676Y-63438094D01*
X45147676Y-63438094D02*
X45242914Y-63533332D01*
X45242914Y-63533332D02*
X45290533Y-63628570D01*
X69718833Y-51459580D02*
X69671214Y-51507200D01*
X69671214Y-51507200D02*
X69528357Y-51554819D01*
X69528357Y-51554819D02*
X69433119Y-51554819D01*
X69433119Y-51554819D02*
X69290262Y-51507200D01*
X69290262Y-51507200D02*
X69195024Y-51411961D01*
X69195024Y-51411961D02*
X69147405Y-51316723D01*
X69147405Y-51316723D02*
X69099786Y-51126247D01*
X69099786Y-51126247D02*
X69099786Y-50983390D01*
X69099786Y-50983390D02*
X69147405Y-50792914D01*
X69147405Y-50792914D02*
X69195024Y-50697676D01*
X69195024Y-50697676D02*
X69290262Y-50602438D01*
X69290262Y-50602438D02*
X69433119Y-50554819D01*
X69433119Y-50554819D02*
X69528357Y-50554819D01*
X69528357Y-50554819D02*
X69671214Y-50602438D01*
X69671214Y-50602438D02*
X69718833Y-50650057D01*
X70052167Y-50554819D02*
X70671214Y-50554819D01*
X70671214Y-50554819D02*
X70337881Y-50935771D01*
X70337881Y-50935771D02*
X70480738Y-50935771D01*
X70480738Y-50935771D02*
X70575976Y-50983390D01*
X70575976Y-50983390D02*
X70623595Y-51031009D01*
X70623595Y-51031009D02*
X70671214Y-51126247D01*
X70671214Y-51126247D02*
X70671214Y-51364342D01*
X70671214Y-51364342D02*
X70623595Y-51459580D01*
X70623595Y-51459580D02*
X70575976Y-51507200D01*
X70575976Y-51507200D02*
X70480738Y-51554819D01*
X70480738Y-51554819D02*
X70195024Y-51554819D01*
X70195024Y-51554819D02*
X70099786Y-51507200D01*
X70099786Y-51507200D02*
X70052167Y-51459580D01*
D14*
%TO.C,R6*%
X66250936Y-52765000D02*
X66705064Y-52765000D01*
X66250936Y-54235000D02*
X66705064Y-54235000D01*
%TO.C,C1*%
X55890000Y-63643748D02*
X55890000Y-64166252D01*
X57360000Y-63643748D02*
X57360000Y-64166252D01*
D15*
%TO.C,U2*%
X63310000Y-47991000D02*
X63310000Y-49516000D01*
D14*
%TO.C,R2*%
X49272936Y-58565000D02*
X49727064Y-58565000D01*
X49272936Y-60035000D02*
X49727064Y-60035000D01*
%TO.C,R1*%
X53240000Y-63577936D02*
X53240000Y-64032064D01*
X54710000Y-63577936D02*
X54710000Y-64032064D01*
D15*
%TO.C,D2*%
X44628000Y-48721000D02*
X44628000Y-56661000D01*
X50532000Y-56661000D02*
X50532000Y-48091000D01*
D14*
%TO.C,R5*%
X66250936Y-47665000D02*
X66705064Y-47665000D01*
X66250936Y-49135000D02*
X66705064Y-49135000D01*
%TO.C,R3*%
X59802064Y-63120000D02*
X59347936Y-63120000D01*
X59802064Y-64590000D02*
X59347936Y-64590000D01*
%TO.C,U1*%
X61670000Y-58260000D02*
X61670000Y-59910000D01*
X61670000Y-61910000D02*
X61670000Y-63560000D01*
X61670000Y-63560000D02*
X66870000Y-63560000D01*
X66870000Y-58260000D02*
X61670000Y-58260000D01*
X66870000Y-63560000D02*
X66870000Y-58260000D01*
X61670000Y-59910000D02*
G75*
G02*
X61670000Y-61910000I0J-1000000D01*
G01*
%TO.C,TVS1*%
X51805000Y-47954000D02*
X51805000Y-55364000D01*
X56105000Y-47954000D02*
X51805000Y-47954000D01*
X56105000Y-47954000D02*
X56105000Y-55364000D01*
%TO.C,D1*%
X47265000Y-60950000D02*
X47265000Y-62650000D01*
X47265000Y-60950000D02*
X50525000Y-60950000D01*
X47265000Y-62650000D02*
X50525000Y-62650000D01*
%TO.C,C2*%
X57538748Y-45465000D02*
X58061252Y-45465000D01*
X57538748Y-46935000D02*
X58061252Y-46935000D01*
%TO.C,R4*%
X58722936Y-57365000D02*
X59177064Y-57365000D01*
X58722936Y-58835000D02*
X59177064Y-58835000D01*
%TO.C,LED1*%
X44840000Y-58915000D02*
X44840000Y-61775000D01*
X46760000Y-58915000D02*
X44840000Y-58915000D01*
X46760000Y-61775000D02*
X46760000Y-58915000D01*
%TO.C,C3*%
X66709252Y-50365000D02*
X66186748Y-50365000D01*
X66709252Y-51835000D02*
X66186748Y-51835000D01*
%TD*%
M02*
