%TF.GenerationSoftware,KiCad,Pcbnew,9.0.3*%
%TF.CreationDate,2025-07-11T14:36:58-05:00*%
%TF.ProjectId,drvplugin,64727670-6c75-4676-996e-2e6b69636164,rev?*%
%TF.SameCoordinates,Original*%
%TF.FileFunction,Drillmap*%
%TF.FilePolarity,Positive*%
%FSLAX45Y45*%
G04 Gerber Fmt 4.5, Leading zero omitted, Abs format (unit mm)*
G04 Created by KiCad (PCBNEW 9.0.3) date 2025-07-11 14:36:58*
%MOMM*%
%LPD*%
G01*
G04 APERTURE LIST*
%ADD10C,0.050000*%
%ADD11C,0.200000*%
G04 APERTURE END LIST*
D10*
X3540000Y-4210000D02*
X7350000Y-4210000D01*
X7350000Y-6750000D01*
X3540000Y-6750000D01*
X3540000Y-4210000D01*
D11*
X3798277Y-7063984D02*
X3798277Y-6863984D01*
X3798277Y-6863984D02*
X3845896Y-6863984D01*
X3845896Y-6863984D02*
X3874467Y-6873508D01*
X3874467Y-6873508D02*
X3893515Y-6892555D01*
X3893515Y-6892555D02*
X3903039Y-6911603D01*
X3903039Y-6911603D02*
X3912562Y-6949698D01*
X3912562Y-6949698D02*
X3912562Y-6978269D01*
X3912562Y-6978269D02*
X3903039Y-7016365D01*
X3903039Y-7016365D02*
X3893515Y-7035412D01*
X3893515Y-7035412D02*
X3874467Y-7054460D01*
X3874467Y-7054460D02*
X3845896Y-7063984D01*
X3845896Y-7063984D02*
X3798277Y-7063984D01*
X3998277Y-7063984D02*
X3998277Y-6930650D01*
X3998277Y-6968746D02*
X4007801Y-6949698D01*
X4007801Y-6949698D02*
X4017324Y-6940174D01*
X4017324Y-6940174D02*
X4036372Y-6930650D01*
X4036372Y-6930650D02*
X4055420Y-6930650D01*
X4122086Y-7063984D02*
X4122086Y-6930650D01*
X4122086Y-6863984D02*
X4112562Y-6873508D01*
X4112562Y-6873508D02*
X4122086Y-6883031D01*
X4122086Y-6883031D02*
X4131610Y-6873508D01*
X4131610Y-6873508D02*
X4122086Y-6863984D01*
X4122086Y-6863984D02*
X4122086Y-6883031D01*
X4245896Y-7063984D02*
X4226848Y-7054460D01*
X4226848Y-7054460D02*
X4217324Y-7035412D01*
X4217324Y-7035412D02*
X4217324Y-6863984D01*
X4350658Y-7063984D02*
X4331610Y-7054460D01*
X4331610Y-7054460D02*
X4322086Y-7035412D01*
X4322086Y-7035412D02*
X4322086Y-6863984D01*
X4579229Y-7063984D02*
X4579229Y-6863984D01*
X4579229Y-6863984D02*
X4645896Y-7006841D01*
X4645896Y-7006841D02*
X4712563Y-6863984D01*
X4712563Y-6863984D02*
X4712563Y-7063984D01*
X4893515Y-7063984D02*
X4893515Y-6959222D01*
X4893515Y-6959222D02*
X4883991Y-6940174D01*
X4883991Y-6940174D02*
X4864944Y-6930650D01*
X4864944Y-6930650D02*
X4826848Y-6930650D01*
X4826848Y-6930650D02*
X4807801Y-6940174D01*
X4893515Y-7054460D02*
X4874467Y-7063984D01*
X4874467Y-7063984D02*
X4826848Y-7063984D01*
X4826848Y-7063984D02*
X4807801Y-7054460D01*
X4807801Y-7054460D02*
X4798277Y-7035412D01*
X4798277Y-7035412D02*
X4798277Y-7016365D01*
X4798277Y-7016365D02*
X4807801Y-6997317D01*
X4807801Y-6997317D02*
X4826848Y-6987793D01*
X4826848Y-6987793D02*
X4874467Y-6987793D01*
X4874467Y-6987793D02*
X4893515Y-6978269D01*
X4988753Y-6930650D02*
X4988753Y-7130650D01*
X4988753Y-6940174D02*
X5007801Y-6930650D01*
X5007801Y-6930650D02*
X5045896Y-6930650D01*
X5045896Y-6930650D02*
X5064944Y-6940174D01*
X5064944Y-6940174D02*
X5074467Y-6949698D01*
X5074467Y-6949698D02*
X5083991Y-6968746D01*
X5083991Y-6968746D02*
X5083991Y-7025888D01*
X5083991Y-7025888D02*
X5074467Y-7044936D01*
X5074467Y-7044936D02*
X5064944Y-7054460D01*
X5064944Y-7054460D02*
X5045896Y-7063984D01*
X5045896Y-7063984D02*
X5007801Y-7063984D01*
X5007801Y-7063984D02*
X4988753Y-7054460D01*
X5169705Y-7044936D02*
X5179229Y-7054460D01*
X5179229Y-7054460D02*
X5169705Y-7063984D01*
X5169705Y-7063984D02*
X5160182Y-7054460D01*
X5160182Y-7054460D02*
X5169705Y-7044936D01*
X5169705Y-7044936D02*
X5169705Y-7063984D01*
X5169705Y-6940174D02*
X5179229Y-6949698D01*
X5179229Y-6949698D02*
X5169705Y-6959222D01*
X5169705Y-6959222D02*
X5160182Y-6949698D01*
X5160182Y-6949698D02*
X5169705Y-6940174D01*
X5169705Y-6940174D02*
X5169705Y-6959222D01*
M02*
